  0
SECTION
  2
BLOCKS
  0
ENDSEC
  0
SECTION
  2
ENTITIES
  0
LINE
  8
0
 10
22.8333
 20
62.6667
 11
28.8333
 21
62.6667
  0
LINE
  8
0
 10
28.8333
 20
62.6667
 11
28.8333
 21
59.6667
  0
LINE
  8
0
 10
28.8333
 20
59.6667
 11
34.8333
 21
59.6667
  0
LINE
  8
0
 10
34.8333
 20
59.6667
 11
34.8333
 21
62.6667
  0
LINE
  8
0
 10
34.8333
 20
62.6667
 11
40.8333
 21
62.6667
  0
LINE
  8
0
 10
40.8333
 20
62.6667
 11
40.8333
 21
59.6667
  0
LINE
  8
0
 10
40.8333
 20
59.6667
 11
46.8333
 21
59.6667
  0
LINE
  8
0
 10
46.8333
 20
59.6667
 11
46.8333
 21
62.6667
  0
LINE
  8
0
 10
46.8333
 20
62.6667
 11
52.8333
 21
62.6667
  0
LINE
  8
0
 10
52.8333
 20
62.6667
 11
52.8333
 21
59.6667
  0
LINE
  8
0
 10
52.8333
 20
59.6667
 11
58.8333
 21
59.6667
  0
LINE
  8
0
 10
58.8333
 20
59.6667
 11
58.8333
 21
62.6667
  0
LINE
  8
0
 10
58.8333
 20
62.6667
 11
69.6667
 21
62.6667
  0
LINE
  8
0
 10
69.6667
 20
62.6667
 11
69.6667
 21
72
  0
LINE
  8
0
 10
69.6667
 20
72
 11
72.6667
 21
72
  0
LINE
  8
0
 10
72.6667
 20
72
 11
72.6667
 21
78
  0
LINE
  8
0
 10
72.6667
 20
78
 11
69.6667
 21
78
  0
LINE
  8
0
 10
69.6667
 20
78
 11
69.6667
 21
84
  0
LINE
  8
0
 10
69.6667
 20
84
 11
72.6667
 21
84
  0
LINE
  8
0
 10
72.6667
 20
84
 11
72.6667
 21
90
  0
LINE
  8
0
 10
72.6667
 20
90
 11
69.6667
 21
90
  0
LINE
  8
0
 10
69.6667
 20
90
 11
69.6667
 21
96
  0
LINE
  8
0
 10
69.6667
 20
96
 11
72.6667
 21
96
  0
LINE
  8
0
 10
72.6667
 20
96
 11
72.6667
 21
102
  0
LINE
  8
0
 10
72.6667
 20
102
 11
69.6667
 21
102
  0
LINE
  8
0
 10
69.6667
 20
102
 11
69.6667
 21
111.333
  0
LINE
  8
0
 10
69.6667
 20
111.333
 11
58.8333
 21
111.333
  0
LINE
  8
0
 10
58.8333
 20
111.333
 11
58.8333
 21
114.333
  0
LINE
  8
0
 10
58.8333
 20
114.333
 11
52.8333
 21
114.333
  0
LINE
  8
0
 10
52.8333
 20
114.333
 11
52.8333
 21
111.333
  0
LINE
  8
0
 10
52.8333
 20
111.333
 11
46.8333
 21
111.333
  0
LINE
  8
0
 10
46.8333
 20
111.333
 11
46.8333
 21
114.333
  0
LINE
  8
0
 10
46.8333
 20
114.333
 11
40.8333
 21
114.333
  0
LINE
  8
0
 10
40.8333
 20
114.333
 11
40.8333
 21
111.333
  0
LINE
  8
0
 10
40.8333
 20
111.333
 11
34.8333
 21
111.333
  0
LINE
  8
0
 10
34.8333
 20
111.333
 11
34.8333
 21
114.333
  0
LINE
  8
0
 10
34.8333
 20
114.333
 11
28.8333
 21
114.333
  0
LINE
  8
0
 10
28.8333
 20
114.333
 11
28.8333
 21
111.333
  0
LINE
  8
0
 10
28.8333
 20
111.333
 11
22.8333
 21
111.333
  0
LINE
  8
0
 10
22.8333
 20
111.333
 11
22.8333
 21
114.333
  0
LINE
  8
0
 10
22.8333
 20
114.333
 11
16.8333
 21
114.333
  0
LINE
  8
0
 10
16.8333
 20
114.333
 11
16.8333
 21
111.333
  0
LINE
  8
0
 10
16.8333
 20
111.333
 11
6
 21
111.333
  0
LINE
  8
0
 10
6
 20
111.333
 11
6
 21
102
  0
LINE
  8
0
 10
6
 20
102
 11
3
 21
102
  0
LINE
  8
0
 10
3
 20
102
 11
3
 21
96
  0
LINE
  8
0
 10
3
 20
96
 11
6
 21
96
  0
LINE
  8
0
 10
6
 20
96
 11
6
 21
90
  0
LINE
  8
0
 10
6
 20
90
 11
3
 21
90
  0
LINE
  8
0
 10
3
 20
90
 11
3
 21
84
  0
LINE
  8
0
 10
3
 20
84
 11
6
 21
84
  0
LINE
  8
0
 10
6
 20
84
 11
6
 21
78
  0
LINE
  8
0
 10
6
 20
78
 11
3
 21
78
  0
LINE
  8
0
 10
3
 20
78
 11
3
 21
72
  0
LINE
  8
0
 10
3
 20
72
 11
6
 21
72
  0
LINE
  8
0
 10
6
 20
72
 11
6
 21
62.6667
  0
LINE
  8
0
 10
6
 20
62.6667
 11
16.8333
 21
62.6667
  0
LINE
  8
0
 10
16.8333
 20
62.6667
 11
16.8333
 21
59.6667
  0
LINE
  8
0
 10
16.8333
 20
59.6667
 11
22.8333
 21
59.6667
  0
LINE
  8
0
 10
22.8333
 20
59.6667
 11
22.8333
 21
62.6667
  0
LINE
  8
0
 10
13.9667
 20
89.6666
 11
13.9667
 21
106.4
  0
LINE
  8
0
 10
13.9667
 20
106.4
 11
61.7
 21
106.4
  0
LINE
  8
0
 10
61.7
 20
106.4
 11
61.7
 21
89.6666
  0
LINE
  8
0
 10
61.7
 20
89.6666
 11
13.9667
 21
89.6666
  0
LINE
  8
0
 10
30.4217
 20
68
 11
30.4217
 21
77.3333
  0
LINE
  8
0
 10
30.4217
 20
77.3333
 11
39.755
 21
77.3333
  0
LINE
  8
0
 10
39.755
 20
77.3333
 11
39.755
 21
68
  0
LINE
  8
0
 10
39.755
 20
68
 11
30.4217
 21
68
  0
LINE
  8
0
 10
55.564
 20
69.7036
 11
55.1063
 21
69.8135
  0
LINE
  8
0
 10
55.1063
 20
69.8135
 11
54.6714
 21
69.9936
  0
LINE
  8
0
 10
54.6714
 20
69.9936
 11
54.27
 21
70.2396
  0
LINE
  8
0
 10
54.27
 20
70.2396
 11
53.912
 21
70.5453
  0
LINE
  8
0
 10
53.912
 20
70.5453
 11
53.6063
 21
70.9033
  0
LINE
  8
0
 10
53.6063
 20
70.9033
 11
53.3603
 21
71.3047
  0
LINE
  8
0
 10
53.3603
 20
71.3047
 11
53.1802
 21
71.7396
  0
LINE
  8
0
 10
53.1802
 20
71.7396
 11
53.0703
 21
72.1973
  0
LINE
  8
0
 10
53.0703
 20
72.1973
 11
53.0333
 21
72.6667
  0
LINE
  8
0
 10
53.0333
 20
72.6667
 11
53.0703
 21
73.136
  0
LINE
  8
0
 10
53.0703
 20
73.136
 11
53.1802
 21
73.5937
  0
LINE
  8
0
 10
53.1802
 20
73.5937
 11
53.3603
 21
74.0286
  0
LINE
  8
0
 10
53.3603
 20
74.0286
 11
53.6063
 21
74.43
  0
LINE
  8
0
 10
53.6063
 20
74.43
 11
53.912
 21
74.788
  0
LINE
  8
0
 10
53.912
 20
74.788
 11
54.27
 21
75.0937
  0
LINE
  8
0
 10
54.27
 20
75.0937
 11
54.6714
 21
75.3397
  0
LINE
  8
0
 10
54.6714
 20
75.3397
 11
55.1063
 21
75.5198
  0
LINE
  8
0
 10
55.1063
 20
75.5198
 11
55.564
 21
75.6297
  0
LINE
  8
0
 10
55.564
 20
75.6297
 11
56.0333
 21
75.6667
  0
LINE
  8
0
 10
56.0333
 20
75.6667
 11
56.5026
 21
75.6297
  0
LINE
  8
0
 10
56.5026
 20
75.6297
 11
56.9604
 21
75.5198
  0
LINE
  8
0
 10
56.9604
 20
75.5198
 11
57.3953
 21
75.3397
  0
LINE
  8
0
 10
57.3953
 20
75.3397
 11
57.7967
 21
75.0937
  0
LINE
  8
0
 10
57.7967
 20
75.0937
 11
58.1546
 21
74.788
  0
LINE
  8
0
 10
58.1546
 20
74.788
 11
58.4604
 21
74.43
  0
LINE
  8
0
 10
58.4604
 20
74.43
 11
58.7063
 21
74.0286
  0
LINE
  8
0
 10
58.7063
 20
74.0286
 11
58.8865
 21
73.5937
  0
LINE
  8
0
 10
58.8865
 20
73.5937
 11
58.9964
 21
73.136
  0
LINE
  8
0
 10
58.9964
 20
73.136
 11
59.0333
 21
72.6667
  0
LINE
  8
0
 10
59.0333
 20
72.6667
 11
58.9964
 21
72.1973
  0
LINE
  8
0
 10
58.9964
 20
72.1973
 11
58.8865
 21
71.7396
  0
LINE
  8
0
 10
58.8865
 20
71.7396
 11
58.7063
 21
71.3047
  0
LINE
  8
0
 10
58.7063
 20
71.3047
 11
58.4604
 21
70.9033
  0
LINE
  8
0
 10
58.4604
 20
70.9033
 11
58.1546
 21
70.5453
  0
LINE
  8
0
 10
58.1546
 20
70.5453
 11
57.7967
 21
70.2396
  0
LINE
  8
0
 10
57.7967
 20
70.2396
 11
57.3953
 21
69.9936
  0
LINE
  8
0
 10
57.3953
 20
69.9936
 11
56.9604
 21
69.8135
  0
LINE
  8
0
 10
56.9604
 20
69.8135
 11
56.5026
 21
69.7036
  0
LINE
  8
0
 10
56.5026
 20
69.7036
 11
56.0333
 21
69.6667
  0
LINE
  8
0
 10
56.0333
 20
69.6667
 11
55.564
 21
69.7036
  0
LINE
  8
0
 10
90
 20
75.6
 11
96
 21
75.6
  0
LINE
  8
0
 10
96
 20
75.6
 11
96
 21
72.6
  0
LINE
  8
0
 10
96
 20
72.6
 11
102
 21
72.6
  0
LINE
  8
0
 10
102
 20
72.6
 11
102
 21
75.6
  0
LINE
  8
0
 10
102
 20
75.6
 11
108
 21
75.6
  0
LINE
  8
0
 10
108
 20
75.6
 11
108
 21
72.6
  0
LINE
  8
0
 10
108
 20
72.6
 11
114
 21
72.6
  0
LINE
  8
0
 10
114
 20
72.6
 11
114
 21
75.6
  0
LINE
  8
0
 10
114
 20
75.6
 11
120
 21
75.6
  0
LINE
  8
0
 10
120
 20
75.6
 11
120
 21
72.6
  0
LINE
  8
0
 10
120
 20
72.6
 11
132.333
 21
72.6
  0
LINE
  8
0
 10
132.333
 20
72.6
 11
132.333
 21
94.8
  0
LINE
  8
0
 10
132.333
 20
94.8
 11
120
 21
94.8
  0
LINE
  8
0
 10
120
 20
94.8
 11
120
 21
91.8
  0
LINE
  8
0
 10
120
 20
91.8
 11
114
 21
91.8
  0
LINE
  8
0
 10
114
 20
91.8
 11
114
 21
94.8
  0
LINE
  8
0
 10
114
 20
94.8
 11
108
 21
94.8
  0
LINE
  8
0
 10
108
 20
94.8
 11
108
 21
91.8
  0
LINE
  8
0
 10
108
 20
91.8
 11
102
 21
91.8
  0
LINE
  8
0
 10
102
 20
91.8
 11
102
 21
94.8
  0
LINE
  8
0
 10
102
 20
94.8
 11
96
 21
94.8
  0
LINE
  8
0
 10
96
 20
94.8
 11
96
 21
91.8
  0
LINE
  8
0
 10
96
 20
91.8
 11
90
 21
91.8
  0
LINE
  8
0
 10
90
 20
91.8
 11
90
 21
94.8
  0
LINE
  8
0
 10
90
 20
94.8
 11
77.6667
 21
94.8
  0
LINE
  8
0
 10
77.6667
 20
94.8
 11
77.6667
 21
72.6
  0
LINE
  8
0
 10
77.6667
 20
72.6
 11
90
 21
72.6
  0
LINE
  8
0
 10
90
 20
72.6
 11
90
 21
75.6
  0
LINE
  8
0
 10
90
 20
51.4
 11
96
 21
51.4
  0
LINE
  8
0
 10
96
 20
51.4
 11
96
 21
48.4
  0
LINE
  8
0
 10
96
 20
48.4
 11
102
 21
48.4
  0
LINE
  8
0
 10
102
 20
48.4
 11
102
 21
51.4
  0
LINE
  8
0
 10
102
 20
51.4
 11
108
 21
51.4
  0
LINE
  8
0
 10
108
 20
51.4
 11
108
 21
48.4
  0
LINE
  8
0
 10
108
 20
48.4
 11
114
 21
48.4
  0
LINE
  8
0
 10
114
 20
48.4
 11
114
 21
51.4
  0
LINE
  8
0
 10
114
 20
51.4
 11
120
 21
51.4
  0
LINE
  8
0
 10
120
 20
51.4
 11
120
 21
48.4
  0
LINE
  8
0
 10
120
 20
48.4
 11
132.333
 21
48.4
  0
LINE
  8
0
 10
132.333
 20
48.4
 11
132.333
 21
70.6
  0
LINE
  8
0
 10
132.333
 20
70.6
 11
120
 21
70.6
  0
LINE
  8
0
 10
120
 20
70.6
 11
120
 21
67.6
  0
LINE
  8
0
 10
120
 20
67.6
 11
114
 21
67.6
  0
LINE
  8
0
 10
114
 20
67.6
 11
114
 21
70.6
  0
LINE
  8
0
 10
114
 20
70.6
 11
108
 21
70.6
  0
LINE
  8
0
 10
108
 20
70.6
 11
108
 21
67.6
  0
LINE
  8
0
 10
108
 20
67.6
 11
102
 21
67.6
  0
LINE
  8
0
 10
102
 20
67.6
 11
102
 21
70.6
  0
LINE
  8
0
 10
102
 20
70.6
 11
96
 21
70.6
  0
LINE
  8
0
 10
96
 20
70.6
 11
96
 21
67.6
  0
LINE
  8
0
 10
96
 20
67.6
 11
90
 21
67.6
  0
LINE
  8
0
 10
90
 20
67.6
 11
90
 21
70.6
  0
LINE
  8
0
 10
90
 20
70.6
 11
77.6667
 21
70.6
  0
LINE
  8
0
 10
77.6667
 20
70.6
 11
77.6667
 21
48.4
  0
LINE
  8
0
 10
77.6667
 20
48.4
 11
90
 21
48.4
  0
LINE
  8
0
 10
90
 20
48.4
 11
90
 21
51.4
  0
LINE
  8
0
 10
75.6667
 20
57.6667
 11
0
 21
57.6667
  0
LINE
  8
0
 10
0
 20
57.6667
 11
0
 21
-3
  0
LINE
  8
0
 10
0
 20
-3
 11
75.6667
 21
-3
  0
LINE
  8
0
 10
75.6667
 20
-3
 11
75.6667
 21
57.6667
  0
LINE
  8
0
 10
69.6667
 20
42.3333
 11
69.6667
 21
51.6667
  0
LINE
  8
0
 10
69.6667
 20
51.6667
 11
58.8333
 21
51.6667
  0
LINE
  8
0
 10
58.8333
 20
51.6667
 11
58.8333
 21
54.6667
  0
LINE
  8
0
 10
58.8333
 20
54.6667
 11
72.6667
 21
54.6667
  0
LINE
  8
0
 10
72.6667
 20
54.6667
 11
72.6667
 21
42.3333
  0
LINE
  8
0
 10
72.6667
 20
42.3333
 11
69.6667
 21
42.3333
  0
LINE
  8
0
 10
3
 20
42.3333
 11
3
 21
54.6667
  0
LINE
  8
0
 10
3
 20
54.6667
 11
16.8333
 21
54.6667
  0
LINE
  8
0
 10
16.8333
 20
54.6667
 11
16.8333
 21
51.6667
  0
LINE
  8
0
 10
16.8333
 20
51.6667
 11
6
 21
51.6667
  0
LINE
  8
0
 10
6
 20
51.6667
 11
6
 21
42.3333
  0
LINE
  8
0
 10
6
 20
42.3333
 11
3
 21
42.3333
  0
LINE
  8
0
 10
46.8333
 20
51.6667
 11
46.8333
 21
54.6667
  0
LINE
  8
0
 10
46.8333
 20
54.6667
 11
52.8333
 21
54.6667
  0
LINE
  8
0
 10
52.8333
 20
54.6667
 11
52.8333
 21
51.6667
  0
LINE
  8
0
 10
52.8333
 20
51.6667
 11
46.8333
 21
51.6667
  0
LINE
  8
0
 10
34.8333
 20
51.6667
 11
34.8333
 21
54.6667
  0
LINE
  8
0
 10
34.8333
 20
54.6667
 11
40.8333
 21
54.6667
  0
LINE
  8
0
 10
40.8333
 20
54.6667
 11
40.8333
 21
51.6667
  0
LINE
  8
0
 10
40.8333
 20
51.6667
 11
34.8333
 21
51.6667
  0
LINE
  8
0
 10
22.8333
 20
51.6667
 11
22.8333
 21
54.6667
  0
LINE
  8
0
 10
22.8333
 20
54.6667
 11
28.8333
 21
54.6667
  0
LINE
  8
0
 10
28.8333
 20
54.6667
 11
28.8333
 21
51.6667
  0
LINE
  8
0
 10
28.8333
 20
51.6667
 11
22.8333
 21
51.6667
  0
LINE
  8
0
 10
69.6667
 20
30.3333
 11
69.6667
 21
36.3333
  0
LINE
  8
0
 10
69.6667
 20
36.3333
 11
72.6667
 21
36.3333
  0
LINE
  8
0
 10
72.6667
 20
36.3333
 11
72.6667
 21
30.3333
  0
LINE
  8
0
 10
72.6667
 20
30.3333
 11
69.6667
 21
30.3333
  0
LINE
  8
0
 10
3
 20
30.3333
 11
3
 21
36.3333
  0
LINE
  8
0
 10
3
 20
36.3333
 11
6
 21
36.3333
  0
LINE
  8
0
 10
6
 20
36.3333
 11
6
 21
30.3333
  0
LINE
  8
0
 10
6
 20
30.3333
 11
3
 21
30.3333
  0
LINE
  8
0
 10
69.6667
 20
18.3333
 11
69.6667
 21
24.3333
  0
LINE
  8
0
 10
69.6667
 20
24.3333
 11
72.6667
 21
24.3333
  0
LINE
  8
0
 10
72.6667
 20
24.3333
 11
72.6667
 21
18.3333
  0
LINE
  8
0
 10
72.6667
 20
18.3333
 11
69.6667
 21
18.3333
  0
LINE
  8
0
 10
3
 20
18.3333
 11
3
 21
24.3333
  0
LINE
  8
0
 10
3
 20
24.3333
 11
6
 21
24.3333
  0
LINE
  8
0
 10
6
 20
24.3333
 11
6
 21
18.3333
  0
LINE
  8
0
 10
6
 20
18.3333
 11
3
 21
18.3333
  0
LINE
  8
0
 10
58.8333
 20
0
 11
58.8333
 21
3
  0
LINE
  8
0
 10
58.8333
 20
3
 11
69.6667
 21
3
  0
LINE
  8
0
 10
69.6667
 20
3
 11
69.6667
 21
12.3333
  0
LINE
  8
0
 10
69.6667
 20
12.3333
 11
72.6667
 21
12.3333
  0
LINE
  8
0
 10
72.6667
 20
12.3333
 11
72.6667
 21
0
  0
LINE
  8
0
 10
72.6667
 20
0
 11
58.8333
 21
0
  0
LINE
  8
0
 10
3
 20
0
 11
3
 21
12.3333
  0
LINE
  8
0
 10
3
 20
12.3333
 11
6
 21
12.3333
  0
LINE
  8
0
 10
6
 20
12.3333
 11
6
 21
3
  0
LINE
  8
0
 10
6
 20
3
 11
16.8333
 21
3
  0
LINE
  8
0
 10
16.8333
 20
3
 11
16.8333
 21
0
  0
LINE
  8
0
 10
16.8333
 20
0
 11
3
 21
0
  0
LINE
  8
0
 10
22.8333
 20
0
 11
22.8333
 21
3
  0
LINE
  8
0
 10
22.8333
 20
3
 11
28.8333
 21
3
  0
LINE
  8
0
 10
28.8333
 20
3
 11
28.8333
 21
0
  0
LINE
  8
0
 10
28.8333
 20
0
 11
22.8333
 21
0
  0
LINE
  8
0
 10
34.8333
 20
0
 11
34.8333
 21
3
  0
LINE
  8
0
 10
34.8333
 20
3
 11
40.8333
 21
3
  0
LINE
  8
0
 10
40.8333
 20
3
 11
40.8333
 21
0
  0
LINE
  8
0
 10
40.8333
 20
0
 11
34.8333
 21
0
  0
LINE
  8
0
 10
46.8333
 20
0
 11
46.8333
 21
3
  0
LINE
  8
0
 10
46.8333
 20
3
 11
52.8333
 21
3
  0
LINE
  8
0
 10
52.8333
 20
3
 11
52.8333
 21
0
  0
LINE
  8
0
 10
52.8333
 20
0
 11
46.8333
 21
0
  0
LINE
  8
0
 10
91.5
 20
27.2
 11
97.5
 21
27.2
  0
LINE
  8
0
 10
97.5
 20
27.2
 11
97.5
 21
24.2
  0
LINE
  8
0
 10
97.5
 20
24.2
 11
103.5
 21
24.2
  0
LINE
  8
0
 10
103.5
 20
24.2
 11
103.5
 21
27.2
  0
LINE
  8
0
 10
103.5
 20
27.2
 11
109.5
 21
27.2
  0
LINE
  8
0
 10
109.5
 20
27.2
 11
109.5
 21
24.2
  0
LINE
  8
0
 10
109.5
 20
24.2
 11
115.5
 21
24.2
  0
LINE
  8
0
 10
115.5
 20
24.2
 11
115.5
 21
27.2
  0
LINE
  8
0
 10
115.5
 20
27.2
 11
121.5
 21
27.2
  0
LINE
  8
0
 10
121.5
 20
27.2
 11
121.5
 21
24.2
  0
LINE
  8
0
 10
121.5
 20
24.2
 11
127.5
 21
24.2
  0
LINE
  8
0
 10
127.5
 20
24.2
 11
127.5
 21
27.2
  0
LINE
  8
0
 10
127.5
 20
27.2
 11
133.5
 21
27.2
  0
LINE
  8
0
 10
133.5
 20
27.2
 11
133.5
 21
24.2
  0
LINE
  8
0
 10
133.5
 20
24.2
 11
144.333
 21
24.2
  0
LINE
  8
0
 10
144.333
 20
24.2
 11
144.333
 21
46.4
  0
LINE
  8
0
 10
144.333
 20
46.4
 11
133.5
 21
46.4
  0
LINE
  8
0
 10
133.5
 20
46.4
 11
133.5
 21
43.4
  0
LINE
  8
0
 10
133.5
 20
43.4
 11
127.5
 21
43.4
  0
LINE
  8
0
 10
127.5
 20
43.4
 11
127.5
 21
46.4
  0
LINE
  8
0
 10
127.5
 20
46.4
 11
121.5
 21
46.4
  0
LINE
  8
0
 10
121.5
 20
46.4
 11
121.5
 21
43.4
  0
LINE
  8
0
 10
121.5
 20
43.4
 11
115.5
 21
43.4
  0
LINE
  8
0
 10
115.5
 20
43.4
 11
115.5
 21
46.4
  0
LINE
  8
0
 10
115.5
 20
46.4
 11
109.5
 21
46.4
  0
LINE
  8
0
 10
109.5
 20
46.4
 11
109.5
 21
43.4
  0
LINE
  8
0
 10
109.5
 20
43.4
 11
103.5
 21
43.4
  0
LINE
  8
0
 10
103.5
 20
43.4
 11
103.5
 21
46.4
  0
LINE
  8
0
 10
103.5
 20
46.4
 11
97.5
 21
46.4
  0
LINE
  8
0
 10
97.5
 20
46.4
 11
97.5
 21
43.4
  0
LINE
  8
0
 10
97.5
 20
43.4
 11
91.5
 21
43.4
  0
LINE
  8
0
 10
91.5
 20
43.4
 11
91.5
 21
46.4
  0
LINE
  8
0
 10
91.5
 20
46.4
 11
80.6667
 21
46.4
  0
LINE
  8
0
 10
80.6667
 20
46.4
 11
80.6667
 21
24.2
  0
LINE
  8
0
 10
80.6667
 20
24.2
 11
91.5
 21
24.2
  0
LINE
  8
0
 10
91.5
 20
24.2
 11
91.5
 21
27.2
  0
LINE
  8
0
 10
91.5
 20
3
 11
97.5
 21
3
  0
LINE
  8
0
 10
97.5
 20
3
 11
97.5
 21
0
  0
LINE
  8
0
 10
97.5
 20
0
 11
103.5
 21
0
  0
LINE
  8
0
 10
103.5
 20
0
 11
103.5
 21
3
  0
LINE
  8
0
 10
103.5
 20
3
 11
109.5
 21
3
  0
LINE
  8
0
 10
109.5
 20
3
 11
109.5
 21
0
  0
LINE
  8
0
 10
109.5
 20
0
 11
115.5
 21
0
  0
LINE
  8
0
 10
115.5
 20
0
 11
115.5
 21
3
  0
LINE
  8
0
 10
115.5
 20
3
 11
121.5
 21
3
  0
LINE
  8
0
 10
121.5
 20
3
 11
121.5
 21
0
  0
LINE
  8
0
 10
121.5
 20
0
 11
127.5
 21
0
  0
LINE
  8
0
 10
127.5
 20
0
 11
127.5
 21
3
  0
LINE
  8
0
 10
127.5
 20
3
 11
133.5
 21
3
  0
LINE
  8
0
 10
133.5
 20
3
 11
133.5
 21
0
  0
LINE
  8
0
 10
133.5
 20
0
 11
144.333
 21
0
  0
LINE
  8
0
 10
144.333
 20
0
 11
144.333
 21
22.2
  0
LINE
  8
0
 10
144.333
 20
22.2
 11
133.5
 21
22.2
  0
LINE
  8
0
 10
133.5
 20
22.2
 11
133.5
 21
19.2
  0
LINE
  8
0
 10
133.5
 20
19.2
 11
127.5
 21
19.2
  0
LINE
  8
0
 10
127.5
 20
19.2
 11
127.5
 21
22.2
  0
LINE
  8
0
 10
127.5
 20
22.2
 11
121.5
 21
22.2
  0
LINE
  8
0
 10
121.5
 20
22.2
 11
121.5
 21
19.2
  0
LINE
  8
0
 10
121.5
 20
19.2
 11
115.5
 21
19.2
  0
LINE
  8
0
 10
115.5
 20
19.2
 11
115.5
 21
22.2
  0
LINE
  8
0
 10
115.5
 20
22.2
 11
109.5
 21
22.2
  0
LINE
  8
0
 10
109.5
 20
22.2
 11
109.5
 21
19.2
  0
LINE
  8
0
 10
109.5
 20
19.2
 11
103.5
 21
19.2
  0
LINE
  8
0
 10
103.5
 20
19.2
 11
103.5
 21
22.2
  0
LINE
  8
0
 10
103.5
 20
22.2
 11
97.5
 21
22.2
  0
LINE
  8
0
 10
97.5
 20
22.2
 11
97.5
 21
19.2
  0
LINE
  8
0
 10
97.5
 20
19.2
 11
91.5
 21
19.2
  0
LINE
  8
0
 10
91.5
 20
19.2
 11
91.5
 21
22.2
  0
LINE
  8
0
 10
91.5
 20
22.2
 11
80.6667
 21
22.2
  0
LINE
  8
0
 10
80.6667
 20
22.2
 11
80.6667
 21
0
  0
LINE
  8
0
 10
80.6667
 20
0
 11
91.5
 21
0
  0
LINE
  8
0
 10
91.5
 20
0
 11
91.5
 21
3
  0
ENDSEC
  0
SECTION
  2
OBJECTS
  0
DICTIONARY
  0
ENDSEC
  0
EOF
