  0
SECTION
  2
BLOCKS
  0
ENDSEC
  0
SECTION
  2
ENTITIES
  0
LINE
  8
0
 10
47
 20
97
 11
47
 21
104
  0
LINE
  8
0
 10
47
 20
104
 11
40
 21
104
  0
LINE
  8
0
 10
40
 20
104
 11
40
 21
107
  0
LINE
  8
0
 10
40
 20
107
 11
34
 21
107
  0
LINE
  8
0
 10
34
 20
107
 11
34
 21
104
  0
LINE
  8
0
 10
34
 20
104
 11
28
 21
104
  0
LINE
  8
0
 10
28
 20
104
 11
28
 21
107
  0
LINE
  8
0
 10
28
 20
107
 11
22
 21
107
  0
LINE
  8
0
 10
22
 20
107
 11
22
 21
104
  0
LINE
  8
0
 10
22
 20
104
 11
16
 21
104
  0
LINE
  8
0
 10
16
 20
104
 11
16
 21
107
  0
LINE
  8
0
 10
16
 20
107
 11
10
 21
107
  0
LINE
  8
0
 10
10
 20
107
 11
10
 21
104
  0
LINE
  8
0
 10
10
 20
104
 11
3
 21
104
  0
LINE
  8
0
 10
3
 20
104
 11
3
 21
97
  0
LINE
  8
0
 10
3
 20
97
 11
0
 21
97
  0
LINE
  8
0
 10
0
 20
97
 11
0
 21
91
  0
LINE
  8
0
 10
0
 20
91
 11
3
 21
91
  0
LINE
  8
0
 10
3
 20
91
 11
3
 21
85
  0
LINE
  8
0
 10
3
 20
85
 11
0
 21
85
  0
LINE
  8
0
 10
0
 20
85
 11
0
 21
79
  0
LINE
  8
0
 10
0
 20
79
 11
3
 21
79
  0
LINE
  8
0
 10
3
 20
79
 11
3
 21
73
  0
LINE
  8
0
 10
3
 20
73
 11
0
 21
73
  0
LINE
  8
0
 10
0
 20
73
 11
0
 21
67
  0
LINE
  8
0
 10
0
 20
67
 11
3
 21
67
  0
LINE
  8
0
 10
3
 20
67
 11
3
 21
60
  0
LINE
  8
0
 10
3
 20
60
 11
10
 21
60
  0
LINE
  8
0
 10
10
 20
60
 11
10
 21
57
  0
LINE
  8
0
 10
10
 20
57
 11
16
 21
57
  0
LINE
  8
0
 10
16
 20
57
 11
16
 21
60
  0
LINE
  8
0
 10
16
 20
60
 11
22
 21
60
  0
LINE
  8
0
 10
22
 20
60
 11
22
 21
57
  0
LINE
  8
0
 10
22
 20
57
 11
28
 21
57
  0
LINE
  8
0
 10
28
 20
57
 11
28
 21
60
  0
LINE
  8
0
 10
28
 20
60
 11
34
 21
60
  0
LINE
  8
0
 10
34
 20
60
 11
34
 21
57
  0
LINE
  8
0
 10
34
 20
57
 11
40
 21
57
  0
LINE
  8
0
 10
40
 20
57
 11
40
 21
60
  0
LINE
  8
0
 10
40
 20
60
 11
47
 21
60
  0
LINE
  8
0
 10
47
 20
60
 11
47
 21
67
  0
LINE
  8
0
 10
47
 20
67
 11
50
 21
67
  0
LINE
  8
0
 10
50
 20
67
 11
50
 21
73
  0
LINE
  8
0
 10
50
 20
73
 11
47
 21
73
  0
LINE
  8
0
 10
47
 20
73
 11
47
 21
79
  0
LINE
  8
0
 10
47
 20
79
 11
50
 21
79
  0
LINE
  8
0
 10
50
 20
79
 11
50
 21
97
  0
LINE
  8
0
 10
50
 20
97
 11
47
 21
97
  0
LINE
  8
0
 10
47
 20
85
 11
47
 21
91
  0
LINE
  8
0
 10
47
 20
91
 11
50
 21
91
  0
LINE
  8
0
 10
50
 20
91
 11
50
 21
85
  0
LINE
  8
0
 10
50
 20
85
 11
47
 21
85
  0
LINE
  8
0
 10
101
 20
94
 11
101
 21
104
  0
LINE
  8
0
 10
101
 20
104
 11
94
 21
104
  0
LINE
  8
0
 10
94
 20
104
 11
94
 21
101
  0
LINE
  8
0
 10
94
 20
101
 11
88
 21
101
  0
LINE
  8
0
 10
88
 20
101
 11
88
 21
104
  0
LINE
  8
0
 10
88
 20
104
 11
82
 21
104
  0
LINE
  8
0
 10
82
 20
104
 11
82
 21
101
  0
LINE
  8
0
 10
82
 20
101
 11
76
 21
101
  0
LINE
  8
0
 10
76
 20
101
 11
76
 21
104
  0
LINE
  8
0
 10
76
 20
104
 11
70
 21
104
  0
LINE
  8
0
 10
70
 20
104
 11
70
 21
101
  0
LINE
  8
0
 10
70
 20
101
 11
64
 21
101
  0
LINE
  8
0
 10
64
 20
101
 11
64
 21
104
  0
LINE
  8
0
 10
64
 20
104
 11
57
 21
104
  0
LINE
  8
0
 10
57
 20
104
 11
57
 21
94
  0
LINE
  8
0
 10
57
 20
94
 11
54
 21
94
  0
LINE
  8
0
 10
54
 20
94
 11
54
 21
88
  0
LINE
  8
0
 10
54
 20
88
 11
57
 21
88
  0
LINE
  8
0
 10
57
 20
88
 11
57
 21
82
  0
LINE
  8
0
 10
57
 20
82
 11
54
 21
82
  0
LINE
  8
0
 10
54
 20
82
 11
54
 21
76
  0
LINE
  8
0
 10
54
 20
76
 11
57
 21
76
  0
LINE
  8
0
 10
57
 20
76
 11
57
 21
70
  0
LINE
  8
0
 10
57
 20
70
 11
54
 21
70
  0
LINE
  8
0
 10
54
 20
70
 11
54
 21
64
  0
LINE
  8
0
 10
54
 20
64
 11
57
 21
64
  0
LINE
  8
0
 10
57
 20
64
 11
57
 21
54
  0
LINE
  8
0
 10
57
 20
54
 11
64
 21
54
  0
LINE
  8
0
 10
64
 20
54
 11
64
 21
57
  0
LINE
  8
0
 10
64
 20
57
 11
70
 21
57
  0
LINE
  8
0
 10
70
 20
57
 11
70
 21
54
  0
LINE
  8
0
 10
70
 20
54
 11
76
 21
54
  0
LINE
  8
0
 10
76
 20
54
 11
76
 21
57
  0
LINE
  8
0
 10
76
 20
57
 11
82
 21
57
  0
LINE
  8
0
 10
82
 20
57
 11
82
 21
54
  0
LINE
  8
0
 10
82
 20
54
 11
88
 21
54
  0
LINE
  8
0
 10
88
 20
54
 11
88
 21
57
  0
LINE
  8
0
 10
88
 20
57
 11
94
 21
57
  0
LINE
  8
0
 10
94
 20
57
 11
94
 21
54
  0
LINE
  8
0
 10
94
 20
54
 11
101
 21
54
  0
LINE
  8
0
 10
101
 20
54
 11
101
 21
64
  0
LINE
  8
0
 10
101
 20
64
 11
104
 21
64
  0
LINE
  8
0
 10
104
 20
64
 11
104
 21
70
  0
LINE
  8
0
 10
104
 20
70
 11
101
 21
70
  0
LINE
  8
0
 10
101
 20
70
 11
101
 21
76
  0
LINE
  8
0
 10
101
 20
76
 11
104
 21
76
  0
LINE
  8
0
 10
104
 20
76
 11
104
 21
94
  0
LINE
  8
0
 10
104
 20
94
 11
101
 21
94
  0
LINE
  8
0
 10
101
 20
82
 11
101
 21
88
  0
LINE
  8
0
 10
101
 20
88
 11
104
 21
88
  0
LINE
  8
0
 10
104
 20
88
 11
104
 21
82
  0
LINE
  8
0
 10
104
 20
82
 11
101
 21
82
  0
LINE
  8
0
 10
118
 20
57
 11
124
 21
57
  0
LINE
  8
0
 10
124
 20
57
 11
124
 21
54
  0
LINE
  8
0
 10
124
 20
54
 11
130
 21
54
  0
LINE
  8
0
 10
130
 20
54
 11
130
 21
57
  0
LINE
  8
0
 10
130
 20
57
 11
136
 21
57
  0
LINE
  8
0
 10
136
 20
57
 11
136
 21
54
  0
LINE
  8
0
 10
136
 20
54
 11
142
 21
54
  0
LINE
  8
0
 10
142
 20
54
 11
142
 21
57
  0
LINE
  8
0
 10
142
 20
57
 11
148
 21
57
  0
LINE
  8
0
 10
148
 20
57
 11
148
 21
54
  0
LINE
  8
0
 10
148
 20
54
 11
158
 21
54
  0
LINE
  8
0
 10
158
 20
54
 11
158
 21
88
  0
LINE
  8
0
 10
158
 20
88
 11
155
 21
88
  0
LINE
  8
0
 10
155
 20
88
 11
155
 21
94
  0
LINE
  8
0
 10
155
 20
94
 11
158
 21
94
  0
LINE
  8
0
 10
158
 20
94
 11
158
 21
104
  0
LINE
  8
0
 10
158
 20
104
 11
148
 21
104
  0
LINE
  8
0
 10
148
 20
104
 11
148
 21
101
  0
LINE
  8
0
 10
148
 20
101
 11
142
 21
101
  0
LINE
  8
0
 10
142
 20
101
 11
142
 21
104
  0
LINE
  8
0
 10
142
 20
104
 11
136
 21
104
  0
LINE
  8
0
 10
136
 20
104
 11
136
 21
101
  0
LINE
  8
0
 10
136
 20
101
 11
130
 21
101
  0
LINE
  8
0
 10
130
 20
101
 11
130
 21
104
  0
LINE
  8
0
 10
130
 20
104
 11
124
 21
104
  0
LINE
  8
0
 10
124
 20
104
 11
124
 21
101
  0
LINE
  8
0
 10
124
 20
101
 11
118
 21
101
  0
LINE
  8
0
 10
118
 20
101
 11
118
 21
104
  0
LINE
  8
0
 10
118
 20
104
 11
108
 21
104
  0
LINE
  8
0
 10
108
 20
104
 11
108
 21
94
  0
LINE
  8
0
 10
108
 20
94
 11
111
 21
94
  0
LINE
  8
0
 10
111
 20
94
 11
111
 21
88
  0
LINE
  8
0
 10
111
 20
88
 11
108
 21
88
  0
LINE
  8
0
 10
108
 20
88
 11
108
 21
82
  0
LINE
  8
0
 10
108
 20
82
 11
111
 21
82
  0
LINE
  8
0
 10
111
 20
82
 11
111
 21
76
  0
LINE
  8
0
 10
111
 20
76
 11
108
 21
76
  0
LINE
  8
0
 10
108
 20
76
 11
108
 21
70
  0
LINE
  8
0
 10
108
 20
70
 11
111
 21
70
  0
LINE
  8
0
 10
111
 20
70
 11
111
 21
64
  0
LINE
  8
0
 10
111
 20
64
 11
108
 21
64
  0
LINE
  8
0
 10
108
 20
64
 11
108
 21
54
  0
LINE
  8
0
 10
108
 20
54
 11
118
 21
54
  0
LINE
  8
0
 10
118
 20
54
 11
118
 21
57
  0
LINE
  8
0
 10
155
 20
76
 11
155
 21
82
  0
LINE
  8
0
 10
155
 20
82
 11
158
 21
82
  0
LINE
  8
0
 10
158
 20
82
 11
158
 21
76
  0
LINE
  8
0
 10
158
 20
76
 11
155
 21
76
  0
LINE
  8
0
 10
155
 20
64
 11
155
 21
70
  0
LINE
  8
0
 10
155
 20
70
 11
158
 21
70
  0
LINE
  8
0
 10
158
 20
70
 11
158
 21
64
  0
LINE
  8
0
 10
158
 20
64
 11
155
 21
64
  0
LINE
  8
0
 10
53
 20
53
 11
-3
 21
53
  0
LINE
  8
0
 10
-3
 20
53
 11
-3
 21
-3
  0
LINE
  8
0
 10
-3
 20
-3
 11
53
 21
-3
  0
LINE
  8
0
 10
53
 20
-3
 11
53
 21
53
  0
LINE
  8
0
 10
47
 20
40
 11
47
 21
47
  0
LINE
  8
0
 10
47
 20
47
 11
40
 21
47
  0
LINE
  8
0
 10
40
 20
47
 11
40
 21
50
  0
LINE
  8
0
 10
40
 20
50
 11
50
 21
50
  0
LINE
  8
0
 10
50
 20
50
 11
50
 21
40
  0
LINE
  8
0
 10
50
 20
40
 11
47
 21
40
  0
LINE
  8
0
 10
0
 20
40
 11
0
 21
50
  0
LINE
  8
0
 10
0
 20
50
 11
10
 21
50
  0
LINE
  8
0
 10
10
 20
50
 11
10
 21
47
  0
LINE
  8
0
 10
10
 20
47
 11
3
 21
47
  0
LINE
  8
0
 10
3
 20
47
 11
3
 21
40
  0
LINE
  8
0
 10
3
 20
40
 11
0
 21
40
  0
LINE
  8
0
 10
28
 20
47
 11
28
 21
50
  0
LINE
  8
0
 10
28
 20
50
 11
34
 21
50
  0
LINE
  8
0
 10
34
 20
50
 11
34
 21
47
  0
LINE
  8
0
 10
34
 20
47
 11
28
 21
47
  0
LINE
  8
0
 10
16
 20
47
 11
16
 21
50
  0
LINE
  8
0
 10
16
 20
50
 11
22
 21
50
  0
LINE
  8
0
 10
22
 20
50
 11
22
 21
47
  0
LINE
  8
0
 10
22
 20
47
 11
16
 21
47
  0
LINE
  8
0
 10
47
 20
28
 11
47
 21
34
  0
LINE
  8
0
 10
47
 20
34
 11
50
 21
34
  0
LINE
  8
0
 10
50
 20
34
 11
50
 21
28
  0
LINE
  8
0
 10
50
 20
28
 11
47
 21
28
  0
LINE
  8
0
 10
0
 20
28
 11
0
 21
34
  0
LINE
  8
0
 10
0
 20
34
 11
3
 21
34
  0
LINE
  8
0
 10
3
 20
34
 11
3
 21
28
  0
LINE
  8
0
 10
3
 20
28
 11
0
 21
28
  0
LINE
  8
0
 10
0
 20
16
 11
0
 21
22
  0
LINE
  8
0
 10
0
 20
22
 11
3
 21
22
  0
LINE
  8
0
 10
3
 20
22
 11
3
 21
16
  0
LINE
  8
0
 10
3
 20
16
 11
0
 21
16
  0
LINE
  8
0
 10
47
 20
16
 11
47
 21
22
  0
LINE
  8
0
 10
47
 20
22
 11
50
 21
22
  0
LINE
  8
0
 10
50
 20
22
 11
50
 21
16
  0
LINE
  8
0
 10
50
 20
16
 11
47
 21
16
  0
LINE
  8
0
 10
0
 20
0
 11
0
 21
10
  0
LINE
  8
0
 10
0
 20
10
 11
3
 21
10
  0
LINE
  8
0
 10
3
 20
10
 11
3
 21
3
  0
LINE
  8
0
 10
3
 20
3
 11
10
 21
3
  0
LINE
  8
0
 10
10
 20
3
 11
10
 21
0
  0
LINE
  8
0
 10
10
 20
0
 11
0
 21
0
  0
LINE
  8
0
 10
40
 20
0
 11
40
 21
3
  0
LINE
  8
0
 10
40
 20
3
 11
47
 21
3
  0
LINE
  8
0
 10
47
 20
3
 11
47
 21
10
  0
LINE
  8
0
 10
47
 20
10
 11
50
 21
10
  0
LINE
  8
0
 10
50
 20
10
 11
50
 21
0
  0
LINE
  8
0
 10
50
 20
0
 11
40
 21
0
  0
LINE
  8
0
 10
16
 20
0
 11
16
 21
3
  0
LINE
  8
0
 10
16
 20
3
 11
22
 21
3
  0
LINE
  8
0
 10
22
 20
3
 11
22
 21
0
  0
LINE
  8
0
 10
22
 20
0
 11
16
 21
0
  0
LINE
  8
0
 10
28
 20
0
 11
28
 21
3
  0
LINE
  8
0
 10
28
 20
3
 11
34
 21
3
  0
LINE
  8
0
 10
34
 20
3
 11
34
 21
0
  0
LINE
  8
0
 10
34
 20
0
 11
28
 21
0
  0
LINE
  8
0
 10
101
 20
40
 11
101
 21
50
  0
LINE
  8
0
 10
101
 20
50
 11
94
 21
50
  0
LINE
  8
0
 10
94
 20
50
 11
94
 21
47
  0
LINE
  8
0
 10
94
 20
47
 11
88
 21
47
  0
LINE
  8
0
 10
88
 20
47
 11
88
 21
50
  0
LINE
  8
0
 10
88
 20
50
 11
82
 21
50
  0
LINE
  8
0
 10
82
 20
50
 11
82
 21
47
  0
LINE
  8
0
 10
82
 20
47
 11
76
 21
47
  0
LINE
  8
0
 10
76
 20
47
 11
76
 21
50
  0
LINE
  8
0
 10
76
 20
50
 11
70
 21
50
  0
LINE
  8
0
 10
70
 20
50
 11
70
 21
47
  0
LINE
  8
0
 10
70
 20
47
 11
64
 21
47
  0
LINE
  8
0
 10
64
 20
47
 11
64
 21
50
  0
LINE
  8
0
 10
64
 20
50
 11
57
 21
50
  0
LINE
  8
0
 10
57
 20
50
 11
57
 21
40
  0
LINE
  8
0
 10
57
 20
40
 11
54
 21
40
  0
LINE
  8
0
 10
54
 20
40
 11
54
 21
34
  0
LINE
  8
0
 10
54
 20
34
 11
57
 21
34
  0
LINE
  8
0
 10
57
 20
34
 11
57
 21
28
  0
LINE
  8
0
 10
57
 20
28
 11
54
 21
28
  0
LINE
  8
0
 10
54
 20
28
 11
54
 21
22
  0
LINE
  8
0
 10
54
 20
22
 11
57
 21
22
  0
LINE
  8
0
 10
57
 20
22
 11
57
 21
16
  0
LINE
  8
0
 10
57
 20
16
 11
54
 21
16
  0
LINE
  8
0
 10
54
 20
16
 11
54
 21
10
  0
LINE
  8
0
 10
54
 20
10
 11
57
 21
10
  0
LINE
  8
0
 10
57
 20
10
 11
57
 21
0
  0
LINE
  8
0
 10
57
 20
0
 11
64
 21
0
  0
LINE
  8
0
 10
64
 20
0
 11
64
 21
3
  0
LINE
  8
0
 10
64
 20
3
 11
70
 21
3
  0
LINE
  8
0
 10
70
 20
3
 11
70
 21
0
  0
LINE
  8
0
 10
70
 20
0
 11
76
 21
0
  0
LINE
  8
0
 10
76
 20
0
 11
76
 21
3
  0
LINE
  8
0
 10
76
 20
3
 11
82
 21
3
  0
LINE
  8
0
 10
82
 20
3
 11
82
 21
0
  0
LINE
  8
0
 10
82
 20
0
 11
88
 21
0
  0
LINE
  8
0
 10
88
 20
0
 11
88
 21
3
  0
LINE
  8
0
 10
88
 20
3
 11
94
 21
3
  0
LINE
  8
0
 10
94
 20
3
 11
94
 21
0
  0
LINE
  8
0
 10
94
 20
0
 11
101
 21
0
  0
LINE
  8
0
 10
101
 20
0
 11
101
 21
10
  0
LINE
  8
0
 10
101
 20
10
 11
104
 21
10
  0
LINE
  8
0
 10
104
 20
10
 11
104
 21
16
  0
LINE
  8
0
 10
104
 20
16
 11
101
 21
16
  0
LINE
  8
0
 10
101
 20
16
 11
101
 21
22
  0
LINE
  8
0
 10
101
 20
22
 11
104
 21
22
  0
LINE
  8
0
 10
104
 20
22
 11
104
 21
40
  0
LINE
  8
0
 10
104
 20
40
 11
101
 21
40
  0
LINE
  8
0
 10
101
 20
28
 11
101
 21
34
  0
LINE
  8
0
 10
101
 20
34
 11
104
 21
34
  0
LINE
  8
0
 10
104
 20
34
 11
104
 21
28
  0
LINE
  8
0
 10
104
 20
28
 11
101
 21
28
  0
LINE
  8
0
 10
118
 20
3
 11
124
 21
3
  0
LINE
  8
0
 10
124
 20
3
 11
124
 21
0
  0
LINE
  8
0
 10
124
 20
0
 11
130
 21
0
  0
LINE
  8
0
 10
130
 20
0
 11
130
 21
3
  0
LINE
  8
0
 10
130
 20
3
 11
136
 21
3
  0
LINE
  8
0
 10
136
 20
3
 11
136
 21
0
  0
LINE
  8
0
 10
136
 20
0
 11
142
 21
0
  0
LINE
  8
0
 10
142
 20
0
 11
142
 21
3
  0
LINE
  8
0
 10
142
 20
3
 11
148
 21
3
  0
LINE
  8
0
 10
148
 20
3
 11
148
 21
0
  0
LINE
  8
0
 10
148
 20
0
 11
158
 21
0
  0
LINE
  8
0
 10
158
 20
0
 11
158
 21
34
  0
LINE
  8
0
 10
158
 20
34
 11
155
 21
34
  0
LINE
  8
0
 10
155
 20
34
 11
155
 21
40
  0
LINE
  8
0
 10
155
 20
40
 11
158
 21
40
  0
LINE
  8
0
 10
158
 20
40
 11
158
 21
50
  0
LINE
  8
0
 10
158
 20
50
 11
148
 21
50
  0
LINE
  8
0
 10
148
 20
50
 11
148
 21
47
  0
LINE
  8
0
 10
148
 20
47
 11
142
 21
47
  0
LINE
  8
0
 10
142
 20
47
 11
142
 21
50
  0
LINE
  8
0
 10
142
 20
50
 11
136
 21
50
  0
LINE
  8
0
 10
136
 20
50
 11
136
 21
47
  0
LINE
  8
0
 10
136
 20
47
 11
130
 21
47
  0
LINE
  8
0
 10
130
 20
47
 11
130
 21
50
  0
LINE
  8
0
 10
130
 20
50
 11
124
 21
50
  0
LINE
  8
0
 10
124
 20
50
 11
124
 21
47
  0
LINE
  8
0
 10
124
 20
47
 11
118
 21
47
  0
LINE
  8
0
 10
118
 20
47
 11
118
 21
50
  0
LINE
  8
0
 10
118
 20
50
 11
108
 21
50
  0
LINE
  8
0
 10
108
 20
50
 11
108
 21
40
  0
LINE
  8
0
 10
108
 20
40
 11
111
 21
40
  0
LINE
  8
0
 10
111
 20
40
 11
111
 21
34
  0
LINE
  8
0
 10
111
 20
34
 11
108
 21
34
  0
LINE
  8
0
 10
108
 20
34
 11
108
 21
28
  0
LINE
  8
0
 10
108
 20
28
 11
111
 21
28
  0
LINE
  8
0
 10
111
 20
28
 11
111
 21
22
  0
LINE
  8
0
 10
111
 20
22
 11
108
 21
22
  0
LINE
  8
0
 10
108
 20
22
 11
108
 21
16
  0
LINE
  8
0
 10
108
 20
16
 11
111
 21
16
  0
LINE
  8
0
 10
111
 20
16
 11
111
 21
10
  0
LINE
  8
0
 10
111
 20
10
 11
108
 21
10
  0
LINE
  8
0
 10
108
 20
10
 11
108
 21
0
  0
LINE
  8
0
 10
108
 20
0
 11
118
 21
0
  0
LINE
  8
0
 10
118
 20
0
 11
118
 21
3
  0
LINE
  8
0
 10
155
 20
22
 11
155
 21
28
  0
LINE
  8
0
 10
155
 20
28
 11
158
 21
28
  0
LINE
  8
0
 10
158
 20
28
 11
158
 21
22
  0
LINE
  8
0
 10
158
 20
22
 11
155
 21
22
  0
LINE
  8
0
 10
155
 20
10
 11
155
 21
16
  0
LINE
  8
0
 10
155
 20
16
 11
158
 21
16
  0
LINE
  8
0
 10
158
 20
16
 11
158
 21
10
  0
LINE
  8
0
 10
158
 20
10
 11
155
 21
10
  0
ENDSEC
  0
SECTION
  2
OBJECTS
  0
DICTIONARY
  0
ENDSEC
  0
EOF
