  0
SECTION
  2
BLOCKS
  0
ENDSEC
  0
SECTION
  2
ENTITIES
  0
LINE
  8
0
 10
113.22
 20
177.44
 11
0
 21
177.44
  0
LINE
  8
0
 10
0
 20
177.44
 11
0
 21
89.72
  0
LINE
  8
0
 10
0
 20
89.72
 11
113.22
 21
89.72
  0
LINE
  8
0
 10
113.22
 20
89.72
 11
113.22
 21
177.44
  0
LINE
  8
0
 10
47.43
 20
171.38
 11
47.43
 21
174.44
  0
LINE
  8
0
 10
47.43
 20
174.44
 11
53.55
 21
174.44
  0
LINE
  8
0
 10
53.55
 20
174.44
 11
53.55
 21
171.38
  0
LINE
  8
0
 10
53.55
 20
171.38
 11
47.43
 21
171.38
  0
LINE
  8
0
 10
3
 20
161.12
 11
3
 21
174.44
  0
LINE
  8
0
 10
3
 20
174.44
 11
16.83
 21
174.44
  0
LINE
  8
0
 10
16.83
 20
174.44
 11
16.83
 21
171.38
  0
LINE
  8
0
 10
16.83
 20
171.38
 11
6.06
 21
171.38
  0
LINE
  8
0
 10
6.06
 20
171.38
 11
6.06
 21
161.12
  0
LINE
  8
0
 10
6.06
 20
161.12
 11
3
 21
161.12
  0
LINE
  8
0
 10
22.95
 20
171.38
 11
22.95
 21
174.44
  0
LINE
  8
0
 10
22.95
 20
174.44
 11
29.07
 21
174.44
  0
LINE
  8
0
 10
29.07
 20
174.44
 11
29.07
 21
171.38
  0
LINE
  8
0
 10
29.07
 20
171.38
 11
22.95
 21
171.38
  0
LINE
  8
0
 10
35.19
 20
171.38
 11
35.19
 21
174.44
  0
LINE
  8
0
 10
35.19
 20
174.44
 11
41.31
 21
174.44
  0
LINE
  8
0
 10
41.31
 20
174.44
 11
41.31
 21
171.38
  0
LINE
  8
0
 10
41.31
 20
171.38
 11
35.19
 21
171.38
  0
LINE
  8
0
 10
59.67
 20
171.38
 11
59.67
 21
174.44
  0
LINE
  8
0
 10
59.67
 20
174.44
 11
65.79
 21
174.44
  0
LINE
  8
0
 10
65.79
 20
174.44
 11
65.79
 21
171.38
  0
LINE
  8
0
 10
65.79
 20
171.38
 11
59.67
 21
171.38
  0
LINE
  8
0
 10
71.91
 20
171.38
 11
71.91
 21
174.44
  0
LINE
  8
0
 10
71.91
 20
174.44
 11
78.03
 21
174.44
  0
LINE
  8
0
 10
78.03
 20
174.44
 11
78.03
 21
171.38
  0
LINE
  8
0
 10
78.03
 20
171.38
 11
71.91
 21
171.38
  0
LINE
  8
0
 10
84.15
 20
171.38
 11
84.15
 21
174.44
  0
LINE
  8
0
 10
84.15
 20
174.44
 11
90.27
 21
174.44
  0
LINE
  8
0
 10
90.27
 20
174.44
 11
90.27
 21
171.38
  0
LINE
  8
0
 10
90.27
 20
171.38
 11
84.15
 21
171.38
  0
LINE
  8
0
 10
107.16
 20
161.12
 11
107.16
 21
171.38
  0
LINE
  8
0
 10
107.16
 20
171.38
 11
96.39
 21
171.38
  0
LINE
  8
0
 10
96.39
 20
171.38
 11
96.39
 21
174.44
  0
LINE
  8
0
 10
96.39
 20
174.44
 11
110.22
 21
174.44
  0
LINE
  8
0
 10
110.22
 20
174.44
 11
110.22
 21
161.12
  0
LINE
  8
0
 10
110.22
 20
161.12
 11
107.16
 21
161.12
  0
LINE
  8
0
 10
102.21
 20
165.033
 11
102.01
 21
165.058
  0
LINE
  8
0
 10
102.01
 20
165.058
 11
101.816
 21
165.108
  0
LINE
  8
0
 10
101.816
 20
165.108
 11
101.629
 21
165.182
  0
LINE
  8
0
 10
101.629
 20
165.182
 11
101.453
 21
165.279
  0
LINE
  8
0
 10
101.453
 20
165.279
 11
101.29
 21
165.397
  0
LINE
  8
0
 10
101.29
 20
165.397
 11
101.144
 21
165.535
  0
LINE
  8
0
 10
101.144
 20
165.535
 11
101.016
 21
165.69
  0
LINE
  8
0
 10
101.016
 20
165.69
 11
100.908
 21
165.859
  0
LINE
  8
0
 10
100.908
 20
165.859
 11
100.822
 21
166.041
  0
LINE
  8
0
 10
100.822
 20
166.041
 11
100.76
 21
166.232
  0
LINE
  8
0
 10
100.76
 20
166.232
 11
100.723
 21
166.429
  0
LINE
  8
0
 10
100.723
 20
166.429
 11
100.71
 21
166.63
  0
LINE
  8
0
 10
100.71
 20
166.63
 11
100.723
 21
166.831
  0
LINE
  8
0
 10
100.723
 20
166.831
 11
100.76
 21
167.028
  0
LINE
  8
0
 10
100.76
 20
167.028
 11
100.822
 21
167.219
  0
LINE
  8
0
 10
100.822
 20
167.219
 11
100.908
 21
167.401
  0
LINE
  8
0
 10
100.908
 20
167.401
 11
101.016
 21
167.57
  0
LINE
  8
0
 10
101.016
 20
167.57
 11
101.144
 21
167.725
  0
LINE
  8
0
 10
101.144
 20
167.725
 11
101.29
 21
167.863
  0
LINE
  8
0
 10
101.29
 20
167.863
 11
101.453
 21
167.981
  0
LINE
  8
0
 10
101.453
 20
167.981
 11
101.629
 21
168.078
  0
LINE
  8
0
 10
101.629
 20
168.078
 11
101.816
 21
168.152
  0
LINE
  8
0
 10
101.816
 20
168.152
 11
102.01
 21
168.202
  0
LINE
  8
0
 10
102.01
 20
168.202
 11
102.21
 21
168.227
  0
LINE
  8
0
 10
102.21
 20
168.227
 11
102.41
 21
168.227
  0
LINE
  8
0
 10
102.41
 20
168.227
 11
102.61
 21
168.202
  0
LINE
  8
0
 10
102.61
 20
168.202
 11
102.804
 21
168.152
  0
LINE
  8
0
 10
102.804
 20
168.152
 11
102.991
 21
168.078
  0
LINE
  8
0
 10
102.991
 20
168.078
 11
103.167
 21
167.981
  0
LINE
  8
0
 10
103.167
 20
167.981
 11
103.33
 21
167.863
  0
LINE
  8
0
 10
103.33
 20
167.863
 11
103.476
 21
167.725
  0
LINE
  8
0
 10
103.476
 20
167.725
 11
103.604
 21
167.57
  0
LINE
  8
0
 10
103.604
 20
167.57
 11
103.712
 21
167.401
  0
LINE
  8
0
 10
103.712
 20
167.401
 11
103.798
 21
167.219
  0
LINE
  8
0
 10
103.798
 20
167.219
 11
103.86
 21
167.028
  0
LINE
  8
0
 10
103.86
 20
167.028
 11
103.897
 21
166.831
  0
LINE
  8
0
 10
103.897
 20
166.831
 11
103.91
 21
166.63
  0
LINE
  8
0
 10
103.91
 20
166.63
 11
103.897
 21
166.429
  0
LINE
  8
0
 10
103.897
 20
166.429
 11
103.86
 21
166.232
  0
LINE
  8
0
 10
103.86
 20
166.232
 11
103.798
 21
166.041
  0
LINE
  8
0
 10
103.798
 20
166.041
 11
103.712
 21
165.859
  0
LINE
  8
0
 10
103.712
 20
165.859
 11
103.604
 21
165.69
  0
LINE
  8
0
 10
103.604
 20
165.69
 11
103.476
 21
165.535
  0
LINE
  8
0
 10
103.476
 20
165.535
 11
103.33
 21
165.397
  0
LINE
  8
0
 10
103.33
 20
165.397
 11
103.167
 21
165.279
  0
LINE
  8
0
 10
103.167
 20
165.279
 11
102.991
 21
165.182
  0
LINE
  8
0
 10
102.991
 20
165.182
 11
102.804
 21
165.108
  0
LINE
  8
0
 10
102.804
 20
165.108
 11
102.61
 21
165.058
  0
LINE
  8
0
 10
102.61
 20
165.058
 11
102.41
 21
165.033
  0
LINE
  8
0
 10
102.41
 20
165.033
 11
102.21
 21
165.033
  0
LINE
  8
0
 10
10.7695
 20
165.033
 11
10.5702
 21
165.058
  0
LINE
  8
0
 10
10.5702
 20
165.058
 11
10.3756
 21
165.108
  0
LINE
  8
0
 10
10.3756
 20
165.108
 11
10.1888
 21
165.182
  0
LINE
  8
0
 10
10.1888
 20
165.182
 11
10.0127
 21
165.279
  0
LINE
  8
0
 10
10.0127
 20
165.279
 11
9.85011
 21
165.397
  0
LINE
  8
0
 10
9.85011
 20
165.397
 11
9.70364
 21
165.535
  0
LINE
  8
0
 10
9.70364
 20
165.535
 11
9.57556
 21
165.69
  0
LINE
  8
0
 10
9.57556
 20
165.69
 11
9.4679
 21
165.859
  0
LINE
  8
0
 10
9.4679
 20
165.859
 11
9.38235
 21
166.041
  0
LINE
  8
0
 10
9.38235
 20
166.041
 11
9.32027
 21
166.232
  0
LINE
  8
0
 10
9.32027
 20
166.232
 11
9.28261
 21
166.429
  0
LINE
  8
0
 10
9.28261
 20
166.429
 11
9.26999
 21
166.63
  0
LINE
  8
0
 10
9.26999
 20
166.63
 11
9.28261
 21
166.831
  0
LINE
  8
0
 10
9.28261
 20
166.831
 11
9.32027
 21
167.028
  0
LINE
  8
0
 10
9.32027
 20
167.028
 11
9.38235
 21
167.219
  0
LINE
  8
0
 10
9.38235
 20
167.219
 11
9.4679
 21
167.401
  0
LINE
  8
0
 10
9.4679
 20
167.401
 11
9.57556
 21
167.57
  0
LINE
  8
0
 10
9.57556
 20
167.57
 11
9.70364
 21
167.725
  0
LINE
  8
0
 10
9.70364
 20
167.725
 11
9.85011
 21
167.863
  0
LINE
  8
0
 10
9.85011
 20
167.863
 11
10.0127
 21
167.981
  0
LINE
  8
0
 10
10.0127
 20
167.981
 11
10.1888
 21
168.078
  0
LINE
  8
0
 10
10.1888
 20
168.078
 11
10.3756
 21
168.152
  0
LINE
  8
0
 10
10.3756
 20
168.152
 11
10.5702
 21
168.202
  0
LINE
  8
0
 10
10.5702
 20
168.202
 11
10.7695
 21
168.227
  0
LINE
  8
0
 10
10.7695
 20
168.227
 11
10.9705
 21
168.227
  0
LINE
  8
0
 10
10.9705
 20
168.227
 11
11.1698
 21
168.202
  0
LINE
  8
0
 10
11.1698
 20
168.202
 11
11.3644
 21
168.152
  0
LINE
  8
0
 10
11.3644
 20
168.152
 11
11.5512
 21
168.078
  0
LINE
  8
0
 10
11.5512
 20
168.078
 11
11.7273
 21
167.981
  0
LINE
  8
0
 10
11.7273
 20
167.981
 11
11.8899
 21
167.863
  0
LINE
  8
0
 10
11.8899
 20
167.863
 11
12.0363
 21
167.725
  0
LINE
  8
0
 10
12.0363
 20
167.725
 11
12.1644
 21
167.57
  0
LINE
  8
0
 10
12.1644
 20
167.57
 11
12.2721
 21
167.401
  0
LINE
  8
0
 10
12.2721
 20
167.401
 11
12.3576
 21
167.219
  0
LINE
  8
0
 10
12.3576
 20
167.219
 11
12.4197
 21
167.028
  0
LINE
  8
0
 10
12.4197
 20
167.028
 11
12.4574
 21
166.831
  0
LINE
  8
0
 10
12.4574
 20
166.831
 11
12.47
 21
166.63
  0
LINE
  8
0
 10
12.47
 20
166.63
 11
12.4574
 21
166.429
  0
LINE
  8
0
 10
12.4574
 20
166.429
 11
12.4197
 21
166.232
  0
LINE
  8
0
 10
12.4197
 20
166.232
 11
12.3576
 21
166.041
  0
LINE
  8
0
 10
12.3576
 20
166.041
 11
12.2721
 21
165.859
  0
LINE
  8
0
 10
12.2721
 20
165.859
 11
12.1644
 21
165.69
  0
LINE
  8
0
 10
12.1644
 20
165.69
 11
12.0363
 21
165.535
  0
LINE
  8
0
 10
12.0363
 20
165.535
 11
11.8899
 21
165.397
  0
LINE
  8
0
 10
11.8899
 20
165.397
 11
11.7273
 21
165.279
  0
LINE
  8
0
 10
11.7273
 20
165.279
 11
11.5512
 21
165.182
  0
LINE
  8
0
 10
11.5512
 20
165.182
 11
11.3644
 21
165.108
  0
LINE
  8
0
 10
11.3644
 20
165.108
 11
11.1698
 21
165.058
  0
LINE
  8
0
 10
11.1698
 20
165.058
 11
10.9705
 21
165.033
  0
LINE
  8
0
 10
10.9705
 20
165.033
 11
10.7695
 21
165.033
  0
LINE
  8
0
 10
20.46
 20
137.28
 11
20.46
 21
162.38
  0
LINE
  8
0
 10
20.46
 20
162.38
 11
92.06
 21
162.38
  0
LINE
  8
0
 10
92.06
 20
162.38
 11
92.06
 21
137.28
  0
LINE
  8
0
 10
92.06
 20
137.28
 11
20.46
 21
137.28
  0
LINE
  8
0
 10
3
 20
148.88
 11
3
 21
155
  0
LINE
  8
0
 10
3
 20
155
 11
6.06
 21
155
  0
LINE
  8
0
 10
6.06
 20
155
 11
6.06
 21
148.88
  0
LINE
  8
0
 10
6.06
 20
148.88
 11
3
 21
148.88
  0
LINE
  8
0
 10
107.16
 20
148.88
 11
107.16
 21
155
  0
LINE
  8
0
 10
107.16
 20
155
 11
110.22
 21
155
  0
LINE
  8
0
 10
110.22
 20
155
 11
110.22
 21
148.88
  0
LINE
  8
0
 10
110.22
 20
148.88
 11
107.16
 21
148.88
  0
LINE
  8
0
 10
107.16
 20
136.64
 11
107.16
 21
142.76
  0
LINE
  8
0
 10
107.16
 20
142.76
 11
110.22
 21
142.76
  0
LINE
  8
0
 10
110.22
 20
142.76
 11
110.22
 21
136.64
  0
LINE
  8
0
 10
110.22
 20
136.64
 11
107.16
 21
136.64
  0
LINE
  8
0
 10
3
 20
136.64
 11
3
 21
142.76
  0
LINE
  8
0
 10
3
 20
142.76
 11
6.06
 21
142.76
  0
LINE
  8
0
 10
6.06
 20
142.76
 11
6.06
 21
136.64
  0
LINE
  8
0
 10
6.06
 20
136.64
 11
3
 21
136.64
  0
LINE
  8
0
 10
107.16
 20
124.4
 11
107.16
 21
130.52
  0
LINE
  8
0
 10
107.16
 20
130.52
 11
110.22
 21
130.52
  0
LINE
  8
0
 10
110.22
 20
130.52
 11
110.22
 21
124.4
  0
LINE
  8
0
 10
110.22
 20
124.4
 11
107.16
 21
124.4
  0
LINE
  8
0
 10
3
 20
124.4
 11
3
 21
130.52
  0
LINE
  8
0
 10
3
 20
130.52
 11
6.06
 21
130.52
  0
LINE
  8
0
 10
6.06
 20
130.52
 11
6.06
 21
124.4
  0
LINE
  8
0
 10
6.06
 20
124.4
 11
3
 21
124.4
  0
LINE
  8
0
 10
41.3325
 20
99.8025
 11
41.3325
 21
107.162
  0
LINE
  8
0
 10
41.3325
 20
107.162
 11
44.3925
 21
107.162
  0
LINE
  8
0
 10
44.3925
 20
107.162
 11
44.3925
 21
111.162
  0
LINE
  8
0
 10
44.3925
 20
111.162
 11
41.3325
 21
111.162
  0
LINE
  8
0
 10
41.3325
 20
111.162
 11
41.3325
 21
118.522
  0
LINE
  8
0
 10
41.3325
 20
118.522
 11
48.6925
 21
118.522
  0
LINE
  8
0
 10
48.6925
 20
118.522
 11
48.6925
 21
115.462
  0
LINE
  8
0
 10
48.6925
 20
115.462
 11
52.6925
 21
115.462
  0
LINE
  8
0
 10
52.6925
 20
115.462
 11
52.6925
 21
118.522
  0
LINE
  8
0
 10
52.6925
 20
118.522
 11
60.0525
 21
118.522
  0
LINE
  8
0
 10
60.0525
 20
118.522
 11
60.0525
 21
111.162
  0
LINE
  8
0
 10
60.0525
 20
111.162
 11
56.9925
 21
111.162
  0
LINE
  8
0
 10
56.9925
 20
111.162
 11
56.9925
 21
107.162
  0
LINE
  8
0
 10
56.9925
 20
107.162
 11
60.0525
 21
107.162
  0
LINE
  8
0
 10
60.0525
 20
107.162
 11
60.0525
 21
99.8025
  0
LINE
  8
0
 10
60.0525
 20
99.8025
 11
52.6925
 21
99.8025
  0
LINE
  8
0
 10
52.6925
 20
99.8025
 11
52.6925
 21
102.862
  0
LINE
  8
0
 10
52.6925
 20
102.862
 11
48.6925
 21
102.862
  0
LINE
  8
0
 10
48.6925
 20
102.862
 11
48.6925
 21
99.8025
  0
LINE
  8
0
 10
48.6925
 20
99.8025
 11
41.3325
 21
99.8025
  0
LINE
  8
0
 10
3
 20
112.16
 11
3
 21
118.28
  0
LINE
  8
0
 10
3
 20
118.28
 11
6.06
 21
118.28
  0
LINE
  8
0
 10
6.06
 20
118.28
 11
6.06
 21
112.16
  0
LINE
  8
0
 10
6.06
 20
112.16
 11
3
 21
112.16
  0
LINE
  8
0
 10
107.16
 20
112.16
 11
107.16
 21
118.28
  0
LINE
  8
0
 10
107.16
 20
118.28
 11
110.22
 21
118.28
  0
LINE
  8
0
 10
110.22
 20
118.28
 11
110.22
 21
112.16
  0
LINE
  8
0
 10
110.22
 20
112.16
 11
107.16
 21
112.16
  0
LINE
  8
0
 10
91.8588
 20
105.398
 11
91.3605
 21
105.461
  0
LINE
  8
0
 10
91.3605
 20
105.461
 11
90.8739
 21
105.586
  0
LINE
  8
0
 10
90.8739
 20
105.586
 11
90.4069
 21
105.771
  0
LINE
  8
0
 10
90.4069
 20
105.771
 11
89.9667
 21
106.013
  0
LINE
  8
0
 10
89.9667
 20
106.013
 11
89.5603
 21
106.308
  0
LINE
  8
0
 10
89.5603
 20
106.308
 11
89.1941
 21
106.652
  0
LINE
  8
0
 10
89.1941
 20
106.652
 11
88.8739
 21
107.039
  0
LINE
  8
0
 10
88.8739
 20
107.039
 11
88.6048
 21
107.463
  0
LINE
  8
0
 10
88.6048
 20
107.463
 11
88.3909
 21
107.917
  0
LINE
  8
0
 10
88.3909
 20
107.917
 11
88.2357
 21
108.395
  0
LINE
  8
0
 10
88.2357
 20
108.395
 11
88.1415
 21
108.889
  0
LINE
  8
0
 10
88.1415
 20
108.889
 11
88.11
 21
109.39
  0
LINE
  8
0
 10
88.11
 20
109.39
 11
88.1415
 21
109.891
  0
LINE
  8
0
 10
88.1415
 20
109.891
 11
88.2357
 21
110.385
  0
LINE
  8
0
 10
88.2357
 20
110.385
 11
88.3909
 21
110.862
  0
LINE
  8
0
 10
88.3909
 20
110.862
 11
88.6048
 21
111.317
  0
LINE
  8
0
 10
88.6048
 20
111.317
 11
88.8739
 21
111.741
  0
LINE
  8
0
 10
88.8739
 20
111.741
 11
89.1941
 21
112.128
  0
LINE
  8
0
 10
89.1941
 20
112.128
 11
89.5603
 21
112.472
  0
LINE
  8
0
 10
89.5603
 20
112.472
 11
89.9667
 21
112.767
  0
LINE
  8
0
 10
89.9667
 20
112.767
 11
90.4069
 21
113.009
  0
LINE
  8
0
 10
90.4069
 20
113.009
 11
90.8739
 21
113.194
  0
LINE
  8
0
 10
90.8739
 20
113.194
 11
91.3605
 21
113.319
  0
LINE
  8
0
 10
91.3605
 20
113.319
 11
91.8588
 21
113.382
  0
LINE
  8
0
 10
91.8588
 20
113.382
 11
92.3612
 21
113.382
  0
LINE
  8
0
 10
92.3612
 20
113.382
 11
92.8595
 21
113.319
  0
LINE
  8
0
 10
92.8595
 20
113.319
 11
93.3461
 21
113.194
  0
LINE
  8
0
 10
93.3461
 20
113.194
 11
93.8131
 21
113.009
  0
LINE
  8
0
 10
93.8131
 20
113.009
 11
94.2533
 21
112.767
  0
LINE
  8
0
 10
94.2533
 20
112.767
 11
94.6597
 21
112.472
  0
LINE
  8
0
 10
94.6597
 20
112.472
 11
95.0259
 21
112.128
  0
LINE
  8
0
 10
95.0259
 20
112.128
 11
95.3461
 21
111.741
  0
LINE
  8
0
 10
95.3461
 20
111.741
 11
95.6152
 21
111.317
  0
LINE
  8
0
 10
95.6152
 20
111.317
 11
95.8291
 21
110.862
  0
LINE
  8
0
 10
95.8291
 20
110.862
 11
95.9843
 21
110.385
  0
LINE
  8
0
 10
95.9843
 20
110.385
 11
96.0784
 21
109.891
  0
LINE
  8
0
 10
96.0784
 20
109.891
 11
96.11
 21
109.39
  0
LINE
  8
0
 10
96.11
 20
109.39
 11
96.0784
 21
108.889
  0
LINE
  8
0
 10
96.0784
 20
108.889
 11
95.9843
 21
108.395
  0
LINE
  8
0
 10
95.9843
 20
108.395
 11
95.8291
 21
107.917
  0
LINE
  8
0
 10
95.8291
 20
107.917
 11
95.6152
 21
107.463
  0
LINE
  8
0
 10
95.6152
 20
107.463
 11
95.3461
 21
107.039
  0
LINE
  8
0
 10
95.3461
 20
107.039
 11
95.0259
 21
106.652
  0
LINE
  8
0
 10
95.0259
 20
106.652
 11
94.6597
 21
106.308
  0
LINE
  8
0
 10
94.6597
 20
106.308
 11
94.2533
 21
106.013
  0
LINE
  8
0
 10
94.2533
 20
106.013
 11
93.8131
 21
105.771
  0
LINE
  8
0
 10
93.8131
 20
105.771
 11
93.3461
 21
105.586
  0
LINE
  8
0
 10
93.3461
 20
105.586
 11
92.8595
 21
105.461
  0
LINE
  8
0
 10
92.8595
 20
105.461
 11
92.3612
 21
105.398
  0
LINE
  8
0
 10
92.3612
 20
105.398
 11
91.8588
 21
105.398
  0
LINE
  8
0
 10
3
 20
92.72
 11
3
 21
106.04
  0
LINE
  8
0
 10
3
 20
106.04
 11
6.06
 21
106.04
  0
LINE
  8
0
 10
6.06
 20
106.04
 11
6.06
 21
95.78
  0
LINE
  8
0
 10
6.06
 20
95.78
 11
16.83
 21
95.78
  0
LINE
  8
0
 10
16.83
 20
95.78
 11
16.83
 21
92.72
  0
LINE
  8
0
 10
16.83
 20
92.72
 11
3
 21
92.72
  0
LINE
  8
0
 10
96.39
 20
92.72
 11
96.39
 21
95.78
  0
LINE
  8
0
 10
96.39
 20
95.78
 11
107.16
 21
95.78
  0
LINE
  8
0
 10
107.16
 20
95.78
 11
107.16
 21
106.04
  0
LINE
  8
0
 10
107.16
 20
106.04
 11
110.22
 21
106.04
  0
LINE
  8
0
 10
110.22
 20
106.04
 11
110.22
 21
92.72
  0
LINE
  8
0
 10
110.22
 20
92.72
 11
96.39
 21
92.72
  0
LINE
  8
0
 10
102.21
 20
98.9931
 11
102.01
 21
99.0183
  0
LINE
  8
0
 10
102.01
 20
99.0183
 11
101.816
 21
99.0683
  0
LINE
  8
0
 10
101.816
 20
99.0683
 11
101.629
 21
99.1423
  0
LINE
  8
0
 10
101.629
 20
99.1423
 11
101.453
 21
99.2391
  0
LINE
  8
0
 10
101.453
 20
99.2391
 11
101.29
 21
99.3572
  0
LINE
  8
0
 10
101.29
 20
99.3572
 11
101.144
 21
99.4947
  0
LINE
  8
0
 10
101.144
 20
99.4947
 11
101.016
 21
99.6495
  0
LINE
  8
0
 10
101.016
 20
99.6495
 11
100.908
 21
99.8192
  0
LINE
  8
0
 10
100.908
 20
99.8192
 11
100.822
 21
100.001
  0
LINE
  8
0
 10
100.822
 20
100.001
 11
100.76
 21
100.192
  0
LINE
  8
0
 10
100.76
 20
100.192
 11
100.723
 21
100.389
  0
LINE
  8
0
 10
100.723
 20
100.389
 11
100.71
 21
100.59
  0
LINE
  8
0
 10
100.71
 20
100.59
 11
100.723
 21
100.791
  0
LINE
  8
0
 10
100.723
 20
100.791
 11
100.76
 21
100.988
  0
LINE
  8
0
 10
100.76
 20
100.988
 11
100.822
 21
101.179
  0
LINE
  8
0
 10
100.822
 20
101.179
 11
100.908
 21
101.361
  0
LINE
  8
0
 10
100.908
 20
101.361
 11
101.016
 21
101.53
  0
LINE
  8
0
 10
101.016
 20
101.53
 11
101.144
 21
101.685
  0
LINE
  8
0
 10
101.144
 20
101.685
 11
101.29
 21
101.823
  0
LINE
  8
0
 10
101.29
 20
101.823
 11
101.453
 21
101.941
  0
LINE
  8
0
 10
101.453
 20
101.941
 11
101.629
 21
102.038
  0
LINE
  8
0
 10
101.629
 20
102.038
 11
101.816
 21
102.112
  0
LINE
  8
0
 10
101.816
 20
102.112
 11
102.01
 21
102.162
  0
LINE
  8
0
 10
102.01
 20
102.162
 11
102.21
 21
102.187
  0
LINE
  8
0
 10
102.21
 20
102.187
 11
102.41
 21
102.187
  0
LINE
  8
0
 10
102.41
 20
102.187
 11
102.61
 21
102.162
  0
LINE
  8
0
 10
102.61
 20
102.162
 11
102.804
 21
102.112
  0
LINE
  8
0
 10
102.804
 20
102.112
 11
102.991
 21
102.038
  0
LINE
  8
0
 10
102.991
 20
102.038
 11
103.167
 21
101.941
  0
LINE
  8
0
 10
103.167
 20
101.941
 11
103.33
 21
101.823
  0
LINE
  8
0
 10
103.33
 20
101.823
 11
103.476
 21
101.685
  0
LINE
  8
0
 10
103.476
 20
101.685
 11
103.604
 21
101.53
  0
LINE
  8
0
 10
103.604
 20
101.53
 11
103.712
 21
101.361
  0
LINE
  8
0
 10
103.712
 20
101.361
 11
103.798
 21
101.179
  0
LINE
  8
0
 10
103.798
 20
101.179
 11
103.86
 21
100.988
  0
LINE
  8
0
 10
103.86
 20
100.988
 11
103.897
 21
100.791
  0
LINE
  8
0
 10
103.897
 20
100.791
 11
103.91
 21
100.59
  0
LINE
  8
0
 10
103.91
 20
100.59
 11
103.897
 21
100.389
  0
LINE
  8
0
 10
103.897
 20
100.389
 11
103.86
 21
100.192
  0
LINE
  8
0
 10
103.86
 20
100.192
 11
103.798
 21
100.001
  0
LINE
  8
0
 10
103.798
 20
100.001
 11
103.712
 21
99.8192
  0
LINE
  8
0
 10
103.712
 20
99.8192
 11
103.604
 21
99.6495
  0
LINE
  8
0
 10
103.604
 20
99.6495
 11
103.476
 21
99.4947
  0
LINE
  8
0
 10
103.476
 20
99.4947
 11
103.33
 21
99.3572
  0
LINE
  8
0
 10
103.33
 20
99.3572
 11
103.167
 21
99.2391
  0
LINE
  8
0
 10
103.167
 20
99.2391
 11
102.991
 21
99.1423
  0
LINE
  8
0
 10
102.991
 20
99.1423
 11
102.804
 21
99.0683
  0
LINE
  8
0
 10
102.804
 20
99.0683
 11
102.61
 21
99.0183
  0
LINE
  8
0
 10
102.61
 20
99.0183
 11
102.41
 21
98.9931
  0
LINE
  8
0
 10
102.41
 20
98.9931
 11
102.21
 21
98.9931
  0
LINE
  8
0
 10
10.7695
 20
98.9931
 11
10.5702
 21
99.0183
  0
LINE
  8
0
 10
10.5702
 20
99.0183
 11
10.3756
 21
99.0683
  0
LINE
  8
0
 10
10.3756
 20
99.0683
 11
10.1888
 21
99.1423
  0
LINE
  8
0
 10
10.1888
 20
99.1423
 11
10.0127
 21
99.2391
  0
LINE
  8
0
 10
10.0127
 20
99.2391
 11
9.85011
 21
99.3572
  0
LINE
  8
0
 10
9.85011
 20
99.3572
 11
9.70364
 21
99.4947
  0
LINE
  8
0
 10
9.70364
 20
99.4947
 11
9.57556
 21
99.6495
  0
LINE
  8
0
 10
9.57556
 20
99.6495
 11
9.4679
 21
99.8192
  0
LINE
  8
0
 10
9.4679
 20
99.8192
 11
9.38235
 21
100.001
  0
LINE
  8
0
 10
9.38235
 20
100.001
 11
9.32027
 21
100.192
  0
LINE
  8
0
 10
9.32027
 20
100.192
 11
9.28261
 21
100.389
  0
LINE
  8
0
 10
9.28261
 20
100.389
 11
9.26999
 21
100.59
  0
LINE
  8
0
 10
9.26999
 20
100.59
 11
9.28261
 21
100.791
  0
LINE
  8
0
 10
9.28261
 20
100.791
 11
9.32027
 21
100.988
  0
LINE
  8
0
 10
9.32027
 20
100.988
 11
9.38235
 21
101.179
  0
LINE
  8
0
 10
9.38235
 20
101.179
 11
9.4679
 21
101.361
  0
LINE
  8
0
 10
9.4679
 20
101.361
 11
9.57556
 21
101.53
  0
LINE
  8
0
 10
9.57556
 20
101.53
 11
9.70364
 21
101.685
  0
LINE
  8
0
 10
9.70364
 20
101.685
 11
9.85011
 21
101.823
  0
LINE
  8
0
 10
9.85011
 20
101.823
 11
10.0127
 21
101.941
  0
LINE
  8
0
 10
10.0127
 20
101.941
 11
10.1888
 21
102.038
  0
LINE
  8
0
 10
10.1888
 20
102.038
 11
10.3756
 21
102.112
  0
LINE
  8
0
 10
10.3756
 20
102.112
 11
10.5702
 21
102.162
  0
LINE
  8
0
 10
10.5702
 20
102.162
 11
10.7695
 21
102.187
  0
LINE
  8
0
 10
10.7695
 20
102.187
 11
10.9705
 21
102.187
  0
LINE
  8
0
 10
10.9705
 20
102.187
 11
11.1698
 21
102.162
  0
LINE
  8
0
 10
11.1698
 20
102.162
 11
11.3644
 21
102.112
  0
LINE
  8
0
 10
11.3644
 20
102.112
 11
11.5512
 21
102.038
  0
LINE
  8
0
 10
11.5512
 20
102.038
 11
11.7273
 21
101.941
  0
LINE
  8
0
 10
11.7273
 20
101.941
 11
11.8899
 21
101.823
  0
LINE
  8
0
 10
11.8899
 20
101.823
 11
12.0363
 21
101.685
  0
LINE
  8
0
 10
12.0363
 20
101.685
 11
12.1644
 21
101.53
  0
LINE
  8
0
 10
12.1644
 20
101.53
 11
12.2721
 21
101.361
  0
LINE
  8
0
 10
12.2721
 20
101.361
 11
12.3576
 21
101.179
  0
LINE
  8
0
 10
12.3576
 20
101.179
 11
12.4197
 21
100.988
  0
LINE
  8
0
 10
12.4197
 20
100.988
 11
12.4574
 21
100.791
  0
LINE
  8
0
 10
12.4574
 20
100.791
 11
12.47
 21
100.59
  0
LINE
  8
0
 10
12.47
 20
100.59
 11
12.4574
 21
100.389
  0
LINE
  8
0
 10
12.4574
 20
100.389
 11
12.4197
 21
100.192
  0
LINE
  8
0
 10
12.4197
 20
100.192
 11
12.3576
 21
100.001
  0
LINE
  8
0
 10
12.3576
 20
100.001
 11
12.2721
 21
99.8192
  0
LINE
  8
0
 10
12.2721
 20
99.8192
 11
12.1644
 21
99.6495
  0
LINE
  8
0
 10
12.1644
 20
99.6495
 11
12.0363
 21
99.4947
  0
LINE
  8
0
 10
12.0363
 20
99.4947
 11
11.8899
 21
99.3572
  0
LINE
  8
0
 10
11.8899
 20
99.3572
 11
11.7273
 21
99.2391
  0
LINE
  8
0
 10
11.7273
 20
99.2391
 11
11.5512
 21
99.1423
  0
LINE
  8
0
 10
11.5512
 20
99.1423
 11
11.3644
 21
99.0683
  0
LINE
  8
0
 10
11.3644
 20
99.0683
 11
11.1698
 21
99.0183
  0
LINE
  8
0
 10
11.1698
 20
99.0183
 11
10.9705
 21
98.9931
  0
LINE
  8
0
 10
10.9705
 20
98.9931
 11
10.7695
 21
98.9931
  0
LINE
  8
0
 10
47.43
 20
92.72
 11
47.43
 21
95.78
  0
LINE
  8
0
 10
47.43
 20
95.78
 11
53.55
 21
95.78
  0
LINE
  8
0
 10
53.55
 20
95.78
 11
53.55
 21
92.72
  0
LINE
  8
0
 10
53.55
 20
92.72
 11
47.43
 21
92.72
  0
LINE
  8
0
 10
84.15
 20
92.72
 11
84.15
 21
95.78
  0
LINE
  8
0
 10
84.15
 20
95.78
 11
90.27
 21
95.78
  0
LINE
  8
0
 10
90.27
 20
95.78
 11
90.27
 21
92.72
  0
LINE
  8
0
 10
90.27
 20
92.72
 11
84.15
 21
92.72
  0
LINE
  8
0
 10
71.91
 20
92.72
 11
71.91
 21
95.78
  0
LINE
  8
0
 10
71.91
 20
95.78
 11
78.03
 21
95.78
  0
LINE
  8
0
 10
78.03
 20
95.78
 11
78.03
 21
92.72
  0
LINE
  8
0
 10
78.03
 20
92.72
 11
71.91
 21
92.72
  0
LINE
  8
0
 10
35.19
 20
92.72
 11
35.19
 21
95.78
  0
LINE
  8
0
 10
35.19
 20
95.78
 11
41.31
 21
95.78
  0
LINE
  8
0
 10
41.31
 20
95.78
 11
41.31
 21
92.72
  0
LINE
  8
0
 10
41.31
 20
92.72
 11
35.19
 21
92.72
  0
LINE
  8
0
 10
22.95
 20
92.72
 11
22.95
 21
95.78
  0
LINE
  8
0
 10
22.95
 20
95.78
 11
29.07
 21
95.78
  0
LINE
  8
0
 10
29.07
 20
95.78
 11
29.07
 21
92.72
  0
LINE
  8
0
 10
29.07
 20
92.72
 11
22.95
 21
92.72
  0
LINE
  8
0
 10
59.67
 20
92.72
 11
59.67
 21
95.78
  0
LINE
  8
0
 10
59.67
 20
95.78
 11
65.79
 21
95.78
  0
LINE
  8
0
 10
65.79
 20
95.78
 11
65.79
 21
92.72
  0
LINE
  8
0
 10
65.79
 20
92.72
 11
59.67
 21
92.72
  0
LINE
  8
0
 10
128.54
 20
109.86
 11
134.66
 21
109.86
  0
LINE
  8
0
 10
134.66
 20
109.86
 11
134.66
 21
106.8
  0
LINE
  8
0
 10
134.66
 20
106.8
 11
140.78
 21
106.8
  0
LINE
  8
0
 10
140.78
 20
106.8
 11
140.78
 21
109.86
  0
LINE
  8
0
 10
140.78
 20
109.86
 11
146.9
 21
109.86
  0
LINE
  8
0
 10
146.9
 20
109.86
 11
146.9
 21
106.8
  0
LINE
  8
0
 10
146.9
 20
106.8
 11
153.02
 21
106.8
  0
LINE
  8
0
 10
153.02
 20
106.8
 11
153.02
 21
109.86
  0
LINE
  8
0
 10
153.02
 20
109.86
 11
159.14
 21
109.86
  0
LINE
  8
0
 10
159.14
 20
109.86
 11
159.14
 21
106.8
  0
LINE
  8
0
 10
159.14
 20
106.8
 11
165.26
 21
106.8
  0
LINE
  8
0
 10
165.26
 20
106.8
 11
165.26
 21
109.86
  0
LINE
  8
0
 10
165.26
 20
109.86
 11
171.38
 21
109.86
  0
LINE
  8
0
 10
171.38
 20
109.86
 11
171.38
 21
106.8
  0
LINE
  8
0
 10
171.38
 20
106.8
 11
177.5
 21
106.8
  0
LINE
  8
0
 10
177.5
 20
106.8
 11
177.5
 21
109.86
  0
LINE
  8
0
 10
177.5
 20
109.86
 11
183.62
 21
109.86
  0
LINE
  8
0
 10
183.62
 20
109.86
 11
183.62
 21
106.8
  0
LINE
  8
0
 10
183.62
 20
106.8
 11
196.94
 21
106.8
  0
LINE
  8
0
 10
196.94
 20
106.8
 11
196.94
 21
120.54
  0
LINE
  8
0
 10
196.94
 20
120.54
 11
193.88
 21
120.54
  0
LINE
  8
0
 10
193.88
 20
120.54
 11
193.88
 21
126.66
  0
LINE
  8
0
 10
193.88
 20
126.66
 11
196.94
 21
126.66
  0
LINE
  8
0
 10
196.94
 20
126.66
 11
196.94
 21
140.4
  0
LINE
  8
0
 10
196.94
 20
140.4
 11
183.62
 21
140.4
  0
LINE
  8
0
 10
183.62
 20
140.4
 11
183.62
 21
137.34
  0
LINE
  8
0
 10
183.62
 20
137.34
 11
177.5
 21
137.34
  0
LINE
  8
0
 10
177.5
 20
137.34
 11
177.5
 21
140.4
  0
LINE
  8
0
 10
177.5
 20
140.4
 11
171.38
 21
140.4
  0
LINE
  8
0
 10
171.38
 20
140.4
 11
171.38
 21
137.34
  0
LINE
  8
0
 10
171.38
 20
137.34
 11
165.26
 21
137.34
  0
LINE
  8
0
 10
165.26
 20
137.34
 11
165.26
 21
140.4
  0
LINE
  8
0
 10
165.26
 20
140.4
 11
159.14
 21
140.4
  0
LINE
  8
0
 10
159.14
 20
140.4
 11
159.14
 21
137.34
  0
LINE
  8
0
 10
159.14
 20
137.34
 11
153.02
 21
137.34
  0
LINE
  8
0
 10
153.02
 20
137.34
 11
153.02
 21
140.4
  0
LINE
  8
0
 10
153.02
 20
140.4
 11
146.9
 21
140.4
  0
LINE
  8
0
 10
146.9
 20
140.4
 11
146.9
 21
137.34
  0
LINE
  8
0
 10
146.9
 20
137.34
 11
140.78
 21
137.34
  0
LINE
  8
0
 10
140.78
 20
137.34
 11
140.78
 21
140.4
  0
LINE
  8
0
 10
140.78
 20
140.4
 11
134.66
 21
140.4
  0
LINE
  8
0
 10
134.66
 20
140.4
 11
134.66
 21
137.34
  0
LINE
  8
0
 10
134.66
 20
137.34
 11
128.54
 21
137.34
  0
LINE
  8
0
 10
128.54
 20
137.34
 11
128.54
 21
140.4
  0
LINE
  8
0
 10
128.54
 20
140.4
 11
115.22
 21
140.4
  0
LINE
  8
0
 10
115.22
 20
140.4
 11
115.22
 21
126.66
  0
LINE
  8
0
 10
115.22
 20
126.66
 11
118.28
 21
126.66
  0
LINE
  8
0
 10
118.28
 20
126.66
 11
118.28
 21
120.54
  0
LINE
  8
0
 10
118.28
 20
120.54
 11
115.22
 21
120.54
  0
LINE
  8
0
 10
115.22
 20
120.54
 11
115.22
 21
106.8
  0
LINE
  8
0
 10
115.22
 20
106.8
 11
128.54
 21
106.8
  0
LINE
  8
0
 10
128.54
 20
106.8
 11
128.54
 21
109.86
  0
LINE
  8
0
 10
156.66
 20
119.8
 11
156.66
 21
129.3
  0
LINE
  8
0
 10
156.66
 20
129.3
 11
168.26
 21
129.3
  0
LINE
  8
0
 10
168.26
 20
129.3
 11
168.26
 21
119.8
  0
LINE
  8
0
 10
168.26
 20
119.8
 11
156.66
 21
119.8
  0
LINE
  8
0
 10
128.54
 20
74.26
 11
134.66
 21
74.26
  0
LINE
  8
0
 10
134.66
 20
74.26
 11
134.66
 21
71.2
  0
LINE
  8
0
 10
134.66
 20
71.2
 11
140.78
 21
71.2
  0
LINE
  8
0
 10
140.78
 20
71.2
 11
140.78
 21
74.26
  0
LINE
  8
0
 10
140.78
 20
74.26
 11
146.9
 21
74.26
  0
LINE
  8
0
 10
146.9
 20
74.26
 11
146.9
 21
71.2
  0
LINE
  8
0
 10
146.9
 20
71.2
 11
153.02
 21
71.2
  0
LINE
  8
0
 10
153.02
 20
71.2
 11
153.02
 21
74.26
  0
LINE
  8
0
 10
153.02
 20
74.26
 11
159.14
 21
74.26
  0
LINE
  8
0
 10
159.14
 20
74.26
 11
159.14
 21
71.2
  0
LINE
  8
0
 10
159.14
 20
71.2
 11
165.26
 21
71.2
  0
LINE
  8
0
 10
165.26
 20
71.2
 11
165.26
 21
74.26
  0
LINE
  8
0
 10
165.26
 20
74.26
 11
171.38
 21
74.26
  0
LINE
  8
0
 10
171.38
 20
74.26
 11
171.38
 21
71.2
  0
LINE
  8
0
 10
171.38
 20
71.2
 11
177.5
 21
71.2
  0
LINE
  8
0
 10
177.5
 20
71.2
 11
177.5
 21
74.26
  0
LINE
  8
0
 10
177.5
 20
74.26
 11
183.62
 21
74.26
  0
LINE
  8
0
 10
183.62
 20
74.26
 11
183.62
 21
71.2
  0
LINE
  8
0
 10
183.62
 20
71.2
 11
196.94
 21
71.2
  0
LINE
  8
0
 10
196.94
 20
71.2
 11
196.94
 21
84.94
  0
LINE
  8
0
 10
196.94
 20
84.94
 11
193.88
 21
84.94
  0
LINE
  8
0
 10
193.88
 20
84.94
 11
193.88
 21
91.06
  0
LINE
  8
0
 10
193.88
 20
91.06
 11
196.94
 21
91.06
  0
LINE
  8
0
 10
196.94
 20
91.06
 11
196.94
 21
104.8
  0
LINE
  8
0
 10
196.94
 20
104.8
 11
183.62
 21
104.8
  0
LINE
  8
0
 10
183.62
 20
104.8
 11
183.62
 21
101.74
  0
LINE
  8
0
 10
183.62
 20
101.74
 11
177.5
 21
101.74
  0
LINE
  8
0
 10
177.5
 20
101.74
 11
177.5
 21
104.8
  0
LINE
  8
0
 10
177.5
 20
104.8
 11
171.38
 21
104.8
  0
LINE
  8
0
 10
171.38
 20
104.8
 11
171.38
 21
101.74
  0
LINE
  8
0
 10
171.38
 20
101.74
 11
165.26
 21
101.74
  0
LINE
  8
0
 10
165.26
 20
101.74
 11
165.26
 21
104.8
  0
LINE
  8
0
 10
165.26
 20
104.8
 11
159.14
 21
104.8
  0
LINE
  8
0
 10
159.14
 20
104.8
 11
159.14
 21
101.74
  0
LINE
  8
0
 10
159.14
 20
101.74
 11
153.02
 21
101.74
  0
LINE
  8
0
 10
153.02
 20
101.74
 11
153.02
 21
104.8
  0
LINE
  8
0
 10
153.02
 20
104.8
 11
146.9
 21
104.8
  0
LINE
  8
0
 10
146.9
 20
104.8
 11
146.9
 21
101.74
  0
LINE
  8
0
 10
146.9
 20
101.74
 11
140.78
 21
101.74
  0
LINE
  8
0
 10
140.78
 20
101.74
 11
140.78
 21
104.8
  0
LINE
  8
0
 10
140.78
 20
104.8
 11
134.66
 21
104.8
  0
LINE
  8
0
 10
134.66
 20
104.8
 11
134.66
 21
101.74
  0
LINE
  8
0
 10
134.66
 20
101.74
 11
128.54
 21
101.74
  0
LINE
  8
0
 10
128.54
 20
101.74
 11
128.54
 21
104.8
  0
LINE
  8
0
 10
128.54
 20
104.8
 11
115.22
 21
104.8
  0
LINE
  8
0
 10
115.22
 20
104.8
 11
115.22
 21
91.06
  0
LINE
  8
0
 10
115.22
 20
91.06
 11
118.28
 21
91.06
  0
LINE
  8
0
 10
118.28
 20
91.06
 11
118.28
 21
84.94
  0
LINE
  8
0
 10
118.28
 20
84.94
 11
115.22
 21
84.94
  0
LINE
  8
0
 10
115.22
 20
84.94
 11
115.22
 21
71.2
  0
LINE
  8
0
 10
115.22
 20
71.2
 11
128.54
 21
71.2
  0
LINE
  8
0
 10
128.54
 20
71.2
 11
128.54
 21
74.26
  0
LINE
  8
0
 10
113.22
 20
87.72
 11
0
 21
87.72
  0
LINE
  8
0
 10
0
 20
87.72
 11
0
 21
0
  0
LINE
  8
0
 10
0
 20
0
 11
113.22
 21
0
  0
LINE
  8
0
 10
113.22
 20
0
 11
113.22
 21
87.72
  0
LINE
  8
0
 10
3
 20
71.4
 11
3
 21
84.72
  0
LINE
  8
0
 10
3
 20
84.72
 11
16.83
 21
84.72
  0
LINE
  8
0
 10
16.83
 20
84.72
 11
16.83
 21
81.66
  0
LINE
  8
0
 10
16.83
 20
81.66
 11
6.06
 21
81.66
  0
LINE
  8
0
 10
6.06
 20
81.66
 11
6.06
 21
71.4
  0
LINE
  8
0
 10
6.06
 20
71.4
 11
3
 21
71.4
  0
LINE
  8
0
 10
71.91
 20
81.66
 11
71.91
 21
84.72
  0
LINE
  8
0
 10
71.91
 20
84.72
 11
78.03
 21
84.72
  0
LINE
  8
0
 10
78.03
 20
84.72
 11
78.03
 21
81.66
  0
LINE
  8
0
 10
78.03
 20
81.66
 11
71.91
 21
81.66
  0
LINE
  8
0
 10
84.15
 20
81.66
 11
84.15
 21
84.72
  0
LINE
  8
0
 10
84.15
 20
84.72
 11
90.27
 21
84.72
  0
LINE
  8
0
 10
90.27
 20
84.72
 11
90.27
 21
81.66
  0
LINE
  8
0
 10
90.27
 20
81.66
 11
84.15
 21
81.66
  0
LINE
  8
0
 10
107.16
 20
71.4
 11
107.16
 21
81.66
  0
LINE
  8
0
 10
107.16
 20
81.66
 11
96.39
 21
81.66
  0
LINE
  8
0
 10
96.39
 20
81.66
 11
96.39
 21
84.72
  0
LINE
  8
0
 10
96.39
 20
84.72
 11
110.22
 21
84.72
  0
LINE
  8
0
 10
110.22
 20
84.72
 11
110.22
 21
71.4
  0
LINE
  8
0
 10
110.22
 20
71.4
 11
107.16
 21
71.4
  0
LINE
  8
0
 10
59.67
 20
81.66
 11
59.67
 21
84.72
  0
LINE
  8
0
 10
59.67
 20
84.72
 11
65.79
 21
84.72
  0
LINE
  8
0
 10
65.79
 20
84.72
 11
65.79
 21
81.66
  0
LINE
  8
0
 10
65.79
 20
81.66
 11
59.67
 21
81.66
  0
LINE
  8
0
 10
47.43
 20
81.66
 11
47.43
 21
84.72
  0
LINE
  8
0
 10
47.43
 20
84.72
 11
53.55
 21
84.72
  0
LINE
  8
0
 10
53.55
 20
84.72
 11
53.55
 21
81.66
  0
LINE
  8
0
 10
53.55
 20
81.66
 11
47.43
 21
81.66
  0
LINE
  8
0
 10
35.19
 20
81.66
 11
35.19
 21
84.72
  0
LINE
  8
0
 10
35.19
 20
84.72
 11
41.31
 21
84.72
  0
LINE
  8
0
 10
41.31
 20
84.72
 11
41.31
 21
81.66
  0
LINE
  8
0
 10
41.31
 20
81.66
 11
35.19
 21
81.66
  0
LINE
  8
0
 10
22.95
 20
81.66
 11
22.95
 21
84.72
  0
LINE
  8
0
 10
22.95
 20
84.72
 11
29.07
 21
84.72
  0
LINE
  8
0
 10
29.07
 20
84.72
 11
29.07
 21
81.66
  0
LINE
  8
0
 10
29.07
 20
81.66
 11
22.95
 21
81.66
  0
LINE
  8
0
 10
10.8095
 20
75.3132
 11
10.6102
 21
75.3383
  0
LINE
  8
0
 10
10.6102
 20
75.3383
 11
10.4156
 21
75.3883
  0
LINE
  8
0
 10
10.4156
 20
75.3883
 11
10.2287
 21
75.4623
  0
LINE
  8
0
 10
10.2287
 20
75.4623
 11
10.0527
 21
75.5591
  0
LINE
  8
0
 10
10.0527
 20
75.5591
 11
9.89012
 21
75.6772
  0
LINE
  8
0
 10
9.89012
 20
75.6772
 11
9.74364
 21
75.8147
  0
LINE
  8
0
 10
9.74364
 20
75.8147
 11
9.61557
 21
75.9695
  0
LINE
  8
0
 10
9.61557
 20
75.9695
 11
9.5079
 21
76.1392
  0
LINE
  8
0
 10
9.5079
 20
76.1392
 11
9.42235
 21
76.321
  0
LINE
  8
0
 10
9.42235
 20
76.321
 11
9.36026
 21
76.5121
  0
LINE
  8
0
 10
9.36026
 20
76.5121
 11
9.3226
 21
76.7095
  0
LINE
  8
0
 10
9.3226
 20
76.7095
 11
9.31
 21
76.91
  0
LINE
  8
0
 10
9.31
 20
76.91
 11
9.3226
 21
77.1105
  0
LINE
  8
0
 10
9.3226
 20
77.1105
 11
9.36026
 21
77.3079
  0
LINE
  8
0
 10
9.36026
 20
77.3079
 11
9.42235
 21
77.499
  0
LINE
  8
0
 10
9.42235
 20
77.499
 11
9.5079
 21
77.6808
  0
LINE
  8
0
 10
9.5079
 20
77.6808
 11
9.61557
 21
77.8504
  0
LINE
  8
0
 10
9.61557
 20
77.8504
 11
9.74364
 21
78.0053
  0
LINE
  8
0
 10
9.74364
 20
78.0053
 11
9.89012
 21
78.1428
  0
LINE
  8
0
 10
9.89012
 20
78.1428
 11
10.0527
 21
78.2609
  0
LINE
  8
0
 10
10.0527
 20
78.2609
 11
10.2287
 21
78.3577
  0
LINE
  8
0
 10
10.2287
 20
78.3577
 11
10.4156
 21
78.4317
  0
LINE
  8
0
 10
10.4156
 20
78.4317
 11
10.6102
 21
78.4817
  0
LINE
  8
0
 10
10.6102
 20
78.4817
 11
10.8095
 21
78.5068
  0
LINE
  8
0
 10
10.8095
 20
78.5068
 11
11.0105
 21
78.5068
  0
LINE
  8
0
 10
11.0105
 20
78.5068
 11
11.2098
 21
78.4817
  0
LINE
  8
0
 10
11.2098
 20
78.4817
 11
11.4044
 21
78.4317
  0
LINE
  8
0
 10
11.4044
 20
78.4317
 11
11.5912
 21
78.3577
  0
LINE
  8
0
 10
11.5912
 20
78.3577
 11
11.7673
 21
78.2609
  0
LINE
  8
0
 10
11.7673
 20
78.2609
 11
11.9299
 21
78.1428
  0
LINE
  8
0
 10
11.9299
 20
78.1428
 11
12.0763
 21
78.0053
  0
LINE
  8
0
 10
12.0763
 20
78.0053
 11
12.2044
 21
77.8504
  0
LINE
  8
0
 10
12.2044
 20
77.8504
 11
12.3121
 21
77.6808
  0
LINE
  8
0
 10
12.3121
 20
77.6808
 11
12.3976
 21
77.499
  0
LINE
  8
0
 10
12.3976
 20
77.499
 11
12.4597
 21
77.3079
  0
LINE
  8
0
 10
12.4597
 20
77.3079
 11
12.4974
 21
77.1105
  0
LINE
  8
0
 10
12.4974
 20
77.1105
 11
12.51
 21
76.91
  0
LINE
  8
0
 10
12.51
 20
76.91
 11
12.4974
 21
76.7095
  0
LINE
  8
0
 10
12.4974
 20
76.7095
 11
12.4597
 21
76.5121
  0
LINE
  8
0
 10
12.4597
 20
76.5121
 11
12.3976
 21
76.321
  0
LINE
  8
0
 10
12.3976
 20
76.321
 11
12.3121
 21
76.1392
  0
LINE
  8
0
 10
12.3121
 20
76.1392
 11
12.2044
 21
75.9695
  0
LINE
  8
0
 10
12.2044
 20
75.9695
 11
12.0763
 21
75.8147
  0
LINE
  8
0
 10
12.0763
 20
75.8147
 11
11.9299
 21
75.6772
  0
LINE
  8
0
 10
11.9299
 20
75.6772
 11
11.7673
 21
75.5591
  0
LINE
  8
0
 10
11.7673
 20
75.5591
 11
11.5912
 21
75.4623
  0
LINE
  8
0
 10
11.5912
 20
75.4623
 11
11.4044
 21
75.3883
  0
LINE
  8
0
 10
11.4044
 20
75.3883
 11
11.2098
 21
75.3383
  0
LINE
  8
0
 10
11.2098
 20
75.3383
 11
11.0105
 21
75.3132
  0
LINE
  8
0
 10
11.0105
 20
75.3132
 11
10.8095
 21
75.3132
  0
LINE
  8
0
 10
102.25
 20
75.3132
 11
102.05
 21
75.3383
  0
LINE
  8
0
 10
102.05
 20
75.3383
 11
101.856
 21
75.3883
  0
LINE
  8
0
 10
101.856
 20
75.3883
 11
101.669
 21
75.4623
  0
LINE
  8
0
 10
101.669
 20
75.4623
 11
101.493
 21
75.5591
  0
LINE
  8
0
 10
101.493
 20
75.5591
 11
101.33
 21
75.6772
  0
LINE
  8
0
 10
101.33
 20
75.6772
 11
101.184
 21
75.8147
  0
LINE
  8
0
 10
101.184
 20
75.8147
 11
101.056
 21
75.9695
  0
LINE
  8
0
 10
101.056
 20
75.9695
 11
100.948
 21
76.1392
  0
LINE
  8
0
 10
100.948
 20
76.1392
 11
100.862
 21
76.321
  0
LINE
  8
0
 10
100.862
 20
76.321
 11
100.8
 21
76.5121
  0
LINE
  8
0
 10
100.8
 20
76.5121
 11
100.763
 21
76.7095
  0
LINE
  8
0
 10
100.763
 20
76.7095
 11
100.75
 21
76.91
  0
LINE
  8
0
 10
100.75
 20
76.91
 11
100.763
 21
77.1105
  0
LINE
  8
0
 10
100.763
 20
77.1105
 11
100.8
 21
77.3079
  0
LINE
  8
0
 10
100.8
 20
77.3079
 11
100.862
 21
77.499
  0
LINE
  8
0
 10
100.862
 20
77.499
 11
100.948
 21
77.6808
  0
LINE
  8
0
 10
100.948
 20
77.6808
 11
101.056
 21
77.8504
  0
LINE
  8
0
 10
101.056
 20
77.8504
 11
101.184
 21
78.0053
  0
LINE
  8
0
 10
101.184
 20
78.0053
 11
101.33
 21
78.1428
  0
LINE
  8
0
 10
101.33
 20
78.1428
 11
101.493
 21
78.2609
  0
LINE
  8
0
 10
101.493
 20
78.2609
 11
101.669
 21
78.3577
  0
LINE
  8
0
 10
101.669
 20
78.3577
 11
101.856
 21
78.4317
  0
LINE
  8
0
 10
101.856
 20
78.4317
 11
102.05
 21
78.4817
  0
LINE
  8
0
 10
102.05
 20
78.4817
 11
102.25
 21
78.5068
  0
LINE
  8
0
 10
102.25
 20
78.5068
 11
102.45
 21
78.5068
  0
LINE
  8
0
 10
102.45
 20
78.5068
 11
102.65
 21
78.4817
  0
LINE
  8
0
 10
102.65
 20
78.4817
 11
102.844
 21
78.4317
  0
LINE
  8
0
 10
102.844
 20
78.4317
 11
103.031
 21
78.3577
  0
LINE
  8
0
 10
103.031
 20
78.3577
 11
103.207
 21
78.2609
  0
LINE
  8
0
 10
103.207
 20
78.2609
 11
103.37
 21
78.1428
  0
LINE
  8
0
 10
103.37
 20
78.1428
 11
103.516
 21
78.0053
  0
LINE
  8
0
 10
103.516
 20
78.0053
 11
103.644
 21
77.8504
  0
LINE
  8
0
 10
103.644
 20
77.8504
 11
103.752
 21
77.6808
  0
LINE
  8
0
 10
103.752
 20
77.6808
 11
103.838
 21
77.499
  0
LINE
  8
0
 10
103.838
 20
77.499
 11
103.9
 21
77.3079
  0
LINE
  8
0
 10
103.9
 20
77.3079
 11
103.937
 21
77.1105
  0
LINE
  8
0
 10
103.937
 20
77.1105
 11
103.95
 21
76.91
  0
LINE
  8
0
 10
103.95
 20
76.91
 11
103.937
 21
76.7095
  0
LINE
  8
0
 10
103.937
 20
76.7095
 11
103.9
 21
76.5121
  0
LINE
  8
0
 10
103.9
 20
76.5121
 11
103.838
 21
76.321
  0
LINE
  8
0
 10
103.838
 20
76.321
 11
103.752
 21
76.1392
  0
LINE
  8
0
 10
103.752
 20
76.1392
 11
103.644
 21
75.9695
  0
LINE
  8
0
 10
103.644
 20
75.9695
 11
103.516
 21
75.8147
  0
LINE
  8
0
 10
103.516
 20
75.8147
 11
103.37
 21
75.6772
  0
LINE
  8
0
 10
103.37
 20
75.6772
 11
103.207
 21
75.5591
  0
LINE
  8
0
 10
103.207
 20
75.5591
 11
103.031
 21
75.4623
  0
LINE
  8
0
 10
103.031
 20
75.4623
 11
102.844
 21
75.3883
  0
LINE
  8
0
 10
102.844
 20
75.3883
 11
102.65
 21
75.3383
  0
LINE
  8
0
 10
102.65
 20
75.3383
 11
102.45
 21
75.3132
  0
LINE
  8
0
 10
102.45
 20
75.3132
 11
102.25
 21
75.3132
  0
LINE
  8
0
 10
107.16
 20
59.16
 11
107.16
 21
65.28
  0
LINE
  8
0
 10
107.16
 20
65.28
 11
110.22
 21
65.28
  0
LINE
  8
0
 10
110.22
 20
65.28
 11
110.22
 21
59.16
  0
LINE
  8
0
 10
110.22
 20
59.16
 11
107.16
 21
59.16
  0
LINE
  8
0
 10
3
 20
59.16
 11
3
 21
65.28
  0
LINE
  8
0
 10
3
 20
65.28
 11
6.06
 21
65.28
  0
LINE
  8
0
 10
6.06
 20
65.28
 11
6.06
 21
59.16
  0
LINE
  8
0
 10
6.06
 20
59.16
 11
3
 21
59.16
  0
LINE
  8
0
 10
3
 20
46.92
 11
3
 21
53.04
  0
LINE
  8
0
 10
3
 20
53.04
 11
6.06
 21
53.04
  0
LINE
  8
0
 10
6.06
 20
53.04
 11
6.06
 21
46.92
  0
LINE
  8
0
 10
6.06
 20
46.92
 11
3
 21
46.92
  0
LINE
  8
0
 10
107.16
 20
46.92
 11
107.16
 21
53.04
  0
LINE
  8
0
 10
107.16
 20
53.04
 11
110.22
 21
53.04
  0
LINE
  8
0
 10
110.22
 20
53.04
 11
110.22
 21
46.92
  0
LINE
  8
0
 10
110.22
 20
46.92
 11
107.16
 21
46.92
  0
LINE
  8
0
 10
107.16
 20
34.68
 11
107.16
 21
40.8
  0
LINE
  8
0
 10
107.16
 20
40.8
 11
110.22
 21
40.8
  0
LINE
  8
0
 10
110.22
 20
40.8
 11
110.22
 21
34.68
  0
LINE
  8
0
 10
110.22
 20
34.68
 11
107.16
 21
34.68
  0
LINE
  8
0
 10
3
 20
34.68
 11
3
 21
40.8
  0
LINE
  8
0
 10
3
 20
40.8
 11
6.06
 21
40.8
  0
LINE
  8
0
 10
6.06
 20
40.8
 11
6.06
 21
34.68
  0
LINE
  8
0
 10
6.06
 20
34.68
 11
3
 21
34.68
  0
LINE
  8
0
 10
3
 20
22.44
 11
3
 21
28.56
  0
LINE
  8
0
 10
3
 20
28.56
 11
6.06
 21
28.56
  0
LINE
  8
0
 10
6.06
 20
28.56
 11
6.06
 21
22.44
  0
LINE
  8
0
 10
6.06
 20
22.44
 11
3
 21
22.44
  0
LINE
  8
0
 10
107.16
 20
22.44
 11
107.16
 21
28.56
  0
LINE
  8
0
 10
107.16
 20
28.56
 11
110.22
 21
28.56
  0
LINE
  8
0
 10
110.22
 20
28.56
 11
110.22
 21
22.44
  0
LINE
  8
0
 10
110.22
 20
22.44
 11
107.16
 21
22.44
  0
LINE
  8
0
 10
3
 20
3
 11
3
 21
16.32
  0
LINE
  8
0
 10
3
 20
16.32
 11
6.06
 21
16.32
  0
LINE
  8
0
 10
6.06
 20
16.32
 11
6.06
 21
6.06
  0
LINE
  8
0
 10
6.06
 20
6.06
 11
16.83
 21
6.06
  0
LINE
  8
0
 10
16.83
 20
6.06
 11
16.83
 21
3
  0
LINE
  8
0
 10
16.83
 20
3
 11
3
 21
3
  0
LINE
  8
0
 10
96.39
 20
3
 11
96.39
 21
6.06
  0
LINE
  8
0
 10
96.39
 20
6.06
 11
107.16
 21
6.06
  0
LINE
  8
0
 10
107.16
 20
6.06
 11
107.16
 21
16.32
  0
LINE
  8
0
 10
107.16
 20
16.32
 11
110.22
 21
16.32
  0
LINE
  8
0
 10
110.22
 20
16.32
 11
110.22
 21
3
  0
LINE
  8
0
 10
110.22
 20
3
 11
96.39
 21
3
  0
LINE
  8
0
 10
10.8095
 20
9.27315
 11
10.6102
 21
9.29834
  0
LINE
  8
0
 10
10.6102
 20
9.29834
 11
10.4156
 21
9.3483
  0
LINE
  8
0
 10
10.4156
 20
9.3483
 11
10.2287
 21
9.42227
  0
LINE
  8
0
 10
10.2287
 20
9.42227
 11
10.0527
 21
9.51907
  0
LINE
  8
0
 10
10.0527
 20
9.51907
 11
9.89012
 21
9.63718
  0
LINE
  8
0
 10
9.89012
 20
9.63718
 11
9.74364
 21
9.77472
  0
LINE
  8
0
 10
9.74364
 20
9.77472
 11
9.61557
 21
9.92953
  0
LINE
  8
0
 10
9.61557
 20
9.92953
 11
9.5079
 21
10.0992
  0
LINE
  8
0
 10
9.5079
 20
10.0992
 11
9.42235
 21
10.281
  0
LINE
  8
0
 10
9.42235
 20
10.281
 11
9.36026
 21
10.4721
  0
LINE
  8
0
 10
9.36026
 20
10.4721
 11
9.3226
 21
10.6695
  0
LINE
  8
0
 10
9.3226
 20
10.6695
 11
9.31
 21
10.87
  0
LINE
  8
0
 10
9.31
 20
10.87
 11
9.3226
 21
11.0705
  0
LINE
  8
0
 10
9.3226
 20
11.0705
 11
9.36026
 21
11.2679
  0
LINE
  8
0
 10
9.36026
 20
11.2679
 11
9.42235
 21
11.459
  0
LINE
  8
0
 10
9.42235
 20
11.459
 11
9.5079
 21
11.6408
  0
LINE
  8
0
 10
9.5079
 20
11.6408
 11
9.61557
 21
11.8105
  0
LINE
  8
0
 10
9.61557
 20
11.8105
 11
9.74364
 21
11.9653
  0
LINE
  8
0
 10
9.74364
 20
11.9653
 11
9.89012
 21
12.1028
  0
LINE
  8
0
 10
9.89012
 20
12.1028
 11
10.0527
 21
12.2209
  0
LINE
  8
0
 10
10.0527
 20
12.2209
 11
10.2287
 21
12.3177
  0
LINE
  8
0
 10
10.2287
 20
12.3177
 11
10.4156
 21
12.3917
  0
LINE
  8
0
 10
10.4156
 20
12.3917
 11
10.6102
 21
12.4417
  0
LINE
  8
0
 10
10.6102
 20
12.4417
 11
10.8095
 21
12.4668
  0
LINE
  8
0
 10
10.8095
 20
12.4668
 11
11.0105
 21
12.4668
  0
LINE
  8
0
 10
11.0105
 20
12.4668
 11
11.2098
 21
12.4417
  0
LINE
  8
0
 10
11.2098
 20
12.4417
 11
11.4044
 21
12.3917
  0
LINE
  8
0
 10
11.4044
 20
12.3917
 11
11.5912
 21
12.3177
  0
LINE
  8
0
 10
11.5912
 20
12.3177
 11
11.7673
 21
12.2209
  0
LINE
  8
0
 10
11.7673
 20
12.2209
 11
11.9299
 21
12.1028
  0
LINE
  8
0
 10
11.9299
 20
12.1028
 11
12.0763
 21
11.9653
  0
LINE
  8
0
 10
12.0763
 20
11.9653
 11
12.2044
 21
11.8105
  0
LINE
  8
0
 10
12.2044
 20
11.8105
 11
12.3121
 21
11.6408
  0
LINE
  8
0
 10
12.3121
 20
11.6408
 11
12.3976
 21
11.459
  0
LINE
  8
0
 10
12.3976
 20
11.459
 11
12.4597
 21
11.2679
  0
LINE
  8
0
 10
12.4597
 20
11.2679
 11
12.4974
 21
11.0705
  0
LINE
  8
0
 10
12.4974
 20
11.0705
 11
12.51
 21
10.87
  0
LINE
  8
0
 10
12.51
 20
10.87
 11
12.4974
 21
10.6695
  0
LINE
  8
0
 10
12.4974
 20
10.6695
 11
12.4597
 21
10.4721
  0
LINE
  8
0
 10
12.4597
 20
10.4721
 11
12.3976
 21
10.281
  0
LINE
  8
0
 10
12.3976
 20
10.281
 11
12.3121
 21
10.0992
  0
LINE
  8
0
 10
12.3121
 20
10.0992
 11
12.2044
 21
9.92953
  0
LINE
  8
0
 10
12.2044
 20
9.92953
 11
12.0763
 21
9.77472
  0
LINE
  8
0
 10
12.0763
 20
9.77472
 11
11.9299
 21
9.63718
  0
LINE
  8
0
 10
11.9299
 20
9.63718
 11
11.7673
 21
9.51907
  0
LINE
  8
0
 10
11.7673
 20
9.51907
 11
11.5912
 21
9.42227
  0
LINE
  8
0
 10
11.5912
 20
9.42227
 11
11.4044
 21
9.3483
  0
LINE
  8
0
 10
11.4044
 20
9.3483
 11
11.2098
 21
9.29834
  0
LINE
  8
0
 10
11.2098
 20
9.29834
 11
11.0105
 21
9.27315
  0
LINE
  8
0
 10
11.0105
 20
9.27315
 11
10.8095
 21
9.27315
  0
LINE
  8
0
 10
102.25
 20
9.27315
 11
102.05
 21
9.29834
  0
LINE
  8
0
 10
102.05
 20
9.29834
 11
101.856
 21
9.3483
  0
LINE
  8
0
 10
101.856
 20
9.3483
 11
101.669
 21
9.42227
  0
LINE
  8
0
 10
101.669
 20
9.42227
 11
101.493
 21
9.51907
  0
LINE
  8
0
 10
101.493
 20
9.51907
 11
101.33
 21
9.63718
  0
LINE
  8
0
 10
101.33
 20
9.63718
 11
101.184
 21
9.77472
  0
LINE
  8
0
 10
101.184
 20
9.77472
 11
101.056
 21
9.92953
  0
LINE
  8
0
 10
101.056
 20
9.92953
 11
100.948
 21
10.0992
  0
LINE
  8
0
 10
100.948
 20
10.0992
 11
100.862
 21
10.281
  0
LINE
  8
0
 10
100.862
 20
10.281
 11
100.8
 21
10.4721
  0
LINE
  8
0
 10
100.8
 20
10.4721
 11
100.763
 21
10.6695
  0
LINE
  8
0
 10
100.763
 20
10.6695
 11
100.75
 21
10.87
  0
LINE
  8
0
 10
100.75
 20
10.87
 11
100.763
 21
11.0705
  0
LINE
  8
0
 10
100.763
 20
11.0705
 11
100.8
 21
11.2679
  0
LINE
  8
0
 10
100.8
 20
11.2679
 11
100.862
 21
11.459
  0
LINE
  8
0
 10
100.862
 20
11.459
 11
100.948
 21
11.6408
  0
LINE
  8
0
 10
100.948
 20
11.6408
 11
101.056
 21
11.8105
  0
LINE
  8
0
 10
101.056
 20
11.8105
 11
101.184
 21
11.9653
  0
LINE
  8
0
 10
101.184
 20
11.9653
 11
101.33
 21
12.1028
  0
LINE
  8
0
 10
101.33
 20
12.1028
 11
101.493
 21
12.2209
  0
LINE
  8
0
 10
101.493
 20
12.2209
 11
101.669
 21
12.3177
  0
LINE
  8
0
 10
101.669
 20
12.3177
 11
101.856
 21
12.3917
  0
LINE
  8
0
 10
101.856
 20
12.3917
 11
102.05
 21
12.4417
  0
LINE
  8
0
 10
102.05
 20
12.4417
 11
102.25
 21
12.4668
  0
LINE
  8
0
 10
102.25
 20
12.4668
 11
102.45
 21
12.4668
  0
LINE
  8
0
 10
102.45
 20
12.4668
 11
102.65
 21
12.4417
  0
LINE
  8
0
 10
102.65
 20
12.4417
 11
102.844
 21
12.3917
  0
LINE
  8
0
 10
102.844
 20
12.3917
 11
103.031
 21
12.3177
  0
LINE
  8
0
 10
103.031
 20
12.3177
 11
103.207
 21
12.2209
  0
LINE
  8
0
 10
103.207
 20
12.2209
 11
103.37
 21
12.1028
  0
LINE
  8
0
 10
103.37
 20
12.1028
 11
103.516
 21
11.9653
  0
LINE
  8
0
 10
103.516
 20
11.9653
 11
103.644
 21
11.8105
  0
LINE
  8
0
 10
103.644
 20
11.8105
 11
103.752
 21
11.6408
  0
LINE
  8
0
 10
103.752
 20
11.6408
 11
103.838
 21
11.459
  0
LINE
  8
0
 10
103.838
 20
11.459
 11
103.9
 21
11.2679
  0
LINE
  8
0
 10
103.9
 20
11.2679
 11
103.937
 21
11.0705
  0
LINE
  8
0
 10
103.937
 20
11.0705
 11
103.95
 21
10.87
  0
LINE
  8
0
 10
103.95
 20
10.87
 11
103.937
 21
10.6695
  0
LINE
  8
0
 10
103.937
 20
10.6695
 11
103.9
 21
10.4721
  0
LINE
  8
0
 10
103.9
 20
10.4721
 11
103.838
 21
10.281
  0
LINE
  8
0
 10
103.838
 20
10.281
 11
103.752
 21
10.0992
  0
LINE
  8
0
 10
103.752
 20
10.0992
 11
103.644
 21
9.92953
  0
LINE
  8
0
 10
103.644
 20
9.92953
 11
103.516
 21
9.77472
  0
LINE
  8
0
 10
103.516
 20
9.77472
 11
103.37
 21
9.63718
  0
LINE
  8
0
 10
103.37
 20
9.63718
 11
103.207
 21
9.51907
  0
LINE
  8
0
 10
103.207
 20
9.51907
 11
103.031
 21
9.42227
  0
LINE
  8
0
 10
103.031
 20
9.42227
 11
102.844
 21
9.3483
  0
LINE
  8
0
 10
102.844
 20
9.3483
 11
102.65
 21
9.29834
  0
LINE
  8
0
 10
102.65
 20
9.29834
 11
102.45
 21
9.27315
  0
LINE
  8
0
 10
102.45
 20
9.27315
 11
102.25
 21
9.27315
  0
LINE
  8
0
 10
84.15
 20
3
 11
84.15
 21
6.06
  0
LINE
  8
0
 10
84.15
 20
6.06
 11
90.27
 21
6.06
  0
LINE
  8
0
 10
90.27
 20
6.06
 11
90.27
 21
3
  0
LINE
  8
0
 10
90.27
 20
3
 11
84.15
 21
3
  0
LINE
  8
0
 10
22.95
 20
3
 11
22.95
 21
6.06
  0
LINE
  8
0
 10
22.95
 20
6.06
 11
29.07
 21
6.06
  0
LINE
  8
0
 10
29.07
 20
6.06
 11
29.07
 21
3
  0
LINE
  8
0
 10
29.07
 20
3
 11
22.95
 21
3
  0
LINE
  8
0
 10
35.19
 20
3
 11
35.19
 21
6.06
  0
LINE
  8
0
 10
35.19
 20
6.06
 11
41.31
 21
6.06
  0
LINE
  8
0
 10
41.31
 20
6.06
 11
41.31
 21
3
  0
LINE
  8
0
 10
41.31
 20
3
 11
35.19
 21
3
  0
LINE
  8
0
 10
47.43
 20
3
 11
47.43
 21
6.06
  0
LINE
  8
0
 10
47.43
 20
6.06
 11
53.55
 21
6.06
  0
LINE
  8
0
 10
53.55
 20
6.06
 11
53.55
 21
3
  0
LINE
  8
0
 10
53.55
 20
3
 11
47.43
 21
3
  0
LINE
  8
0
 10
59.67
 20
3
 11
59.67
 21
6.06
  0
LINE
  8
0
 10
59.67
 20
6.06
 11
65.79
 21
6.06
  0
LINE
  8
0
 10
65.79
 20
6.06
 11
65.79
 21
3
  0
LINE
  8
0
 10
65.79
 20
3
 11
59.67
 21
3
  0
LINE
  8
0
 10
71.91
 20
3
 11
71.91
 21
6.06
  0
LINE
  8
0
 10
71.91
 20
6.06
 11
78.03
 21
6.06
  0
LINE
  8
0
 10
78.03
 20
6.06
 11
78.03
 21
3
  0
LINE
  8
0
 10
78.03
 20
3
 11
71.91
 21
3
  0
LINE
  8
0
 10
129.05
 20
38.66
 11
135.17
 21
38.66
  0
LINE
  8
0
 10
135.17
 20
38.66
 11
135.17
 21
35.6
  0
LINE
  8
0
 10
135.17
 20
35.6
 11
141.29
 21
35.6
  0
LINE
  8
0
 10
141.29
 20
35.6
 11
141.29
 21
38.66
  0
LINE
  8
0
 10
141.29
 20
38.66
 11
147.41
 21
38.66
  0
LINE
  8
0
 10
147.41
 20
38.66
 11
147.41
 21
35.6
  0
LINE
  8
0
 10
147.41
 20
35.6
 11
153.53
 21
35.6
  0
LINE
  8
0
 10
153.53
 20
35.6
 11
153.53
 21
38.66
  0
LINE
  8
0
 10
153.53
 20
38.66
 11
159.65
 21
38.66
  0
LINE
  8
0
 10
159.65
 20
38.66
 11
159.65
 21
35.6
  0
LINE
  8
0
 10
159.65
 20
35.6
 11
165.77
 21
35.6
  0
LINE
  8
0
 10
165.77
 20
35.6
 11
165.77
 21
38.66
  0
LINE
  8
0
 10
165.77
 20
38.66
 11
171.89
 21
38.66
  0
LINE
  8
0
 10
171.89
 20
38.66
 11
171.89
 21
35.6
  0
LINE
  8
0
 10
171.89
 20
35.6
 11
178.01
 21
35.6
  0
LINE
  8
0
 10
178.01
 20
35.6
 11
178.01
 21
38.66
  0
LINE
  8
0
 10
178.01
 20
38.66
 11
184.13
 21
38.66
  0
LINE
  8
0
 10
184.13
 20
38.66
 11
184.13
 21
35.6
  0
LINE
  8
0
 10
184.13
 20
35.6
 11
190.25
 21
35.6
  0
LINE
  8
0
 10
190.25
 20
35.6
 11
190.25
 21
38.66
  0
LINE
  8
0
 10
190.25
 20
38.66
 11
196.37
 21
38.66
  0
LINE
  8
0
 10
196.37
 20
38.66
 11
196.37
 21
35.6
  0
LINE
  8
0
 10
196.37
 20
35.6
 11
202.49
 21
35.6
  0
LINE
  8
0
 10
202.49
 20
35.6
 11
202.49
 21
38.66
  0
LINE
  8
0
 10
202.49
 20
38.66
 11
208.61
 21
38.66
  0
LINE
  8
0
 10
208.61
 20
38.66
 11
208.61
 21
35.6
  0
LINE
  8
0
 10
208.61
 20
35.6
 11
219.38
 21
35.6
  0
LINE
  8
0
 10
219.38
 20
35.6
 11
219.38
 21
49.34
  0
LINE
  8
0
 10
219.38
 20
49.34
 11
222.44
 21
49.34
  0
LINE
  8
0
 10
222.44
 20
49.34
 11
222.44
 21
55.46
  0
LINE
  8
0
 10
222.44
 20
55.46
 11
219.38
 21
55.46
  0
LINE
  8
0
 10
219.38
 20
55.46
 11
219.38
 21
69.2
  0
LINE
  8
0
 10
219.38
 20
69.2
 11
208.61
 21
69.2
  0
LINE
  8
0
 10
208.61
 20
69.2
 11
208.61
 21
66.14
  0
LINE
  8
0
 10
208.61
 20
66.14
 11
202.49
 21
66.14
  0
LINE
  8
0
 10
202.49
 20
66.14
 11
202.49
 21
69.2
  0
LINE
  8
0
 10
202.49
 20
69.2
 11
196.37
 21
69.2
  0
LINE
  8
0
 10
196.37
 20
69.2
 11
196.37
 21
66.14
  0
LINE
  8
0
 10
196.37
 20
66.14
 11
190.25
 21
66.14
  0
LINE
  8
0
 10
190.25
 20
66.14
 11
190.25
 21
69.2
  0
LINE
  8
0
 10
190.25
 20
69.2
 11
184.13
 21
69.2
  0
LINE
  8
0
 10
184.13
 20
69.2
 11
184.13
 21
66.14
  0
LINE
  8
0
 10
184.13
 20
66.14
 11
178.01
 21
66.14
  0
LINE
  8
0
 10
178.01
 20
66.14
 11
178.01
 21
69.2
  0
LINE
  8
0
 10
178.01
 20
69.2
 11
171.89
 21
69.2
  0
LINE
  8
0
 10
171.89
 20
69.2
 11
171.89
 21
66.14
  0
LINE
  8
0
 10
171.89
 20
66.14
 11
165.77
 21
66.14
  0
LINE
  8
0
 10
165.77
 20
66.14
 11
165.77
 21
69.2
  0
LINE
  8
0
 10
165.77
 20
69.2
 11
159.65
 21
69.2
  0
LINE
  8
0
 10
159.65
 20
69.2
 11
159.65
 21
66.14
  0
LINE
  8
0
 10
159.65
 20
66.14
 11
153.53
 21
66.14
  0
LINE
  8
0
 10
153.53
 20
66.14
 11
153.53
 21
69.2
  0
LINE
  8
0
 10
153.53
 20
69.2
 11
147.41
 21
69.2
  0
LINE
  8
0
 10
147.41
 20
69.2
 11
147.41
 21
66.14
  0
LINE
  8
0
 10
147.41
 20
66.14
 11
141.29
 21
66.14
  0
LINE
  8
0
 10
141.29
 20
66.14
 11
141.29
 21
69.2
  0
LINE
  8
0
 10
141.29
 20
69.2
 11
135.17
 21
69.2
  0
LINE
  8
0
 10
135.17
 20
69.2
 11
135.17
 21
66.14
  0
LINE
  8
0
 10
135.17
 20
66.14
 11
129.05
 21
66.14
  0
LINE
  8
0
 10
129.05
 20
66.14
 11
129.05
 21
69.2
  0
LINE
  8
0
 10
129.05
 20
69.2
 11
118.28
 21
69.2
  0
LINE
  8
0
 10
118.28
 20
69.2
 11
118.28
 21
55.46
  0
LINE
  8
0
 10
118.28
 20
55.46
 11
115.22
 21
55.46
  0
LINE
  8
0
 10
115.22
 20
55.46
 11
115.22
 21
49.34
  0
LINE
  8
0
 10
115.22
 20
49.34
 11
118.28
 21
49.34
  0
LINE
  8
0
 10
118.28
 20
49.34
 11
118.28
 21
35.6
  0
LINE
  8
0
 10
118.28
 20
35.6
 11
129.05
 21
35.6
  0
LINE
  8
0
 10
129.05
 20
35.6
 11
129.05
 21
38.66
  0
LINE
  8
0
 10
-5.36002
 20
46.4
 11
-8.42001
 21
46.4
  0
LINE
  8
0
 10
-8.42001
 20
46.4
 11
-8.42001
 21
50.4
  0
LINE
  8
0
 10
-8.42001
 20
50.4
 11
-5.36002
 21
50.4
  0
LINE
  8
0
 10
-5.36002
 20
50.4
 11
-5.36002
 21
54.4
  0
LINE
  8
0
 10
-5.36002
 20
54.4
 11
-8.42001
 21
54.4
  0
LINE
  8
0
 10
-8.42001
 20
54.4
 11
-8.42001
 21
58.4
  0
LINE
  8
0
 10
-8.42001
 20
58.4
 11
-5.36002
 21
58.4
  0
LINE
  8
0
 10
-5.36002
 20
58.4
 11
-5.36002
 21
69.2
  0
LINE
  8
0
 10
-5.36002
 20
69.2
 11
-12.72
 21
69.2
  0
LINE
  8
0
 10
-12.72
 20
69.2
 11
-12.72
 21
66.14
  0
LINE
  8
0
 10
-12.72
 20
66.14
 11
-16.72
 21
66.14
  0
LINE
  8
0
 10
-16.72
 20
66.14
 11
-16.72
 21
69.2
  0
LINE
  8
0
 10
-16.72
 20
69.2
 11
-24.08
 21
69.2
  0
LINE
  8
0
 10
-24.08
 20
69.2
 11
-24.08
 21
58.4
  0
LINE
  8
0
 10
-24.08
 20
58.4
 11
-21.02
 21
58.4
  0
LINE
  8
0
 10
-21.02
 20
58.4
 11
-21.02
 21
54.4
  0
LINE
  8
0
 10
-21.02
 20
54.4
 11
-24.08
 21
54.4
  0
LINE
  8
0
 10
-24.08
 20
54.4
 11
-24.08
 21
50.4
  0
LINE
  8
0
 10
-24.08
 20
50.4
 11
-21.02
 21
50.4
  0
LINE
  8
0
 10
-21.02
 20
50.4
 11
-21.02
 21
46.4
  0
LINE
  8
0
 10
-21.02
 20
46.4
 11
-24.08
 21
46.4
  0
LINE
  8
0
 10
-24.08
 20
46.4
 11
-24.08
 21
38.66
  0
LINE
  8
0
 10
-24.08
 20
38.66
 11
-5.36002
 21
38.66
  0
LINE
  8
0
 10
-5.36002
 20
38.66
 11
-5.36002
 21
46.4
  0
LINE
  8
0
 10
-15.97
 20
50.6
 11
-15.97
 21
55.6
  0
LINE
  8
0
 10
-15.97
 20
55.6
 11
-13.47
 21
55.6
  0
LINE
  8
0
 10
-13.47
 20
55.6
 11
-13.47
 21
50.6
  0
LINE
  8
0
 10
-13.47
 20
50.6
 11
-15.97
 21
50.6
  0
LINE
  8
0
 10
-37.44
 20
38.66
 11
-33.44
 21
38.66
  0
LINE
  8
0
 10
-33.44
 20
38.66
 11
-33.44
 21
35.6
  0
LINE
  8
0
 10
-33.44
 20
35.6
 11
-29.14
 21
35.6
  0
LINE
  8
0
 10
-29.14
 20
35.6
 11
-29.14
 21
46.4
  0
LINE
  8
0
 10
-29.14
 20
46.4
 11
-26.08
 21
46.4
  0
LINE
  8
0
 10
-26.08
 20
46.4
 11
-26.08
 21
50.4
  0
LINE
  8
0
 10
-26.08
 20
50.4
 11
-29.14
 21
50.4
  0
LINE
  8
0
 10
-29.14
 20
50.4
 11
-29.14
 21
54.4
  0
LINE
  8
0
 10
-29.14
 20
54.4
 11
-26.08
 21
54.4
  0
LINE
  8
0
 10
-26.08
 20
54.4
 11
-26.08
 21
58.4
  0
LINE
  8
0
 10
-26.08
 20
58.4
 11
-29.14
 21
58.4
  0
LINE
  8
0
 10
-29.14
 20
58.4
 11
-29.14
 21
66.14
  0
LINE
  8
0
 10
-29.14
 20
66.14
 11
-41.74
 21
66.14
  0
LINE
  8
0
 10
-41.74
 20
66.14
 11
-41.74
 21
58.4
  0
LINE
  8
0
 10
-41.74
 20
58.4
 11
-44.8
 21
58.4
  0
LINE
  8
0
 10
-44.8
 20
58.4
 11
-44.8
 21
54.4
  0
LINE
  8
0
 10
-44.8
 20
54.4
 11
-41.74
 21
54.4
  0
LINE
  8
0
 10
-41.74
 20
54.4
 11
-41.74
 21
50.4
  0
LINE
  8
0
 10
-41.74
 20
50.4
 11
-44.8
 21
50.4
  0
LINE
  8
0
 10
-44.8
 20
50.4
 11
-44.8
 21
46.4
  0
LINE
  8
0
 10
-44.8
 20
46.4
 11
-41.74
 21
46.4
  0
LINE
  8
0
 10
-41.74
 20
46.4
 11
-41.74
 21
35.6
  0
LINE
  8
0
 10
-41.74
 20
35.6
 11
-37.44
 21
35.6
  0
LINE
  8
0
 10
-37.44
 20
35.6
 11
-37.44
 21
38.66
  0
LINE
  8
0
 10
-37.94
 20
49.2
 11
-37.94
 21
54.2
  0
LINE
  8
0
 10
-37.94
 20
54.2
 11
-32.94
 21
54.2
  0
LINE
  8
0
 10
-32.94
 20
54.2
 11
-32.94
 21
49.2
  0
LINE
  8
0
 10
-32.94
 20
49.2
 11
-37.94
 21
49.2
  0
LINE
  8
0
 10
-29.14
 20
10.8
 11
-26.08
 21
10.8
  0
LINE
  8
0
 10
-26.08
 20
10.8
 11
-26.08
 21
14.8
  0
LINE
  8
0
 10
-26.08
 20
14.8
 11
-29.14
 21
14.8
  0
LINE
  8
0
 10
-29.14
 20
14.8
 11
-29.14
 21
18.8
  0
LINE
  8
0
 10
-29.14
 20
18.8
 11
-26.08
 21
18.8
  0
LINE
  8
0
 10
-26.08
 20
18.8
 11
-26.08
 21
22.8
  0
LINE
  8
0
 10
-26.08
 20
22.8
 11
-29.14
 21
22.8
  0
LINE
  8
0
 10
-29.14
 20
22.8
 11
-29.14
 21
33.6
  0
LINE
  8
0
 10
-29.14
 20
33.6
 11
-33.44
 21
33.6
  0
LINE
  8
0
 10
-33.44
 20
33.6
 11
-33.44
 21
30.54
  0
LINE
  8
0
 10
-33.44
 20
30.54
 11
-37.44
 21
30.54
  0
LINE
  8
0
 10
-37.44
 20
30.54
 11
-37.44
 21
33.6
  0
LINE
  8
0
 10
-37.44
 20
33.6
 11
-41.74
 21
33.6
  0
LINE
  8
0
 10
-41.74
 20
33.6
 11
-41.74
 21
22.8
  0
LINE
  8
0
 10
-41.74
 20
22.8
 11
-44.8
 21
22.8
  0
LINE
  8
0
 10
-44.8
 20
22.8
 11
-44.8
 21
18.8
  0
LINE
  8
0
 10
-44.8
 20
18.8
 11
-41.74
 21
18.8
  0
LINE
  8
0
 10
-41.74
 20
18.8
 11
-41.74
 21
14.8
  0
LINE
  8
0
 10
-41.74
 20
14.8
 11
-44.8
 21
14.8
  0
LINE
  8
0
 10
-44.8
 20
14.8
 11
-44.8
 21
10.8
  0
LINE
  8
0
 10
-44.8
 20
10.8
 11
-41.74
 21
10.8
  0
LINE
  8
0
 10
-41.74
 20
10.8
 11
-41.74
 21
3.06
  0
LINE
  8
0
 10
-41.74
 20
3.06
 11
-29.14
 21
3.06
  0
LINE
  8
0
 10
-29.14
 20
3.06
 11
-29.14
 21
10.8
  0
LINE
  8
0
 10
129.05
 20
3.06
 11
135.17
 21
3.06
  0
LINE
  8
0
 10
135.17
 20
3.06
 11
135.17
 21
0
  0
LINE
  8
0
 10
135.17
 20
0
 11
141.29
 21
0
  0
LINE
  8
0
 10
141.29
 20
0
 11
141.29
 21
3.06
  0
LINE
  8
0
 10
141.29
 20
3.06
 11
147.41
 21
3.06
  0
LINE
  8
0
 10
147.41
 20
3.06
 11
147.41
 21
0
  0
LINE
  8
0
 10
147.41
 20
0
 11
153.53
 21
0
  0
LINE
  8
0
 10
153.53
 20
0
 11
153.53
 21
3.06
  0
LINE
  8
0
 10
153.53
 20
3.06
 11
159.65
 21
3.06
  0
LINE
  8
0
 10
159.65
 20
3.06
 11
159.65
 21
0
  0
LINE
  8
0
 10
159.65
 20
0
 11
165.77
 21
0
  0
LINE
  8
0
 10
165.77
 20
0
 11
165.77
 21
3.06
  0
LINE
  8
0
 10
165.77
 20
3.06
 11
171.89
 21
3.06
  0
LINE
  8
0
 10
171.89
 20
3.06
 11
171.89
 21
0
  0
LINE
  8
0
 10
171.89
 20
0
 11
178.01
 21
0
  0
LINE
  8
0
 10
178.01
 20
0
 11
178.01
 21
3.06
  0
LINE
  8
0
 10
178.01
 20
3.06
 11
184.13
 21
3.06
  0
LINE
  8
0
 10
184.13
 20
3.06
 11
184.13
 21
0
  0
LINE
  8
0
 10
184.13
 20
0
 11
190.25
 21
0
  0
LINE
  8
0
 10
190.25
 20
0
 11
190.25
 21
3.06
  0
LINE
  8
0
 10
190.25
 20
3.06
 11
196.37
 21
3.06
  0
LINE
  8
0
 10
196.37
 20
3.06
 11
196.37
 21
0
  0
LINE
  8
0
 10
196.37
 20
0
 11
202.49
 21
0
  0
LINE
  8
0
 10
202.49
 20
0
 11
202.49
 21
3.06
  0
LINE
  8
0
 10
202.49
 20
3.06
 11
208.61
 21
3.06
  0
LINE
  8
0
 10
208.61
 20
3.06
 11
208.61
 21
0
  0
LINE
  8
0
 10
208.61
 20
0
 11
219.38
 21
0
  0
LINE
  8
0
 10
219.38
 20
0
 11
219.38
 21
13.74
  0
LINE
  8
0
 10
219.38
 20
13.74
 11
222.44
 21
13.74
  0
LINE
  8
0
 10
222.44
 20
13.74
 11
222.44
 21
19.86
  0
LINE
  8
0
 10
222.44
 20
19.86
 11
219.38
 21
19.86
  0
LINE
  8
0
 10
219.38
 20
19.86
 11
219.38
 21
33.6
  0
LINE
  8
0
 10
219.38
 20
33.6
 11
208.61
 21
33.6
  0
LINE
  8
0
 10
208.61
 20
33.6
 11
208.61
 21
30.54
  0
LINE
  8
0
 10
208.61
 20
30.54
 11
202.49
 21
30.54
  0
LINE
  8
0
 10
202.49
 20
30.54
 11
202.49
 21
33.6
  0
LINE
  8
0
 10
202.49
 20
33.6
 11
196.37
 21
33.6
  0
LINE
  8
0
 10
196.37
 20
33.6
 11
196.37
 21
30.54
  0
LINE
  8
0
 10
196.37
 20
30.54
 11
190.25
 21
30.54
  0
LINE
  8
0
 10
190.25
 20
30.54
 11
190.25
 21
33.6
  0
LINE
  8
0
 10
190.25
 20
33.6
 11
184.13
 21
33.6
  0
LINE
  8
0
 10
184.13
 20
33.6
 11
184.13
 21
30.54
  0
LINE
  8
0
 10
184.13
 20
30.54
 11
178.01
 21
30.54
  0
LINE
  8
0
 10
178.01
 20
30.54
 11
178.01
 21
33.6
  0
LINE
  8
0
 10
178.01
 20
33.6
 11
171.89
 21
33.6
  0
LINE
  8
0
 10
171.89
 20
33.6
 11
171.89
 21
30.54
  0
LINE
  8
0
 10
171.89
 20
30.54
 11
165.77
 21
30.54
  0
LINE
  8
0
 10
165.77
 20
30.54
 11
165.77
 21
33.6
  0
LINE
  8
0
 10
165.77
 20
33.6
 11
159.65
 21
33.6
  0
LINE
  8
0
 10
159.65
 20
33.6
 11
159.65
 21
30.54
  0
LINE
  8
0
 10
159.65
 20
30.54
 11
153.53
 21
30.54
  0
LINE
  8
0
 10
153.53
 20
30.54
 11
153.53
 21
33.6
  0
LINE
  8
0
 10
153.53
 20
33.6
 11
147.41
 21
33.6
  0
LINE
  8
0
 10
147.41
 20
33.6
 11
147.41
 21
30.54
  0
LINE
  8
0
 10
147.41
 20
30.54
 11
141.29
 21
30.54
  0
LINE
  8
0
 10
141.29
 20
30.54
 11
141.29
 21
33.6
  0
LINE
  8
0
 10
141.29
 20
33.6
 11
135.17
 21
33.6
  0
LINE
  8
0
 10
135.17
 20
33.6
 11
135.17
 21
30.54
  0
LINE
  8
0
 10
135.17
 20
30.54
 11
129.05
 21
30.54
  0
LINE
  8
0
 10
129.05
 20
30.54
 11
129.05
 21
33.6
  0
LINE
  8
0
 10
129.05
 20
33.6
 11
118.28
 21
33.6
  0
LINE
  8
0
 10
118.28
 20
33.6
 11
118.28
 21
19.86
  0
LINE
  8
0
 10
118.28
 20
19.86
 11
115.22
 21
19.86
  0
LINE
  8
0
 10
115.22
 20
19.86
 11
115.22
 21
13.74
  0
LINE
  8
0
 10
115.22
 20
13.74
 11
118.28
 21
13.74
  0
LINE
  8
0
 10
118.28
 20
13.74
 11
118.28
 21
0
  0
LINE
  8
0
 10
118.28
 20
0
 11
129.05
 21
0
  0
LINE
  8
0
 10
129.05
 20
0
 11
129.05
 21
3.06
  0
LINE
  8
0
 10
-16.72
 20
3.06
 11
-12.72
 21
3.06
  0
LINE
  8
0
 10
-12.72
 20
3.06
 11
-12.72
 21
0
  0
LINE
  8
0
 10
-12.72
 20
0
 11
-5.36002
 21
0
  0
LINE
  8
0
 10
-5.36002
 20
0
 11
-5.36002
 21
10.8
  0
LINE
  8
0
 10
-5.36002
 20
10.8
 11
-8.42001
 21
10.8
  0
LINE
  8
0
 10
-8.42001
 20
10.8
 11
-8.42001
 21
14.8
  0
LINE
  8
0
 10
-8.42001
 20
14.8
 11
-5.36002
 21
14.8
  0
LINE
  8
0
 10
-5.36002
 20
14.8
 11
-5.36002
 21
18.8
  0
LINE
  8
0
 10
-5.36002
 20
18.8
 11
-8.42001
 21
18.8
  0
LINE
  8
0
 10
-8.42001
 20
18.8
 11
-8.42001
 21
22.8
  0
LINE
  8
0
 10
-8.42001
 20
22.8
 11
-5.36002
 21
22.8
  0
LINE
  8
0
 10
-5.36002
 20
22.8
 11
-5.36002
 21
30.54
  0
LINE
  8
0
 10
-5.36002
 20
30.54
 11
-24.08
 21
30.54
  0
LINE
  8
0
 10
-24.08
 20
30.54
 11
-24.08
 21
22.8
  0
LINE
  8
0
 10
-24.08
 20
22.8
 11
-21.02
 21
22.8
  0
LINE
  8
0
 10
-21.02
 20
22.8
 11
-21.02
 21
18.8
  0
LINE
  8
0
 10
-21.02
 20
18.8
 11
-24.08
 21
18.8
  0
LINE
  8
0
 10
-24.08
 20
18.8
 11
-24.08
 21
14.8
  0
LINE
  8
0
 10
-24.08
 20
14.8
 11
-21.02
 21
14.8
  0
LINE
  8
0
 10
-21.02
 20
14.8
 11
-21.02
 21
10.8
  0
LINE
  8
0
 10
-21.02
 20
10.8
 11
-24.08
 21
10.8
  0
LINE
  8
0
 10
-24.08
 20
10.8
 11
-24.08
 21
0
  0
LINE
  8
0
 10
-24.08
 20
0
 11
-16.72
 21
0
  0
LINE
  8
0
 10
-16.72
 20
0
 11
-16.72
 21
3.06
  0
LINE
  8
0
 10
-15.97
 20
13.6
 11
-15.97
 21
18.6
  0
LINE
  8
0
 10
-15.97
 20
18.6
 11
-13.47
 21
18.6
  0
LINE
  8
0
 10
-13.47
 20
18.6
 11
-13.47
 21
13.6
  0
LINE
  8
0
 10
-13.47
 20
13.6
 11
-15.97
 21
13.6
  0
ENDSEC
  0
SECTION
  2
OBJECTS
  0
DICTIONARY
  0
ENDSEC
  0
EOF
