  0
SECTION
  2
HEADER
  9
$ACADVER
  1
AC1009
  9
$EXTMIN
 10
0.0
 20
0.0
 30
0.0
  9
$EXTMAX
 10
1000.0
 20
1000.0
 30
0.0
  9
$FILLMODE
 70
 0
  9
$SPLFRAME
 70
 1
  0
ENDSEC
  0
SECTION
  2
TABLES
  0
TABLE
  2
LAYER
 70
1
  0
LAYER
  2
0
 70
     0
 62
     7
  6
CONTINUOUS
  0
ENDTAB
  0
ENDSEC
  0
SECTION
  2
ENTITIES
  0
POLYLINE
  8
0
 62
     250
 66
     1
 10
0
 20
0
 30
0.0
 70
     1
 40
0
 41
0
  0
VERTEX
  8
0
 10
2.20019
 20
0.674154
 30
0.0
 40
0
 41
0
  0
VERTEX
  8
0
 10
1.13384
 20
0.0585394
 30
0.0
 40
0
 41
0
  0
VERTEX
  8
0
 10
0.0674914
 20
0.674154
 30
0.0
 40
0
 41
0
  0
VERTEX
  8
0
 10
0.0674914
 20
1.90554
 30
0.0
 40
0
 41
0
  0
VERTEX
  8
0
 10
1.13384
 20
2.52115
 30
0.0
 40
0
 41
0
  0
VERTEX
  8
0
 10
2.20019
 20
1.90554
 30
0.0
 40
0
 41
0
  0
VERTEX
  8
0
 10
2.20019
 20
0.674154
 30
0.0
 40
0
 41
0
  0
SEQEND
 8
0
  0
POLYLINE
  8
0
 62
     7
 66
     1
 10
0
 20
0
 30
0.0
 70
     1
 40
0.75
 41
0.75
  0
VERTEX
  8
0
 10
2.20019
 20
0.674154
 30
0.0
 40
0.0104167
 41
0.0104167
  0
VERTEX
  8
0
 10
1.13384
 20
0.0585394
 30
0.0
 40
0.0104167
 41
0.0104167
  0
VERTEX
  8
0
 10
0.0674914
 20
0.674154
 30
0.0
 40
0.0104167
 41
0.0104167
  0
VERTEX
  8
0
 10
0.0674914
 20
1.90554
 30
0.0
 40
0.0104167
 41
0.0104167
  0
VERTEX
  8
0
 10
1.13384
 20
2.52115
 30
0.0
 40
0.0104167
 41
0.0104167
  0
VERTEX
  8
0
 10
2.20019
 20
1.90554
 30
0.0
 40
0.0104167
 41
0.0104167
  0
VERTEX
  8
0
 10
2.20019
 20
0.674154
 30
0.0
 40
0.0104167
 41
0.0104167
  0
SEQEND
 8
0
  0
POLYLINE
  8
0
 62
     7
 66
     1
 10
0
 20
0
 30
0.0
 70
     1
 40
0
 41
0
  0
VERTEX
  8
0
 10
1.2972
 20
0.872396
 30
0.0
 40
0
 41
0
  0
VERTEX
  8
0
 10
1.31803
 20
0.836262
 30
0.0
 40
0
 41
0
  0
VERTEX
  8
0
 10
1.40739
 20
0.770725
 30
0.0
 40
0
 41
0
  0
VERTEX
  8
0
 10
1.44613
 20
0.729058
 30
0.0
 40
0
 41
0
  0
VERTEX
  8
0
 10
1.47592
 20
0.705186
 30
0.0
 40
0
 41
0
  0
VERTEX
  8
0
 10
1.49094
 20
0.705186
 30
0.0
 40
0
 41
0
  0
VERTEX
  8
0
 10
1.51768
 20
0.687283
 30
0.0
 40
0
 41
0
  0
VERTEX
  8
0
 10
1.53851
 20
0.612793
 30
0.0
 40
0
 41
0
  0
VERTEX
  8
0
 10
1.5625
 20
0.612793
 30
0.0
 40
0
 41
0
  0
VERTEX
  8
0
 10
1.57449
 20
0.627713
 30
0.0
 40
0
 41
0
  0
VERTEX
  8
0
 10
1.52979
 20
0.726019
 30
0.0
 40
0
 41
0
  0
VERTEX
  8
0
 10
1.47917
 20
0.8125
 30
0.0
 40
0
 41
0
  0
VERTEX
  8
0
 10
1.42404
 20
0.842285
 30
0.0
 40
0
 41
0
  0
VERTEX
  8
0
 10
1.35395
 20
0.872504
 30
0.0
 40
0
 41
0
  0
VERTEX
  8
0
 10
1.32113
 20
0.914171
 30
0.0
 40
0
 41
0
  0
VERTEX
  8
0
 10
1.42404
 20
0.955837
 30
0.0
 40
0
 41
0
  0
VERTEX
  8
0
 10
1.4821
 20
1.08333
 30
0.0
 40
0
 41
0
  0
VERTEX
  8
0
 10
1.57449
 20
1.03261
 30
0.0
 40
0
 41
0
  0
VERTEX
  8
0
 10
1.64899
 20
1.03852
 30
0.0
 40
0
 41
0
  0
VERTEX
  8
0
 10
1.68479
 20
1.05935
 30
0.0
 40
0
 41
0
  0
VERTEX
  8
0
 10
1.71761
 20
1.05935
 30
0.0
 40
0
 41
0
  0
VERTEX
  8
0
 10
1.76824
 20
1.01459
 30
0.0
 40
0
 41
0
  0
VERTEX
  8
0
 10
1.79508
 20
1.04145
 30
0.0
 40
0
 41
0
  0
VERTEX
  8
0
 10
1.74436
 20
1.08312
 30
0.0
 40
0
 41
0
  0
VERTEX
  8
0
 10
1.70563
 20
1.10091
 30
0.0
 40
0
 41
0
  0
VERTEX
  8
0
 10
1.63113
 20
1.10091
 30
0.0
 40
0
 41
0
  0
VERTEX
  8
0
 10
1.58638
 20
1.06814
 30
0.0
 40
0
 41
0
  0
VERTEX
  8
0
 10
1.53429
 20
1.11583
 30
0.0
 40
0
 41
0
  0
VERTEX
  8
0
 10
1.61322
 20
1.13666
 30
0.0
 40
0
 41
0
  0
VERTEX
  8
0
 10
1.63406
 20
1.15446
 30
0.0
 40
0
 41
0
  0
VERTEX
  8
0
 10
1.6371
 20
1.22314
 30
0.0
 40
0
 41
0
  0
VERTEX
  8
0
 10
1.67378
 20
1.29281
 30
0.0
 40
0
 41
0
  0
VERTEX
  8
0
 10
1.72054
 20
1.26481
 30
0.0
 40
0
 41
0
  0
VERTEX
  8
0
 10
1.81
 20
1.29471
 30
0.0
 40
0
 41
0
  0
VERTEX
  8
0
 10
1.84874
 20
1.33637
 30
0.0
 40
0
 41
0
  0
VERTEX
  8
0
 10
1.83919
 20
1.34977
 30
0.0
 40
0
 41
0
  0
VERTEX
  8
0
 10
1.79167
 20
1.31624
 30
0.0
 40
0
 41
0
  0
VERTEX
  8
0
 10
1.7155
 20
1.29926
 30
0.0
 40
0
 41
0
  0
VERTEX
  8
0
 10
1.67242
 20
1.31624
 30
0.0
 40
0
 41
0
  0
VERTEX
  8
0
 10
1.67844
 20
1.35791
 30
0.0
 40
0
 41
0
  0
VERTEX
  8
0
 10
1.65158
 20
1.37874
 30
0.0
 40
0
 41
0
  0
VERTEX
  8
0
 10
1.59196
 20
1.40554
 30
0.0
 40
0
 41
0
  0
VERTEX
  8
0
 10
1.59521
 20
1.49333
 30
0.0
 40
0
 41
0
  0
VERTEX
  8
0
 10
1.72917
 20
1.54281
 30
0.0
 40
0
 41
0
  0
VERTEX
  8
0
 10
1.71262
 20
1.55935
 30
0.0
 40
0
 41
0
  0
VERTEX
  8
0
 10
1.57721
 20
1.50103
 30
0.0
 40
0
 41
0
  0
VERTEX
  8
0
 10
1.57428
 20
1.41461
 30
0.0
 40
0
 41
0
  0
VERTEX
  8
0
 10
1.46094
 20
1.48019
 30
0.0
 40
0
 41
0
  0
VERTEX
  8
0
 10
1.41928
 20
1.46533
 30
0.0
 40
0
 41
0
  0
VERTEX
  8
0
 10
1.37158
 20
1.43251
 30
0.0
 40
0
 41
0
  0
VERTEX
  8
0
 10
1.35417
 20
1.37581
 30
0.0
 40
0
 41
0
  0
VERTEX
  8
0
 10
1.32134
 20
1.41749
 30
0.0
 40
0
 41
0
  0
VERTEX
  8
0
 10
1.3303
 20
1.45915
 30
0.0
 40
0
 41
0
  0
VERTEX
  8
0
 10
1.375
 20
1.48301
 30
0.0
 40
0
 41
0
  0
VERTEX
  8
0
 10
1.375
 20
1.50678
 30
0.0
 40
0
 41
0
  0
VERTEX
  8
0
 10
1.42572
 20
1.55154
 30
0.0
 40
0
 41
0
  0
VERTEX
  8
0
 10
1.42199
 20
1.64936
 30
0.0
 40
0
 41
0
  0
VERTEX
  8
0
 10
1.38699
 20
1.62603
 30
0.0
 40
0
 41
0
  0
VERTEX
  8
0
 10
1.40408
 20
1.57915
 30
0.0
 40
0
 41
0
  0
VERTEX
  8
0
 10
1.31239
 20
1.49794
 30
0.0
 40
0
 41
0
  0
VERTEX
  8
0
 10
1.29156
 20
1.45915
 30
0.0
 40
0
 41
0
  0
VERTEX
  8
0
 10
1.29156
 20
1.41439
 30
0.0
 40
0
 41
0
  0
VERTEX
  8
0
 10
1.22906
 20
1.40842
 30
0.0
 40
0
 41
0
  0
VERTEX
  8
0
 10
1.17844
 20
1.3846
 30
0.0
 40
0
 41
0
  0
VERTEX
  8
0
 10
1.13677
 20
1.37863
 30
0.0
 40
0
 41
0
  0
VERTEX
  8
0
 10
1.13677
 20
1.43229
 30
0.0
 40
0
 41
0
  0
VERTEX
  8
0
 10
1.22613
 20
1.45915
 30
0.0
 40
0
 41
0
  0
VERTEX
  8
0
 10
1.24116
 20
1.4949
 30
0.0
 40
0
 41
0
  0
VERTEX
  8
0
 10
1.23812
 20
1.58138
 30
0.0
 40
0
 41
0
  0
VERTEX
  8
0
 10
1.23221
 20
1.62603
 30
0.0
 40
0
 41
0
  0
VERTEX
  8
0
 10
1.19634
 20
1.60519
 30
0.0
 40
0
 41
0
  0
VERTEX
  8
0
 10
1.19303
 20
1.58436
 30
0.0
 40
0
 41
0
  0
VERTEX
  8
0
 10
1.20833
 20
1.54585
 30
0.0
 40
0
 41
0
  0
VERTEX
  8
0
 10
1.21126
 20
1.51893
 30
0.0
 40
0
 41
0
  0
VERTEX
  8
0
 10
1.15761
 20
1.4981
 30
0.0
 40
0
 41
0
  0
VERTEX
  8
0
 10
1.08008
 20
1.44146
 30
0.0
 40
0
 41
0
  0
VERTEX
  8
0
 10
1.08008
 20
1.3699
 30
0.0
 40
0
 41
0
  0
VERTEX
  8
0
 10
0.925131
 20
1.39675
 30
0.0
 40
0
 41
0
  0
VERTEX
  8
0
 10
0.629992
 20
1.46533
 30
0.0
 40
0
 41
0
  0
VERTEX
  8
0
 10
0.564399
 20
1.47721
 30
0.0
 40
0
 41
0
  0
VERTEX
  8
0
 10
0.418565
 20
1.48915
 30
0.0
 40
0
 41
0
  0
VERTEX
  8
0
 10
0.320096
 20
1.45638
 30
0.0
 40
0
 41
0
  0
VERTEX
  8
0
 10
0.284397
 20
1.41168
 30
0.0
 40
0
 41
0
  0
VERTEX
  8
0
 10
0.284397
 20
1.37885
 30
0.0
 40
0
 41
0
  0
VERTEX
  8
0
 10
0.349989
 20
1.34603
 30
0.0
 40
0
 41
0
  0
VERTEX
  8
0
 10
0.421442
 20
1.28646
 30
0.0
 40
0
 41
0
  0
VERTEX
  8
0
 10
0.463108
 20
1.26563
 30
0.0
 40
0
 41
0
  0
VERTEX
  8
0
 10
0.495931
 20
1.23584
 30
0.0
 40
0
 41
0
  0
VERTEX
  8
0
 10
0.570421
 20
1.21197
 30
0.0
 40
0
 41
0
  0
VERTEX
  8
0
 10
0.707628
 20
1.25071
 30
0.0
 40
0
 41
0
  0
VERTEX
  8
0
 10
0.728461
 20
1.25071
 30
0.0
 40
0
 41
0
  0
VERTEX
  8
0
 10
0.871582
 20
1.25971
 30
0.0
 40
0
 41
0
  0
VERTEX
  8
0
 10
0.993761
 20
1.27458
 30
0.0
 40
0
 41
0
  0
VERTEX
  8
0
 10
0.979167
 20
1.20898
 30
0.0
 40
0
 41
0
  0
VERTEX
  8
0
 10
0.921332
 20
1.2328
 30
0.0
 40
0
 41
0
  0
VERTEX
  8
0
 10
0.858832
 20
1.2149
 30
0.0
 40
0
 41
0
  0
VERTEX
  8
0
 10
0.772299
 20
1.17231
 30
0.0
 40
0
 41
0
  0
VERTEX
  8
0
 10
0.739583
 20
1.15625
 30
0.0
 40
0
 41
0
  0
VERTEX
  8
0
 10
0.685004
 20
1.16021
 30
0.0
 40
0
 41
0
  0
VERTEX
  8
0
 10
0.634169
 20
1.14198
 30
0.0
 40
0
 41
0
  0
VERTEX
  8
0
 10
0.565647
 20
1.11675
 30
0.0
 40
0
 41
0
  0
VERTEX
  8
0
 10
0.518772
 20
1.09939
 30
0.0
 40
0
 41
0
  0
VERTEX
  8
0
 10
0.503147
 20
1.07509
 30
0.0
 40
0
 41
0
  0
VERTEX
  8
0
 10
0.502604
 20
1.07319
 30
0.0
 40
0
 41
0
  0
VERTEX
  8
0
 10
0.503635
 20
1.06668
 30
0.0
 40
0
 41
0
  0
VERTEX
  8
0
 10
0.511447
 20
1.06977
 30
0.0
 40
0
 41
0
  0
VERTEX
  8
0
 10
0.52219
 20
1.07796
 30
0.0
 40
0
 41
0
  0
VERTEX
  8
0
 10
0.529025
 20
1.08339
 30
0.0
 40
0
 41
0
  0
VERTEX
  8
0
 10
0.531358
 20
1.08469
 30
0.0
 40
0
 41
0
  0
VERTEX
  8
0
 10
0.546983
 20
1.09115
 30
0.0
 40
0
 41
0
  0
VERTEX
  8
0
 10
0.589899
 20
1.1071
 30
0.0
 40
0
 41
0
  0
VERTEX
  8
0
 10
0.591092
 20
1.1071
 30
0.0
 40
0
 41
0
  0
VERTEX
  8
0
 10
0.594672
 20
1.10975
 30
0.0
 40
0
 41
0
  0
VERTEX
  8
0
 10
0.60471
 20
1.11551
 30
0.0
 40
0
 41
0
  0
VERTEX
  8
0
 10
0.614746
 20
1.12126
 30
0.0
 40
0
 41
0
  0
VERTEX
  8
0
 10
0.618326
 20
1.12386
 30
0.0
 40
0
 41
0
  0
VERTEX
  8
0
 10
0.619575
 20
1.12386
 30
0.0
 40
0
 41
0
  0
VERTEX
  8
0
 10
0.689399
 20
1.13157
 30
0.0
 40
0
 41
0
  0
VERTEX
  8
0
 10
0.576172
 20
1.03624
 30
0.0
 40
0
 41
0
  0
VERTEX
  8
0
 10
0.52539
 20
0.976563
 30
0.0
 40
0
 41
0
  0
VERTEX
  8
0
 10
0.489908
 20
0.914063
 30
0.0
 40
0
 41
0
  0
VERTEX
  8
0
 10
0.481446
 20
0.857096
 30
0.0
 40
0
 41
0
  0
VERTEX
  8
0
 10
0.501682
 20
0.79031
 30
0.0
 40
0
 41
0
  0
VERTEX
  8
0
 10
0.543349
 20
0.74094
 30
0.0
 40
0
 41
0
  0
VERTEX
  8
0
 10
0.608832
 20
0.717068
 30
0.0
 40
0
 41
0
  0
VERTEX
  8
0
 10
0.692165
 20
0.717068
 30
0.0
 40
0
 41
0
  0
VERTEX
  8
0
 10
0.784993
 20
0.725206
 30
0.0
 40
0
 41
0
  0
VERTEX
  8
0
 10
0.879992
 20
0.767796
 30
0.0
 40
0
 41
0
  0
VERTEX
  8
0
 10
0.882921
 20
0.735026
 30
0.0
 40
0
 41
0
  0
VERTEX
  8
0
 10
0.855632
 20
0.709039
 30
0.0
 40
0
 41
0
  0
VERTEX
  8
0
 10
0.826335
 20
0.681369
 30
0.0
 40
0
 41
0
  0
VERTEX
  8
0
 10
0.790528
 20
0.671767
 30
0.0
 40
0
 41
0
  0
VERTEX
  8
0
 10
0.75
 20
0.65625
 30
0.0
 40
0
 41
0
  0
VERTEX
  8
0
 10
0.736654
 20
0.644694
 30
0.0
 40
0
 41
0
  0
VERTEX
  8
0
 10
0.734375
 20
0.642253
 30
0.0
 40
0
 41
0
  0
VERTEX
  8
0
 10
0.715115
 20
0.614963
 30
0.0
 40
0
 41
0
  0
VERTEX
  8
0
 10
0.713542
 20
0.611979
 30
0.0
 40
0
 41
0
  0
VERTEX
  8
0
 10
0.725206
 20
0.587294
 30
0.0
 40
0
 41
0
  0
VERTEX
  8
0
 10
0.748969
 20
0.628961
 30
0.0
 40
0
 41
0
  0
VERTEX
  8
0
 10
0.832303
 20
0.651964
 30
0.0
 40
0
 41
0
  0
VERTEX
  8
0
 10
0.817925
 20
0.631782
 30
0.0
 40
0
 41
0
  0
VERTEX
  8
0
 10
0.787489
 20
0.589356
 30
0.0
 40
0
 41
0
  0
VERTEX
  8
0
 10
0.790528
 20
0.517796
 30
0.0
 40
0
 41
0
  0
VERTEX
  8
0
 10
0.772624
 20
0.422418
 30
0.0
 40
0
 41
0
  0
VERTEX
  8
0
 10
0.778646
 20
0.356879
 30
0.0
 40
0
 41
0
  0
VERTEX
  8
0
 10
0.796442
 20
0.326986
 30
0.0
 40
0
 41
0
  0
VERTEX
  8
0
 10
0.832303
 20
0.306153
 30
0.0
 40
0
 41
0
  0
VERTEX
  8
0
 10
0.873969
 20
0.306153
 30
0.0
 40
0
 41
0
  0
VERTEX
  8
0
 10
0.894803
 20
0.330024
 30
0.0
 40
0
 41
0
  0
VERTEX
  8
0
 10
1.00803
 20
0.428331
 30
0.0
 40
0
 41
0
  0
VERTEX
  8
0
 10
1.13927
 20
0.678331
 30
0.0
 40
0
 41
0
  0
VERTEX
  8
0
 10
1.23763
 20
0.872504
 30
0.0
 40
0
 41
0
  0
VERTEX
  8
0
 10
1.25553
 20
0.898981
 30
0.0
 40
0
 41
0
  0
VERTEX
  8
0
 10
1.2972
 20
0.872396
 30
0.0
 40
0
 41
0
  0
SEQEND
 8
0
  0
POLYLINE
  8
0
 62
     250
 66
     1
 10
0
 20
0
 30
0.0
 70
     1
 40
0
 41
0
  0
VERTEX
  8
0
 10
0.738878
 20
1.1569
 30
0.0
 40
0
 41
0
  0
VERTEX
  8
0
 10
0.738878
 20
1.1569
 30
0.0
 40
0
 41
0
  0
VERTEX
  8
0
 10
0.748807
 20
1.16064
 30
0.0
 40
0
 41
0
  0
VERTEX
  8
0
 10
0.770725
 20
1.17182
 30
0.0
 40
0
 41
0
  0
VERTEX
  8
0
 10
0.792589
 20
1.183
 30
0.0
 40
0
 41
0
  0
VERTEX
  8
0
 10
0.802518
 20
1.18669
 30
0.0
 40
0
 41
0
  0
VERTEX
  8
0
 10
0.802518
 20
1.18669
 30
0.0
 40
0
 41
0
  0
VERTEX
  8
0
 10
0.801975
 20
1.17703
 30
0.0
 40
0
 41
0
  0
VERTEX
  8
0
 10
0.812771
 20
1.08143
 30
0.0
 40
0
 41
0
  0
VERTEX
  8
0
 10
0.815429
 20
1.0721
 30
0.0
 40
0
 41
0
  0
VERTEX
  8
0
 10
0.82091
 20
1.05588
 30
0.0
 40
0
 41
0
  0
VERTEX
  8
0
 10
0.842393
 20
1.00873
 30
0.0
 40
0
 41
0
  0
VERTEX
  8
0
 10
0.879069
 20
0.939019
 30
0.0
 40
0
 41
0
  0
VERTEX
  8
0
 10
0.914931
 20
0.877496
 30
0.0
 40
0
 41
0
  0
VERTEX
  8
0
 10
0.934407
 20
0.846246
 30
0.0
 40
0
 41
0
  0
VERTEX
  8
0
 10
0.939561
 20
0.83865
 30
0.0
 40
0
 41
0
  0
VERTEX
  8
0
 10
0.939942
 20
0.838108
 30
0.0
 40
0
 41
0
  0
VERTEX
  8
0
 10
0.94949
 20
0.827746
 30
0.0
 40
0
 41
0
  0
VERTEX
  8
0
 10
0.958442
 20
0.813368
 30
0.0
 40
0
 41
0
  0
VERTEX
  8
0
 10
0.95855
 20
0.810818
 30
0.0
 40
0
 41
0
  0
VERTEX
  8
0
 10
0.956651
 20
0.809028
 30
0.0
 40
0
 41
0
  0
VERTEX
  8
0
 10
0.935872
 20
0.793024
 30
0.0
 40
0
 41
0
  0
VERTEX
  8
0
 10
0.933649
 20
0.791667
 30
0.0
 40
0
 41
0
  0
VERTEX
  8
0
 10
0.930772
 20
0.789714
 30
0.0
 40
0
 41
0
  0
VERTEX
  8
0
 10
0.921386
 20
0.782769
 30
0.0
 40
0
 41
0
  0
VERTEX
  8
0
 10
0.915256
 20
0.780436
 30
0.0
 40
0
 41
0
  0
VERTEX
  8
0
 10
0.914063
 20
0.780707
 30
0.0
 40
0
 41
0
  0
VERTEX
  8
0
 10
0.909506
 20
0.781956
 30
0.0
 40
0
 41
0
  0
VERTEX
  8
0
 10
0.896864
 20
0.789117
 30
0.0
 40
0
 41
0
  0
VERTEX
  8
0
 10
0.881131
 20
0.802572
 30
0.0
 40
0
 41
0
  0
VERTEX
  8
0
 10
0.86811
 20
0.817492
 30
0.0
 40
0
 41
0
  0
VERTEX
  8
0
 10
0.861165
 20
0.827094
 30
0.0
 40
0
 41
0
  0
VERTEX
  8
0
 10
0.859158
 20
0.830404
 30
0.0
 40
0
 41
0
  0
VERTEX
  8
0
 10
0.854656
 20
0.837782
 30
0.0
 40
0
 41
0
  0
VERTEX
  8
0
 10
0.841092
 20
0.8597
 30
0.0
 40
0
 41
0
  0
VERTEX
  8
0
 10
0.827963
 20
0.880317
 30
0.0
 40
0
 41
0
  0
VERTEX
  8
0
 10
0.818793
 20
0.894206
 30
0.0
 40
0
 41
0
  0
VERTEX
  8
0
 10
0.812554
 20
0.903267
 30
0.0
 40
0
 41
0
  0
VERTEX
  8
0
 10
0.808322
 20
0.909343
 30
0.0
 40
0
 41
0
  0
VERTEX
  8
0
 10
0.805067
 20
0.914387
 30
0.0
 40
0
 41
0
  0
VERTEX
  8
0
 10
0.801758
 20
0.920247
 30
0.0
 40
0
 41
0
  0
VERTEX
  8
0
 10
0.798557
 20
0.92665
 30
0.0
 40
0
 41
0
  0
VERTEX
  8
0
 10
0.797526
 20
0.928765
 30
0.0
 40
0
 41
0
  0
VERTEX
  8
0
 10
0.792806
 20
0.938368
 30
0.0
 40
0
 41
0
  0
VERTEX
  8
0
 10
0.756293
 20
1.03857
 30
0.0
 40
0
 41
0
  0
VERTEX
  8
0
 10
0.753743
 20
1.04894
 30
0.0
 40
0
 41
0
  0
VERTEX
  8
0
 10
0.751628
 20
1.05783
 30
0.0
 40
0
 41
0
  0
VERTEX
  8
0
 10
0.739204
 20
1.14817
 30
0.0
 40
0
 41
0
  0
VERTEX
  8
0
 10
0.738878
 20
1.15728
 30
0.0
 40
0
 41
0
  0
SEQEND
 8
0
  0
POLYLINE
  8
0
 62
     250
 66
     1
 10
0
 20
0
 30
0.0
 70
     1
 40
0
 41
0
  0
VERTEX
  8
0
 10
0.919706
 20
1.23145
 30
0.0
 40
0
 41
0
  0
VERTEX
  8
0
 10
0.920518
 20
1.23063
 30
0.0
 40
0
 41
0
  0
VERTEX
  8
0
 10
0.923936
 20
1.21973
 30
0.0
 40
0
 41
0
  0
VERTEX
  8
0
 10
0.923774
 20
1.21853
 30
0.0
 40
0
 41
0
  0
VERTEX
  8
0
 10
1.05783
 20
0.918457
 30
0.0
 40
0
 41
0
  0
VERTEX
  8
0
 10
1.05848
 20
0.916775
 30
0.0
 40
0
 41
0
  0
VERTEX
  8
0
 10
1.06543
 20
0.899957
 30
0.0
 40
0
 41
0
  0
VERTEX
  8
0
 10
1.06613
 20
0.898221
 30
0.0
 40
0
 41
0
  0
VERTEX
  8
0
 10
1.07482
 20
0.877388
 30
0.0
 40
0
 41
0
  0
VERTEX
  8
0
 10
1.04991
 20
0.861165
 30
0.0
 40
0
 41
0
  0
VERTEX
  8
0
 10
1.03624
 20
0.883789
 30
0.0
 40
0
 41
0
  0
VERTEX
  8
0
 10
0.996039
 20
0.952203
 30
0.0
 40
0
 41
0
  0
VERTEX
  8
0
 10
0.953993
 20
1.02718
 30
0.0
 40
0
 41
0
  0
VERTEX
  8
0
 10
0.922526
 20
1.08757
 30
0.0
 40
0
 41
0
  0
VERTEX
  8
0
 10
0.900663
 20
1.13482
 30
0.0
 40
0
 41
0
  0
VERTEX
  8
0
 10
0.887099
 20
1.1703
 30
0.0
 40
0
 41
0
  0
VERTEX
  8
0
 10
0.880806
 20
1.19548
 30
0.0
 40
0
 41
0
  0
VERTEX
  8
0
 10
0.880643
 20
1.21175
 30
0.0
 40
0
 41
0
  0
VERTEX
  8
0
 10
0.883626
 20
1.21913
 30
0.0
 40
0
 41
0
  0
VERTEX
  8
0
 10
0.885417
 20
1.22054
 30
0.0
 40
0
 41
0
  0
VERTEX
  8
0
 10
0.886122
 20
1.22125
 30
0.0
 40
0
 41
0
  0
VERTEX
  8
0
 10
0.890679
 20
1.22439
 30
0.0
 40
0
 41
0
  0
VERTEX
  8
0
 10
0.900174
 20
1.22966
 30
0.0
 40
0
 41
0
  0
VERTEX
  8
0
 10
0.910915
 20
1.23313
 30
0.0
 40
0
 41
0
  0
VERTEX
  8
0
 10
0.918132
 20
1.23269
 30
0.0
 40
0
 41
0
  0
VERTEX
  8
0
 10
0.919706
 20
1.23145
 30
0.0
 40
0
 41
0
  0
SEQEND
 8
0
  0
POLYLINE
  8
0
 62
     250
 66
     1
 10
0
 20
0
 30
0.0
 70
     1
 40
0
 41
0
  0
VERTEX
  8
0
 10
0.700087
 20
1.13997
 30
0.0
 40
0
 41
0
  0
VERTEX
  8
0
 10
0.698731
 20
1.13336
 30
0.0
 40
0
 41
0
  0
VERTEX
  8
0
 10
0.693793
 20
1.06624
 30
0.0
 40
0
 41
0
  0
VERTEX
  8
0
 10
0.694174
 20
1.05946
 30
0.0
 40
0
 41
0
  0
VERTEX
  8
0
 10
0.694824
 20
1.04785
 30
0.0
 40
0
 41
0
  0
VERTEX
  8
0
 10
0.705296
 20
0.990668
 30
0.0
 40
0
 41
0
  0
VERTEX
  8
0
 10
0.724772
 20
0.935872
 30
0.0
 40
0
 41
0
  0
VERTEX
  8
0
 10
0.729981
 20
0.925401
 30
0.0
 40
0
 41
0
  0
VERTEX
  8
0
 10
0.733615
 20
0.918349
 30
0.0
 40
0
 41
0
  0
VERTEX
  8
0
 10
0.777018
 20
0.851997
 30
0.0
 40
0
 41
0
  0
VERTEX
  8
0
 10
0.782064
 20
0.845811
 30
0.0
 40
0
 41
0
  0
VERTEX
  8
0
 10
0.788683
 20
0.837076
 30
0.0
 40
0
 41
0
  0
VERTEX
  8
0
 10
0.809463
 20
0.811361
 30
0.0
 40
0
 41
0
  0
VERTEX
  8
0
 10
0.833604
 20
0.783638
 30
0.0
 40
0
 41
0
  0
VERTEX
  8
0
 10
0.851129
 20
0.765408
 30
0.0
 40
0
 41
0
  0
VERTEX
  8
0
 10
0.85829
 20
0.759224
 30
0.0
 40
0
 41
0
  0
VERTEX
  8
0
 10
0.858669
 20
0.759494
 30
0.0
 40
0
 41
0
  0
VERTEX
  8
0
 10
0.858942
 20
0.759765
 30
0.0
 40
0
 41
0
  0
VERTEX
  8
0
 10
0.853842
 20
0.767469
 30
0.0
 40
0
 41
0
  0
VERTEX
  8
0
 10
0.838053
 20
0.788574
 30
0.0
 40
0
 41
0
  0
VERTEX
  8
0
 10
0.813422
 20
0.822537
 30
0.0
 40
0
 41
0
  0
VERTEX
  8
0
 10
0.78966
 20
0.857096
 30
0.0
 40
0
 41
0
  0
VERTEX
  8
0
 10
0.782064
 20
0.868761
 30
0.0
 40
0
 41
0
  0
VERTEX
  8
0
 10
0.777344
 20
0.875435
 30
0.0
 40
0
 41
0
  0
VERTEX
  8
0
 10
0.736817
 20
0.945856
 30
0.0
 40
0
 41
0
  0
VERTEX
  8
0
 10
0.733453
 20
0.953233
 30
0.0
 40
0
 41
0
  0
VERTEX
  8
0
 10
0.733453
 20
0.953233
 30
0.0
 40
0
 41
0
  0
VERTEX
  8
0
 10
0.728842
 20
0.965061
 30
0.0
 40
0
 41
0
  0
VERTEX
  8
0
 10
0.71875
 20
0.995931
 30
0.0
 40
0
 41
0
  0
VERTEX
  8
0
 10
0.708822
 20
1.03895
 30
0.0
 40
0
 41
0
  0
VERTEX
  8
0
 10
0.704482
 20
1.07525
 30
0.0
 40
0
 41
0
  0
VERTEX
  8
0
 10
0.70459
 20
1.08729
 30
0.0
 40
0
 41
0
  0
VERTEX
  8
0
 10
0.70459
 20
1.09283
 30
0.0
 40
0
 41
0
  0
VERTEX
  8
0
 10
0.705567
 20
1.10932
 30
0.0
 40
0
 41
0
  0
VERTEX
  8
0
 10
0.706543
 20
1.11914
 30
0.0
 40
0
 41
0
  0
VERTEX
  8
0
 10
0.706543
 20
1.11914
 30
0.0
 40
0
 41
0
  0
VERTEX
  8
0
 10
0.706814
 20
1.12158
 30
0.0
 40
0
 41
0
  0
VERTEX
  8
0
 10
0.710124
 20
1.14225
 30
0.0
 40
0
 41
0
  0
VERTEX
  8
0
 10
0.710504
 20
1.14393
 30
0.0
 40
0
 41
0
  0
SEQEND
 8
0
  0
POLYLINE
  8
0
 62
     250
 66
     1
 10
0
 20
0
 30
0.0
 70
     1
 40
0
 41
0
  0
VERTEX
  8
0
 10
0.622721
 20
1.07416
 30
0.0
 40
0
 41
0
  0
VERTEX
  8
0
 10
0.622721
 20
1.07416
 30
0.0
 40
0
 41
0
  0
VERTEX
  8
0
 10
0.622939
 20
1.07574
 30
0.0
 40
0
 41
0
  0
VERTEX
  8
0
 10
0.622831
 20
1.07454
 30
0.0
 40
0
 41
0
  0
VERTEX
  8
0
 10
0.622721
 20
1.07416
 30
0.0
 40
0
 41
0
  0
VERTEX
  8
0
 10
0.621149
 20
1.06831
 30
0.0
 40
0
 41
0
  0
VERTEX
  8
0
 10
0.613553
 20
1.00803
 30
0.0
 40
0
 41
0
  0
VERTEX
  8
0
 10
0.613661
 20
1.0019
 30
0.0
 40
0
 41
0
  0
VERTEX
  8
0
 10
0.613769
 20
0.991319
 30
0.0
 40
0
 41
0
  0
VERTEX
  8
0
 10
0.617839
 20
0.959526
 30
0.0
 40
0
 41
0
  0
VERTEX
  8
0
 10
0.627713
 20
0.922635
 30
0.0
 40
0
 41
0
  0
VERTEX
  8
0
 10
0.640463
 20
0.891168
 30
0.0
 40
0
 41
0
  0
VERTEX
  8
0
 10
0.650065
 20
0.871365
 30
0.0
 40
0
 41
0
  0
VERTEX
  8
0
 10
0.653429
 20
0.8648
 30
0.0
 40
0
 41
0
  0
VERTEX
  8
0
 10
0.656901
 20
0.857964
 30
0.0
 40
0
 41
0
  0
VERTEX
  8
0
 10
0.677572
 20
0.821615
 30
0.0
 40
0
 41
0
  0
VERTEX
  8
0
 10
0.706489
 20
0.786567
 30
0.0
 40
0
 41
0
  0
VERTEX
  8
0
 10
0.714085
 20
0.780328
 30
0.0
 40
0
 41
0
  0
VERTEX
  8
0
 10
0.717393
 20
0.777615
 30
0.0
 40
0
 41
0
  0
VERTEX
  8
0
 10
0.727865
 20
0.769857
 30
0.0
 40
0
 41
0
  0
VERTEX
  8
0
 10
0.738715
 20
0.762912
 30
0.0
 40
0
 41
0
  0
VERTEX
  8
0
 10
0.749838
 20
0.756022
 30
0.0
 40
0
 41
0
  0
VERTEX
  8
0
 10
0.761068
 20
0.748264
 30
0.0
 40
0
 41
0
  0
VERTEX
  8
0
 10
0.764703
 20
0.745497
 30
0.0
 40
0
 41
0
  0
VERTEX
  8
0
 10
0.767144
 20
0.743435
 30
0.0
 40
0
 41
0
  0
VERTEX
  8
0
 10
0.794542
 20
0.726887
 30
0.0
 40
0
 41
0
  0
VERTEX
  8
0
 10
0.797526
 20
0.72564
 30
0.0
 40
0
 41
0
  0
VERTEX
  8
0
 10
0.797526
 20
0.72564
 30
0.0
 40
0
 41
0
  0
VERTEX
  8
0
 10
0.805012
 20
0.725151
 30
0.0
 40
0
 41
0
  0
VERTEX
  8
0
 10
0.815321
 20
0.725151
 30
0.0
 40
0
 41
0
  0
VERTEX
  8
0
 10
0.815429
 20
0.72564
 30
0.0
 40
0
 41
0
  0
VERTEX
  8
0
 10
0.81581
 20
0.728244
 30
0.0
 40
0
 41
0
  0
VERTEX
  8
0
 10
0.807997
 20
0.739637
 30
0.0
 40
0
 41
0
  0
VERTEX
  8
0
 10
0.795139
 20
0.747831
 30
0.0
 40
0
 41
0
  0
VERTEX
  8
0
 10
0.793024
 20
0.748861
 30
0.0
 40
0
 41
0
  0
VERTEX
  8
0
 10
0.78456
 20
0.752983
 30
0.0
 40
0
 41
0
  0
VERTEX
  8
0
 10
0.76161
 20
0.770074
 30
0.0
 40
0
 41
0
  0
VERTEX
  8
0
 10
0.729764
 20
0.80165
 30
0.0
 40
0
 41
0
  0
VERTEX
  8
0
 10
0.699815
 20
0.839844
 30
0.0
 40
0
 41
0
  0
VERTEX
  8
0
 10
0.680067
 20
0.870335
 30
0.0
 40
0
 41
0
  0
VERTEX
  8
0
 10
0.674263
 20
0.88086
 30
0.0
 40
0
 41
0
  0
VERTEX
  8
0
 10
0.670301
 20
0.888075
 30
0.0
 40
0
 41
0
  0
VERTEX
  8
0
 10
0.658963
 20
0.909885
 30
0.0
 40
0
 41
0
  0
VERTEX
  8
0
 10
0.643608
 20
0.944769
 30
0.0
 40
0
 41
0
  0
VERTEX
  8
0
 10
0.631401
 20
0.985786
 30
0.0
 40
0
 41
0
  0
VERTEX
  8
0
 10
0.625976
 20
1.02116
 30
0.0
 40
0
 41
0
  0
VERTEX
  8
0
 10
0.625651
 20
1.03293
 30
0.0
 40
0
 41
0
  0
VERTEX
  8
0
 10
0.625651
 20
1.03912
 30
0.0
 40
0
 41
0
  0
VERTEX
  8
0
 10
0.626899
 20
1.05756
 30
0.0
 40
0
 41
0
  0
VERTEX
  8
0
 10
0.62831
 20
1.07856
 30
0.0
 40
0
 41
0
  0
VERTEX
  8
0
 10
0.628418
 20
1.08062
 30
0.0
 40
0
 41
0
  0
VERTEX
  8
0
 10
0.628418
 20
1.08078
 30
0.0
 40
0
 41
0
  0
VERTEX
  8
0
 10
0.626085
 20
1.08122
 30
0.0
 40
0
 41
0
  0
VERTEX
  8
0
 10
0.622939
 20
1.07416
 30
0.0
 40
0
 41
0
  0
VERTEX
  8
0
 10
0.622721
 20
1.07416
 30
0.0
 40
0
 41
0
  0
SEQEND
 8
0
  0
POLYLINE
  8
0
 62
     250
 66
     1
 10
0
 20
0
 30
0.0
 70
     1
 40
0
 41
0
  0
VERTEX
  8
0
 10
0.597819
 20
1.05659
 30
0.0
 40
0
 41
0
  0
VERTEX
  8
0
 10
0.597168
 20
1.05659
 30
0.0
 40
0
 41
0
  0
VERTEX
  8
0
 10
0.595324
 20
1.04991
 30
0.0
 40
0
 41
0
  0
VERTEX
  8
0
 10
0.591581
 20
1.03217
 30
0.0
 40
0
 41
0
  0
VERTEX
  8
0
 10
0.587457
 20
1.00678
 30
0.0
 40
0
 41
0
  0
VERTEX
  8
0
 10
0.584581
 20
0.984538
 30
0.0
 40
0
 41
0
  0
VERTEX
  8
0
 10
0.583876
 20
0.977106
 30
0.0
 40
0
 41
0
  0
VERTEX
  8
0
 10
0.583117
 20
0.969889
 30
0.0
 40
0
 41
0
  0
VERTEX
  8
0
 10
0.581651
 20
0.948079
 30
0.0
 40
0
 41
0
  0
VERTEX
  8
0
 10
0.581489
 20
0.928276
 30
0.0
 40
0
 41
0
  0
VERTEX
  8
0
 10
0.582519
 20
0.915744
 30
0.0
 40
0
 41
0
  0
VERTEX
  8
0
 10
0.583442
 20
0.910211
 30
0.0
 40
0
 41
0
  0
VERTEX
  8
0
 10
0.583876
 20
0.908421
 30
0.0
 40
0
 41
0
  0
VERTEX
  8
0
 10
0.584799
 20
0.903538
 30
0.0
 40
0
 41
0
  0
VERTEX
  8
0
 10
0.600478
 20
0.856392
 30
0.0
 40
0
 41
0
  0
VERTEX
  8
0
 10
0.602701
 20
0.851887
 30
0.0
 40
0
 41
0
  0
VERTEX
  8
0
 10
0.605197
 20
0.846733
 30
0.0
 40
0
 41
0
  0
VERTEX
  8
0
 10
0.639268
 20
0.801107
 30
0.0
 40
0
 41
0
  0
VERTEX
  8
0
 10
0.643554
 20
0.7972
 30
0.0
 40
0
 41
0
  0
VERTEX
  8
0
 10
0.645887
 20
0.794922
 30
0.0
 40
0
 41
0
  0
VERTEX
  8
0
 10
0.652994
 20
0.787869
 30
0.0
 40
0
 41
0
  0
VERTEX
  8
0
 10
0.662978
 20
0.777724
 30
0.0
 40
0
 41
0
  0
VERTEX
  8
0
 10
0.666342
 20
0.77436
 30
0.0
 40
0
 41
0
  0
VERTEX
  8
0
 10
0.670139
 20
0.770671
 30
0.0
 40
0
 41
0
  0
VERTEX
  8
0
 10
0.713596
 20
0.740994
 30
0.0
 40
0
 41
0
  0
VERTEX
  8
0
 10
0.718425
 20
0.738769
 30
0.0
 40
0
 41
0
  0
VERTEX
  8
0
 10
0.721192
 20
0.736925
 30
0.0
 40
0
 41
0
  0
VERTEX
  8
0
 10
0.752279
 20
0.725965
 30
0.0
 40
0
 41
0
  0
VERTEX
  8
0
 10
0.755643
 20
0.72564
 30
0.0
 40
0
 41
0
  0
VERTEX
  8
0
 10
0.757269
 20
0.724772
 30
0.0
 40
0
 41
0
  0
VERTEX
  8
0
 10
0.774631
 20
0.718207
 30
0.0
 40
0
 41
0
  0
VERTEX
  8
0
 10
0.776476
 20
0.717719
 30
0.0
 40
0
 41
0
  0
VERTEX
  8
0
 10
0.776585
 20
0.717719
 30
0.0
 40
0
 41
0
  0
VERTEX
  8
0
 10
0.777072
 20
0.7213
 30
0.0
 40
0
 41
0
  0
VERTEX
  8
0
 10
0.772299
 20
0.726074
 30
0.0
 40
0
 41
0
  0
VERTEX
  8
0
 10
0.770725
 20
0.726671
 30
0.0
 40
0
 41
0
  0
VERTEX
  8
0
 10
0.7685
 20
0.727539
 30
0.0
 40
0
 41
0
  0
VERTEX
  8
0
 10
0.754178
 20
0.735406
 30
0.0
 40
0
 41
0
  0
VERTEX
  8
0
 10
0.73801
 20
0.743544
 30
0.0
 40
0
 41
0
  0
VERTEX
  8
0
 10
0.734918
 20
0.744467
 30
0.0
 40
0
 41
0
  0
VERTEX
  8
0
 10
0.727431
 20
0.746799
 30
0.0
 40
0
 41
0
  0
VERTEX
  8
0
 10
0.706326
 20
0.757975
 30
0.0
 40
0
 41
0
  0
VERTEX
  8
0
 10
0.681912
 20
0.777994
 30
0.0
 40
0
 41
0
  0
VERTEX
  8
0
 10
0.659939
 20
0.802897
 30
0.0
 40
0
 41
0
  0
VERTEX
  8
0
 10
0.643826
 20
0.823893
 30
0.0
 40
0
 41
0
  0
VERTEX
  8
0
 10
0.638564
 20
0.830946
 30
0.0
 40
0
 41
0
  0
VERTEX
  8
0
 10
0.634278
 20
0.835992
 30
0.0
 40
0
 41
0
  0
VERTEX
  8
0
 10
0.602701
 20
0.893283
 30
0.0
 40
0
 41
0
  0
VERTEX
  8
0
 10
0.600749
 20
0.899576
 30
0.0
 40
0
 41
0
  0
VERTEX
  8
0
 10
0.599501
 20
0.905111
 30
0.0
 40
0
 41
0
  0
VERTEX
  8
0
 10
0.59451
 20
0.961426
 30
0.0
 40
0
 41
0
  0
VERTEX
  8
0
 10
0.594781
 20
0.967068
 30
0.0
 40
0
 41
0
  0
VERTEX
  8
0
 10
0.594618
 20
0.9764
 30
0.0
 40
0
 41
0
  0
VERTEX
  8
0
 10
0.595053
 20
1.00445
 30
0.0
 40
0
 41
0
  0
VERTEX
  8
0
 10
0.596571
 20
1.0325
 30
0.0
 40
0
 41
0
  0
VERTEX
  8
0
 10
0.597928
 20
1.05029
 30
0.0
 40
0
 41
0
  0
VERTEX
  8
0
 10
0.59809
 20
1.05659
 30
0.0
 40
0
 41
0
  0
VERTEX
  8
0
 10
0.597819
 20
1.05659
 30
0.0
 40
0
 41
0
  0
SEQEND
 8
0
  0
POLYLINE
  8
0
 62
     250
 66
     1
 10
0
 20
0
 30
0.0
 70
     1
 40
0
 41
0
  0
VERTEX
  8
0
 10
0.528212
 20
0.983018
 30
0.0
 40
0
 41
0
  0
VERTEX
  8
0
 10
0.524794
 20
0.979438
 30
0.0
 40
0
 41
0
  0
VERTEX
  8
0
 10
0.516439
 20
0.966743
 30
0.0
 40
0
 41
0
  0
VERTEX
  8
0
 10
0.510417
 20
0.947863
 30
0.0
 40
0
 41
0
  0
VERTEX
  8
0
 10
0.509549
 20
0.924696
 30
0.0
 40
0
 41
0
  0
VERTEX
  8
0
 10
0.512044
 20
0.902778
 30
0.0
 40
0
 41
0
  0
VERTEX
  8
0
 10
0.513346
 20
0.895508
 30
0.0
 40
0
 41
0
  0
VERTEX
  8
0
 10
0.514106
 20
0.889974
 30
0.0
 40
0
 41
0
  0
VERTEX
  8
0
 10
0.529025
 20
0.836154
 30
0.0
 40
0
 41
0
  0
VERTEX
  8
0
 10
0.53125
 20
0.830946
 30
0.0
 40
0
 41
0
  0
VERTEX
  8
0
 10
0.533365
 20
0.826281
 30
0.0
 40
0
 41
0
  0
VERTEX
  8
0
 10
0.564074
 20
0.785644
 30
0.0
 40
0
 41
0
  0
VERTEX
  8
0
 10
0.568033
 20
0.782281
 30
0.0
 40
0
 41
0
  0
VERTEX
  8
0
 10
0.572754
 20
0.77946
 30
0.0
 40
0
 41
0
  0
VERTEX
  8
0
 10
0.615018
 20
0.743815
 30
0.0
 40
0
 41
0
  0
VERTEX
  8
0
 10
0.618653
 20
0.739583
 30
0.0
 40
0
 41
0
  0
VERTEX
  8
0
 10
0.620443
 20
0.736979
 30
0.0
 40
0
 41
0
  0
VERTEX
  8
0
 10
0.6454
 20
0.717774
 30
0.0
 40
0
 41
0
  0
VERTEX
  8
0
 10
0.648438
 20
0.716689
 30
0.0
 40
0
 41
0
  0
VERTEX
  8
0
 10
0.679688
 20
0.709799
 30
0.0
 40
0
 41
0
  0
VERTEX
  8
0
 10
0.663411
 20
0.713758
 30
0.0
 40
0
 41
0
  0
VERTEX
  8
0
 10
0.663411
 20
0.713758
 30
0.0
 40
0
 41
0
  0
VERTEX
  8
0
 10
0.66965
 20
0.710613
 30
0.0
 40
0
 41
0
  0
VERTEX
  8
0
 10
0.682617
 20
0.70459
 30
0.0
 40
0
 41
0
  0
VERTEX
  8
0
 10
0.693576
 20
0.700956
 30
0.0
 40
0
 41
0
  0
VERTEX
  8
0
 10
0.694282
 20
0.704318
 30
0.0
 40
0
 41
0
  0
VERTEX
  8
0
 10
0.693847
 20
0.704807
 30
0.0
 40
0
 41
0
  0
VERTEX
  8
0
 10
0.692003
 20
0.706976
 30
0.0
 40
0
 41
0
  0
VERTEX
  8
0
 10
0.680664
 20
0.716689
 30
0.0
 40
0
 41
0
  0
VERTEX
  8
0
 10
0.658475
 20
0.734538
 30
0.0
 40
0
 41
0
  0
VERTEX
  8
0
 10
0.636664
 20
0.751465
 30
0.0
 40
0
 41
0
  0
VERTEX
  8
0
 10
0.625976
 20
0.759549
 30
0.0
 40
0
 41
0
  0
VERTEX
  8
0
 10
0.624675
 20
0.760417
 30
0.0
 40
0
 41
0
  0
VERTEX
  8
0
 10
0.619629
 20
0.763889
 30
0.0
 40
0
 41
0
  0
VERTEX
  8
0
 10
0.589193
 20
0.786947
 30
0.0
 40
0
 41
0
  0
VERTEX
  8
0
 10
0.559733
 20
0.818468
 30
0.0
 40
0
 41
0
  0
VERTEX
  8
0
 10
0.555231
 20
0.826064
 30
0.0
 40
0
 41
0
  0
VERTEX
  8
0
 10
0.553006
 20
0.830024
 30
0.0
 40
0
 41
0
  0
VERTEX
  8
0
 10
0.538032
 20
0.872233
 30
0.0
 40
0
 41
0
  0
VERTEX
  8
0
 10
0.537272
 20
0.876682
 30
0.0
 40
0
 41
0
  0
VERTEX
  8
0
 10
0.536242
 20
0.880968
 30
0.0
 40
0
 41
0
  0
VERTEX
  8
0
 10
0.531304
 20
0.924425
 30
0.0
 40
0
 41
0
  0
VERTEX
  8
0
 10
0.531358
 20
0.928765
 30
0.0
 40
0
 41
0
  0
VERTEX
  8
0
 10
0.531358
 20
0.93495
 30
0.0
 40
0
 41
0
  0
VERTEX
  8
0
 10
0.532715
 20
0.953504
 30
0.0
 40
0
 41
0
  0
VERTEX
  8
0
 10
0.535428
 20
0.972982
 30
0.0
 40
0
 41
0
  0
VERTEX
  8
0
 10
0.537326
 20
0.986003
 30
0.0
 40
0
 41
0
  0
VERTEX
  8
0
 10
0.536838
 20
0.991103
 30
0.0
 40
0
 41
0
  0
VERTEX
  8
0
 10
0.536242
 20
0.991265
 30
0.0
 40
0
 41
0
  0
VERTEX
  8
0
 10
0.535644
 20
0.991428
 30
0.0
 40
0
 41
0
  0
VERTEX
  8
0
 10
0.531956
 20
0.987956
 30
0.0
 40
0
 41
0
  0
VERTEX
  8
0
 10
0.528592
 20
0.983453
 30
0.0
 40
0
 41
0
  0
VERTEX
  8
0
 10
0.528212
 20
0.983018
 30
0.0
 40
0
 41
0
  0
SEQEND
 8
0
  0
POLYLINE
  8
0
 62
     7
 66
     1
 10
0
 20
0
 30
0.0
 70
     1
 40
0
 41
0
  0
VERTEX
  8
0
 10
0.412001
 20
2.04085
 30
0.0
 40
0
 41
0
  0
VERTEX
  8
0
 10
0.490289
 20
2.04085
 30
0.0
 40
0
 41
0
  0
VERTEX
  8
0
 10
0.504937
 20
2.04085
 30
0.0
 40
0
 41
0
  0
VERTEX
  8
0
 10
0.549046
 20
2.03418
 30
0.0
 40
0
 41
0
  0
VERTEX
  8
0
 10
0.583604
 20
2.01844
 30
0.0
 40
0
 41
0
  0
VERTEX
  8
0
 10
0.58865
 20
2.01394
 30
0.0
 40
0
 41
0
  0
VERTEX
  8
0
 10
0.593533
 20
2.00965
 30
0.0
 40
0
 41
0
  0
VERTEX
  8
0
 10
0.611274
 20
1.98318
 30
0.0
 40
0
 41
0
  0
VERTEX
  8
0
 10
0.618815
 20
1.95221
 30
0.0
 40
0
 41
0
  0
VERTEX
  8
0
 10
0.618653
 20
1.94564
 30
0.0
 40
0
 41
0
  0
VERTEX
  8
0
 10
0.618653
 20
1.9356
 30
0.0
 40
0
 41
0
  0
VERTEX
  8
0
 10
0.607693
 20
1.90533
 30
0.0
 40
0
 41
0
  0
VERTEX
  8
0
 10
0.582249
 20
1.87831
 30
0.0
 40
0
 41
0
  0
VERTEX
  8
0
 10
0.574978
 20
1.87375
 30
0.0
 40
0
 41
0
  0
VERTEX
  8
0
 10
0.580621
 20
1.87185
 30
0.0
 40
0
 41
0
  0
VERTEX
  8
0
 10
0.596463
 20
1.86231
 30
0.0
 40
0
 41
0
  0
VERTEX
  8
0
 10
0.612685
 20
1.845
 30
0.0
 40
0
 41
0
  0
VERTEX
  8
0
 10
0.622558
 20
1.8234
 30
0.0
 40
0
 41
0
  0
VERTEX
  8
0
 10
0.625379
 20
1.80518
 30
0.0
 40
0
 41
0
  0
VERTEX
  8
0
 10
0.625
 20
1.79915
 30
0.0
 40
0
 41
0
  0
VERTEX
  8
0
 10
0.625163
 20
1.79237
 30
0.0
 40
0
 41
0
  0
VERTEX
  8
0
 10
0.617404
 20
1.76019
 30
0.0
 40
0
 41
0
  0
VERTEX
  8
0
 10
0.598904
 20
1.73269
 30
0.0
 40
0
 41
0
  0
VERTEX
  8
0
 10
0.59375
 20
1.72825
 30
0.0
 40
0
 41
0
  0
VERTEX
  8
0
 10
0.588053
 20
1.72358
 30
0.0
 40
0
 41
0
  0
VERTEX
  8
0
 10
0.555664
 20
1.70719
 30
0.0
 40
0
 41
0
  0
VERTEX
  8
0
 10
0.519911
 20
1.7009
 30
0.0
 40
0
 41
0
  0
VERTEX
  8
0
 10
0.512587
 20
1.70122
 30
0.0
 40
0
 41
0
  0
VERTEX
  8
0
 10
0.412001
 20
1.70122
 30
0.0
 40
0
 41
0
  0
VERTEX
  8
0
 10
0.412001
 20
2.04085
 30
0.0
 40
0
 41
0
  0
SEQEND
 8
0
  0
POLYLINE
  8
0
 62
     7
 66
     1
 10
0
 20
0
 30
0.0
 70
     1
 40
0
 41
0
  0
VERTEX
  8
0
 10
0.488932
 20
1.97575
 30
0.0
 40
0
 41
0
  0
VERTEX
  8
0
 10
0.488932
 20
1.90283
 30
0.0
 40
0
 41
0
  0
VERTEX
  8
0
 10
0.497558
 20
1.9031
 30
0.0
 40
0
 41
0
  0
VERTEX
  8
0
 10
0.527886
 20
1.91249
 30
0.0
 40
0
 41
0
  0
VERTEX
  8
0
 10
0.541015
 20
1.93218
 30
0.0
 40
0
 41
0
  0
VERTEX
  8
0
 10
0.541015
 20
1.93875
 30
0.0
 40
0
 41
0
  0
VERTEX
  8
0
 10
0.541287
 20
1.94151
 30
0.0
 40
0
 41
0
  0
VERTEX
  8
0
 10
0.538574
 20
1.95475
 30
0.0
 40
0
 41
0
  0
VERTEX
  8
0
 10
0.530817
 20
1.96582
 30
0.0
 40
0
 41
0
  0
VERTEX
  8
0
 10
0.528646
 20
1.9675
 30
0.0
 40
0
 41
0
  0
VERTEX
  8
0
 10
0.525553
 20
1.96907
 30
0.0
 40
0
 41
0
  0
VERTEX
  8
0
 10
0.49235
 20
1.97597
 30
0.0
 40
0
 41
0
  0
VERTEX
  8
0
 10
0.488932
 20
1.97575
 30
0.0
 40
0
 41
0
  0
SEQEND
 8
0
  0
POLYLINE
  8
0
 62
     7
 66
     1
 10
0
 20
0
 30
0.0
 70
     1
 40
0
 41
0
  0
VERTEX
  8
0
 10
0.488932
 20
1.84093
 30
0.0
 40
0
 41
0
  0
VERTEX
  8
0
 10
0.488932
 20
1.76742
 30
0.0
 40
0
 41
0
  0
VERTEX
  8
0
 10
0.492731
 20
1.76725
 30
0.0
 40
0
 41
0
  0
VERTEX
  8
0
 10
0.529406
 20
1.77485
 30
0.0
 40
0
 41
0
  0
VERTEX
  8
0
 10
0.532824
 20
1.77647
 30
0.0
 40
0
 41
0
  0
VERTEX
  8
0
 10
0.535265
 20
1.77794
 30
0.0
 40
0
 41
0
  0
VERTEX
  8
0
 10
0.544162
 20
1.78836
 30
0.0
 40
0
 41
0
  0
VERTEX
  8
0
 10
0.547743
 20
1.80165
 30
0.0
 40
0
 41
0
  0
VERTEX
  8
0
 10
0.547526
 20
1.80447
 30
0.0
 40
0
 41
0
  0
VERTEX
  8
0
 10
0.547526
 20
1.81131
 30
0.0
 40
0
 41
0
  0
VERTEX
  8
0
 10
0.534506
 20
1.83182
 30
0.0
 40
0
 41
0
  0
VERTEX
  8
0
 10
0.504124
 20
1.84093
 30
0.0
 40
0
 41
0
  0
VERTEX
  8
0
 10
0.495443
 20
1.84093
 30
0.0
 40
0
 41
0
  0
VERTEX
  8
0
 10
0.488932
 20
1.84093
 30
0.0
 40
0
 41
0
  0
SEQEND
 8
0
  0
POLYLINE
  8
0
 62
     7
 66
     1
 10
0
 20
0
 30
0.0
 70
     1
 40
0
 41
0
  0
VERTEX
  8
0
 10
0.779189
 20
1.77274
 30
0.0
 40
0
 41
0
  0
VERTEX
  8
0
 10
0.841689
 20
1.77274
 30
0.0
 40
0
 41
0
  0
VERTEX
  8
0
 10
0.839681
 20
1.76389
 30
0.0
 40
0
 41
0
  0
VERTEX
  8
0
 10
0.829428
 20
1.73828
 30
0.0
 40
0
 41
0
  0
VERTEX
  8
0
 10
0.810493
 20
1.71365
 30
0.0
 40
0
 41
0
  0
VERTEX
  8
0
 10
0.784939
 20
1.69883
 30
0.0
 40
0
 41
0
  0
VERTEX
  8
0
 10
0.760742
 20
1.69385
 30
0.0
 40
0
 41
0
  0
VERTEX
  8
0
 10
0.752713
 20
1.69385
 30
0.0
 40
0
 41
0
  0
VERTEX
  8
0
 10
0.745768
 20
1.69363
 30
0.0
 40
0
 41
0
  0
VERTEX
  8
0
 10
0.713271
 20
1.70215
 30
0.0
 40
0
 41
0
  0
VERTEX
  8
0
 10
0.686307
 20
1.72217
 30
0.0
 40
0
 41
0
  0
VERTEX
  8
0
 10
0.682183
 20
1.72771
 30
0.0
 40
0
 41
0
  0
VERTEX
  8
0
 10
0.677789
 20
1.73329
 30
0.0
 40
0
 41
0
  0
VERTEX
  8
0
 10
0.662651
 20
1.76785
 30
0.0
 40
0
 41
0
  0
VERTEX
  8
0
 10
0.65625
 20
1.80772
 30
0.0
 40
0
 41
0
  0
VERTEX
  8
0
 10
0.65625
 20
1.82101
 30
0.0
 40
0
 41
0
  0
VERTEX
  8
0
 10
0.655817
 20
1.829
 30
0.0
 40
0
 41
0
  0
VERTEX
  8
0
 10
0.661729
 20
1.86768
 30
0.0
 40
0
 41
0
  0
VERTEX
  8
0
 10
0.677572
 20
1.90343
 30
0.0
 40
0
 41
0
  0
VERTEX
  8
0
 10
0.682183
 20
1.90989
 30
0.0
 40
0
 41
0
  0
VERTEX
  8
0
 10
0.686199
 20
1.91531
 30
0.0
 40
0
 41
0
  0
VERTEX
  8
0
 10
0.712565
 20
1.93506
 30
0.0
 40
0
 41
0
  0
VERTEX
  8
0
 10
0.744358
 20
1.94358
 30
0.0
 40
0
 41
0
  0
VERTEX
  8
0
 10
0.751139
 20
1.94336
 30
0.0
 40
0
 41
0
  0
VERTEX
  8
0
 10
0.755588
 20
1.94331
 30
0.0
 40
0
 41
0
  0
VERTEX
  8
0
 10
0.7972
 20
1.92969
 30
0.0
 40
0
 41
0
  0
VERTEX
  8
0
 10
0.800836
 20
1.92708
 30
0.0
 40
0
 41
0
  0
VERTEX
  8
0
 10
0.804742
 20
1.92449
 30
0.0
 40
0
 41
0
  0
VERTEX
  8
0
 10
0.821397
 20
1.90831
 30
0.0
 40
0
 41
0
  0
VERTEX
  8
0
 10
0.833822
 20
1.88867
 30
0.0
 40
0
 41
0
  0
VERTEX
  8
0
 10
0.835613
 20
1.88428
 30
0.0
 40
0
 41
0
  0
VERTEX
  8
0
 10
0.837782
 20
1.8775
 30
0.0
 40
0
 41
0
  0
VERTEX
  8
0
 10
0.847982
 20
1.80729
 30
0.0
 40
0
 41
0
  0
VERTEX
  8
0
 10
0.847819
 20
1.80012
 30
0.0
 40
0
 41
0
  0
VERTEX
  8
0
 10
0.724501
 20
1.80012
 30
0.0
 40
0
 41
0
  0
VERTEX
  8
0
 10
0.724718
 20
1.79144
 30
0.0
 40
0
 41
0
  0
VERTEX
  8
0
 10
0.732476
 20
1.76107
 30
0.0
 40
0
 41
0
  0
VERTEX
  8
0
 10
0.748156
 20
1.74804
 30
0.0
 40
0
 41
0
  0
VERTEX
  8
0
 10
0.753418
 20
1.74804
 30
0.0
 40
0
 41
0
  0
VERTEX
  8
0
 10
0.755046
 20
1.74804
 30
0.0
 40
0
 41
0
  0
VERTEX
  8
0
 10
0.76964
 20
1.75379
 30
0.0
 40
0
 41
0
  0
VERTEX
  8
0
 10
0.770833
 20
1.75489
 30
0.0
 40
0
 41
0
  0
VERTEX
  8
0
 10
0.772026
 20
1.75613
 30
0.0
 40
0
 41
0
  0
VERTEX
  8
0
 10
0.779025
 20
1.77106
 30
0.0
 40
0
 41
0
  0
VERTEX
  8
0
 10
0.779189
 20
1.77274
 30
0.0
 40
0
 41
0
  0
SEQEND
 8
0
  0
POLYLINE
  8
0
 62
     7
 66
     1
 10
0
 20
0
 30
0.0
 70
     1
 40
0
 41
0
  0
VERTEX
  8
0
 10
0.725532
 20
1.84044
 30
0.0
 40
0
 41
0
  0
VERTEX
  8
0
 10
0.779189
 20
1.84044
 30
0.0
 40
0
 41
0
  0
VERTEX
  8
0
 10
0.779243
 20
1.84358
 30
0.0
 40
0
 41
0
  0
VERTEX
  8
0
 10
0.773492
 20
1.87403
 30
0.0
 40
0
 41
0
  0
VERTEX
  8
0
 10
0.772299
 20
1.8769
 30
0.0
 40
0
 41
0
  0
VERTEX
  8
0
 10
0.771376
 20
1.87875
 30
0.0
 40
0
 41
0
  0
VERTEX
  8
0
 10
0.755046
 20
1.88878
 30
0.0
 40
0
 41
0
  0
VERTEX
  8
0
 10
0.753039
 20
1.88872
 30
0.0
 40
0
 41
0
  0
VERTEX
  8
0
 10
0.750868
 20
1.88889
 30
0.0
 40
0
 41
0
  0
VERTEX
  8
0
 10
0.733236
 20
1.87918
 30
0.0
 40
0
 41
0
  0
VERTEX
  8
0
 10
0.732206
 20
1.87728
 30
0.0
 40
0
 41
0
  0
VERTEX
  8
0
 10
0.730903
 20
1.8744
 30
0.0
 40
0
 41
0
  0
VERTEX
  8
0
 10
0.725315
 20
1.84364
 30
0.0
 40
0
 41
0
  0
VERTEX
  8
0
 10
0.725532
 20
1.84044
 30
0.0
 40
0
 41
0
  0
SEQEND
 8
0
  0
POLYLINE
  8
0
 62
     7
 66
     1
 10
0
 20
0
 30
0.0
 70
     1
 40
0
 41
0
  0
VERTEX
  8
0
 10
1.00092
 20
1.77274
 30
0.0
 40
0
 41
0
  0
VERTEX
  8
0
 10
1.06342
 20
1.77274
 30
0.0
 40
0
 41
0
  0
VERTEX
  8
0
 10
1.06142
 20
1.76389
 30
0.0
 40
0
 41
0
  0
VERTEX
  8
0
 10
1.05116
 20
1.73828
 30
0.0
 40
0
 41
0
  0
VERTEX
  8
0
 10
1.03228
 20
1.71365
 30
0.0
 40
0
 41
0
  0
VERTEX
  8
0
 10
1.00673
 20
1.69883
 30
0.0
 40
0
 41
0
  0
VERTEX
  8
0
 10
0.982531
 20
1.69385
 30
0.0
 40
0
 41
0
  0
VERTEX
  8
0
 10
0.974501
 20
1.69385
 30
0.0
 40
0
 41
0
  0
VERTEX
  8
0
 10
0.967557
 20
1.69363
 30
0.0
 40
0
 41
0
  0
VERTEX
  8
0
 10
0.935058
 20
1.70215
 30
0.0
 40
0
 41
0
  0
VERTEX
  8
0
 10
0.908094
 20
1.72217
 30
0.0
 40
0
 41
0
  0
VERTEX
  8
0
 10
0.903971
 20
1.72771
 30
0.0
 40
0
 41
0
  0
VERTEX
  8
0
 10
0.899631
 20
1.7334
 30
0.0
 40
0
 41
0
  0
VERTEX
  8
0
 10
0.884494
 20
1.76807
 30
0.0
 40
0
 41
0
  0
VERTEX
  8
0
 10
0.878039
 20
1.80811
 30
0.0
 40
0
 41
0
  0
VERTEX
  8
0
 10
0.878039
 20
1.82146
 30
0.0
 40
0
 41
0
  0
VERTEX
  8
0
 10
0.877604
 20
1.82937
 30
0.0
 40
0
 41
0
  0
VERTEX
  8
0
 10
0.883464
 20
1.86811
 30
0.0
 40
0
 41
0
  0
VERTEX
  8
0
 10
0.89936
 20
1.90386
 30
0.0
 40
0
 41
0
  0
VERTEX
  8
0
 10
0.903971
 20
1.91032
 30
0.0
 40
0
 41
0
  0
VERTEX
  8
0
 10
0.907986
 20
1.91575
 30
0.0
 40
0
 41
0
  0
VERTEX
  8
0
 10
0.934353
 20
1.93544
 30
0.0
 40
0
 41
0
  0
VERTEX
  8
0
 10
0.966146
 20
1.94396
 30
0.0
 40
0
 41
0
  0
VERTEX
  8
0
 10
0.972928
 20
1.94374
 30
0.0
 40
0
 41
0
  0
VERTEX
  8
0
 10
0.977376
 20
1.94368
 30
0.0
 40
0
 41
0
  0
VERTEX
  8
0
 10
1.01888
 20
1.92974
 30
0.0
 40
0
 41
0
  0
VERTEX
  8
0
 10
1.02252
 20
1.92708
 30
0.0
 40
0
 41
0
  0
VERTEX
  8
0
 10
1.02642
 20
1.92449
 30
0.0
 40
0
 41
0
  0
VERTEX
  8
0
 10
1.04319
 20
1.90836
 30
0.0
 40
0
 41
0
  0
VERTEX
  8
0
 10
1.05561
 20
1.88867
 30
0.0
 40
0
 41
0
  0
VERTEX
  8
0
 10
1.0574
 20
1.88428
 30
0.0
 40
0
 41
0
  0
VERTEX
  8
0
 10
1.05957
 20
1.8775
 30
0.0
 40
0
 41
0
  0
VERTEX
  8
0
 10
1.06977
 20
1.80729
 30
0.0
 40
0
 41
0
  0
VERTEX
  8
0
 10
1.06961
 20
1.80012
 30
0.0
 40
0
 41
0
  0
VERTEX
  8
0
 10
0.946235
 20
1.80012
 30
0.0
 40
0
 41
0
  0
VERTEX
  8
0
 10
0.946451
 20
1.79144
 30
0.0
 40
0
 41
0
  0
VERTEX
  8
0
 10
0.95421
 20
1.76107
 30
0.0
 40
0
 41
0
  0
VERTEX
  8
0
 10
0.969943
 20
1.74804
 30
0.0
 40
0
 41
0
  0
VERTEX
  8
0
 10
0.975206
 20
1.74804
 30
0.0
 40
0
 41
0
  0
VERTEX
  8
0
 10
0.979383
 20
1.74804
 30
0.0
 40
0
 41
0
  0
VERTEX
  8
0
 10
0.990831
 20
1.75379
 30
0.0
 40
0
 41
0
  0
VERTEX
  8
0
 10
0.991971
 20
1.75489
 30
0.0
 40
0
 41
0
  0
VERTEX
  8
0
 10
0.993218
 20
1.75608
 30
0.0
 40
0
 41
0
  0
VERTEX
  8
0
 10
1.00071
 20
1.77106
 30
0.0
 40
0
 41
0
  0
VERTEX
  8
0
 10
1.00092
 20
1.77274
 30
0.0
 40
0
 41
0
  0
SEQEND
 8
0
  0
POLYLINE
  8
0
 62
     7
 66
     1
 10
0
 20
0
 30
0.0
 70
     1
 40
0
 41
0
  0
VERTEX
  8
0
 10
0.947265
 20
1.84044
 30
0.0
 40
0
 41
0
  0
VERTEX
  8
0
 10
1.00092
 20
1.84044
 30
0.0
 40
0
 41
0
  0
VERTEX
  8
0
 10
1.00098
 20
1.84358
 30
0.0
 40
0
 41
0
  0
VERTEX
  8
0
 10
0.995281
 20
1.87403
 30
0.0
 40
0
 41
0
  0
VERTEX
  8
0
 10
0.994086
 20
1.8769
 30
0.0
 40
0
 41
0
  0
VERTEX
  8
0
 10
0.993164
 20
1.87879
 30
0.0
 40
0
 41
0
  0
VERTEX
  8
0
 10
0.976725
 20
1.88883
 30
0.0
 40
0
 41
0
  0
VERTEX
  8
0
 10
0.974664
 20
1.88872
 30
0.0
 40
0
 41
0
  0
VERTEX
  8
0
 10
0.972493
 20
1.88889
 30
0.0
 40
0
 41
0
  0
VERTEX
  8
0
 10
0.954861
 20
1.87918
 30
0.0
 40
0
 41
0
  0
VERTEX
  8
0
 10
0.953831
 20
1.87728
 30
0.0
 40
0
 41
0
  0
VERTEX
  8
0
 10
0.952528
 20
1.8744
 30
0.0
 40
0
 41
0
  0
VERTEX
  8
0
 10
0.947049
 20
1.84364
 30
0.0
 40
0
 41
0
  0
VERTEX
  8
0
 10
0.947265
 20
1.84044
 30
0.0
 40
0
 41
0
  0
SEQEND
 8
0
  0
POLYLINE
  8
0
 62
     7
 66
     1
 10
0
 20
0
 30
0.0
 70
     1
 40
0
 41
0
  0
VERTEX
  8
0
 10
1.14583
 20
2.04085
 30
0.0
 40
0
 41
0
  0
VERTEX
  8
0
 10
1.24322
 20
2.04085
 30
0.0
 40
0
 41
0
  0
VERTEX
  8
0
 10
1.24669
 20
2.02251
 30
0.0
 40
0
 41
0
  0
VERTEX
  8
0
 10
1.26183
 20
1.93864
 30
0.0
 40
0
 41
0
  0
VERTEX
  8
0
 10
1.27403
 20
1.86507
 30
0.0
 40
0
 41
0
  0
VERTEX
  8
0
 10
1.27604
 20
1.85189
 30
0.0
 40
0
 41
0
  0
VERTEX
  8
0
 10
1.28451
 20
1.90397
 30
0.0
 40
0
 41
0
  0
VERTEX
  8
0
 10
1.28532
 20
1.90918
 30
0.0
 40
0
 41
0
  0
VERTEX
  8
0
 10
1.294
 20
1.95921
 30
0.0
 40
0
 41
0
  0
VERTEX
  8
0
 10
1.29492
 20
1.96397
 30
0.0
 40
0
 41
0
  0
VERTEX
  8
0
 10
1.3099
 20
2.04031
 30
0.0
 40
0
 41
0
  0
VERTEX
  8
0
 10
1.40929
 20
2.04031
 30
0.0
 40
0
 41
0
  0
VERTEX
  8
0
 10
1.44792
 20
1.70122
 30
0.0
 40
0
 41
0
  0
VERTEX
  8
0
 10
1.37169
 20
1.70122
 30
0.0
 40
0
 41
0
  0
VERTEX
  8
0
 10
1.35086
 20
1.93468
 30
0.0
 40
0
 41
0
  0
VERTEX
  8
0
 10
1.30333
 20
1.70122
 30
0.0
 40
0
 41
0
  0
VERTEX
  8
0
 10
1.25125
 20
1.70122
 30
0.0
 40
0
 41
0
  0
VERTEX
  8
0
 10
1.20144
 20
1.93522
 30
0.0
 40
0
 41
0
  0
VERTEX
  8
0
 10
1.18159
 20
1.70122
 30
0.0
 40
0
 41
0
  0
VERTEX
  8
0
 10
1.10867
 20
1.70122
 30
0.0
 40
0
 41
0
  0
VERTEX
  8
0
 10
1.14583
 20
2.04085
 30
0.0
 40
0
 41
0
  0
SEQEND
 8
0
  0
POLYLINE
  8
0
 62
     7
 66
     1
 10
0
 20
0
 30
0.0
 70
     1
 40
0
 41
0
  0
VERTEX
  8
0
 10
1.58886
 20
1.94336
 30
0.0
 40
0
 41
0
  0
VERTEX
  8
0
 10
1.59999
 20
1.94336
 30
0.0
 40
0
 41
0
  0
VERTEX
  8
0
 10
1.6334
 20
1.935
 30
0.0
 40
0
 41
0
  0
VERTEX
  8
0
 10
1.66151
 20
1.91531
 30
0.0
 40
0
 41
0
  0
VERTEX
  8
0
 10
1.66596
 20
1.90967
 30
0.0
 40
0
 41
0
  0
VERTEX
  8
0
 10
1.67036
 20
1.90408
 30
0.0
 40
0
 41
0
  0
VERTEX
  8
0
 10
1.68576
 20
1.86942
 30
0.0
 40
0
 41
0
  0
VERTEX
  8
0
 10
1.69239
 20
1.82932
 30
0.0
 40
0
 41
0
  0
VERTEX
  8
0
 10
1.69239
 20
1.81592
 30
0.0
 40
0
 41
0
  0
VERTEX
  8
0
 10
1.69239
 20
1.80285
 30
0.0
 40
0
 41
0
  0
VERTEX
  8
0
 10
1.68549
 20
1.76357
 30
0.0
 40
0
 41
0
  0
VERTEX
  8
0
 10
1.66943
 20
1.73047
 30
0.0
 40
0
 41
0
  0
VERTEX
  8
0
 10
1.66488
 20
1.7251
 30
0.0
 40
0
 41
0
  0
VERTEX
  8
0
 10
1.6601
 20
1.71967
 30
0.0
 40
0
 41
0
  0
VERTEX
  8
0
 10
1.63053
 20
1.70031
 30
0.0
 40
0
 41
0
  0
VERTEX
  8
0
 10
1.59608
 20
1.69254
 30
0.0
 40
0
 41
0
  0
VERTEX
  8
0
 10
1.58886
 20
1.69293
 30
0.0
 40
0
 41
0
  0
VERTEX
  8
0
 10
1.58176
 20
1.69265
 30
0.0
 40
0
 41
0
  0
VERTEX
  8
0
 10
1.54807
 20
1.70074
 30
0.0
 40
0
 41
0
  0
VERTEX
  8
0
 10
1.51947
 20
1.72032
 30
0.0
 40
0
 41
0
  0
VERTEX
  8
0
 10
1.51497
 20
1.72575
 30
0.0
 40
0
 41
0
  0
VERTEX
  8
0
 10
1.51042
 20
1.73122
 30
0.0
 40
0
 41
0
  0
VERTEX
  8
0
 10
1.49447
 20
1.76476
 30
0.0
 40
0
 41
0
  0
VERTEX
  8
0
 10
1.48768
 20
1.80317
 30
0.0
 40
0
 41
0
  0
VERTEX
  8
0
 10
1.48768
 20
1.81592
 30
0.0
 40
0
 41
0
  0
VERTEX
  8
0
 10
1.48768
 20
1.82932
 30
0.0
 40
0
 41
0
  0
VERTEX
  8
0
 10
1.49419
 20
1.86942
 30
0.0
 40
0
 41
0
  0
VERTEX
  8
0
 10
1.50939
 20
1.90408
 30
0.0
 40
0
 41
0
  0
VERTEX
  8
0
 10
1.51372
 20
1.90967
 30
0.0
 40
0
 41
0
  0
VERTEX
  8
0
 10
1.51824
 20
1.91536
 30
0.0
 40
0
 41
0
  0
VERTEX
  8
0
 10
1.54715
 20
1.93571
 30
0.0
 40
0
 41
0
  0
VERTEX
  8
0
 10
1.5816
 20
1.94379
 30
0.0
 40
0
 41
0
  0
VERTEX
  8
0
 10
1.58886
 20
1.94336
 30
0.0
 40
0
 41
0
  0
SEQEND
 8
0
  0
POLYLINE
  8
0
 62
     7
 66
     1
 10
0
 20
0
 30
0.0
 70
     1
 40
0
 41
0
  0
VERTEX
  8
0
 10
1.58936
 20
1.75896
 30
0.0
 40
0
 41
0
  0
VERTEX
  8
0
 10
1.59169
 20
1.7589
 30
0.0
 40
0
 41
0
  0
VERTEX
  8
0
 10
1.60226
 20
1.76247
 30
0.0
 40
0
 41
0
  0
VERTEX
  8
0
 10
1.61014
 20
1.7704
 30
0.0
 40
0
 41
0
  0
VERTEX
  8
0
 10
1.61117
 20
1.77251
 30
0.0
 40
0
 41
0
  0
VERTEX
  8
0
 10
1.61263
 20
1.77621
 30
0.0
 40
0
 41
0
  0
VERTEX
  8
0
 10
1.61865
 20
1.81461
 30
0.0
 40
0
 41
0
  0
VERTEX
  8
0
 10
1.61843
 20
1.81853
 30
0.0
 40
0
 41
0
  0
VERTEX
  8
0
 10
1.61871
 20
1.82243
 30
0.0
 40
0
 41
0
  0
VERTEX
  8
0
 10
1.61268
 20
1.86019
 30
0.0
 40
0
 41
0
  0
VERTEX
  8
0
 10
1.61128
 20
1.86376
 30
0.0
 40
0
 41
0
  0
VERTEX
  8
0
 10
1.61025
 20
1.86583
 30
0.0
 40
0
 41
0
  0
VERTEX
  8
0
 10
1.60249
 20
1.87349
 30
0.0
 40
0
 41
0
  0
VERTEX
  8
0
 10
1.59213
 20
1.8769
 30
0.0
 40
0
 41
0
  0
VERTEX
  8
0
 10
1.5899
 20
1.87679
 30
0.0
 40
0
 41
0
  0
VERTEX
  8
0
 10
1.58469
 20
1.87679
 30
0.0
 40
0
 41
0
  0
VERTEX
  8
0
 10
1.57004
 20
1.8661
 30
0.0
 40
0
 41
0
  0
VERTEX
  8
0
 10
1.56907
 20
1.86415
 30
0.0
 40
0
 41
0
  0
VERTEX
  8
0
 10
1.56754
 20
1.86051
 30
0.0
 40
0
 41
0
  0
VERTEX
  8
0
 10
1.56136
 20
1.822
 30
0.0
 40
0
 41
0
  0
VERTEX
  8
0
 10
1.56168
 20
1.81803
 30
0.0
 40
0
 41
0
  0
VERTEX
  8
0
 10
1.56153
 20
1.80821
 30
0.0
 40
0
 41
0
  0
VERTEX
  8
0
 10
1.56825
 20
1.77376
 30
0.0
 40
0
 41
0
  0
VERTEX
  8
0
 10
1.58404
 20
1.75896
 30
0.0
 40
0
 41
0
  0
VERTEX
  8
0
 10
1.58936
 20
1.75896
 30
0.0
 40
0
 41
0
  0
SEQEND
 8
0
  0
POLYLINE
  8
0
 62
     7
 66
     1
 10
0
 20
0
 30
0.0
 70
     1
 40
0
 41
0
  0
VERTEX
  8
0
 10
1.74408
 20
1.70762
 30
0.0
 40
0
 41
0
  0
VERTEX
  8
0
 10
1.74408
 20
1.78678
 30
0.0
 40
0
 41
0
  0
VERTEX
  8
0
 10
1.74864
 20
1.78381
 30
0.0
 40
0
 41
0
  0
VERTEX
  8
0
 10
1.80003
 20
1.76639
 30
0.0
 40
0
 41
0
  0
VERTEX
  8
0
 10
1.8055
 20
1.76594
 30
0.0
 40
0
 41
0
  0
VERTEX
  8
0
 10
1.80757
 20
1.76585
 30
0.0
 40
0
 41
0
  0
VERTEX
  8
0
 10
1.82688
 20
1.77246
 30
0.0
 40
0
 41
0
  0
VERTEX
  8
0
 10
1.82844
 20
1.77388
 30
0.0
 40
0
 41
0
  0
VERTEX
  8
0
 10
1.82981
 20
1.77528
 30
0.0
 40
0
 41
0
  0
VERTEX
  8
0
 10
1.83692
 20
1.79275
 30
0.0
 40
0
 41
0
  0
VERTEX
  8
0
 10
1.83686
 20
1.79471
 30
0.0
 40
0
 41
0
  0
VERTEX
  8
0
 10
1.83681
 20
1.79644
 30
0.0
 40
0
 41
0
  0
VERTEX
  8
0
 10
1.83117
 20
1.81239
 30
0.0
 40
0
 41
0
  0
VERTEX
  8
0
 10
1.83008
 20
1.81375
 30
0.0
 40
0
 41
0
  0
VERTEX
  8
0
 10
1.82835
 20
1.81581
 30
0.0
 40
0
 41
0
  0
VERTEX
  8
0
 10
1.80897
 20
1.83388
 30
0.0
 40
0
 41
0
  0
VERTEX
  8
0
 10
1.80686
 20
1.83539
 30
0.0
 40
0
 41
0
  0
VERTEX
  8
0
 10
1.80132
 20
1.83936
 30
0.0
 40
0
 41
0
  0
VERTEX
  8
0
 10
1.75299
 20
1.88687
 30
0.0
 40
0
 41
0
  0
VERTEX
  8
0
 10
1.74897
 20
1.89231
 30
0.0
 40
0
 41
0
  0
VERTEX
  8
0
 10
1.74599
 20
1.89665
 30
0.0
 40
0
 41
0
  0
VERTEX
  8
0
 10
1.73551
 20
1.92019
 30
0.0
 40
0
 41
0
  0
VERTEX
  8
0
 10
1.73101
 20
1.94564
 30
0.0
 40
0
 41
0
  0
VERTEX
  8
0
 10
1.73107
 20
1.95085
 30
0.0
 40
0
 41
0
  0
VERTEX
  8
0
 10
1.73074
 20
1.95757
 30
0.0
 40
0
 41
0
  0
VERTEX
  8
0
 10
1.73731
 20
1.98969
 30
0.0
 40
0
 41
0
  0
VERTEX
  8
0
 10
1.75396
 20
2.0179
 30
0.0
 40
0
 41
0
  0
VERTEX
  8
0
 10
1.75874
 20
2.02262
 30
0.0
 40
0
 41
0
  0
VERTEX
  8
0
 10
1.76346
 20
2.0274
 30
0.0
 40
0
 41
0
  0
VERTEX
  8
0
 10
1.79167
 20
2.04406
 30
0.0
 40
0
 41
0
  0
VERTEX
  8
0
 10
1.82379
 20
2.05063
 30
0.0
 40
0
 41
0
  0
VERTEX
  8
0
 10
1.83051
 20
2.05029
 30
0.0
 40
0
 41
0
  0
VERTEX
  8
0
 10
1.83604
 20
2.05029
 30
0.0
 40
0
 41
0
  0
VERTEX
  8
0
 10
1.89003
 20
2.03863
 30
0.0
 40
0
 41
0
  0
VERTEX
  8
0
 10
1.89513
 20
2.03635
 30
0.0
 40
0
 41
0
  0
VERTEX
  8
0
 10
1.89513
 20
1.96029
 30
0.0
 40
0
 41
0
  0
VERTEX
  8
0
 10
1.8909
 20
1.96294
 30
0.0
 40
0
 41
0
  0
VERTEX
  8
0
 10
1.84429
 20
1.97862
 30
0.0
 40
0
 41
0
  0
VERTEX
  8
0
 10
1.83936
 20
1.97906
 30
0.0
 40
0
 41
0
  0
VERTEX
  8
0
 10
1.83729
 20
1.97922
 30
0.0
 40
0
 41
0
  0
VERTEX
  8
0
 10
1.81847
 20
1.97331
 30
0.0
 40
0
 41
0
  0
VERTEX
  8
0
 10
1.81689
 20
1.97206
 30
0.0
 40
0
 41
0
  0
VERTEX
  8
0
 10
1.81549
 20
1.97086
 30
0.0
 40
0
 41
0
  0
VERTEX
  8
0
 10
1.80854
 20
1.95475
 30
0.0
 40
0
 41
0
  0
VERTEX
  8
0
 10
1.80865
 20
1.9529
 30
0.0
 40
0
 41
0
  0
VERTEX
  8
0
 10
1.80865
 20
1.94726
 30
0.0
 40
0
 41
0
  0
VERTEX
  8
0
 10
1.81819
 20
1.93024
 30
0.0
 40
0
 41
0
  0
VERTEX
  8
0
 10
1.8406
 20
1.90929
 30
0.0
 40
0
 41
0
  0
VERTEX
  8
0
 10
1.847
 20
1.90479
 30
0.0
 40
0
 41
0
  0
VERTEX
  8
0
 10
1.85135
 20
1.90164
 30
0.0
 40
0
 41
0
  0
VERTEX
  8
0
 10
1.89008
 20
1.86464
 30
0.0
 40
0
 41
0
  0
VERTEX
  8
0
 10
1.89344
 20
1.8604
 30
0.0
 40
0
 41
0
  0
VERTEX
  8
0
 10
1.89729
 20
1.85579
 30
0.0
 40
0
 41
0
  0
VERTEX
  8
0
 10
1.91097
 20
1.82937
 30
0.0
 40
0
 41
0
  0
VERTEX
  8
0
 10
1.91678
 20
1.80012
 30
0.0
 40
0
 41
0
  0
VERTEX
  8
0
 10
1.91667
 20
1.79406
 30
0.0
 40
0
 41
0
  0
VERTEX
  8
0
 10
1.91678
 20
1.78717
 30
0.0
 40
0
 41
0
  0
VERTEX
  8
0
 10
1.9089
 20
1.75424
 30
0.0
 40
0
 41
0
  0
VERTEX
  8
0
 10
1.89051
 20
1.72581
 30
0.0
 40
0
 41
0
  0
VERTEX
  8
0
 10
1.88542
 20
1.72114
 30
0.0
 40
0
 41
0
  0
VERTEX
  8
0
 10
1.8801
 20
1.71625
 30
0.0
 40
0
 41
0
  0
VERTEX
  8
0
 10
1.84924
 20
1.699
 30
0.0
 40
0
 41
0
  0
VERTEX
  8
0
 10
1.81456
 20
1.69206
 30
0.0
 40
0
 41
0
  0
VERTEX
  8
0
 10
1.8074
 20
1.69228
 30
0.0
 40
0
 41
0
  0
VERTEX
  8
0
 10
1.80186
 20
1.69239
 30
0.0
 40
0
 41
0
  0
VERTEX
  8
0
 10
1.74897
 20
1.70518
 30
0.0
 40
0
 41
0
  0
VERTEX
  8
0
 10
1.74408
 20
1.70762
 30
0.0
 40
0
 41
0
  0
SEQEND
 8
0
  0
POLYLINE
  8
0
 62
     250
 66
     1
 10
0
 20
0
 30
0.0
 70
     1
 40
0
 41
0
  0
VERTEX
  8
0
 10
1.58783
 20
0.602376
 30
0.0
 40
0
 41
0
  0
VERTEX
  8
0
 10
1.57324
 20
0.567383
 30
0.0
 40
0
 41
0
  0
VERTEX
  8
0
 10
1.53554
 20
0.562608
 30
0.0
 40
0
 41
0
  0
VERTEX
  8
0
 10
1.51258
 20
0.592828
 30
0.0
 40
0
 41
0
  0
VERTEX
  8
0
 10
1.52718
 20
0.627821
 30
0.0
 40
0
 41
0
  0
VERTEX
  8
0
 10
1.56478
 20
0.632596
 30
0.0
 40
0
 41
0
  0
VERTEX
  8
0
 10
1.58783
 20
0.602376
 30
0.0
 40
0
 41
0
  0
SEQEND
 8
0
  0
POLYLINE
  8
0
 62
     7
 66
     1
 10
0
 20
0
 30
0.0
 70
     1
 40
0.75
 41
0.75
  0
VERTEX
  8
0
 10
1.58783
 20
0.602376
 30
0.0
 40
0.0104167
 41
0.0104167
  0
VERTEX
  8
0
 10
1.57324
 20
0.567383
 30
0.0
 40
0.0104167
 41
0.0104167
  0
VERTEX
  8
0
 10
1.53554
 20
0.562608
 30
0.0
 40
0.0104167
 41
0.0104167
  0
VERTEX
  8
0
 10
1.51258
 20
0.592828
 30
0.0
 40
0.0104167
 41
0.0104167
  0
VERTEX
  8
0
 10
1.52718
 20
0.627821
 30
0.0
 40
0.0104167
 41
0.0104167
  0
VERTEX
  8
0
 10
1.56478
 20
0.632596
 30
0.0
 40
0.0104167
 41
0.0104167
  0
VERTEX
  8
0
 10
1.58783
 20
0.602376
 30
0.0
 40
0.0104167
 41
0.0104167
  0
SEQEND
 8
0
  0
POLYLINE
  8
0
 62
     250
 66
     1
 10
0
 20
0
 30
0.0
 70
     1
 40
0
 41
0
  0
VERTEX
  8
0
 10
1.83729
 20
1.00613
 30
0.0
 40
0
 41
0
  0
VERTEX
  8
0
 10
1.8226
 20
0.971137
 30
0.0
 40
0
 41
0
  0
VERTEX
  8
0
 10
1.785
 20
0.966254
 30
0.0
 40
0
 41
0
  0
VERTEX
  8
0
 10
1.76199
 20
0.996474
 30
0.0
 40
0
 41
0
  0
VERTEX
  8
0
 10
1.77669
 20
1.03147
 30
0.0
 40
0
 41
0
  0
VERTEX
  8
0
 10
1.81429
 20
1.03624
 30
0.0
 40
0
 41
0
  0
VERTEX
  8
0
 10
1.83729
 20
1.00613
 30
0.0
 40
0
 41
0
  0
SEQEND
 8
0
  0
POLYLINE
  8
0
 62
     7
 66
     1
 10
0
 20
0
 30
0.0
 70
     1
 40
0.75
 41
0.75
  0
VERTEX
  8
0
 10
1.83729
 20
1.00613
 30
0.0
 40
0.0104167
 41
0.0104167
  0
VERTEX
  8
0
 10
1.8226
 20
0.971137
 30
0.0
 40
0.0104167
 41
0.0104167
  0
VERTEX
  8
0
 10
1.785
 20
0.966254
 30
0.0
 40
0.0104167
 41
0.0104167
  0
VERTEX
  8
0
 10
1.76199
 20
0.996474
 30
0.0
 40
0.0104167
 41
0.0104167
  0
VERTEX
  8
0
 10
1.77669
 20
1.03147
 30
0.0
 40
0.0104167
 41
0.0104167
  0
VERTEX
  8
0
 10
1.81429
 20
1.03624
 30
0.0
 40
0.0104167
 41
0.0104167
  0
VERTEX
  8
0
 10
1.83729
 20
1.00613
 30
0.0
 40
0.0104167
 41
0.0104167
  0
SEQEND
 8
0
  0
POLYLINE
  8
0
 62
     250
 66
     1
 10
0
 20
0
 30
0.0
 70
     1
 40
0
 41
0
  0
VERTEX
  8
0
 10
0.731337
 20
0.581543
 30
0.0
 40
0
 41
0
  0
VERTEX
  8
0
 10
0.716797
 20
0.54655
 30
0.0
 40
0
 41
0
  0
VERTEX
  8
0
 10
0.679144
 20
0.541775
 30
0.0
 40
0
 41
0
  0
VERTEX
  8
0
 10
0.656142
 20
0.571994
 30
0.0
 40
0
 41
0
  0
VERTEX
  8
0
 10
0.670844
 20
0.606987
 30
0.0
 40
0
 41
0
  0
VERTEX
  8
0
 10
0.708442
 20
0.611763
 30
0.0
 40
0
 41
0
  0
VERTEX
  8
0
 10
0.731337
 20
0.581543
 30
0.0
 40
0
 41
0
  0
SEQEND
 8
0
  0
POLYLINE
  8
0
 62
     7
 66
     1
 10
0
 20
0
 30
0.0
 70
     1
 40
0.75
 41
0.75
  0
VERTEX
  8
0
 10
0.731337
 20
0.581543
 30
0.0
 40
0.0104167
 41
0.0104167
  0
VERTEX
  8
0
 10
0.716797
 20
0.54655
 30
0.0
 40
0.0104167
 41
0.0104167
  0
VERTEX
  8
0
 10
0.679144
 20
0.541775
 30
0.0
 40
0.0104167
 41
0.0104167
  0
VERTEX
  8
0
 10
0.656142
 20
0.571994
 30
0.0
 40
0.0104167
 41
0.0104167
  0
VERTEX
  8
0
 10
0.670844
 20
0.606987
 30
0.0
 40
0.0104167
 41
0.0104167
  0
VERTEX
  8
0
 10
0.708442
 20
0.611763
 30
0.0
 40
0.0104167
 41
0.0104167
  0
VERTEX
  8
0
 10
0.731337
 20
0.581543
 30
0.0
 40
0.0104167
 41
0.0104167
  0
SEQEND
 8
0
  0
POLYLINE
  8
0
 62
     250
 66
     1
 10
0
 20
0
 30
0.0
 70
     1
 40
0
 41
0
  0
VERTEX
  8
0
 10
0.520942
 20
1.07845
 30
0.0
 40
0
 41
0
  0
VERTEX
  8
0
 10
0.506347
 20
1.04346
 30
0.0
 40
0
 41
0
  0
VERTEX
  8
0
 10
0.468642
 20
1.03863
 30
0.0
 40
0
 41
0
  0
VERTEX
  8
0
 10
0.445747
 20
1.06874
 30
0.0
 40
0
 41
0
  0
VERTEX
  8
0
 10
0.460286
 20
1.10373
 30
0.0
 40
0
 41
0
  0
VERTEX
  8
0
 10
0.497939
 20
1.10856
 30
0.0
 40
0
 41
0
  0
VERTEX
  8
0
 10
0.520942
 20
1.07845
 30
0.0
 40
0
 41
0
  0
SEQEND
 8
0
  0
POLYLINE
  8
0
 62
     7
 66
     1
 10
0
 20
0
 30
0.0
 70
     1
 40
0.75
 41
0.75
  0
VERTEX
  8
0
 10
0.520942
 20
1.07845
 30
0.0
 40
0.0104167
 41
0.0104167
  0
VERTEX
  8
0
 10
0.506347
 20
1.04346
 30
0.0
 40
0.0104167
 41
0.0104167
  0
VERTEX
  8
0
 10
0.468642
 20
1.03863
 30
0.0
 40
0.0104167
 41
0.0104167
  0
VERTEX
  8
0
 10
0.445747
 20
1.06874
 30
0.0
 40
0.0104167
 41
0.0104167
  0
VERTEX
  8
0
 10
0.460286
 20
1.10373
 30
0.0
 40
0.0104167
 41
0.0104167
  0
VERTEX
  8
0
 10
0.497939
 20
1.10856
 30
0.0
 40
0.0104167
 41
0.0104167
  0
VERTEX
  8
0
 10
0.520942
 20
1.07845
 30
0.0
 40
0.0104167
 41
0.0104167
  0
SEQEND
 8
0
  0
POLYLINE
  8
0
 62
     250
 66
     1
 10
0
 20
0
 30
0.0
 70
     1
 40
0
 41
0
  0
VERTEX
  8
0
 10
1.30843
 20
0.393664
 30
0.0
 40
0
 41
0
  0
VERTEX
  8
0
 10
1.30887
 20
0.340115
 30
0.0
 40
0
 41
0
  0
VERTEX
  8
0
 10
1.1869
 20
0.339085
 30
0.0
 40
0
 41
0
  0
VERTEX
  8
0
 10
1.18647
 20
0.392632
 30
0.0
 40
0
 41
0
  0
VERTEX
  8
0
 10
1.30843
 20
0.393664
 30
0.0
 40
0
 41
0
  0
SEQEND
 8
0
  0
POLYLINE
  8
0
 62
     7
 66
     1
 10
0
 20
0
 30
0.0
 70
     1
 40
0.75
 41
0.75
  0
VERTEX
  8
0
 10
1.30843
 20
0.393664
 30
0.0
 40
0.0104167
 41
0.0104167
  0
VERTEX
  8
0
 10
1.30887
 20
0.340115
 30
0.0
 40
0.0104167
 41
0.0104167
  0
VERTEX
  8
0
 10
1.1869
 20
0.339085
 30
0.0
 40
0.0104167
 41
0.0104167
  0
VERTEX
  8
0
 10
1.18647
 20
0.392632
 30
0.0
 40
0.0104167
 41
0.0104167
  0
VERTEX
  8
0
 10
1.30843
 20
0.393664
 30
0.0
 40
0.0104167
 41
0.0104167
  0
SEQEND
 8
0
  0
POLYLINE
  8
0
 62
     7
 66
     1
 10
0
 20
0
 30
0.0
 70
     1
 40
0
 41
0
  0
VERTEX
  8
0
 10
1.2813
 20
0.388129
 30
0.0
 40
0
 41
0
  0
VERTEX
  8
0
 10
1.28179
 20
0.338053
 30
0.0
 40
0
 41
0
  0
VERTEX
  8
0
 10
1.21804
 20
0.337403
 30
0.0
 40
0
 41
0
  0
VERTEX
  8
0
 10
1.21756
 20
0.387532
 30
0.0
 40
0
 41
0
  0
VERTEX
  8
0
 10
1.2813
 20
0.388129
 30
0.0
 40
0
 41
0
  0
SEQEND
 8
0
  0
POLYLINE
  8
0
 62
     250
 66
     1
 10
0
 20
0
 30
0.0
 70
     1
 40
0.750037
 41
0.750037
  0
VERTEX
  8
0
 10
1.2813
 20
0.388129
 30
0.0
 40
0.0104172
 41
0.0104172
  0
VERTEX
  8
0
 10
1.28179
 20
0.338053
 30
0.0
 40
0.0104172
 41
0.0104172
  0
VERTEX
  8
0
 10
1.21804
 20
0.337403
 30
0.0
 40
0.0104172
 41
0.0104172
  0
VERTEX
  8
0
 10
1.21756
 20
0.387532
 30
0.0
 40
0.0104172
 41
0.0104172
  0
VERTEX
  8
0
 10
1.2813
 20
0.388129
 30
0.0
 40
0.0104172
 41
0.0104172
  0
SEQEND
 8
0
  0
POLYLINE
  8
0
 62
     250
 66
     1
 10
0
 20
0
 30
0.0
 70
     1
 40
0
 41
0
  0
VERTEX
  8
0
 10
1.83669
 20
0.666342
 30
0.0
 40
0
 41
0
  0
VERTEX
  8
0
 10
1.86524
 20
0.621039
 30
0.0
 40
0
 41
0
  0
VERTEX
  8
0
 10
1.7621
 20
0.555935
 30
0.0
 40
0
 41
0
  0
VERTEX
  8
0
 10
1.73351
 20
0.601238
 30
0.0
 40
0
 41
0
  0
VERTEX
  8
0
 10
1.83669
 20
0.666342
 30
0.0
 40
0
 41
0
  0
SEQEND
 8
0
  0
POLYLINE
  8
0
 62
     7
 66
     1
 10
0
 20
0
 30
0.0
 70
     1
 40
0.75
 41
0.75
  0
VERTEX
  8
0
 10
1.83669
 20
0.666342
 30
0.0
 40
0.0104167
 41
0.0104167
  0
VERTEX
  8
0
 10
1.86524
 20
0.621039
 30
0.0
 40
0.0104167
 41
0.0104167
  0
VERTEX
  8
0
 10
1.7621
 20
0.555935
 30
0.0
 40
0.0104167
 41
0.0104167
  0
VERTEX
  8
0
 10
1.73351
 20
0.601238
 30
0.0
 40
0.0104167
 41
0.0104167
  0
VERTEX
  8
0
 10
1.83669
 20
0.666342
 30
0.0
 40
0.0104167
 41
0.0104167
  0
SEQEND
 8
0
  0
POLYLINE
  8
0
 62
     7
 66
     1
 10
0
 20
0
 30
0.0
 70
     1
 40
0
 41
0
  0
VERTEX
  8
0
 10
1.81299
 20
0.649251
 30
0.0
 40
0
 41
0
  0
VERTEX
  8
0
 10
1.83968
 20
0.606879
 30
0.0
 40
0
 41
0
  0
VERTEX
  8
0
 10
1.78581
 20
0.572863
 30
0.0
 40
0
 41
0
  0
VERTEX
  8
0
 10
1.75906
 20
0.615235
 30
0.0
 40
0
 41
0
  0
VERTEX
  8
0
 10
1.81299
 20
0.649251
 30
0.0
 40
0
 41
0
  0
SEQEND
 8
0
  0
POLYLINE
  8
0
 62
     250
 66
     1
 10
0
 20
0
 30
0.0
 70
     1
 40
0.75
 41
0.75
  0
VERTEX
  8
0
 10
1.81299
 20
0.649251
 30
0.0
 40
0.0104167
 41
0.0104167
  0
VERTEX
  8
0
 10
1.83968
 20
0.606879
 30
0.0
 40
0.0104167
 41
0.0104167
  0
VERTEX
  8
0
 10
1.78581
 20
0.572863
 30
0.0
 40
0.0104167
 41
0.0104167
  0
VERTEX
  8
0
 10
1.75906
 20
0.615235
 30
0.0
 40
0.0104167
 41
0.0104167
  0
VERTEX
  8
0
 10
1.81299
 20
0.649251
 30
0.0
 40
0.0104167
 41
0.0104167
  0
SEQEND
 8
0
  0
POLYLINE
  8
0
 62
     7
 66
     1
 10
0
 20
0
 30
0.0
 40
0.75
 41
0.75
  0
VERTEX
  8
0
 10
1.8226
 20
0.971137
 30
0.0
 40
0.0104167
 41
0.0104167
  0
VERTEX
  8
0
 10
1.90533
 20
0.793024
 30
0.0
 40
0.0104167
 41
0.0104167
  0
SEQEND
 8
0
  0
POLYLINE
  8
0
 62
     7
 66
     1
 10
0
 20
0
 30
0.0
 40
0.75
 41
0.75
  0
VERTEX
  8
0
 10
1.57314
 20
0.567383
 30
0.0
 40
0.0104167
 41
0.0104167
  0
VERTEX
  8
0
 10
1.70654
 20
0.547526
 30
0.0
 40
0.0104167
 41
0.0104167
  0
SEQEND
 8
0
  0
POLYLINE
  8
0
 62
     7
 66
     1
 10
0
 20
0
 30
0.0
 40
0.75
 41
0.75
  0
VERTEX
  8
0
 10
1.53554
 20
0.562608
 30
0.0
 40
0.0104167
 41
0.0104167
  0
VERTEX
  8
0
 10
1.34988
 20
0.360732
 30
0.0
 40
0.0104167
 41
0.0104167
  0
SEQEND
 8
0
  0
POLYLINE
  8
0
 62
     7
 66
     1
 10
0
 20
0
 30
0.0
 40
0.75
 41
0.75
  0
VERTEX
  8
0
 10
1.3552
 20
0.366536
 30
0.0
 40
0.0104167
 41
0.0104167
  0
VERTEX
  8
0
 10
1.30854
 20
0.366536
 30
0.0
 40
0.0104167
 41
0.0104167
  0
SEQEND
 8
0
  0
POLYLINE
  8
0
 62
     7
 66
     1
 10
0
 20
0
 30
0.0
 40
0.75
 41
0.75
  0
VERTEX
  8
0
 10
0.445747
 20
1.06874
 30
0.0
 40
0.0104167
 41
0.0104167
  0
VERTEX
  8
0
 10
0.360949
 20
0.875435
 30
0.0
 40
0.0104167
 41
0.0104167
  0
SEQEND
 8
0
  0
POLYLINE
  8
0
 62
     7
 66
     1
 10
0
 20
0
 30
0.0
 40
0.75
 41
0.75
  0
VERTEX
  8
0
 10
0.359267
 20
0.882379
 30
0.0
 40
0.0104167
 41
0.0104167
  0
VERTEX
  8
0
 10
0.746039
 20
0.249567
 30
0.0
 40
0.0104167
 41
0.0104167
  0
SEQEND
 8
0
  0
POLYLINE
  8
0
 62
     7
 66
     1
 10
0
 20
0
 30
0.0
 40
0.75
 41
0.75
  0
VERTEX
  8
0
 10
1.18669
 20
0.355306
 30
0.0
 40
0.0104167
 41
0.0104167
  0
VERTEX
  8
0
 10
1.01926
 20
0.355306
 30
0.0
 40
0.0104167
 41
0.0104167
  0
SEQEND
 8
0
  0
POLYLINE
  8
0
 62
     7
 66
     1
 10
0
 20
0
 30
0.0
 40
0.75
 41
0.75
  0
VERTEX
  8
0
 10
0.679144
 20
0.541775
 30
0.0
 40
0.0104167
 41
0.0104167
  0
VERTEX
  8
0
 10
0.640408
 20
0.419596
 30
0.0
 40
0.0104167
 41
0.0104167
  0
SEQEND
 8
0
  0
POLYLINE
  8
0
 62
     250
 66
     1
 10
0
 20
0
 30
0.0
 40
0.75
 41
0.75
  0
VERTEX
  8
0
 10
0.357206
 20
0.892578
 30
0.0
 40
0.0104167
 41
0.0104167
  0
VERTEX
  8
0
 10
0.344185
 20
0.859592
 30
0.0
 40
0.0104167
 41
0.0104167
  0
SEQEND
 8
0
  0
POLYLINE
  8
0
 62
     7
 66
     1
 10
0
 20
0
 30
0.0
 40
0.75
 41
0.75
  0
VERTEX
  8
0
 10
1.90571
 20
0.796983
 30
0.0
 40
0.0104167
 41
0.0104167
  0
VERTEX
  8
0
 10
1.89165
 20
0.667806
 30
0.0
 40
0.0104167
 41
0.0104167
  0
SEQEND
 8
0
  0
POLYLINE
  8
0
 62
     7
 66
     1
 10
0
 20
0
 30
0.0
 40
0.75
 41
0.75
  0
VERTEX
  8
0
 10
1.89561
 20
0.671332
 30
0.0
 40
0.0104167
 41
0.0104167
  0
VERTEX
  8
0
 10
1.85167
 20
0.642904
 30
0.0
 40
0.0104167
 41
0.0104167
  0
SEQEND
 8
0
  0
POLYLINE
  8
0
 62
     250
 66
     1
 10
0
 20
0
 30
0.0
 40
0.75
 41
0.75
  0
VERTEX
  8
0
 10
1.92594
 20
0.773113
 30
0.0
 40
0.0104167
 41
0.0104167
  0
VERTEX
  8
0
 10
1.90728
 20
0.814453
 30
0.0
 40
0.0104167
 41
0.0104167
  0
SEQEND
 8
0
  0
POLYLINE
  8
0
 62
     250
 66
     1
 10
0
 20
0
 30
0.0
 40
0.75
 41
0.75
  0
VERTEX
  8
0
 10
1.89583
 20
0.631131
 30
0.0
 40
0.0104167
 41
0.0104167
  0
VERTEX
  8
0
 10
1.90429
 20
0.679363
 30
0.0
 40
0.0104167
 41
0.0104167
  0
SEQEND
 8
0
  0
POLYLINE
  8
0
 62
     7
 66
     1
 10
0
 20
0
 30
0.0
 40
0.75
 41
0.75
  0
VERTEX
  8
0
 10
1.75082
 20
0.580024
 30
0.0
 40
0.0104167
 41
0.0104167
  0
VERTEX
  8
0
 10
1.69863
 20
0.546224
 30
0.0
 40
0.0104167
 41
0.0104167
  0
SEQEND
 8
0
  0
POLYLINE
  8
0
 62
     250
 66
     1
 10
0
 20
0
 30
0.0
 40
0.75
 41
0.75
  0
VERTEX
  8
0
 10
1.72071
 20
0.544487
 30
0.0
 40
0.0104167
 41
0.0104167
  0
VERTEX
  8
0
 10
1.67031
 20
0.527994
 30
0.0
 40
0.0104167
 41
0.0104167
  0
SEQEND
 8
0
  0
POLYLINE
  8
0
 62
     250
 66
     1
 10
0
 20
0
 30
0.0
 40
0.75
 41
0.75
  0
VERTEX
  8
0
 10
1.38894
 20
0.35574
 30
0.0
 40
0.0104167
 41
0.0104167
  0
VERTEX
  8
0
 10
1.33908
 20
0.356119
 30
0.0
 40
0.0104167
 41
0.0104167
  0
SEQEND
 8
0
  0
POLYLINE
  8
0
 62
     7
 66
     1
 10
0
 20
0
 30
0.0
 40
0.75
 41
0.75
  0
VERTEX
  8
0
 10
1.87907
 20
0.493761
 30
0.0
 40
0.0104167
 41
0.0104167
  0
VERTEX
  8
0
 10
1.81635
 20
0.584907
 30
0.0
 40
0.0104167
 41
0.0104167
  0
SEQEND
 8
0
  0
POLYLINE
  8
0
 62
     7
 66
     1
 10
0
 20
0
 30
0.0
 40
0.75
 41
0.75
  0
VERTEX
  8
0
 10
0.359267
 20
0.875108
 30
0.0
 40
0.0104167
 41
0.0104167
  0
VERTEX
  8
0
 10
0.0674914
 20
0.845921
 30
0.0
 40
0.0104167
 41
0.0104167
  0
SEQEND
 8
0
  0
POLYLINE
  8
0
 62
     7
 66
     1
 10
0
 20
0
 30
0.0
 40
0.75
 41
0.75
  0
VERTEX
  8
0
 10
1.83718
 20
1.00613
 30
0.0
 40
0.0104167
 41
0.0104167
  0
VERTEX
  8
0
 10
2.20019
 20
1.04698
 30
0.0
 40
0.0104167
 41
0.0104167
  0
SEQEND
 8
0
  0
POLYLINE
  8
0
 62
     7
 66
     1
 10
0
 20
0
 30
0.0
 40
0.75
 41
0.75
  0
VERTEX
  8
0
 10
1.3552
 20
0.366536
 30
0.0
 40
0.0104167
 41
0.0104167
  0
VERTEX
  8
0
 10
1.43593
 20
0.239367
 30
0.0
 40
0.0104167
 41
0.0104167
  0
SEQEND
 8
0
  0
POLYLINE
  8
0
 62
     7
 66
     1
 10
0
 20
0
 30
0.0
 40
0.75
 41
0.75
  0
VERTEX
  8
0
 10
1.02176
 20
0.360189
 30
0.0
 40
0.0104167
 41
0.0104167
  0
VERTEX
  8
0
 10
0.928331
 20
0.177192
 30
0.0
 40
0.0104167
 41
0.0104167
  0
SEQEND
 8
0
  0
POLYLINE
  8
0
 62
     250
 66
     1
 10
0
 20
0
 30
0.0
 40
0.75
 41
0.75
  0
VERTEX
  8
0
 10
1.05398
 20
0.365831
 30
0.0
 40
0.0104167
 41
0.0104167
  0
VERTEX
  8
0
 10
1.00092
 20
0.365126
 30
0.0
 40
0.0104167
 41
0.0104167
  0
SEQEND
 8
0
  0
ENDSEC
  0
EOF
