  0
SECTION
  2
BLOCKS
  0
ENDSEC
  0
SECTION
  2
ENTITIES
  0
LINE
  8
0
 10
57
 20
118
 11
57
 21
124
  0
LINE
  8
0
 10
57
 20
124
 11
51
 21
124
  0
LINE
  8
0
 10
51
 20
124
 11
51
 21
127
  0
LINE
  8
0
 10
51
 20
127
 11
45
 21
127
  0
LINE
  8
0
 10
45
 20
127
 11
45
 21
124
  0
LINE
  8
0
 10
45
 20
124
 11
39
 21
124
  0
LINE
  8
0
 10
39
 20
124
 11
39
 21
127
  0
LINE
  8
0
 10
39
 20
127
 11
33
 21
127
  0
LINE
  8
0
 10
33
 20
127
 11
33
 21
124
  0
LINE
  8
0
 10
33
 20
124
 11
27
 21
124
  0
LINE
  8
0
 10
27
 20
124
 11
27
 21
127
  0
LINE
  8
0
 10
27
 20
127
 11
21
 21
127
  0
LINE
  8
0
 10
21
 20
127
 11
21
 21
124
  0
LINE
  8
0
 10
21
 20
124
 11
15
 21
124
  0
LINE
  8
0
 10
15
 20
124
 11
15
 21
127
  0
LINE
  8
0
 10
15
 20
127
 11
9
 21
127
  0
LINE
  8
0
 10
9
 20
127
 11
9
 21
124
  0
LINE
  8
0
 10
9
 20
124
 11
3
 21
124
  0
LINE
  8
0
 10
3
 20
124
 11
3
 21
118
  0
LINE
  8
0
 10
3
 20
118
 11
0
 21
118
  0
LINE
  8
0
 10
0
 20
118
 11
0
 21
112
  0
LINE
  8
0
 10
0
 20
112
 11
3
 21
112
  0
LINE
  8
0
 10
3
 20
112
 11
3
 21
106
  0
LINE
  8
0
 10
3
 20
106
 11
0
 21
106
  0
LINE
  8
0
 10
0
 20
106
 11
0
 21
100
  0
LINE
  8
0
 10
0
 20
100
 11
3
 21
100
  0
LINE
  8
0
 10
3
 20
100
 11
3
 21
94
  0
LINE
  8
0
 10
3
 20
94
 11
0
 21
94
  0
LINE
  8
0
 10
0
 20
94
 11
0
 21
88
  0
LINE
  8
0
 10
0
 20
88
 11
3
 21
88
  0
LINE
  8
0
 10
3
 20
88
 11
3
 21
82
  0
LINE
  8
0
 10
3
 20
82
 11
0
 21
82
  0
LINE
  8
0
 10
0
 20
82
 11
0
 21
76
  0
LINE
  8
0
 10
0
 20
76
 11
3
 21
76
  0
LINE
  8
0
 10
3
 20
76
 11
3
 21
70
  0
LINE
  8
0
 10
3
 20
70
 11
9
 21
70
  0
LINE
  8
0
 10
9
 20
70
 11
9
 21
67
  0
LINE
  8
0
 10
9
 20
67
 11
15
 21
67
  0
LINE
  8
0
 10
15
 20
67
 11
15
 21
70
  0
LINE
  8
0
 10
15
 20
70
 11
21
 21
70
  0
LINE
  8
0
 10
21
 20
70
 11
21
 21
67
  0
LINE
  8
0
 10
21
 20
67
 11
27
 21
67
  0
LINE
  8
0
 10
27
 20
67
 11
27
 21
70
  0
LINE
  8
0
 10
27
 20
70
 11
33
 21
70
  0
LINE
  8
0
 10
33
 20
70
 11
33
 21
67
  0
LINE
  8
0
 10
33
 20
67
 11
39
 21
67
  0
LINE
  8
0
 10
39
 20
67
 11
39
 21
70
  0
LINE
  8
0
 10
39
 20
70
 11
45
 21
70
  0
LINE
  8
0
 10
45
 20
70
 11
45
 21
67
  0
LINE
  8
0
 10
45
 20
67
 11
51
 21
67
  0
LINE
  8
0
 10
51
 20
67
 11
51
 21
70
  0
LINE
  8
0
 10
51
 20
70
 11
57
 21
70
  0
LINE
  8
0
 10
57
 20
70
 11
57
 21
76
  0
LINE
  8
0
 10
57
 20
76
 11
60
 21
76
  0
LINE
  8
0
 10
60
 20
76
 11
60
 21
82
  0
LINE
  8
0
 10
60
 20
82
 11
57
 21
82
  0
LINE
  8
0
 10
57
 20
82
 11
57
 21
88
  0
LINE
  8
0
 10
57
 20
88
 11
60
 21
88
  0
LINE
  8
0
 10
60
 20
88
 11
60
 21
118
  0
LINE
  8
0
 10
60
 20
118
 11
57
 21
118
  0
LINE
  8
0
 10
57
 20
106
 11
57
 21
112
  0
LINE
  8
0
 10
57
 20
112
 11
60
 21
112
  0
LINE
  8
0
 10
60
 20
112
 11
60
 21
106
  0
LINE
  8
0
 10
60
 20
106
 11
57
 21
106
  0
LINE
  8
0
 10
57
 20
94
 11
57
 21
100
  0
LINE
  8
0
 10
57
 20
100
 11
60
 21
100
  0
LINE
  8
0
 10
60
 20
100
 11
60
 21
94
  0
LINE
  8
0
 10
60
 20
94
 11
57
 21
94
  0
LINE
  8
0
 10
137
 20
37
 11
143
 21
37
  0
LINE
  8
0
 10
143
 20
37
 11
143
 21
34
  0
LINE
  8
0
 10
143
 20
34
 11
149
 21
34
  0
LINE
  8
0
 10
149
 20
34
 11
149
 21
37
  0
LINE
  8
0
 10
149
 20
37
 11
155
 21
37
  0
LINE
  8
0
 10
155
 20
37
 11
155
 21
34
  0
LINE
  8
0
 10
155
 20
34
 11
161
 21
34
  0
LINE
  8
0
 10
161
 20
34
 11
161
 21
37
  0
LINE
  8
0
 10
161
 20
37
 11
167
 21
37
  0
LINE
  8
0
 10
167
 20
37
 11
167
 21
34
  0
LINE
  8
0
 10
167
 20
34
 11
173
 21
34
  0
LINE
  8
0
 10
173
 20
34
 11
173
 21
37
  0
LINE
  8
0
 10
173
 20
37
 11
179
 21
37
  0
LINE
  8
0
 10
179
 20
37
 11
179
 21
34
  0
LINE
  8
0
 10
179
 20
34
 11
188
 21
34
  0
LINE
  8
0
 10
188
 20
34
 11
188
 21
64
  0
LINE
  8
0
 10
188
 20
64
 11
179
 21
64
  0
LINE
  8
0
 10
179
 20
64
 11
179
 21
61
  0
LINE
  8
0
 10
179
 20
61
 11
173
 21
61
  0
LINE
  8
0
 10
173
 20
61
 11
173
 21
64
  0
LINE
  8
0
 10
173
 20
64
 11
167
 21
64
  0
LINE
  8
0
 10
167
 20
64
 11
167
 21
61
  0
LINE
  8
0
 10
167
 20
61
 11
161
 21
61
  0
LINE
  8
0
 10
161
 20
61
 11
161
 21
64
  0
LINE
  8
0
 10
161
 20
64
 11
155
 21
64
  0
LINE
  8
0
 10
155
 20
64
 11
155
 21
61
  0
LINE
  8
0
 10
155
 20
61
 11
149
 21
61
  0
LINE
  8
0
 10
149
 20
61
 11
149
 21
64
  0
LINE
  8
0
 10
149
 20
64
 11
143
 21
64
  0
LINE
  8
0
 10
143
 20
64
 11
143
 21
61
  0
LINE
  8
0
 10
143
 20
61
 11
137
 21
61
  0
LINE
  8
0
 10
137
 20
61
 11
137
 21
64
  0
LINE
  8
0
 10
137
 20
64
 11
128
 21
64
  0
LINE
  8
0
 10
128
 20
64
 11
128
 21
52
  0
LINE
  8
0
 10
128
 20
52
 11
131
 21
52
  0
LINE
  8
0
 10
131
 20
52
 11
131
 21
46
  0
LINE
  8
0
 10
131
 20
46
 11
128
 21
46
  0
LINE
  8
0
 10
128
 20
46
 11
128
 21
34
  0
LINE
  8
0
 10
128
 20
34
 11
137
 21
34
  0
LINE
  8
0
 10
137
 20
34
 11
137
 21
37
  0
LINE
  8
0
 10
185
 20
46
 11
185
 21
52
  0
LINE
  8
0
 10
185
 20
52
 11
188
 21
52
  0
LINE
  8
0
 10
188
 20
52
 11
188
 21
46
  0
LINE
  8
0
 10
188
 20
46
 11
185
 21
46
  0
LINE
  8
0
 10
73
 20
37
 11
79
 21
37
  0
LINE
  8
0
 10
79
 20
37
 11
79
 21
34
  0
LINE
  8
0
 10
79
 20
34
 11
85
 21
34
  0
LINE
  8
0
 10
85
 20
34
 11
85
 21
37
  0
LINE
  8
0
 10
85
 20
37
 11
91
 21
37
  0
LINE
  8
0
 10
91
 20
37
 11
91
 21
34
  0
LINE
  8
0
 10
91
 20
34
 11
97
 21
34
  0
LINE
  8
0
 10
97
 20
34
 11
97
 21
37
  0
LINE
  8
0
 10
97
 20
37
 11
103
 21
37
  0
LINE
  8
0
 10
103
 20
37
 11
103
 21
34
  0
LINE
  8
0
 10
103
 20
34
 11
109
 21
34
  0
LINE
  8
0
 10
109
 20
34
 11
109
 21
37
  0
LINE
  8
0
 10
109
 20
37
 11
115
 21
37
  0
LINE
  8
0
 10
115
 20
37
 11
115
 21
34
  0
LINE
  8
0
 10
115
 20
34
 11
121
 21
34
  0
LINE
  8
0
 10
121
 20
34
 11
121
 21
46
  0
LINE
  8
0
 10
121
 20
46
 11
124
 21
46
  0
LINE
  8
0
 10
124
 20
46
 11
124
 21
52
  0
LINE
  8
0
 10
124
 20
52
 11
121
 21
52
  0
LINE
  8
0
 10
121
 20
52
 11
121
 21
64
  0
LINE
  8
0
 10
121
 20
64
 11
115
 21
64
  0
LINE
  8
0
 10
115
 20
64
 11
115
 21
61
  0
LINE
  8
0
 10
115
 20
61
 11
109
 21
61
  0
LINE
  8
0
 10
109
 20
61
 11
109
 21
64
  0
LINE
  8
0
 10
109
 20
64
 11
103
 21
64
  0
LINE
  8
0
 10
103
 20
64
 11
103
 21
61
  0
LINE
  8
0
 10
103
 20
61
 11
97
 21
61
  0
LINE
  8
0
 10
97
 20
61
 11
97
 21
64
  0
LINE
  8
0
 10
97
 20
64
 11
91
 21
64
  0
LINE
  8
0
 10
91
 20
64
 11
91
 21
61
  0
LINE
  8
0
 10
91
 20
61
 11
85
 21
61
  0
LINE
  8
0
 10
85
 20
61
 11
85
 21
64
  0
LINE
  8
0
 10
85
 20
64
 11
79
 21
64
  0
LINE
  8
0
 10
79
 20
64
 11
79
 21
61
  0
LINE
  8
0
 10
79
 20
61
 11
73
 21
61
  0
LINE
  8
0
 10
73
 20
61
 11
73
 21
64
  0
LINE
  8
0
 10
73
 20
64
 11
67
 21
64
  0
LINE
  8
0
 10
67
 20
64
 11
67
 21
52
  0
LINE
  8
0
 10
67
 20
52
 11
64
 21
52
  0
LINE
  8
0
 10
64
 20
52
 11
64
 21
46
  0
LINE
  8
0
 10
64
 20
46
 11
67
 21
46
  0
LINE
  8
0
 10
67
 20
46
 11
67
 21
34
  0
LINE
  8
0
 10
67
 20
34
 11
73
 21
34
  0
LINE
  8
0
 10
73
 20
34
 11
73
 21
37
  0
LINE
  8
0
 10
63
 20
63
 11
-3
 21
63
  0
LINE
  8
0
 10
-3
 20
63
 11
-3
 21
-3
  0
LINE
  8
0
 10
-3
 20
-3
 11
63
 21
-3
  0
LINE
  8
0
 10
63
 20
-3
 11
63
 21
63
  0
LINE
  8
0
 10
15
 20
57
 11
15
 21
60
  0
LINE
  8
0
 10
15
 20
60
 11
21
 21
60
  0
LINE
  8
0
 10
21
 20
60
 11
21
 21
57
  0
LINE
  8
0
 10
21
 20
57
 11
15
 21
57
  0
LINE
  8
0
 10
27
 20
57
 11
27
 21
60
  0
LINE
  8
0
 10
27
 20
60
 11
33
 21
60
  0
LINE
  8
0
 10
33
 20
60
 11
33
 21
57
  0
LINE
  8
0
 10
33
 20
57
 11
27
 21
57
  0
LINE
  8
0
 10
39
 20
57
 11
39
 21
60
  0
LINE
  8
0
 10
39
 20
60
 11
45
 21
60
  0
LINE
  8
0
 10
45
 20
60
 11
45
 21
57
  0
LINE
  8
0
 10
45
 20
57
 11
39
 21
57
  0
LINE
  8
0
 10
0
 20
51
 11
0
 21
60
  0
LINE
  8
0
 10
0
 20
60
 11
9
 21
60
  0
LINE
  8
0
 10
9
 20
60
 11
9
 21
57
  0
LINE
  8
0
 10
9
 20
57
 11
3
 21
57
  0
LINE
  8
0
 10
3
 20
57
 11
3
 21
51
  0
LINE
  8
0
 10
3
 20
51
 11
0
 21
51
  0
LINE
  8
0
 10
57
 20
51
 11
57
 21
57
  0
LINE
  8
0
 10
57
 20
57
 11
51
 21
57
  0
LINE
  8
0
 10
51
 20
57
 11
51
 21
60
  0
LINE
  8
0
 10
51
 20
60
 11
60
 21
60
  0
LINE
  8
0
 10
60
 20
60
 11
60
 21
51
  0
LINE
  8
0
 10
60
 20
51
 11
57
 21
51
  0
LINE
  8
0
 10
0
 20
39
 11
0
 21
45
  0
LINE
  8
0
 10
0
 20
45
 11
3
 21
45
  0
LINE
  8
0
 10
3
 20
45
 11
3
 21
39
  0
LINE
  8
0
 10
3
 20
39
 11
0
 21
39
  0
LINE
  8
0
 10
57
 20
39
 11
57
 21
45
  0
LINE
  8
0
 10
57
 20
45
 11
60
 21
45
  0
LINE
  8
0
 10
60
 20
45
 11
60
 21
39
  0
LINE
  8
0
 10
60
 20
39
 11
57
 21
39
  0
LINE
  8
0
 10
57
 20
27
 11
57
 21
33
  0
LINE
  8
0
 10
57
 20
33
 11
60
 21
33
  0
LINE
  8
0
 10
60
 20
33
 11
60
 21
27
  0
LINE
  8
0
 10
60
 20
27
 11
57
 21
27
  0
LINE
  8
0
 10
0
 20
27
 11
0
 21
33
  0
LINE
  8
0
 10
0
 20
33
 11
3
 21
33
  0
LINE
  8
0
 10
3
 20
33
 11
3
 21
27
  0
LINE
  8
0
 10
3
 20
27
 11
0
 21
27
  0
LINE
  8
0
 10
0
 20
15
 11
0
 21
21
  0
LINE
  8
0
 10
0
 20
21
 11
3
 21
21
  0
LINE
  8
0
 10
3
 20
21
 11
3
 21
15
  0
LINE
  8
0
 10
3
 20
15
 11
0
 21
15
  0
LINE
  8
0
 10
57
 20
15
 11
57
 21
21
  0
LINE
  8
0
 10
57
 20
21
 11
60
 21
21
  0
LINE
  8
0
 10
60
 20
21
 11
60
 21
15
  0
LINE
  8
0
 10
60
 20
15
 11
57
 21
15
  0
LINE
  8
0
 10
51
 20
0
 11
51
 21
3
  0
LINE
  8
0
 10
51
 20
3
 11
57
 21
3
  0
LINE
  8
0
 10
57
 20
3
 11
57
 21
9
  0
LINE
  8
0
 10
57
 20
9
 11
60
 21
9
  0
LINE
  8
0
 10
60
 20
9
 11
60
 21
0
  0
LINE
  8
0
 10
60
 20
0
 11
51
 21
0
  0
LINE
  8
0
 10
0
 20
0
 11
0
 21
9
  0
LINE
  8
0
 10
0
 20
9
 11
3
 21
9
  0
LINE
  8
0
 10
3
 20
9
 11
3
 21
3
  0
LINE
  8
0
 10
3
 20
3
 11
9
 21
3
  0
LINE
  8
0
 10
9
 20
3
 11
9
 21
0
  0
LINE
  8
0
 10
9
 20
0
 11
0
 21
0
  0
LINE
  8
0
 10
15
 20
0
 11
15
 21
3
  0
LINE
  8
0
 10
15
 20
3
 11
21
 21
3
  0
LINE
  8
0
 10
21
 20
3
 11
21
 21
0
  0
LINE
  8
0
 10
21
 20
0
 11
15
 21
0
  0
LINE
  8
0
 10
27
 20
0
 11
27
 21
3
  0
LINE
  8
0
 10
27
 20
3
 11
33
 21
3
  0
LINE
  8
0
 10
33
 20
3
 11
33
 21
0
  0
LINE
  8
0
 10
33
 20
0
 11
27
 21
0
  0
LINE
  8
0
 10
39
 20
0
 11
39
 21
3
  0
LINE
  8
0
 10
39
 20
3
 11
45
 21
3
  0
LINE
  8
0
 10
45
 20
3
 11
45
 21
0
  0
LINE
  8
0
 10
45
 20
0
 11
39
 21
0
  0
LINE
  8
0
 10
73
 20
3
 11
79
 21
3
  0
LINE
  8
0
 10
79
 20
3
 11
79
 21
0
  0
LINE
  8
0
 10
79
 20
0
 11
85
 21
0
  0
LINE
  8
0
 10
85
 20
0
 11
85
 21
3
  0
LINE
  8
0
 10
85
 20
3
 11
91
 21
3
  0
LINE
  8
0
 10
91
 20
3
 11
91
 21
0
  0
LINE
  8
0
 10
91
 20
0
 11
97
 21
0
  0
LINE
  8
0
 10
97
 20
0
 11
97
 21
3
  0
LINE
  8
0
 10
97
 20
3
 11
103
 21
3
  0
LINE
  8
0
 10
103
 20
3
 11
103
 21
0
  0
LINE
  8
0
 10
103
 20
0
 11
109
 21
0
  0
LINE
  8
0
 10
109
 20
0
 11
109
 21
3
  0
LINE
  8
0
 10
109
 20
3
 11
115
 21
3
  0
LINE
  8
0
 10
115
 20
3
 11
115
 21
0
  0
LINE
  8
0
 10
115
 20
0
 11
121
 21
0
  0
LINE
  8
0
 10
121
 20
0
 11
121
 21
12
  0
LINE
  8
0
 10
121
 20
12
 11
124
 21
12
  0
LINE
  8
0
 10
124
 20
12
 11
124
 21
18
  0
LINE
  8
0
 10
124
 20
18
 11
121
 21
18
  0
LINE
  8
0
 10
121
 20
18
 11
121
 21
30
  0
LINE
  8
0
 10
121
 20
30
 11
115
 21
30
  0
LINE
  8
0
 10
115
 20
30
 11
115
 21
27
  0
LINE
  8
0
 10
115
 20
27
 11
109
 21
27
  0
LINE
  8
0
 10
109
 20
27
 11
109
 21
30
  0
LINE
  8
0
 10
109
 20
30
 11
103
 21
30
  0
LINE
  8
0
 10
103
 20
30
 11
103
 21
27
  0
LINE
  8
0
 10
103
 20
27
 11
97
 21
27
  0
LINE
  8
0
 10
97
 20
27
 11
97
 21
30
  0
LINE
  8
0
 10
97
 20
30
 11
91
 21
30
  0
LINE
  8
0
 10
91
 20
30
 11
91
 21
27
  0
LINE
  8
0
 10
91
 20
27
 11
85
 21
27
  0
LINE
  8
0
 10
85
 20
27
 11
85
 21
30
  0
LINE
  8
0
 10
85
 20
30
 11
79
 21
30
  0
LINE
  8
0
 10
79
 20
30
 11
79
 21
27
  0
LINE
  8
0
 10
79
 20
27
 11
73
 21
27
  0
LINE
  8
0
 10
73
 20
27
 11
73
 21
30
  0
LINE
  8
0
 10
73
 20
30
 11
67
 21
30
  0
LINE
  8
0
 10
67
 20
30
 11
67
 21
18
  0
LINE
  8
0
 10
67
 20
18
 11
64
 21
18
  0
LINE
  8
0
 10
64
 20
18
 11
64
 21
12
  0
LINE
  8
0
 10
64
 20
12
 11
67
 21
12
  0
LINE
  8
0
 10
67
 20
12
 11
67
 21
0
  0
LINE
  8
0
 10
67
 20
0
 11
73
 21
0
  0
LINE
  8
0
 10
73
 20
0
 11
73
 21
3
  0
LINE
  8
0
 10
137
 20
3
 11
143
 21
3
  0
LINE
  8
0
 10
143
 20
3
 11
143
 21
0
  0
LINE
  8
0
 10
143
 20
0
 11
149
 21
0
  0
LINE
  8
0
 10
149
 20
0
 11
149
 21
3
  0
LINE
  8
0
 10
149
 20
3
 11
155
 21
3
  0
LINE
  8
0
 10
155
 20
3
 11
155
 21
0
  0
LINE
  8
0
 10
155
 20
0
 11
161
 21
0
  0
LINE
  8
0
 10
161
 20
0
 11
161
 21
3
  0
LINE
  8
0
 10
161
 20
3
 11
167
 21
3
  0
LINE
  8
0
 10
167
 20
3
 11
167
 21
0
  0
LINE
  8
0
 10
167
 20
0
 11
173
 21
0
  0
LINE
  8
0
 10
173
 20
0
 11
173
 21
3
  0
LINE
  8
0
 10
173
 20
3
 11
179
 21
3
  0
LINE
  8
0
 10
179
 20
3
 11
179
 21
0
  0
LINE
  8
0
 10
179
 20
0
 11
188
 21
0
  0
LINE
  8
0
 10
188
 20
0
 11
188
 21
30
  0
LINE
  8
0
 10
188
 20
30
 11
179
 21
30
  0
LINE
  8
0
 10
179
 20
30
 11
179
 21
27
  0
LINE
  8
0
 10
179
 20
27
 11
173
 21
27
  0
LINE
  8
0
 10
173
 20
27
 11
173
 21
30
  0
LINE
  8
0
 10
173
 20
30
 11
167
 21
30
  0
LINE
  8
0
 10
167
 20
30
 11
167
 21
27
  0
LINE
  8
0
 10
167
 20
27
 11
161
 21
27
  0
LINE
  8
0
 10
161
 20
27
 11
161
 21
30
  0
LINE
  8
0
 10
161
 20
30
 11
155
 21
30
  0
LINE
  8
0
 10
155
 20
30
 11
155
 21
27
  0
LINE
  8
0
 10
155
 20
27
 11
149
 21
27
  0
LINE
  8
0
 10
149
 20
27
 11
149
 21
30
  0
LINE
  8
0
 10
149
 20
30
 11
143
 21
30
  0
LINE
  8
0
 10
143
 20
30
 11
143
 21
27
  0
LINE
  8
0
 10
143
 20
27
 11
137
 21
27
  0
LINE
  8
0
 10
137
 20
27
 11
137
 21
30
  0
LINE
  8
0
 10
137
 20
30
 11
128
 21
30
  0
LINE
  8
0
 10
128
 20
30
 11
128
 21
18
  0
LINE
  8
0
 10
128
 20
18
 11
131
 21
18
  0
LINE
  8
0
 10
131
 20
18
 11
131
 21
12
  0
LINE
  8
0
 10
131
 20
12
 11
128
 21
12
  0
LINE
  8
0
 10
128
 20
12
 11
128
 21
0
  0
LINE
  8
0
 10
128
 20
0
 11
137
 21
0
  0
LINE
  8
0
 10
137
 20
0
 11
137
 21
3
  0
LINE
  8
0
 10
185
 20
12
 11
185
 21
18
  0
LINE
  8
0
 10
185
 20
18
 11
188
 21
18
  0
LINE
  8
0
 10
188
 20
18
 11
188
 21
12
  0
LINE
  8
0
 10
188
 20
12
 11
185
 21
12
  0
ENDSEC
  0
SECTION
  2
OBJECTS
  0
DICTIONARY
  0
ENDSEC
  0
EOF
