  0
SECTION
  2
HEADER
  9
$ACADVER
  1
AC1009
  9
$EXTMIN
 10
0.0
 20
0.0
 30
0.0
  9
$EXTMAX
 10
1000.0
 20
1000.0
 30
0.0
  9
$FILLMODE
 70
 0
  9
$SPLFRAME
 70
 1
  0
ENDSEC
  0
SECTION
  2
TABLES
  0
TABLE
  2
LAYER
 70
1
  0
LAYER
  2
0
 70
     0
 62
     7
  6
CONTINUOUS
  0
ENDTAB
  0
ENDSEC
  0
SECTION
  2
ENTITIES
  0
LINE
  8
0
 62
     0
 10
11.1277
 20
8.10701
 30
0.0
 11
11.1277
 21
7.92925
 31
0.0
  0
LINE
  8
0
 62
     0
 10
11.1277
 20
7.92925
 30
0.0
 11
11.1938
 21
7.39592
 31
0.0
  0
LINE
  8
0
 62
     0
 10
11.1938
 20
7.39592
 30
0.0
 11
11.4184
 21
6.864
 31
0.0
  0
LINE
  8
0
 62
     0
 10
11.4184
 20
6.864
 30
0.0
 11
11.8415
 21
6.53052
 31
0.0
  0
LINE
  8
0
 62
     0
 10
11.8415
 20
6.53052
 30
0.0
 11
12.3376
 21
6.41339
 31
0.0
  0
LINE
  8
0
 62
     0
 10
12.3376
 20
6.41339
 30
0.0
 11
12.5043
 21
6.41339
 31
0.0
  0
LINE
  8
0
 62
     0
 10
12.5043
 20
6.41339
 30
0.0
 11
12.6683
 21
6.41339
 31
0.0
  0
LINE
  8
0
 62
     0
 10
12.6683
 20
6.41339
 30
0.0
 11
13.1644
 21
6.53052
 31
0.0
  0
LINE
  8
0
 62
     0
 10
13.1644
 20
6.53052
 30
0.0
 11
13.5888
 21
6.864
 31
0.0
  0
LINE
  8
0
 62
     0
 10
13.5888
 20
6.864
 30
0.0
 11
13.8135
 21
7.39592
 31
0.0
  0
LINE
  8
0
 62
     0
 10
13.8135
 20
7.39592
 30
0.0
 11
13.8796
 21
7.92925
 31
0.0
  0
LINE
  8
0
 62
     0
 10
13.8796
 20
7.92925
 30
0.0
 11
13.8796
 21
8.10701
 31
0.0
  0
LINE
  8
0
 62
     0
 10
13.8796
 20
8.10701
 30
0.0
 11
13.8796
 21
8.28615
 31
0.0
  0
LINE
  8
0
 62
     0
 10
13.8796
 20
8.28615
 30
0.0
 11
13.8135
 21
8.81944
 31
0.0
  0
LINE
  8
0
 62
     0
 10
13.8135
 20
8.81944
 30
0.0
 11
13.5888
 21
9.35136
 31
0.0
  0
LINE
  8
0
 62
     0
 10
13.5888
 20
9.35136
 30
0.0
 11
13.1644
 21
9.68484
 31
0.0
  0
LINE
  8
0
 62
     0
 10
13.1644
 20
9.68484
 30
0.0
 11
12.6683
 21
9.80063
 31
0.0
  0
LINE
  8
0
 62
     0
 10
12.6683
 20
9.80063
 30
0.0
 11
12.5043
 21
9.80063
 31
0.0
  0
LINE
  8
0
 62
     0
 10
12.5043
 20
9.80063
 30
0.0
 11
12.3376
 21
9.80063
 31
0.0
  0
LINE
  8
0
 62
     0
 10
12.3376
 20
9.80063
 30
0.0
 11
11.8415
 21
9.68484
 31
0.0
  0
LINE
  8
0
 62
     0
 10
11.8415
 20
9.68484
 30
0.0
 11
11.4184
 21
9.35136
 31
0.0
  0
LINE
  8
0
 62
     0
 10
11.4184
 20
9.35136
 30
0.0
 11
11.1938
 21
8.81944
 31
0.0
  0
LINE
  8
0
 62
     0
 10
11.1938
 20
8.81944
 30
0.0
 11
11.1277
 21
8.28615
 31
0.0
  0
LINE
  8
0
 62
     0
 10
11.1277
 20
8.28615
 30
0.0
 11
11.1277
 21
8.10701
 31
0.0
  0
LINE
  8
0
 62
     0
 10
9.85848
 20
8.10701
 30
0.0
 11
9.85848
 21
8.41569
 31
0.0
  0
LINE
  8
0
 62
     0
 10
9.85848
 20
8.41569
 30
0.0
 11
10.0487
 21
9.34173
 31
0.0
  0
LINE
  8
0
 62
     0
 10
10.0487
 20
9.34173
 30
0.0
 11
10.5861
 21
10.1989
 31
0.0
  0
LINE
  8
0
 62
     0
 10
10.5861
 20
10.1989
 30
0.0
 11
11.4212
 21
10.6977
 31
0.0
  0
LINE
  8
0
 62
     0
 10
11.4212
 20
10.6977
 30
0.0
 11
12.2329
 21
10.859
 31
0.0
  0
LINE
  8
0
 62
     0
 10
12.2329
 20
10.859
 30
0.0
 11
12.5043
 21
10.859
 31
0.0
  0
LINE
  8
0
 62
     0
 10
12.5043
 20
10.859
 30
0.0
 11
12.7744
 21
10.859
 31
0.0
  0
LINE
  8
0
 62
     0
 10
12.7744
 20
10.859
 30
0.0
 11
13.5874
 21
10.6977
 31
0.0
  0
LINE
  8
0
 62
     0
 10
13.5874
 20
10.6977
 30
0.0
 11
14.4225
 21
10.1989
 31
0.0
  0
LINE
  8
0
 62
     0
 10
14.4225
 20
10.1989
 30
0.0
 11
14.96
 21
9.34173
 31
0.0
  0
LINE
  8
0
 62
     0
 10
14.96
 20
9.34173
 30
0.0
 11
15.1501
 21
8.41569
 31
0.0
  0
LINE
  8
0
 62
     0
 10
15.1501
 20
8.41569
 30
0.0
 11
15.1501
 21
8.10701
 31
0.0
  0
LINE
  8
0
 62
     0
 10
15.1501
 20
8.10701
 30
0.0
 11
15.1501
 21
7.7997
 31
0.0
  0
LINE
  8
0
 62
     0
 10
15.1501
 20
7.7997
 30
0.0
 11
14.96
 21
6.87366
 31
0.0
  0
LINE
  8
0
 62
     0
 10
14.96
 20
6.87366
 30
0.0
 11
14.4225
 21
6.01789
 31
0.0
  0
LINE
  8
0
 62
     0
 10
14.4225
 20
6.01789
 30
0.0
 11
13.5874
 21
5.51766
 31
0.0
  0
LINE
  8
0
 62
     0
 10
13.5874
 20
5.51766
 30
0.0
 11
12.7744
 21
5.35506
 31
0.0
  0
LINE
  8
0
 62
     0
 10
12.7744
 20
5.35506
 30
0.0
 11
12.5043
 21
5.35506
 31
0.0
  0
LINE
  8
0
 62
     0
 10
12.5043
 20
5.35506
 30
0.0
 11
12.2329
 21
5.35506
 31
0.0
  0
LINE
  8
0
 62
     0
 10
12.2329
 20
5.35506
 30
0.0
 11
11.4212
 21
5.51766
 31
0.0
  0
LINE
  8
0
 62
     0
 10
11.4212
 20
5.51766
 30
0.0
 11
10.5861
 21
6.01789
 31
0.0
  0
LINE
  8
0
 62
     0
 10
10.5861
 20
6.01789
 30
0.0
 11
10.0487
 21
6.87366
 31
0.0
  0
LINE
  8
0
 62
     0
 10
10.0487
 20
6.87366
 30
0.0
 11
9.85848
 21
7.7997
 31
0.0
  0
LINE
  8
0
 62
     0
 10
9.85848
 20
7.7997
 30
0.0
 11
9.85848
 21
8.10701
 31
0.0
  0
LINE
  8
0
 62
     0
 10
20.3357
 20
6.62563
 30
0.0
 11
20.3619
 21
6.62563
 31
0.0
  0
LINE
  8
0
 62
     0
 10
20.3619
 20
6.62563
 30
0.0
 11
20.4391
 21
6.53602
 31
0.0
  0
LINE
  8
0
 62
     0
 10
20.4391
 20
6.53602
 30
0.0
 11
20.4418
 21
6.51951
 31
0.0
  0
LINE
  8
0
 62
     0
 10
20.4418
 20
6.51951
 30
0.0
 11
20.4418
 21
6.51951
 31
0.0
  0
LINE
  8
0
 62
     0
 10
20.4418
 20
6.51951
 30
0.0
 11
20.4942
 21
6.11297
 31
0.0
  0
LINE
  8
0
 62
     0
 10
20.4942
 20
6.11297
 30
0.0
 11
20.5479
 21
5.78362
 31
0.0
  0
LINE
  8
0
 62
     0
 10
20.5479
 20
5.78362
 30
0.0
 11
20.5479
 21
5.67337
 31
0.0
  0
LINE
  8
0
 62
     0
 10
20.5479
 20
5.67337
 30
0.0
 11
20.5479
 21
5.6472
 31
0.0
  0
LINE
  8
0
 62
     0
 10
20.5479
 20
5.6472
 30
0.0
 11
20.457
 21
5.57004
 31
0.0
  0
LINE
  8
0
 62
     0
 10
20.457
 20
5.57004
 30
0.0
 11
20.4418
 21
5.56729
 31
0.0
  0
LINE
  8
0
 62
     0
 10
20.4418
 20
5.56729
 30
0.0
 11
20.4198
 21
5.56038
 31
0.0
  0
LINE
  8
0
 62
     0
 10
20.4198
 20
5.56038
 30
0.0
 11
19.881
 21
5.45013
 31
0.0
  0
LINE
  8
0
 62
     0
 10
19.881
 20
5.45013
 30
0.0
 11
19.1106
 21
5.35506
 31
0.0
  0
LINE
  8
0
 62
     0
 10
19.1106
 20
5.35506
 30
0.0
 11
18.8543
 21
5.35506
 31
0.0
  0
LINE
  8
0
 62
     0
 10
18.8543
 20
5.35506
 30
0.0
 11
18.5002
 21
5.35506
 31
0.0
  0
LINE
  8
0
 62
     0
 10
18.5002
 20
5.35506
 30
0.0
 11
17.4418
 21
5.5728
 31
0.0
  0
LINE
  8
0
 62
     0
 10
17.4418
 20
5.5728
 30
0.0
 11
16.604
 21
6.16398
 31
0.0
  0
LINE
  8
0
 62
     0
 10
16.604
 20
6.16398
 30
0.0
 11
16.2044
 21
7.03901
 31
0.0
  0
LINE
  8
0
 62
     0
 10
16.2044
 20
7.03901
 30
0.0
 11
16.1024
 21
7.84105
 31
0.0
  0
LINE
  8
0
 62
     0
 10
16.1024
 20
7.84105
 30
0.0
 11
16.1024
 21
8.10701
 31
0.0
  0
LINE
  8
0
 62
     0
 10
16.1024
 20
8.10701
 30
0.0
 11
16.1024
 21
8.37434
 31
0.0
  0
LINE
  8
0
 62
     0
 10
16.1024
 20
8.37434
 30
0.0
 11
16.2044
 21
9.17635
 31
0.0
  0
LINE
  8
0
 62
     0
 10
16.2044
 20
9.17635
 30
0.0
 11
16.604
 21
10.0514
 31
0.0
  0
LINE
  8
0
 62
     0
 10
16.604
 20
10.0514
 30
0.0
 11
17.4418
 21
10.6426
 31
0.0
  0
LINE
  8
0
 62
     0
 10
17.4418
 20
10.6426
 30
0.0
 11
18.5002
 21
10.859
 31
0.0
  0
LINE
  8
0
 62
     0
 10
18.5002
 20
10.859
 30
0.0
 11
18.8543
 21
10.859
 31
0.0
  0
LINE
  8
0
 62
     0
 10
18.8543
 20
10.859
 30
0.0
 11
18.9949
 21
10.859
 31
0.0
  0
LINE
  8
0
 62
     0
 10
18.9949
 20
10.859
 30
0.0
 11
19.4193
 21
10.8107
 31
0.0
  0
LINE
  8
0
 62
     0
 10
19.4193
 20
10.8107
 30
0.0
 11
19.892
 21
10.7005
 31
0.0
  0
LINE
  8
0
 62
     0
 10
19.892
 20
10.7005
 30
0.0
 11
20.2158
 21
10.5916
 31
0.0
  0
LINE
  8
0
 62
     0
 10
20.2158
 20
10.5916
 30
0.0
 11
20.3357
 21
10.542
 31
0.0
  0
LINE
  8
0
 62
     0
 10
20.3357
 20
10.542
 30
0.0
 11
20.3357
 21
10.542
 31
0.0
  0
LINE
  8
0
 62
     0
 10
20.3357
 20
10.542
 30
0.0
 11
20.3481
 21
10.5365
 31
0.0
  0
LINE
  8
0
 62
     0
 10
20.3481
 20
10.5365
 30
0.0
 11
20.4391
 21
10.4469
 31
0.0
  0
LINE
  8
0
 62
     0
 10
20.4391
 20
10.4469
 30
0.0
 11
20.4418
 21
10.4359
 31
0.0
  0
LINE
  8
0
 62
     0
 10
20.4418
 20
10.4359
 30
0.0
 11
20.4418
 21
10.4359
 31
0.0
  0
LINE
  8
0
 62
     0
 10
20.4418
 20
10.4359
 30
0.0
 11
20.4942
 21
10.0294
 31
0.0
  0
LINE
  8
0
 62
     0
 10
20.4942
 20
10.0294
 30
0.0
 11
20.5479
 21
9.69864
 31
0.0
  0
LINE
  8
0
 62
     0
 10
20.5479
 20
9.69864
 30
0.0
 11
20.5479
 21
9.58839
 31
0.0
  0
LINE
  8
0
 62
     0
 10
20.5479
 20
9.58839
 30
0.0
 11
20.5479
 21
9.56222
 31
0.0
  0
LINE
  8
0
 62
     0
 10
20.5479
 20
9.56222
 30
0.0
 11
20.468
 21
9.48365
 31
0.0
  0
LINE
  8
0
 62
     0
 10
20.468
 20
9.48365
 30
0.0
 11
20.4418
 21
9.48365
 31
0.0
  0
LINE
  8
0
 62
     0
 10
20.4418
 20
9.48365
 30
0.0
 11
20.3991
 21
9.48365
 31
0.0
  0
LINE
  8
0
 62
     0
 10
20.3991
 20
9.48365
 30
0.0
 11
20.2751
 21
9.53325
 31
0.0
  0
LINE
  8
0
 62
     0
 10
20.2751
 20
9.53325
 30
0.0
 11
19.9044
 21
9.64212
 31
0.0
  0
LINE
  8
0
 62
     0
 10
19.9044
 20
9.64212
 30
0.0
 11
19.4069
 21
9.75237
 31
0.0
  0
LINE
  8
0
 62
     0
 10
19.4069
 20
9.75237
 30
0.0
 11
18.9921
 21
9.80063
 31
0.0
  0
LINE
  8
0
 62
     0
 10
18.9921
 20
9.80063
 30
0.0
 11
18.8543
 21
9.80063
 31
0.0
  0
LINE
  8
0
 62
     0
 10
18.8543
 20
9.80063
 30
0.0
 11
18.6559
 21
9.80063
 31
0.0
  0
LINE
  8
0
 62
     0
 10
18.6559
 20
9.80063
 30
0.0
 11
18.0647
 21
9.67246
 31
0.0
  0
LINE
  8
0
 62
     0
 10
18.0647
 20
9.67246
 30
0.0
 11
17.6168
 21
9.31556
 31
0.0
  0
LINE
  8
0
 62
     0
 10
17.6168
 20
9.31556
 30
0.0
 11
17.417
 21
8.7781
 31
0.0
  0
LINE
  8
0
 62
     0
 10
17.417
 20
8.7781
 30
0.0
 11
17.3729
 21
8.27511
 31
0.0
  0
LINE
  8
0
 62
     0
 10
17.3729
 20
8.27511
 30
0.0
 11
17.3729
 21
8.10701
 31
0.0
  0
LINE
  8
0
 62
     0
 10
17.3729
 20
8.10701
 30
0.0
 11
17.3729
 21
7.94025
 31
0.0
  0
LINE
  8
0
 62
     0
 10
17.3729
 20
7.94025
 30
0.0
 11
17.4322
 21
7.43726
 31
0.0
  0
LINE
  8
0
 62
     0
 10
17.4322
 20
7.43726
 30
0.0
 11
17.6568
 21
6.89984
 31
0.0
  0
LINE
  8
0
 62
     0
 10
17.6568
 20
6.89984
 30
0.0
 11
18.1088
 21
6.54293
 31
0.0
  0
LINE
  8
0
 62
     0
 10
18.1088
 20
6.54293
 30
0.0
 11
18.6669
 21
6.41339
 31
0.0
  0
LINE
  8
0
 62
     0
 10
18.6669
 20
6.41339
 30
0.0
 11
18.8543
 21
6.41339
 31
0.0
  0
LINE
  8
0
 62
     0
 10
18.8543
 20
6.41339
 30
0.0
 11
19.1079
 21
6.41339
 31
0.0
  0
LINE
  8
0
 62
     0
 10
19.1079
 20
6.41339
 30
0.0
 11
19.8727
 21
6.51951
 31
0.0
  0
LINE
  8
0
 62
     0
 10
19.8727
 20
6.51951
 30
0.0
 11
20.22
 21
6.62563
 31
0.0
  0
LINE
  8
0
 62
     0
 10
20.22
 20
6.62563
 30
0.0
 11
20.3357
 21
6.62563
 31
0.0
  0
LINE
  8
0
 62
     0
 10
23.5424
 20
12.7634
 30
0.0
 11
23.5424
 21
10.7528
 31
0.0
  0
LINE
  8
0
 62
     0
 10
23.5424
 20
10.7528
 30
0.0
 11
24.6007
 21
10.7528
 31
0.0
  0
LINE
  8
0
 62
     0
 10
24.6007
 20
10.7528
 30
0.0
 11
24.6269
 21
10.7528
 31
0.0
  0
LINE
  8
0
 62
     0
 10
24.6269
 20
10.7528
 30
0.0
 11
24.7041
 21
10.6633
 31
0.0
  0
LINE
  8
0
 62
     0
 10
24.7041
 20
10.6633
 30
0.0
 11
24.7069
 21
10.6467
 31
0.0
  0
LINE
  8
0
 62
     0
 10
24.7069
 20
10.6467
 30
0.0
 11
24.7069
 21
10.6467
 31
0.0
  0
LINE
  8
0
 62
     0
 10
24.7069
 20
10.6467
 30
0.0
 11
24.7592
 21
10.2361
 31
0.0
  0
LINE
  8
0
 62
     0
 10
24.7592
 20
10.2361
 30
0.0
 11
24.8129
 21
9.90946
 31
0.0
  0
LINE
  8
0
 62
     0
 10
24.8129
 20
9.90946
 30
0.0
 11
24.8129
 21
9.80063
 31
0.0
  0
LINE
  8
0
 62
     0
 10
24.8129
 20
9.80063
 30
0.0
 11
24.8129
 21
9.77441
 31
0.0
  0
LINE
  8
0
 62
     0
 10
24.8129
 20
9.77441
 30
0.0
 11
24.733
 21
9.69451
 31
0.0
  0
LINE
  8
0
 62
     0
 10
24.733
 20
9.69451
 30
0.0
 11
24.7069
 21
9.69451
 31
0.0
  0
LINE
  8
0
 62
     0
 10
24.7069
 20
9.69451
 30
0.0
 11
23.5424
 21
9.69451
 31
0.0
  0
LINE
  8
0
 62
     0
 10
23.5424
 20
9.69451
 30
0.0
 11
23.5424
 21
7.47173
 31
0.0
  0
LINE
  8
0
 62
     0
 10
23.5424
 20
7.47173
 30
0.0
 11
23.5424
 21
7.27467
 31
0.0
  0
LINE
  8
0
 62
     0
 10
23.5424
 20
7.27467
 30
0.0
 11
23.6761
 21
6.68211
 31
0.0
  0
LINE
  8
0
 62
     0
 10
23.6761
 20
6.68211
 30
0.0
 11
23.9723
 21
6.41339
 31
0.0
  0
LINE
  8
0
 62
     0
 10
23.9723
 20
6.41339
 30
0.0
 11
24.0716
 21
6.41339
 31
0.0
  0
LINE
  8
0
 62
     0
 10
24.0716
 20
6.41339
 30
0.0
 11
24.1639
 21
6.41339
 31
0.0
  0
LINE
  8
0
 62
     0
 10
24.1639
 20
6.41339
 30
0.0
 11
24.4437
 21
6.46712
 31
0.0
  0
LINE
  8
0
 62
     0
 10
24.4437
 20
6.46712
 30
0.0
 11
24.6407
 21
6.51951
 31
0.0
  0
LINE
  8
0
 62
     0
 10
24.6407
 20
6.51951
 30
0.0
 11
24.7069
 21
6.51951
 31
0.0
  0
LINE
  8
0
 62
     0
 10
24.7069
 20
6.51951
 30
0.0
 11
24.733
 21
6.51951
 31
0.0
  0
LINE
  8
0
 62
     0
 10
24.733
 20
6.51951
 30
0.0
 11
24.8102
 21
6.44645
 31
0.0
  0
LINE
  8
0
 62
     0
 10
24.8102
 20
6.44645
 30
0.0
 11
24.8129
 21
6.43544
 31
0.0
  0
LINE
  8
0
 62
     0
 10
24.8129
 20
6.43544
 30
0.0
 11
24.8129
 21
6.43544
 31
0.0
  0
LINE
  8
0
 62
     0
 10
24.8129
 20
6.43544
 30
0.0
 11
24.8653
 21
6.03306
 31
0.0
  0
LINE
  8
0
 62
     0
 10
24.8653
 20
6.03306
 30
0.0
 11
24.9177
 21
5.69958
 31
0.0
  0
LINE
  8
0
 62
     0
 10
24.9177
 20
5.69958
 30
0.0
 11
24.9177
 21
5.58793
 31
0.0
  0
LINE
  8
0
 62
     0
 10
24.9177
 20
5.58793
 30
0.0
 11
24.9177
 21
5.55625
 31
0.0
  0
LINE
  8
0
 62
     0
 10
24.9177
 20
5.55625
 30
0.0
 11
24.8281
 21
5.46668
 31
0.0
  0
LINE
  8
0
 62
     0
 10
24.8281
 20
5.46668
 30
0.0
 11
24.8129
 21
5.46118
 31
0.0
  0
LINE
  8
0
 62
     0
 10
24.8129
 20
5.46118
 30
0.0
 11
24.8129
 21
5.46118
 31
0.0
  0
LINE
  8
0
 62
     0
 10
24.8129
 20
5.46118
 30
0.0
 11
24.547
 21
5.40879
 31
0.0
  0
LINE
  8
0
 62
     0
 10
24.547
 20
5.40879
 30
0.0
 11
24.1102
 21
5.35506
 31
0.0
  0
LINE
  8
0
 62
     0
 10
24.1102
 20
5.35506
 30
0.0
 11
23.9655
 21
5.35506
 31
0.0
  0
LINE
  8
0
 62
     0
 10
23.9655
 20
5.35506
 30
0.0
 11
23.7601
 21
5.35506
 31
0.0
  0
LINE
  8
0
 62
     0
 10
23.7601
 20
5.35506
 30
0.0
 11
23.1469
 21
5.52178
 31
0.0
  0
LINE
  8
0
 62
     0
 10
23.1469
 20
5.52178
 30
0.0
 11
22.626
 21
5.9738
 31
0.0
  0
LINE
  8
0
 62
     0
 10
22.626
 20
5.9738
 30
0.0
 11
22.3518
 21
6.64626
 31
0.0
  0
LINE
  8
0
 62
     0
 10
22.3518
 20
6.64626
 30
0.0
 11
22.2718
 21
7.26641
 31
0.0
  0
LINE
  8
0
 62
     0
 10
22.2718
 20
7.26641
 30
0.0
 11
22.2718
 21
7.47173
 31
0.0
  0
LINE
  8
0
 62
     0
 10
22.2718
 20
7.47173
 30
0.0
 11
22.2718
 21
9.69451
 31
0.0
  0
LINE
  8
0
 62
     0
 10
22.2718
 20
9.69451
 30
0.0
 11
21.3196
 21
9.69451
 31
0.0
  0
LINE
  8
0
 62
     0
 10
21.3196
 20
9.69451
 30
0.0
 11
21.2921
 21
9.69451
 31
0.0
  0
LINE
  8
0
 62
     0
 10
21.2921
 20
9.69451
 30
0.0
 11
21.2163
 21
9.78546
 31
0.0
  0
LINE
  8
0
 62
     0
 10
21.2163
 20
9.78546
 30
0.0
 11
21.2135
 21
9.80063
 31
0.0
  0
LINE
  8
0
 62
     0
 10
21.2135
 20
9.80063
 30
0.0
 11
21.2135
 21
9.80063
 31
0.0
  0
LINE
  8
0
 62
     0
 10
21.2135
 20
9.80063
 30
0.0
 11
21.1612
 21
10.2085
 31
0.0
  0
LINE
  8
0
 62
     0
 10
21.1612
 20
10.2085
 30
0.0
 11
21.1088
 21
10.5379
 31
0.0
  0
LINE
  8
0
 62
     0
 10
21.1088
 20
10.5379
 30
0.0
 11
21.1088
 21
10.6467
 31
0.0
  0
LINE
  8
0
 62
     0
 10
21.1088
 20
10.6467
 30
0.0
 11
21.1088
 21
10.6743
 31
0.0
  0
LINE
  8
0
 62
     0
 10
21.1088
 20
10.6743
 30
0.0
 11
21.1873
 21
10.7528
 31
0.0
  0
LINE
  8
0
 62
     0
 10
21.1873
 20
10.7528
 30
0.0
 11
21.2135
 21
10.7528
 31
0.0
  0
LINE
  8
0
 62
     0
 10
21.2135
 20
10.7528
 30
0.0
 11
22.2718
 21
10.7528
 31
0.0
  0
LINE
  8
0
 62
     0
 10
22.2718
 20
10.7528
 30
0.0
 11
22.2718
 21
12.6587
 31
0.0
  0
LINE
  8
0
 62
     0
 10
22.2718
 20
12.6587
 30
0.0
 11
22.2718
 21
12.6848
 31
0.0
  0
LINE
  8
0
 62
     0
 10
22.2718
 20
12.6848
 30
0.0
 11
22.3504
 21
12.7634
 31
0.0
  0
LINE
  8
0
 62
     0
 10
22.3504
 20
12.7634
 30
0.0
 11
22.378
 21
12.7634
 31
0.0
  0
LINE
  8
0
 62
     0
 10
22.378
 20
12.7634
 30
0.0
 11
23.4363
 21
12.8695
 31
0.0
  0
LINE
  8
0
 62
     0
 10
23.4363
 20
12.8695
 30
0.0
 11
23.4625
 21
12.8695
 31
0.0
  0
LINE
  8
0
 62
     0
 10
23.4625
 20
12.8695
 30
0.0
 11
23.5424
 21
12.7909
 31
0.0
  0
LINE
  8
0
 62
     0
 10
23.5424
 20
12.7909
 30
0.0
 11
23.5424
 21
12.7634
 31
0.0
  0
LINE
  8
0
 62
     0
 10
27.5318
 20
6.41339
 30
0.0
 11
27.6641
 21
6.41339
 31
0.0
  0
LINE
  8
0
 62
     0
 10
27.6641
 20
6.41339
 30
0.0
 11
28.0624
 21
6.44232
 31
0.0
  0
LINE
  8
0
 62
     0
 10
28.0624
 20
6.44232
 30
0.0
 11
28.5392
 21
6.57874
 31
0.0
  0
LINE
  8
0
 62
     0
 10
28.5392
 20
6.57874
 30
0.0
 11
28.8823
 21
6.89709
 31
0.0
  0
LINE
  8
0
 62
     0
 10
28.8823
 20
6.89709
 30
0.0
 11
29.0146
 21
7.32839
 31
0.0
  0
LINE
  8
0
 62
     0
 10
29.0146
 20
7.32839
 30
0.0
 11
29.0146
 21
7.47173
 31
0.0
  0
LINE
  8
0
 62
     0
 10
29.0146
 20
7.47173
 30
0.0
 11
29.0146
 21
7.68396
 31
0.0
  0
LINE
  8
0
 62
     0
 10
29.0146
 20
7.68396
 30
0.0
 11
27.8501
 21
7.68396
 31
0.0
  0
LINE
  8
0
 62
     0
 10
27.8501
 20
7.68396
 30
0.0
 11
27.6821
 21
7.68396
 31
0.0
  0
LINE
  8
0
 62
     0
 10
27.6821
 20
7.68396
 30
0.0
 11
27.1791
 21
7.51032
 31
0.0
  0
LINE
  8
0
 62
     0
 10
27.1791
 20
7.51032
 30
0.0
 11
26.8979
 21
7.16442
 31
0.0
  0
LINE
  8
0
 62
     0
 10
26.8979
 20
7.16442
 30
0.0
 11
26.8979
 21
7.04868
 31
0.0
  0
LINE
  8
0
 62
     0
 10
26.8979
 20
7.04868
 30
0.0
 11
26.8979
 21
6.91638
 31
0.0
  0
LINE
  8
0
 62
     0
 10
26.8979
 20
6.91638
 30
0.0
 11
27.1239
 21
6.51813
 31
0.0
  0
LINE
  8
0
 62
     0
 10
27.1239
 20
6.51813
 30
0.0
 11
27.4298
 21
6.41339
 31
0.0
  0
LINE
  8
0
 62
     0
 10
27.4298
 20
6.41339
 30
0.0
 11
27.5318
 21
6.41339
 31
0.0
  0
LINE
  8
0
 62
     0
 10
29.1193
 20
5.56729
 30
0.0
 11
29.0669
 21
5.88423
 31
0.0
  0
LINE
  8
0
 62
     0
 10
29.0669
 20
5.88423
 30
0.0
 11
29.0132
 21
5.82634
 31
0.0
  0
LINE
  8
0
 62
     0
 10
29.0132
 20
5.82634
 30
0.0
 11
28.5447
 21
5.53283
 31
0.0
  0
LINE
  8
0
 62
     0
 10
28.5447
 20
5.53283
 30
0.0
 11
27.784
 21
5.35506
 31
0.0
  0
LINE
  8
0
 62
     0
 10
27.784
 20
5.35506
 30
0.0
 11
27.5318
 21
5.35506
 31
0.0
  0
LINE
  8
0
 62
     0
 10
27.5318
 20
5.35506
 30
0.0
 11
27.3885
 21
5.35506
 31
0.0
  0
LINE
  8
0
 62
     0
 10
27.3885
 20
5.35506
 30
0.0
 11
26.9613
 21
5.42671
 31
0.0
  0
LINE
  8
0
 62
     0
 10
26.9613
 20
5.42671
 30
0.0
 11
26.3371
 21
5.68717
 31
0.0
  0
LINE
  8
0
 62
     0
 10
26.3371
 20
5.68717
 30
0.0
 11
25.8341
 21
6.20391
 31
0.0
  0
LINE
  8
0
 62
     0
 10
25.8341
 20
6.20391
 30
0.0
 11
25.6274
 21
6.83782
 31
0.0
  0
LINE
  8
0
 62
     0
 10
25.6274
 20
6.83782
 30
0.0
 11
25.6274
 21
7.04868
 31
0.0
  0
LINE
  8
0
 62
     0
 10
25.6274
 20
7.04868
 30
0.0
 11
25.6274
 21
7.23057
 31
0.0
  0
LINE
  8
0
 62
     0
 10
25.6274
 20
7.23057
 30
0.0
 11
25.779
 21
7.77353
 31
0.0
  0
LINE
  8
0
 62
     0
 10
25.779
 20
7.77353
 30
0.0
 11
26.2185
 21
8.30545
 31
0.0
  0
LINE
  8
0
 62
     0
 10
26.2185
 20
8.30545
 30
0.0
 11
26.9172
 21
8.63205
 31
0.0
  0
LINE
  8
0
 62
     0
 10
26.9172
 20
8.63205
 30
0.0
 11
27.6159
 21
8.74229
 31
0.0
  0
LINE
  8
0
 62
     0
 10
27.6159
 20
8.74229
 30
0.0
 11
27.8501
 21
8.74229
 31
0.0
  0
LINE
  8
0
 62
     0
 10
27.8501
 20
8.74229
 30
0.0
 11
27.9273
 21
8.74229
 31
0.0
  0
LINE
  8
0
 62
     0
 10
27.9273
 20
8.74229
 30
0.0
 11
28.1602
 21
8.72575
 31
0.0
  0
LINE
  8
0
 62
     0
 10
28.1602
 20
8.72575
 30
0.0
 11
28.5461
 21
8.6899
 31
0.0
  0
LINE
  8
0
 62
     0
 10
28.5461
 20
8.6899
 30
0.0
 11
28.8754
 21
8.6541
 31
0.0
  0
LINE
  8
0
 62
     0
 10
28.8754
 20
8.6541
 30
0.0
 11
29.0146
 21
8.63618
 31
0.0
  0
LINE
  8
0
 62
     0
 10
29.0146
 20
8.63618
 30
0.0
 11
29.0146
 21
8.63618
 31
0.0
  0
LINE
  8
0
 62
     0
 10
29.0146
 20
8.63618
 30
0.0
 11
29.0146
 21
9.10195
 31
0.0
  0
LINE
  8
0
 62
     0
 10
29.0146
 20
9.10195
 30
0.0
 11
29.0146
 21
9.22874
 31
0.0
  0
LINE
  8
0
 62
     0
 10
29.0146
 20
9.22874
 30
0.0
 11
28.7459
 21
9.60632
 31
0.0
  0
LINE
  8
0
 62
     0
 10
28.7459
 20
9.60632
 30
0.0
 11
28.1533
 21
9.80063
 31
0.0
  0
LINE
  8
0
 62
     0
 10
28.1533
 20
9.80063
 30
0.0
 11
27.9563
 21
9.80063
 31
0.0
  0
LINE
  8
0
 62
     0
 10
27.9563
 20
9.80063
 30
0.0
 11
27.806
 21
9.80063
 31
0.0
  0
LINE
  8
0
 62
     0
 10
27.806
 20
9.80063
 30
0.0
 11
27.3596
 21
9.73586
 31
0.0
  0
LINE
  8
0
 62
     0
 10
27.3596
 20
9.73586
 30
0.0
 11
26.7643
 21
9.58977
 31
0.0
  0
LINE
  8
0
 62
     0
 10
26.7643
 20
9.58977
 30
0.0
 11
26.2874
 21
9.44369
 31
0.0
  0
LINE
  8
0
 62
     0
 10
26.2874
 20
9.44369
 30
0.0
 11
26.1097
 21
9.37754
 31
0.0
  0
LINE
  8
0
 62
     0
 10
26.1097
 20
9.37754
 30
0.0
 11
26.0505
 21
9.37754
 31
0.0
  0
LINE
  8
0
 62
     0
 10
26.0505
 20
9.37754
 30
0.0
 11
26.0229
 21
9.37754
 31
0.0
  0
LINE
  8
0
 62
     0
 10
26.0229
 20
9.37754
 30
0.0
 11
25.9443
 21
9.45748
 31
0.0
  0
LINE
  8
0
 62
     0
 10
25.9443
 20
9.45748
 30
0.0
 11
25.9443
 21
9.48365
 31
0.0
  0
LINE
  8
0
 62
     0
 10
25.9443
 20
9.48365
 30
0.0
 11
25.9443
 21
9.59252
 31
0.0
  0
LINE
  8
0
 62
     0
 10
25.9443
 20
9.59252
 30
0.0
 11
25.9967
 21
9.915
 31
0.0
  0
LINE
  8
0
 62
     0
 10
25.9967
 20
9.915
 30
0.0
 11
26.0505
 21
10.3298
 31
0.0
  0
LINE
  8
0
 62
     0
 10
26.0505
 20
10.3298
 30
0.0
 11
26.0505
 21
10.3298
 31
0.0
  0
LINE
  8
0
 62
     0
 10
26.0505
 20
10.3298
 30
0.0
 11
26.0532
 21
10.3408
 31
0.0
  0
LINE
  8
0
 62
     0
 10
26.0532
 20
10.3408
 30
0.0
 11
26.1428
 21
10.4304
 31
0.0
  0
LINE
  8
0
 62
     0
 10
26.1428
 20
10.4304
 30
0.0
 11
26.1565
 21
10.4359
 31
0.0
  0
LINE
  8
0
 62
     0
 10
26.1565
 20
10.4359
 30
0.0
 11
26.1662
 21
10.4414
 31
0.0
  0
LINE
  8
0
 62
     0
 10
26.1662
 20
10.4414
 30
0.0
 11
26.3343
 21
10.5117
 31
0.0
  0
LINE
  8
0
 62
     0
 10
26.3343
 20
10.5117
 30
0.0
 11
26.7505
 21
10.6564
 31
0.0
  0
LINE
  8
0
 62
     0
 10
26.7505
 20
10.6564
 30
0.0
 11
27.3182
 21
10.7969
 31
0.0
  0
LINE
  8
0
 62
     0
 10
27.3182
 20
10.7969
 30
0.0
 11
27.7964
 21
10.859
 31
0.0
  0
LINE
  8
0
 62
     0
 10
27.7964
 20
10.859
 30
0.0
 11
27.9563
 21
10.859
 31
0.0
  0
LINE
  8
0
 62
     0
 10
27.9563
 20
10.859
 30
0.0
 11
28.1933
 21
10.859
 31
0.0
  0
LINE
  8
0
 62
     0
 10
28.1933
 20
10.859
 30
0.0
 11
28.9044
 21
10.7432
 31
0.0
  0
LINE
  8
0
 62
     0
 10
28.9044
 20
10.7432
 30
0.0
 11
29.6388
 21
10.4097
 31
0.0
  0
LINE
  8
0
 62
     0
 10
29.6388
 20
10.4097
 30
0.0
 11
30.1143
 21
9.87778
 31
0.0
  0
LINE
  8
0
 62
     0
 10
30.1143
 20
9.87778
 30
0.0
 11
30.2838
 21
9.34448
 31
0.0
  0
LINE
  8
0
 62
     0
 10
30.2838
 20
9.34448
 30
0.0
 11
30.2838
 21
9.16534
 31
0.0
  0
LINE
  8
0
 62
     0
 10
30.2838
 20
9.16534
 30
0.0
 11
30.2838
 21
6.41339
 31
0.0
  0
LINE
  8
0
 62
     0
 10
30.2838
 20
6.41339
 30
0.0
 11
30.2838
 21
6.26318
 31
0.0
  0
LINE
  8
0
 62
     0
 10
30.2838
 20
6.26318
 30
0.0
 11
30.3361
 21
5.81258
 31
0.0
  0
LINE
  8
0
 62
     0
 10
30.3361
 20
5.81258
 30
0.0
 11
30.3899
 21
5.62927
 31
0.0
  0
LINE
  8
0
 62
     0
 10
30.3899
 20
5.62927
 30
0.0
 11
30.3899
 21
5.56729
 31
0.0
  0
LINE
  8
0
 62
     0
 10
30.3899
 20
5.56729
 30
0.0
 11
30.3899
 21
5.54108
 31
0.0
  0
LINE
  8
0
 62
     0
 10
30.3899
 20
5.54108
 30
0.0
 11
30.31
 21
5.46118
 31
0.0
  0
LINE
  8
0
 62
     0
 10
30.31
 20
5.46118
 30
0.0
 11
30.2838
 21
5.46118
 31
0.0
  0
LINE
  8
0
 62
     0
 10
30.2838
 20
5.46118
 30
0.0
 11
29.2255
 21
5.46118
 31
0.0
  0
LINE
  8
0
 62
     0
 10
29.2255
 20
5.46118
 30
0.0
 11
29.1979
 21
5.46118
 31
0.0
  0
LINE
  8
0
 62
     0
 10
29.1979
 20
5.46118
 30
0.0
 11
29.1248
 21
5.54937
 31
0.0
  0
LINE
  8
0
 62
     0
 10
29.1248
 20
5.54937
 30
0.0
 11
29.1193
 21
5.56729
 31
0.0
  0
LINE
  8
0
 62
     0
 10
31.7872
 20
5.56729
 30
0.0
 11
31.7872
 21
9.90671
 31
0.0
  0
LINE
  8
0
 62
     0
 10
31.7872
 20
9.90671
 30
0.0
 11
31.7872
 21
10.0362
 31
0.0
  0
LINE
  8
0
 62
     0
 10
31.7872
 20
10.0362
 30
0.0
 11
31.7335
 21
10.4207
 31
0.0
  0
LINE
  8
0
 62
     0
 10
31.7335
 20
10.4207
 30
0.0
 11
31.6811
 21
10.5902
 31
0.0
  0
LINE
  8
0
 62
     0
 10
31.6811
 20
10.5902
 30
0.0
 11
31.6811
 21
10.6467
 31
0.0
  0
LINE
  8
0
 62
     0
 10
31.6811
 20
10.6467
 30
0.0
 11
31.6811
 21
10.6743
 31
0.0
  0
LINE
  8
0
 62
     0
 10
31.6811
 20
10.6743
 30
0.0
 11
31.7596
 21
10.7528
 31
0.0
  0
LINE
  8
0
 62
     0
 10
31.7596
 20
10.7528
 30
0.0
 11
31.7872
 21
10.7528
 31
0.0
  0
LINE
  8
0
 62
     0
 10
31.7872
 20
10.7528
 30
0.0
 11
32.8456
 21
10.7528
 31
0.0
  0
LINE
  8
0
 62
     0
 10
32.8456
 20
10.7528
 30
0.0
 11
32.8717
 21
10.7528
 31
0.0
  0
LINE
  8
0
 62
     0
 10
32.8717
 20
10.7528
 30
0.0
 11
32.9489
 21
10.6633
 31
0.0
  0
LINE
  8
0
 62
     0
 10
32.9489
 20
10.6633
 30
0.0
 11
32.9517
 21
10.6467
 31
0.0
  0
LINE
  8
0
 62
     0
 10
32.9517
 20
10.6467
 30
0.0
 11
33.015
 21
10.2554
 31
0.0
  0
LINE
  8
0
 62
     0
 10
33.015
 20
10.2554
 30
0.0
 11
33.015
 21
10.2554
 31
0.0
  0
LINE
  8
0
 62
     0
 10
33.015
 20
10.2554
 30
0.0
 11
33.1018
 21
10.3504
 31
0.0
  0
LINE
  8
0
 62
     0
 10
33.1018
 20
10.3504
 30
0.0
 11
33.3664
 21
10.5572
 31
0.0
  0
LINE
  8
0
 62
     0
 10
33.3664
 20
10.5572
 30
0.0
 11
33.8088
 21
10.7652
 31
0.0
  0
LINE
  8
0
 62
     0
 10
33.8088
 20
10.7652
 30
0.0
 11
34.276
 21
10.859
 31
0.0
  0
LINE
  8
0
 62
     0
 10
34.276
 20
10.859
 30
0.0
 11
34.4331
 21
10.859
 31
0.0
  0
LINE
  8
0
 62
     0
 10
34.4331
 20
10.859
 30
0.0
 11
34.6935
 21
10.859
 31
0.0
  0
LINE
  8
0
 62
     0
 10
34.6935
 20
10.859
 30
0.0
 11
35.4775
 21
10.7184
 31
0.0
  0
LINE
  8
0
 62
     0
 10
35.4775
 20
10.7184
 30
0.0
 11
36.1252
 21
10.2898
 31
0.0
  0
LINE
  8
0
 62
     0
 10
36.1252
 20
10.2898
 30
0.0
 11
36.4561
 21
9.56497
 31
0.0
  0
LINE
  8
0
 62
     0
 10
36.4561
 20
9.56497
 30
0.0
 11
36.5495
 21
8.78914
 31
0.0
  0
LINE
  8
0
 62
     0
 10
36.5495
 20
8.78914
 30
0.0
 11
36.5495
 21
8.53006
 31
0.0
  0
LINE
  8
0
 62
     0
 10
36.5495
 20
8.53006
 30
0.0
 11
36.5495
 21
5.56729
 31
0.0
  0
LINE
  8
0
 62
     0
 10
36.5495
 20
5.56729
 30
0.0
 11
36.5495
 21
5.54108
 31
0.0
  0
LINE
  8
0
 62
     0
 10
36.5495
 20
5.54108
 30
0.0
 11
36.4698
 21
5.46118
 31
0.0
  0
LINE
  8
0
 62
     0
 10
36.4698
 20
5.46118
 30
0.0
 11
36.4437
 21
5.46118
 31
0.0
  0
LINE
  8
0
 62
     0
 10
36.4437
 20
5.46118
 30
0.0
 11
35.3854
 21
5.46118
 31
0.0
  0
LINE
  8
0
 62
     0
 10
35.3854
 20
5.46118
 30
0.0
 11
35.3579
 21
5.46118
 31
0.0
  0
LINE
  8
0
 62
     0
 10
35.3579
 20
5.46118
 30
0.0
 11
35.2792
 21
5.54108
 31
0.0
  0
LINE
  8
0
 62
     0
 10
35.2792
 20
5.54108
 30
0.0
 11
35.2792
 21
5.56729
 31
0.0
  0
LINE
  8
0
 62
     0
 10
35.2792
 20
5.56729
 30
0.0
 11
35.2792
 21
8.53006
 31
0.0
  0
LINE
  8
0
 62
     0
 10
35.2792
 20
8.53006
 30
0.0
 11
35.2792
 21
8.69266
 31
0.0
  0
LINE
  8
0
 62
     0
 10
35.2792
 20
8.69266
 30
0.0
 11
35.2213
 21
9.17635
 31
0.0
  0
LINE
  8
0
 62
     0
 10
35.2213
 20
9.17635
 30
0.0
 11
35.0545
 21
9.56222
 31
0.0
  0
LINE
  8
0
 62
     0
 10
35.0545
 20
9.56222
 30
0.0
 11
34.7872
 21
9.75099
 31
0.0
  0
LINE
  8
0
 62
     0
 10
34.7872
 20
9.75099
 30
0.0
 11
34.5212
 21
9.80063
 31
0.0
  0
LINE
  8
0
 62
     0
 10
34.5212
 20
9.80063
 30
0.0
 11
34.4331
 21
9.80063
 31
0.0
  0
LINE
  8
0
 62
     0
 10
34.4331
 20
9.80063
 30
0.0
 11
34.2787
 21
9.80063
 31
0.0
  0
LINE
  8
0
 62
     0
 10
34.2787
 20
9.80063
 30
0.0
 11
33.8157
 21
9.72206
 31
0.0
  0
LINE
  8
0
 62
     0
 10
33.8157
 20
9.72206
 30
0.0
 11
33.3871
 21
9.48365
 31
0.0
  0
LINE
  8
0
 62
     0
 10
33.3871
 20
9.48365
 30
0.0
 11
33.1363
 21
9.08678
 31
0.0
  0
LINE
  8
0
 62
     0
 10
33.1363
 20
9.08678
 30
0.0
 11
33.0564
 21
8.66923
 31
0.0
  0
LINE
  8
0
 62
     0
 10
33.0564
 20
8.66923
 30
0.0
 11
33.0564
 21
8.53006
 31
0.0
  0
LINE
  8
0
 62
     0
 10
33.0564
 20
8.53006
 30
0.0
 11
33.0564
 21
5.56729
 31
0.0
  0
LINE
  8
0
 62
     0
 10
33.0564
 20
5.56729
 30
0.0
 11
33.0564
 21
5.54108
 31
0.0
  0
LINE
  8
0
 62
     0
 10
33.0564
 20
5.54108
 30
0.0
 11
32.9778
 21
5.46118
 31
0.0
  0
LINE
  8
0
 62
     0
 10
32.9778
 20
5.46118
 30
0.0
 11
32.9517
 21
5.46118
 31
0.0
  0
LINE
  8
0
 62
     0
 10
32.9517
 20
5.46118
 30
0.0
 11
31.8933
 21
5.46118
 31
0.0
  0
LINE
  8
0
 62
     0
 10
31.8933
 20
5.46118
 30
0.0
 11
31.8657
 21
5.46118
 31
0.0
  0
LINE
  8
0
 62
     0
 10
31.8657
 20
5.46118
 30
0.0
 11
31.7872
 21
5.54108
 31
0.0
  0
LINE
  8
0
 62
     0
 10
31.7872
 20
5.54108
 30
0.0
 11
31.7872
 21
5.56729
 31
0.0
  0
LINE
  8
0
 62
     0
 10
38.0199
 20
6.30865
 30
0.0
 11
38.0199
 21
10.542
 31
0.0
  0
LINE
  8
0
 62
     0
 10
38.0199
 20
10.542
 30
0.0
 11
38.0199
 21
10.5682
 31
0.0
  0
LINE
  8
0
 62
     0
 10
38.0199
 20
10.5682
 30
0.0
 11
38.0986
 21
10.6467
 31
0.0
  0
LINE
  8
0
 62
     0
 10
38.0986
 20
10.6467
 30
0.0
 11
38.1261
 21
10.6467
 31
0.0
  0
LINE
  8
0
 62
     0
 10
38.1261
 20
10.6467
 30
0.0
 11
39.1844
 21
10.7528
 31
0.0
  0
LINE
  8
0
 62
     0
 10
39.1844
 20
10.7528
 30
0.0
 11
39.2105
 21
10.7528
 31
0.0
  0
LINE
  8
0
 62
     0
 10
39.2105
 20
10.7528
 30
0.0
 11
39.2906
 21
10.6743
 31
0.0
  0
LINE
  8
0
 62
     0
 10
39.2906
 20
10.6743
 30
0.0
 11
39.2906
 21
10.6467
 31
0.0
  0
LINE
  8
0
 62
     0
 10
39.2906
 20
10.6467
 30
0.0
 11
39.2906
 21
6.30865
 31
0.0
  0
LINE
  8
0
 62
     0
 10
39.2906
 20
6.30865
 30
0.0
 11
39.2906
 21
6.18049
 31
0.0
  0
LINE
  8
0
 62
     0
 10
39.2906
 20
6.18049
 30
0.0
 11
39.3428
 21
5.79603
 31
0.0
  0
LINE
  8
0
 62
     0
 10
39.3428
 20
5.79603
 30
0.0
 11
39.3968
 21
5.62515
 31
0.0
  0
LINE
  8
0
 62
     0
 10
39.3968
 20
5.62515
 30
0.0
 11
39.3968
 21
5.56729
 31
0.0
  0
LINE
  8
0
 62
     0
 10
39.3968
 20
5.56729
 30
0.0
 11
39.3968
 21
5.54108
 31
0.0
  0
LINE
  8
0
 62
     0
 10
39.3968
 20
5.54108
 30
0.0
 11
39.3167
 21
5.46118
 31
0.0
  0
LINE
  8
0
 62
     0
 10
39.3167
 20
5.46118
 30
0.0
 11
39.2906
 21
5.46118
 31
0.0
  0
LINE
  8
0
 62
     0
 10
39.2906
 20
5.46118
 30
0.0
 11
38.2323
 21
5.46118
 31
0.0
  0
LINE
  8
0
 62
     0
 10
38.2323
 20
5.46118
 30
0.0
 11
38.2048
 21
5.46118
 31
0.0
  0
LINE
  8
0
 62
     0
 10
38.2048
 20
5.46118
 30
0.0
 11
38.1303
 21
5.55212
 31
0.0
  0
LINE
  8
0
 62
     0
 10
38.1303
 20
5.55212
 30
0.0
 11
38.1261
 21
5.56729
 31
0.0
  0
LINE
  8
0
 62
     0
 10
38.1261
 20
5.56729
 30
0.0
 11
38.1261
 21
5.56729
 31
0.0
  0
LINE
  8
0
 62
     0
 10
38.1261
 20
5.56729
 30
0.0
 11
38.0725
 21
5.77949
 31
0.0
  0
LINE
  8
0
 62
     0
 10
38.0725
 20
5.77949
 30
0.0
 11
38.0199
 21
6.17636
 31
0.0
  0
LINE
  8
0
 62
     0
 10
38.0199
 20
6.17636
 30
0.0
 11
38.0199
 21
6.30865
 31
0.0
  0
LINE
  8
0
 62
     0
 10
37.9141
 20
12.2342
 30
0.0
 11
37.9141
 21
12.3665
 31
0.0
  0
LINE
  8
0
 62
     0
 10
37.9141
 20
12.3665
 30
0.0
 11
38.1289
 21
12.7606
 31
0.0
  0
LINE
  8
0
 62
     0
 10
38.1289
 20
12.7606
 30
0.0
 11
38.523
 21
12.9756
 31
0.0
  0
LINE
  8
0
 62
     0
 10
38.523
 20
12.9756
 30
0.0
 11
38.6553
 21
12.9756
 31
0.0
  0
LINE
  8
0
 62
     0
 10
38.6553
 20
12.9756
 30
0.0
 11
38.7862
 21
12.9756
 31
0.0
  0
LINE
  8
0
 62
     0
 10
38.7862
 20
12.9756
 30
0.0
 11
39.1806
 21
12.7606
 31
0.0
  0
LINE
  8
0
 62
     0
 10
39.1806
 20
12.7606
 30
0.0
 11
39.3968
 21
12.3665
 31
0.0
  0
LINE
  8
0
 62
     0
 10
39.3968
 20
12.3665
 30
0.0
 11
39.3968
 21
12.2342
 31
0.0
  0
LINE
  8
0
 62
     0
 10
39.3968
 20
12.2342
 30
0.0
 11
39.3968
 21
12.1033
 31
0.0
  0
LINE
  8
0
 62
     0
 10
39.3968
 20
12.1033
 30
0.0
 11
39.1806
 21
11.7106
 31
0.0
  0
LINE
  8
0
 62
     0
 10
39.1806
 20
11.7106
 30
0.0
 11
38.7862
 21
11.4942
 31
0.0
  0
LINE
  8
0
 62
     0
 10
38.7862
 20
11.4942
 30
0.0
 11
38.6553
 21
11.4942
 31
0.0
  0
LINE
  8
0
 62
     0
 10
38.6553
 20
11.4942
 30
0.0
 11
38.523
 21
11.4942
 31
0.0
  0
LINE
  8
0
 62
     0
 10
38.523
 20
11.4942
 30
0.0
 11
38.1289
 21
11.7106
 31
0.0
  0
LINE
  8
0
 62
     0
 10
38.1289
 20
11.7106
 30
0.0
 11
37.9141
 21
12.1033
 31
0.0
  0
LINE
  8
0
 62
     0
 10
37.9141
 20
12.1033
 30
0.0
 11
37.9141
 21
12.2342
 31
0.0
  0
LINE
  8
0
 62
     0
 10
40.688
 20
6.73171
 30
0.0
 11
40.7416
 21
6.73171
 31
0.0
  0
LINE
  8
0
 62
     0
 10
40.7416
 20
6.73171
 30
0.0
 11
40.9056
 21
6.68211
 31
0.0
  0
LINE
  8
0
 62
     0
 10
40.9056
 20
6.68211
 30
0.0
 11
41.4073
 21
6.57324
 31
0.0
  0
LINE
  8
0
 62
     0
 10
41.4073
 20
6.57324
 30
0.0
 11
42.0783
 21
6.46437
 31
0.0
  0
LINE
  8
0
 62
     0
 10
42.0783
 20
6.46437
 30
0.0
 11
42.6226
 21
6.41339
 31
0.0
  0
LINE
  8
0
 62
     0
 10
42.6226
 20
6.41339
 30
0.0
 11
42.8046
 21
6.41339
 31
0.0
  0
LINE
  8
0
 62
     0
 10
42.8046
 20
6.41339
 30
0.0
 11
42.9274
 21
6.41339
 31
0.0
  0
LINE
  8
0
 62
     0
 10
42.9274
 20
6.41339
 30
0.0
 11
43.2954
 21
6.52226
 31
0.0
  0
LINE
  8
0
 62
     0
 10
43.2954
 20
6.52226
 30
0.0
 11
43.4386
 21
6.75929
 31
0.0
  0
LINE
  8
0
 62
     0
 10
43.4386
 20
6.75929
 30
0.0
 11
43.4386
 21
6.83782
 31
0.0
  0
LINE
  8
0
 62
     0
 10
43.4386
 20
6.83782
 30
0.0
 11
43.4386
 21
6.93431
 31
0.0
  0
LINE
  8
0
 62
     0
 10
43.4386
 20
6.93431
 30
0.0
 11
43.2139
 21
7.22231
 31
0.0
  0
LINE
  8
0
 62
     0
 10
43.2139
 20
7.22231
 30
0.0
 11
42.7246
 21
7.43313
 31
0.0
  0
LINE
  8
0
 62
     0
 10
42.7246
 20
7.43313
 30
0.0
 11
42.5923
 21
7.47173
 31
0.0
  0
LINE
  8
0
 62
     0
 10
42.5923
 20
7.47173
 30
0.0
 11
42.4092
 21
7.52683
 31
0.0
  0
LINE
  8
0
 62
     0
 10
42.4092
 20
7.52683
 30
0.0
 11
41.8715
 21
7.71839
 31
0.0
  0
LINE
  8
0
 62
     0
 10
41.8715
 20
7.71839
 30
0.0
 11
41.2253
 21
8.07254
 31
0.0
  0
LINE
  8
0
 62
     0
 10
41.2253
 20
8.07254
 30
0.0
 11
40.7596
 21
8.60309
 31
0.0
  0
LINE
  8
0
 62
     0
 10
40.7596
 20
8.60309
 30
0.0
 11
40.5818
 21
9.18464
 31
0.0
  0
LINE
  8
0
 62
     0
 10
40.5818
 20
9.18464
 30
0.0
 11
40.5818
 21
9.37754
 31
0.0
  0
LINE
  8
0
 62
     0
 10
40.5818
 20
9.37754
 30
0.0
 11
40.5818
 21
9.5305
 31
0.0
  0
LINE
  8
0
 62
     0
 10
40.5818
 20
9.5305
 30
0.0
 11
40.6922
 21
9.9894
 31
0.0
  0
LINE
  8
0
 62
     0
 10
40.6922
 20
9.9894
 30
0.0
 11
41.0379
 21
10.4565
 31
0.0
  0
LINE
  8
0
 62
     0
 10
41.0379
 20
10.4565
 30
0.0
 11
41.6306
 21
10.7542
 31
0.0
  0
LINE
  8
0
 62
     0
 10
41.6306
 20
10.7542
 30
0.0
 11
42.2712
 21
10.859
 31
0.0
  0
LINE
  8
0
 62
     0
 10
42.2712
 20
10.859
 30
0.0
 11
42.4864
 21
10.859
 31
0.0
  0
LINE
  8
0
 62
     0
 10
42.4864
 20
10.859
 30
0.0
 11
42.6515
 21
10.859
 31
0.0
  0
LINE
  8
0
 62
     0
 10
42.6515
 20
10.859
 30
0.0
 11
43.1518
 21
10.8259
 31
0.0
  0
LINE
  8
0
 62
     0
 10
43.1518
 20
10.8259
 30
0.0
 11
43.6894
 21
10.7528
 31
0.0
  0
LINE
  8
0
 62
     0
 10
43.6894
 20
10.7528
 30
0.0
 11
44.0489
 21
10.6812
 31
0.0
  0
LINE
  8
0
 62
     0
 10
44.0489
 20
10.6812
 30
0.0
 11
44.1798
 21
10.6467
 31
0.0
  0
LINE
  8
0
 62
     0
 10
44.1798
 20
10.6467
 30
0.0
 11
44.1798
 21
10.6467
 31
0.0
  0
LINE
  8
0
 62
     0
 10
44.1798
 20
10.6467
 30
0.0
 11
44.1925
 21
10.6426
 31
0.0
  0
LINE
  8
0
 62
     0
 10
44.1925
 20
10.6426
 30
0.0
 11
44.2831
 21
10.553
 31
0.0
  0
LINE
  8
0
 62
     0
 10
44.2831
 20
10.553
 30
0.0
 11
44.286
 21
10.542
 31
0.0
  0
LINE
  8
0
 62
     0
 10
44.286
 20
10.542
 30
0.0
 11
44.286
 21
10.542
 31
0.0
  0
LINE
  8
0
 62
     0
 10
44.286
 20
10.542
 30
0.0
 11
44.3385
 21
10.1355
 31
0.0
  0
LINE
  8
0
 62
     0
 10
44.3385
 20
10.1355
 30
0.0
 11
44.3921
 21
9.80475
 31
0.0
  0
LINE
  8
0
 62
     0
 10
44.3921
 20
9.80475
 30
0.0
 11
44.3921
 21
9.69451
 31
0.0
  0
LINE
  8
0
 62
     0
 10
44.3921
 20
9.69451
 30
0.0
 11
44.3921
 21
9.66833
 31
0.0
  0
LINE
  8
0
 62
     0
 10
44.3921
 20
9.66833
 30
0.0
 11
44.3121
 21
9.58839
 31
0.0
  0
LINE
  8
0
 62
     0
 10
44.3121
 20
9.58839
 30
0.0
 11
44.286
 21
9.58839
 31
0.0
  0
LINE
  8
0
 62
     0
 10
44.286
 20
9.58839
 30
0.0
 11
44.2404
 21
9.58839
 31
0.0
  0
LINE
  8
0
 62
     0
 10
44.2404
 20
9.58839
 30
0.0
 11
44.1082
 21
9.62283
 31
0.0
  0
LINE
  8
0
 62
     0
 10
44.1082
 20
9.62283
 30
0.0
 11
43.7032
 21
9.69451
 31
0.0
  0
LINE
  8
0
 62
     0
 10
43.7032
 20
9.69451
 30
0.0
 11
43.1394
 21
9.76753
 31
0.0
  0
LINE
  8
0
 62
     0
 10
43.1394
 20
9.76753
 30
0.0
 11
42.6491
 21
9.80063
 31
0.0
  0
LINE
  8
0
 62
     0
 10
42.6491
 20
9.80063
 30
0.0
 11
42.4864
 21
9.80063
 31
0.0
  0
LINE
  8
0
 62
     0
 10
42.4864
 20
9.80063
 30
0.0
 11
42.3665
 21
9.80063
 31
0.0
  0
LINE
  8
0
 62
     0
 10
42.3665
 20
9.80063
 30
0.0
 11
42.0095
 21
9.69313
 31
0.0
  0
LINE
  8
0
 62
     0
 10
42.0095
 20
9.69313
 30
0.0
 11
41.8511
 21
9.45748
 31
0.0
  0
LINE
  8
0
 62
     0
 10
41.8511
 20
9.45748
 30
0.0
 11
41.8511
 21
9.37754
 31
0.0
  0
LINE
  8
0
 62
     0
 10
41.8511
 20
9.37754
 30
0.0
 11
41.8511
 21
9.28247
 31
0.0
  0
LINE
  8
0
 62
     0
 10
41.8511
 20
9.28247
 30
0.0
 11
42.0758
 21
8.99308
 31
0.0
  0
LINE
  8
0
 62
     0
 10
42.0758
 20
8.99308
 30
0.0
 11
42.5662
 21
8.78223
 31
0.0
  0
LINE
  8
0
 62
     0
 10
42.5662
 20
8.78223
 30
0.0
 11
42.6985
 21
8.74229
 31
0.0
  0
LINE
  8
0
 62
     0
 10
42.6985
 20
8.74229
 30
0.0
 11
42.8791
 21
8.68853
 31
0.0
  0
LINE
  8
0
 62
     0
 10
42.8791
 20
8.68853
 30
0.0
 11
43.4178
 21
8.49976
 31
0.0
  0
LINE
  8
0
 62
     0
 10
43.4178
 20
8.49976
 30
0.0
 11
44.0641
 21
8.14836
 31
0.0
  0
LINE
  8
0
 62
     0
 10
44.0641
 20
8.14836
 30
0.0
 11
44.5301
 21
7.61781
 31
0.0
  0
LINE
  8
0
 62
     0
 10
44.5301
 20
7.61781
 30
0.0
 11
44.7089
 21
7.03351
 31
0.0
  0
LINE
  8
0
 62
     0
 10
44.7089
 20
7.03351
 30
0.0
 11
44.7089
 21
6.83782
 31
0.0
  0
LINE
  8
0
 62
     0
 10
44.7089
 20
6.83782
 30
0.0
 11
44.7089
 21
6.69177
 31
0.0
  0
LINE
  8
0
 62
     0
 10
44.7089
 20
6.69177
 30
0.0
 11
44.5823
 21
6.24939
 31
0.0
  0
LINE
  8
0
 62
     0
 10
44.5823
 20
6.24939
 30
0.0
 11
44.2129
 21
5.77949
 31
0.0
  0
LINE
  8
0
 62
     0
 10
44.2129
 20
5.77949
 30
0.0
 11
43.615
 21
5.46806
 31
0.0
  0
LINE
  8
0
 62
     0
 10
43.615
 20
5.46806
 30
0.0
 11
43.0071
 21
5.35506
 31
0.0
  0
LINE
  8
0
 62
     0
 10
43.0071
 20
5.35506
 30
0.0
 11
42.8046
 21
5.35506
 31
0.0
  0
LINE
  8
0
 62
     0
 10
42.8046
 20
5.35506
 30
0.0
 11
42.6022
 21
5.35506
 31
0.0
  0
LINE
  8
0
 62
     0
 10
42.6022
 20
5.35506
 30
0.0
 11
41.9985
 21
5.40604
 31
0.0
  0
LINE
  8
0
 62
     0
 10
41.9985
 20
5.40604
 30
0.0
 11
41.3618
 21
5.5149
 31
0.0
  0
LINE
  8
0
 62
     0
 10
41.3618
 20
5.5149
 30
0.0
 11
40.943
 21
5.62377
 31
0.0
  0
LINE
  8
0
 62
     0
 10
40.943
 20
5.62377
 30
0.0
 11
40.7928
 21
5.67337
 31
0.0
  0
LINE
  8
0
 62
     0
 10
40.7928
 20
5.67337
 30
0.0
 11
40.7928
 21
5.67337
 31
0.0
  0
LINE
  8
0
 62
     0
 10
40.7928
 20
5.67337
 30
0.0
 11
40.779
 21
5.67891
 31
0.0
  0
LINE
  8
0
 62
     0
 10
40.779
 20
5.67891
 30
0.0
 11
40.6894
 21
5.76986
 31
0.0
  0
LINE
  8
0
 62
     0
 10
40.6894
 20
5.76986
 30
0.0
 11
40.688
 21
5.77949
 31
0.0
  0
LINE
  8
0
 62
     0
 10
40.688
 20
5.77949
 30
0.0
 11
40.688
 21
5.77949
 31
0.0
  0
LINE
  8
0
 62
     0
 10
40.688
 20
5.77949
 30
0.0
 11
40.6344
 21
6.1874
 31
0.0
  0
LINE
  8
0
 62
     0
 10
40.6344
 20
6.1874
 30
0.0
 11
40.5818
 21
6.51676
 31
0.0
  0
LINE
  8
0
 62
     0
 10
40.5818
 20
6.51676
 30
0.0
 11
40.5818
 21
6.62563
 31
0.0
  0
LINE
  8
0
 62
     0
 10
40.5818
 20
6.62563
 30
0.0
 11
40.5818
 21
6.65318
 31
0.0
  0
LINE
  8
0
 62
     0
 10
40.5818
 20
6.65318
 30
0.0
 11
40.6605
 21
6.73171
 31
0.0
  0
LINE
  8
0
 62
     0
 10
40.6605
 20
6.73171
 30
0.0
 11
40.688
 21
6.73171
 31
0.0
  0
LINE
  8
0
 62
     0
 10
1.85208
 20
2.05603
 30
0.0
 11
1.85208
 21
1.89343
 31
0.0
  0
LINE
  8
0
 62
     0
 10
1.85208
 20
1.89343
 30
0.0
 11
1.58061
 21
1.40147
 31
0.0
  0
LINE
  8
0
 62
     0
 10
1.58061
 20
1.40147
 30
0.0
 11
1.08865
 21
1.12999
 31
0.0
  0
LINE
  8
0
 62
     0
 10
1.08865
 20
1.12999
 30
0.0
 11
0.926042
 21
1.12999
 31
0.0
  0
LINE
  8
0
 62
     0
 10
0.926042
 20
1.12999
 30
0.0
 11
0.762056
 21
1.12999
 31
0.0
  0
LINE
  8
0
 62
     0
 10
0.762056
 20
1.12999
 30
0.0
 11
0.270095
 21
1.40147
 31
0.0
  0
LINE
  8
0
 62
     0
 10
0.270095
 20
1.40147
 30
0.0
 11
0
 21
1.89343
 31
0.0
  0
LINE
  8
0
 62
     0
 10
0
 20
1.89343
 30
0.0
 11
0
 21
2.05603
 31
0.0
  0
LINE
  8
0
 62
     0
 10
0
 20
2.05603
 30
0.0
 11
0
 21
2.22002
 31
0.0
  0
LINE
  8
0
 62
     0
 10
0
 20
2.22002
 30
0.0
 11
0.270095
 21
2.71198
 31
0.0
  0
LINE
  8
0
 62
     0
 10
0.270095
 20
2.71198
 30
0.0
 11
0.762056
 21
2.98208
 31
0.0
  0
LINE
  8
0
 62
     0
 10
0.762056
 20
2.98208
 30
0.0
 11
0.926042
 21
2.98208
 31
0.0
  0
LINE
  8
0
 62
     0
 10
0.926042
 20
2.98208
 30
0.0
 11
1.08865
 21
2.98208
 31
0.0
  0
LINE
  8
0
 62
     0
 10
1.08865
 20
2.98208
 30
0.0
 11
1.58061
 21
2.71198
 31
0.0
  0
LINE
  8
0
 62
     0
 10
1.58061
 20
2.71198
 30
0.0
 11
1.85208
 21
2.22002
 31
0.0
  0
LINE
  8
0
 62
     0
 10
1.85208
 20
2.22002
 30
0.0
 11
1.85208
 21
2.05603
 31
0.0
  0
LINE
  8
0
 62
     0
 10
7.97334
 20
1.03766
 30
0.0
 11
7.97334
 21
0.875055
 31
0.0
  0
LINE
  8
0
 62
     0
 10
7.97334
 20
0.875055
 30
0.0
 11
7.70184
 21
0.383096
 31
0.0
  0
LINE
  8
0
 62
     0
 10
7.70184
 20
0.383096
 30
0.0
 11
7.2099
 21
0.111621
 31
0.0
  0
LINE
  8
0
 62
     0
 10
7.2099
 20
0.111621
 30
0.0
 11
7.0473
 21
0.111621
 31
0.0
  0
LINE
  8
0
 62
     0
 10
7.0473
 20
0.111621
 30
0.0
 11
6.88329
 21
0.111621
 31
0.0
  0
LINE
  8
0
 62
     0
 10
6.88329
 20
0.111621
 30
0.0
 11
6.39135
 21
0.383096
 31
0.0
  0
LINE
  8
0
 62
     0
 10
6.39135
 20
0.383096
 30
0.0
 11
6.12126
 21
0.875055
 31
0.0
  0
LINE
  8
0
 62
     0
 10
6.12126
 20
0.875055
 30
0.0
 11
6.12126
 21
1.03766
 31
0.0
  0
LINE
  8
0
 62
     0
 10
6.12126
 20
1.03766
 30
0.0
 11
6.12126
 21
1.20165
 31
0.0
  0
LINE
  8
0
 62
     0
 10
6.12126
 20
1.20165
 30
0.0
 11
6.39135
 21
1.69361
 31
0.0
  0
LINE
  8
0
 62
     0
 10
6.39135
 20
1.69361
 30
0.0
 11
6.88329
 21
1.96371
 31
0.0
  0
LINE
  8
0
 62
     0
 10
6.88329
 20
1.96371
 30
0.0
 11
7.0473
 21
1.96371
 31
0.0
  0
LINE
  8
0
 62
     0
 10
7.0473
 20
1.96371
 30
0.0
 11
7.2099
 21
1.96371
 31
0.0
  0
LINE
  8
0
 62
     0
 10
7.2099
 20
1.96371
 30
0.0
 11
7.70184
 21
1.69361
 31
0.0
  0
LINE
  8
0
 62
     0
 10
7.70184
 20
1.69361
 30
0.0
 11
7.97334
 21
1.20165
 31
0.0
  0
LINE
  8
0
 62
     0
 10
7.97334
 20
1.20165
 30
0.0
 11
7.97334
 21
1.03766
 31
0.0
  0
LINE
  8
0
 62
     0
 10
7.89891
 20
13.8906
 30
0.0
 11
7.89891
 21
13.728
 31
0.0
  0
LINE
  8
0
 62
     0
 10
7.89891
 20
13.728
 30
0.0
 11
7.62744
 21
13.236
 31
0.0
  0
LINE
  8
0
 62
     0
 10
7.62744
 20
13.236
 30
0.0
 11
7.1355
 21
12.9646
 31
0.0
  0
LINE
  8
0
 62
     0
 10
7.1355
 20
12.9646
 30
0.0
 11
6.97286
 21
12.9646
 31
0.0
  0
LINE
  8
0
 62
     0
 10
6.97286
 20
12.9646
 30
0.0
 11
6.80889
 21
12.9646
 31
0.0
  0
LINE
  8
0
 62
     0
 10
6.80889
 20
12.9646
 30
0.0
 11
6.31694
 21
13.236
 31
0.0
  0
LINE
  8
0
 62
     0
 10
6.31694
 20
13.236
 30
0.0
 11
6.04682
 21
13.728
 31
0.0
  0
LINE
  8
0
 62
     0
 10
6.04682
 20
13.728
 30
0.0
 11
6.04682
 21
13.8906
 31
0.0
  0
LINE
  8
0
 62
     0
 10
6.04682
 20
13.8906
 30
0.0
 11
6.04682
 21
14.0546
 31
0.0
  0
LINE
  8
0
 62
     0
 10
6.04682
 20
14.0546
 30
0.0
 11
6.31694
 21
14.5466
 31
0.0
  0
LINE
  8
0
 62
     0
 10
6.31694
 20
14.5466
 30
0.0
 11
6.80889
 21
14.8167
 31
0.0
  0
LINE
  8
0
 62
     0
 10
6.80889
 20
14.8167
 30
0.0
 11
6.97286
 21
14.8167
 31
0.0
  0
LINE
  8
0
 62
     0
 10
6.97286
 20
14.8167
 30
0.0
 11
7.1355
 21
14.8167
 31
0.0
  0
LINE
  8
0
 62
     0
 10
7.1355
 20
14.8167
 30
0.0
 11
7.62744
 21
14.5466
 31
0.0
  0
LINE
  8
0
 62
     0
 10
7.62744
 20
14.5466
 30
0.0
 11
7.89891
 21
14.0546
 31
0.0
  0
LINE
  8
0
 62
     0
 10
7.89891
 20
14.0546
 30
0.0
 11
7.89891
 21
13.8906
 31
0.0
  0
LINE
  8
0
 62
     0
 10
2.48598
 20
9.60632
 30
0.0
 11
2.48598
 21
9.44369
 31
0.0
  0
LINE
  8
0
 62
     0
 10
2.48598
 20
9.44369
 30
0.0
 11
2.21451
 21
8.95174
 31
0.0
  0
LINE
  8
0
 62
     0
 10
2.21451
 20
8.95174
 30
0.0
 11
1.72255
 21
8.68027
 31
0.0
  0
LINE
  8
0
 62
     0
 10
1.72255
 20
8.68027
 30
0.0
 11
1.55994
 21
8.68027
 31
0.0
  0
LINE
  8
0
 62
     0
 10
1.55994
 20
8.68027
 30
0.0
 11
1.39595
 21
8.68027
 31
0.0
  0
LINE
  8
0
 62
     0
 10
1.39595
 20
8.68027
 30
0.0
 11
0.903993
 21
8.95174
 31
0.0
  0
LINE
  8
0
 62
     0
 10
0.903993
 20
8.95174
 30
0.0
 11
0.633899
 21
9.44369
 31
0.0
  0
LINE
  8
0
 62
     0
 10
0.633899
 20
9.44369
 30
0.0
 11
0.633899
 21
9.60632
 31
0.0
  0
LINE
  8
0
 62
     0
 10
0.633899
 20
9.60632
 30
0.0
 11
0.633899
 21
9.77029
 31
0.0
  0
LINE
  8
0
 62
     0
 10
0.633899
 20
9.77029
 30
0.0
 11
0.903993
 21
10.2622
 31
0.0
  0
LINE
  8
0
 62
     0
 10
0.903993
 20
10.2622
 30
0.0
 11
1.39595
 21
10.5324
 31
0.0
  0
LINE
  8
0
 62
     0
 10
1.39595
 20
10.5324
 30
0.0
 11
1.55994
 21
10.5324
 31
0.0
  0
LINE
  8
0
 62
     0
 10
1.55994
 20
10.5324
 30
0.0
 11
1.72255
 21
10.5324
 31
0.0
  0
LINE
  8
0
 62
     0
 10
1.72255
 20
10.5324
 30
0.0
 11
2.21451
 21
10.2622
 31
0.0
  0
LINE
  8
0
 62
     0
 10
2.21451
 20
10.2622
 30
0.0
 11
2.48598
 21
9.77029
 31
0.0
  0
LINE
  8
0
 62
     0
 10
2.48598
 20
9.77029
 30
0.0
 11
2.48598
 21
9.60632
 31
0.0
  0
LINE
  8
0
 62
     0
 10
6.83507
 20
1.34083
 30
0.0
 11
1.58337
 21
9.56635
 31
0.0
  0
LINE
  8
0
 62
     0
 10
1.42765
 20
9.47402
 30
0.0
 11
6.84057
 21
13.6826
 31
0.0
  0
ENDSEC
  0
EOF
