  0
SECTION
  2
HEADER
  9
$ACADVER
  1
AC1009
  9
$EXTMIN
 10
0.0
 20
0.0
 30
0.0
  9
$EXTMAX
 10
1000.0
 20
1000.0
 30
0.0
  9
$FILLMODE
 70
 0
  9
$SPLFRAME
 70
 1
  0
ENDSEC
  0
SECTION
  2
TABLES
  0
TABLE
  2
LAYER
 70
1
  0
LAYER
  2
0
 70
     0
 62
     7
  6
CONTINUOUS
  0
ENDTAB
  0
ENDSEC
  0
SECTION
  2
ENTITIES
  0
POLYLINE
  8
0
 62
     0
 66
     1
 10
0
 20
0
 30
0.0
 70
     1
 40
0
 41
0
  0
VERTEX
  8
0
 10
0.446072
 20
0.327419
 30
0.0
 40
0
 41
0
  0
VERTEX
  8
0
 10
0.446072
 20
0.320421
 30
0.0
 40
0
 41
0
  0
VERTEX
  8
0
 10
0.448622
 20
0.299425
 30
0.0
 40
0
 41
0
  0
VERTEX
  8
0
 10
0.457519
 20
0.278483
 30
0.0
 40
0
 41
0
  0
VERTEX
  8
0
 10
0.474175
 20
0.265354
 30
0.0
 40
0
 41
0
  0
VERTEX
  8
0
 10
0.493707
 20
0.260742
 30
0.0
 40
0
 41
0
  0
VERTEX
  8
0
 10
0.500217
 20
0.260742
 30
0.0
 40
0
 41
0
  0
VERTEX
  8
0
 10
0.506674
 20
0.260742
 30
0.0
 40
0
 41
0
  0
VERTEX
  8
0
 10
0.526204
 20
0.265354
 30
0.0
 40
0
 41
0
  0
VERTEX
  8
0
 10
0.542914
 20
0.278483
 30
0.0
 40
0
 41
0
  0
VERTEX
  8
0
 10
0.551758
 20
0.299425
 30
0.0
 40
0
 41
0
  0
VERTEX
  8
0
 10
0.554363
 20
0.320421
 30
0.0
 40
0
 41
0
  0
VERTEX
  8
0
 10
0.554363
 20
0.327419
 30
0.0
 40
0
 41
0
  0
VERTEX
  8
0
 10
0.554363
 20
0.334472
 30
0.0
 40
0
 41
0
  0
VERTEX
  8
0
 10
0.551758
 20
0.355469
 30
0.0
 40
0
 41
0
  0
VERTEX
  8
0
 10
0.542914
 20
0.376411
 30
0.0
 40
0
 41
0
  0
VERTEX
  8
0
 10
0.526204
 20
0.38954
 30
0.0
 40
0
 41
0
  0
VERTEX
  8
0
 10
0.506674
 20
0.394097
 30
0.0
 40
0
 41
0
  0
VERTEX
  8
0
 10
0.500217
 20
0.394097
 30
0.0
 40
0
 41
0
  0
VERTEX
  8
0
 10
0.493707
 20
0.394097
 30
0.0
 40
0
 41
0
  0
VERTEX
  8
0
 10
0.474175
 20
0.38954
 30
0.0
 40
0
 41
0
  0
VERTEX
  8
0
 10
0.457519
 20
0.376411
 30
0.0
 40
0
 41
0
  0
VERTEX
  8
0
 10
0.448622
 20
0.355469
 30
0.0
 40
0
 41
0
  0
VERTEX
  8
0
 10
0.446072
 20
0.334472
 30
0.0
 40
0
 41
0
  0
VERTEX
  8
0
 10
0.446072
 20
0.327419
 30
0.0
 40
0
 41
0
  0
SEQEND
 8
0
  0
POLYLINE
  8
0
 62
     0
 66
     1
 10
0
 20
0
 30
0.0
 70
     1
 40
0
 41
0
  0
VERTEX
  8
0
 10
0.39605
 20
0.327419
 30
0.0
 40
0
 41
0
  0
VERTEX
  8
0
 10
0.39605
 20
0.339572
 30
0.0
 40
0
 41
0
  0
VERTEX
  8
0
 10
0.403538
 20
0.376031
 30
0.0
 40
0
 41
0
  0
VERTEX
  8
0
 10
0.424696
 20
0.409722
 30
0.0
 40
0
 41
0
  0
VERTEX
  8
0
 10
0.457574
 20
0.429417
 30
0.0
 40
0
 41
0
  0
VERTEX
  8
0
 10
0.489529
 20
0.435764
 30
0.0
 40
0
 41
0
  0
VERTEX
  8
0
 10
0.500217
 20
0.435764
 30
0.0
 40
0
 41
0
  0
VERTEX
  8
0
 10
0.510851
 20
0.435764
 30
0.0
 40
0
 41
0
  0
VERTEX
  8
0
 10
0.54286
 20
0.429417
 30
0.0
 40
0
 41
0
  0
VERTEX
  8
0
 10
0.575737
 20
0.409722
 30
0.0
 40
0
 41
0
  0
VERTEX
  8
0
 10
0.596897
 20
0.376031
 30
0.0
 40
0
 41
0
  0
VERTEX
  8
0
 10
0.604383
 20
0.339572
 30
0.0
 40
0
 41
0
  0
VERTEX
  8
0
 10
0.604383
 20
0.327419
 30
0.0
 40
0
 41
0
  0
VERTEX
  8
0
 10
0.604383
 20
0.315321
 30
0.0
 40
0
 41
0
  0
VERTEX
  8
0
 10
0.596897
 20
0.278863
 30
0.0
 40
0
 41
0
  0
VERTEX
  8
0
 10
0.575737
 20
0.245117
 30
0.0
 40
0
 41
0
  0
VERTEX
  8
0
 10
0.54286
 20
0.225478
 30
0.0
 40
0
 41
0
  0
VERTEX
  8
0
 10
0.510851
 20
0.219075
 30
0.0
 40
0
 41
0
  0
VERTEX
  8
0
 10
0.500217
 20
0.219075
 30
0.0
 40
0
 41
0
  0
VERTEX
  8
0
 10
0.489529
 20
0.219075
 30
0.0
 40
0
 41
0
  0
VERTEX
  8
0
 10
0.457574
 20
0.225478
 30
0.0
 40
0
 41
0
  0
VERTEX
  8
0
 10
0.424696
 20
0.245117
 30
0.0
 40
0
 41
0
  0
VERTEX
  8
0
 10
0.403538
 20
0.278863
 30
0.0
 40
0
 41
0
  0
VERTEX
  8
0
 10
0.39605
 20
0.315321
 30
0.0
 40
0
 41
0
  0
VERTEX
  8
0
 10
0.39605
 20
0.327419
 30
0.0
 40
0
 41
0
  0
SEQEND
 8
0
  0
POLYLINE
  8
0
 62
     0
 66
     1
 10
0
 20
0
 30
0.0
 70
     1
 40
0
 41
0
  0
VERTEX
  8
0
 10
0.808539
 20
0.269097
 30
0.0
 40
0
 41
0
  0
VERTEX
  8
0
 10
0.809571
 20
0.269097
 30
0.0
 40
0
 41
0
  0
VERTEX
  8
0
 10
0.812608
 20
0.265571
 30
0.0
 40
0
 41
0
  0
VERTEX
  8
0
 10
0.812717
 20
0.264919
 30
0.0
 40
0
 41
0
  0
VERTEX
  8
0
 10
0.812717
 20
0.264919
 30
0.0
 40
0
 41
0
  0
VERTEX
  8
0
 10
0.814779
 20
0.248915
 30
0.0
 40
0
 41
0
  0
VERTEX
  8
0
 10
0.816894
 20
0.235894
 30
0.0
 40
0
 41
0
  0
VERTEX
  8
0
 10
0.816894
 20
0.231554
 30
0.0
 40
0
 41
0
  0
VERTEX
  8
0
 10
0.816894
 20
0.230524
 30
0.0
 40
0
 41
0
  0
VERTEX
  8
0
 10
0.813314
 20
0.227539
 30
0.0
 40
0
 41
0
  0
VERTEX
  8
0
 10
0.812717
 20
0.227431
 30
0.0
 40
0
 41
0
  0
VERTEX
  8
0
 10
0.811849
 20
0.22716
 30
0.0
 40
0
 41
0
  0
VERTEX
  8
0
 10
0.79069
 20
0.222819
 30
0.0
 40
0
 41
0
  0
VERTEX
  8
0
 10
0.760308
 20
0.219075
 30
0.0
 40
0
 41
0
  0
VERTEX
  8
0
 10
0.750217
 20
0.219075
 30
0.0
 40
0
 41
0
  0
VERTEX
  8
0
 10
0.736274
 20
0.219075
 30
0.0
 40
0
 41
0
  0
VERTEX
  8
0
 10
0.694607
 20
0.227647
 30
0.0
 40
0
 41
0
  0
VERTEX
  8
0
 10
0.661621
 20
0.250922
 30
0.0
 40
0
 41
0
  0
VERTEX
  8
0
 10
0.645887
 20
0.285374
 30
0.0
 40
0
 41
0
  0
VERTEX
  8
0
 10
0.641872
 20
0.316949
 30
0.0
 40
0
 41
0
  0
VERTEX
  8
0
 10
0.641872
 20
0.327419
 30
0.0
 40
0
 41
0
  0
VERTEX
  8
0
 10
0.641872
 20
0.337944
 30
0.0
 40
0
 41
0
  0
VERTEX
  8
0
 10
0.645887
 20
0.369521
 30
0.0
 40
0
 41
0
  0
VERTEX
  8
0
 10
0.661621
 20
0.403971
 30
0.0
 40
0
 41
0
  0
VERTEX
  8
0
 10
0.694607
 20
0.427246
 30
0.0
 40
0
 41
0
  0
VERTEX
  8
0
 10
0.736274
 20
0.435764
 30
0.0
 40
0
 41
0
  0
VERTEX
  8
0
 10
0.750217
 20
0.435764
 30
0.0
 40
0
 41
0
  0
VERTEX
  8
0
 10
0.755751
 20
0.435764
 30
0.0
 40
0
 41
0
  0
VERTEX
  8
0
 10
0.772461
 20
0.433811
 30
0.0
 40
0
 41
0
  0
VERTEX
  8
0
 10
0.791069
 20
0.429525
 30
0.0
 40
0
 41
0
  0
VERTEX
  8
0
 10
0.803819
 20
0.425239
 30
0.0
 40
0
 41
0
  0
VERTEX
  8
0
 10
0.808539
 20
0.423232
 30
0.0
 40
0
 41
0
  0
VERTEX
  8
0
 10
0.808539
 20
0.423232
 30
0.0
 40
0
 41
0
  0
VERTEX
  8
0
 10
0.809028
 20
0.423068
 30
0.0
 40
0
 41
0
  0
VERTEX
  8
0
 10
0.812608
 20
0.419488
 30
0.0
 40
0
 41
0
  0
VERTEX
  8
0
 10
0.812717
 20
0.419054
 30
0.0
 40
0
 41
0
  0
VERTEX
  8
0
 10
0.812717
 20
0.419054
 30
0.0
 40
0
 41
0
  0
VERTEX
  8
0
 10
0.814779
 20
0.403049
 30
0.0
 40
0
 41
0
  0
VERTEX
  8
0
 10
0.816894
 20
0.390082
 30
0.0
 40
0
 41
0
  0
VERTEX
  8
0
 10
0.816894
 20
0.385742
 30
0.0
 40
0
 41
0
  0
VERTEX
  8
0
 10
0.816894
 20
0.384711
 30
0.0
 40
0
 41
0
  0
VERTEX
  8
0
 10
0.813747
 20
0.381565
 30
0.0
 40
0
 41
0
  0
VERTEX
  8
0
 10
0.812717
 20
0.381565
 30
0.0
 40
0
 41
0
  0
VERTEX
  8
0
 10
0.811035
 20
0.381565
 30
0.0
 40
0
 41
0
  0
VERTEX
  8
0
 10
0.806153
 20
0.383572
 30
0.0
 40
0
 41
0
  0
VERTEX
  8
0
 10
0.791613
 20
0.387858
 30
0.0
 40
0
 41
0
  0
VERTEX
  8
0
 10
0.771972
 20
0.392144
 30
0.0
 40
0
 41
0
  0
VERTEX
  8
0
 10
0.755643
 20
0.394097
 30
0.0
 40
0
 41
0
  0
VERTEX
  8
0
 10
0.750217
 20
0.394097
 30
0.0
 40
0
 41
0
  0
VERTEX
  8
0
 10
0.742404
 20
0.394097
 30
0.0
 40
0
 41
0
  0
VERTEX
  8
0
 10
0.719129
 20
0.389051
 30
0.0
 40
0
 41
0
  0
VERTEX
  8
0
 10
0.701497
 20
0.375
 30
0.0
 40
0
 41
0
  0
VERTEX
  8
0
 10
0.693631
 20
0.353842
 30
0.0
 40
0
 41
0
  0
VERTEX
  8
0
 10
0.691894
 20
0.334039
 30
0.0
 40
0
 41
0
  0
VERTEX
  8
0
 10
0.691894
 20
0.327419
 30
0.0
 40
0
 41
0
  0
VERTEX
  8
0
 10
0.691894
 20
0.320856
 30
0.0
 40
0
 41
0
  0
VERTEX
  8
0
 10
0.694228
 20
0.301053
 30
0.0
 40
0
 41
0
  0
VERTEX
  8
0
 10
0.703071
 20
0.279893
 30
0.0
 40
0
 41
0
  0
VERTEX
  8
0
 10
0.720865
 20
0.265842
 30
0.0
 40
0
 41
0
  0
VERTEX
  8
0
 10
0.742839
 20
0.260742
 30
0.0
 40
0
 41
0
  0
VERTEX
  8
0
 10
0.750217
 20
0.260742
 30
0.0
 40
0
 41
0
  0
VERTEX
  8
0
 10
0.7602
 20
0.260742
 30
0.0
 40
0
 41
0
  0
VERTEX
  8
0
 10
0.79031
 20
0.264919
 30
0.0
 40
0
 41
0
  0
VERTEX
  8
0
 10
0.803982
 20
0.269097
 30
0.0
 40
0
 41
0
  0
VERTEX
  8
0
 10
0.808539
 20
0.269097
 30
0.0
 40
0
 41
0
  0
SEQEND
 8
0
  0
POLYLINE
  8
0
 62
     0
 66
     1
 10
0
 20
0
 30
0.0
 70
     1
 40
0
 41
0
  0
VERTEX
  8
0
 10
0.934788
 20
0.510742
 30
0.0
 40
0
 41
0
  0
VERTEX
  8
0
 10
0.934788
 20
0.431586
 30
0.0
 40
0
 41
0
  0
VERTEX
  8
0
 10
0.976454
 20
0.431586
 30
0.0
 40
0
 41
0
  0
VERTEX
  8
0
 10
0.977485
 20
0.431586
 30
0.0
 40
0
 41
0
  0
VERTEX
  8
0
 10
0.980524
 20
0.42806
 30
0.0
 40
0
 41
0
  0
VERTEX
  8
0
 10
0.980632
 20
0.427408
 30
0.0
 40
0
 41
0
  0
VERTEX
  8
0
 10
0.980632
 20
0.427408
 30
0.0
 40
0
 41
0
  0
VERTEX
  8
0
 10
0.982693
 20
0.411242
 30
0.0
 40
0
 41
0
  0
VERTEX
  8
0
 10
0.98481
 20
0.398383
 30
0.0
 40
0
 41
0
  0
VERTEX
  8
0
 10
0.98481
 20
0.394097
 30
0.0
 40
0
 41
0
  0
VERTEX
  8
0
 10
0.98481
 20
0.393067
 30
0.0
 40
0
 41
0
  0
VERTEX
  8
0
 10
0.981663
 20
0.389919
 30
0.0
 40
0
 41
0
  0
VERTEX
  8
0
 10
0.980632
 20
0.389919
 30
0.0
 40
0
 41
0
  0
VERTEX
  8
0
 10
0.934788
 20
0.389919
 30
0.0
 40
0
 41
0
  0
VERTEX
  8
0
 10
0.934788
 20
0.302408
 30
0.0
 40
0
 41
0
  0
VERTEX
  8
0
 10
0.934788
 20
0.29465
 30
0.0
 40
0
 41
0
  0
VERTEX
  8
0
 10
0.94005
 20
0.271268
 30
0.0
 40
0
 41
0
  0
VERTEX
  8
0
 10
0.951714
 20
0.260742
 30
0.0
 40
0
 41
0
  0
VERTEX
  8
0
 10
0.955621
 20
0.260742
 30
0.0
 40
0
 41
0
  0
VERTEX
  8
0
 10
0.959256
 20
0.260742
 30
0.0
 40
0
 41
0
  0
VERTEX
  8
0
 10
0.970324
 20
0.262858
 30
0.0
 40
0
 41
0
  0
VERTEX
  8
0
 10
0.978028
 20
0.264919
 30
0.0
 40
0
 41
0
  0
VERTEX
  8
0
 10
0.980632
 20
0.264919
 30
0.0
 40
0
 41
0
  0
VERTEX
  8
0
 10
0.981663
 20
0.264919
 30
0.0
 40
0
 41
0
  0
VERTEX
  8
0
 10
0.9847
 20
0.26199
 30
0.0
 40
0
 41
0
  0
VERTEX
  8
0
 10
0.98481
 20
0.261556
 30
0.0
 40
0
 41
0
  0
VERTEX
  8
0
 10
0.98481
 20
0.261556
 30
0.0
 40
0
 41
0
  0
VERTEX
  8
0
 10
0.986871
 20
0.245714
 30
0.0
 40
0
 41
0
  0
VERTEX
  8
0
 10
0.988986
 20
0.232639
 30
0.0
 40
0
 41
0
  0
VERTEX
  8
0
 10
0.988986
 20
0.228244
 30
0.0
 40
0
 41
0
  0
VERTEX
  8
0
 10
0.988986
 20
0.226997
 30
0.0
 40
0
 41
0
  0
VERTEX
  8
0
 10
0.985406
 20
0.223469
 30
0.0
 40
0
 41
0
  0
VERTEX
  8
0
 10
0.98481
 20
0.223253
 30
0.0
 40
0
 41
0
  0
VERTEX
  8
0
 10
0.98481
 20
0.223253
 30
0.0
 40
0
 41
0
  0
VERTEX
  8
0
 10
0.974393
 20
0.221192
 30
0.0
 40
0
 41
0
  0
VERTEX
  8
0
 10
0.95714
 20
0.219075
 30
0.0
 40
0
 41
0
  0
VERTEX
  8
0
 10
0.951443
 20
0.219075
 30
0.0
 40
0
 41
0
  0
VERTEX
  8
0
 10
0.94336
 20
0.219075
 30
0.0
 40
0
 41
0
  0
VERTEX
  8
0
 10
0.919217
 20
0.22564
 30
0.0
 40
0
 41
0
  0
VERTEX
  8
0
 10
0.898762
 20
0.243435
 30
0.0
 40
0
 41
0
  0
VERTEX
  8
0
 10
0.887967
 20
0.269911
 30
0.0
 40
0
 41
0
  0
VERTEX
  8
0
 10
0.884819
 20
0.294325
 30
0.0
 40
0
 41
0
  0
VERTEX
  8
0
 10
0.884819
 20
0.302408
 30
0.0
 40
0
 41
0
  0
VERTEX
  8
0
 10
0.884819
 20
0.389919
 30
0.0
 40
0
 41
0
  0
VERTEX
  8
0
 10
0.847276
 20
0.389919
 30
0.0
 40
0
 41
0
  0
VERTEX
  8
0
 10
0.846246
 20
0.389919
 30
0.0
 40
0
 41
0
  0
VERTEX
  8
0
 10
0.843207
 20
0.3935
 30
0.0
 40
0
 41
0
  0
VERTEX
  8
0
 10
0.843153
 20
0.394097
 30
0.0
 40
0
 41
0
  0
VERTEX
  8
0
 10
0.843153
 20
0.394097
 30
0.0
 40
0
 41
0
  0
VERTEX
  8
0
 10
0.841037
 20
0.410157
 30
0.0
 40
0
 41
0
  0
VERTEX
  8
0
 10
0.838976
 20
0.423122
 30
0.0
 40
0
 41
0
  0
VERTEX
  8
0
 10
0.838976
 20
0.427408
 30
0.0
 40
0
 41
0
  0
VERTEX
  8
0
 10
0.838976
 20
0.428494
 30
0.0
 40
0
 41
0
  0
VERTEX
  8
0
 10
0.842068
 20
0.431586
 30
0.0
 40
0
 41
0
  0
VERTEX
  8
0
 10
0.843153
 20
0.431586
 30
0.0
 40
0
 41
0
  0
VERTEX
  8
0
 10
0.884819
 20
0.431586
 30
0.0
 40
0
 41
0
  0
VERTEX
  8
0
 10
0.884819
 20
0.506565
 30
0.0
 40
0
 41
0
  0
VERTEX
  8
0
 10
0.884819
 20
0.50765
 30
0.0
 40
0
 41
0
  0
VERTEX
  8
0
 10
0.887912
 20
0.510742
 30
0.0
 40
0
 41
0
  0
VERTEX
  8
0
 10
0.888943
 20
0.510742
 30
0.0
 40
0
 41
0
  0
VERTEX
  8
0
 10
0.93061
 20
0.514919
 30
0.0
 40
0
 41
0
  0
VERTEX
  8
0
 10
0.93164
 20
0.514919
 30
0.0
 40
0
 41
0
  0
VERTEX
  8
0
 10
0.934788
 20
0.511828
 30
0.0
 40
0
 41
0
  0
VERTEX
  8
0
 10
0.934788
 20
0.510742
 30
0.0
 40
0
 41
0
  0
SEQEND
 8
0
  0
POLYLINE
  8
0
 62
     0
 66
     1
 10
0
 20
0
 30
0.0
 70
     1
 40
0
 41
0
  0
VERTEX
  8
0
 10
1.09191
 20
0.260742
 30
0.0
 40
0
 41
0
  0
VERTEX
  8
0
 10
1.09711
 20
0.260742
 30
0.0
 40
0
 41
0
  0
VERTEX
  8
0
 10
1.11274
 20
0.261882
 30
0.0
 40
0
 41
0
  0
VERTEX
  8
0
 10
1.13151
 20
0.267199
 30
0.0
 40
0
 41
0
  0
VERTEX
  8
0
 10
1.14502
 20
0.279731
 30
0.0
 40
0
 41
0
  0
VERTEX
  8
0
 10
1.15023
 20
0.296767
 30
0.0
 40
0
 41
0
  0
VERTEX
  8
0
 10
1.15023
 20
0.302408
 30
0.0
 40
0
 41
0
  0
VERTEX
  8
0
 10
1.15023
 20
0.310764
 30
0.0
 40
0
 41
0
  0
VERTEX
  8
0
 10
1.10438
 20
0.310764
 30
0.0
 40
0
 41
0
  0
VERTEX
  8
0
 10
1.09777
 20
0.310764
 30
0.0
 40
0
 41
0
  0
VERTEX
  8
0
 10
1.07796
 20
0.303874
 30
0.0
 40
0
 41
0
  0
VERTEX
  8
0
 10
1.06689
 20
0.29031
 30
0.0
 40
0
 41
0
  0
VERTEX
  8
0
 10
1.06689
 20
0.285753
 30
0.0
 40
0
 41
0
  0
VERTEX
  8
0
 10
1.06689
 20
0.280544
 30
0.0
 40
0
 41
0
  0
VERTEX
  8
0
 10
1.07579
 20
0.264811
 30
0.0
 40
0
 41
0
  0
VERTEX
  8
0
 10
1.08784
 20
0.260742
 30
0.0
 40
0
 41
0
  0
VERTEX
  8
0
 10
1.09191
 20
0.260742
 30
0.0
 40
0
 41
0
  0
SEQEND
 8
0
  0
POLYLINE
  8
0
 62
     0
 66
     1
 10
0
 20
0
 30
0.0
 70
     1
 40
0
 41
0
  0
VERTEX
  8
0
 10
1.15441
 20
0.227431
 30
0.0
 40
0
 41
0
  0
VERTEX
  8
0
 10
1.15229
 20
0.239908
 30
0.0
 40
0
 41
0
  0
VERTEX
  8
0
 10
1.15017
 20
0.237631
 30
0.0
 40
0
 41
0
  0
VERTEX
  8
0
 10
1.13178
 20
0.226074
 30
0.0
 40
0
 41
0
  0
VERTEX
  8
0
 10
1.10183
 20
0.219075
 30
0.0
 40
0
 41
0
  0
VERTEX
  8
0
 10
1.09191
 20
0.219075
 30
0.0
 40
0
 41
0
  0
VERTEX
  8
0
 10
1.08626
 20
0.219075
 30
0.0
 40
0
 41
0
  0
VERTEX
  8
0
 10
1.06944
 20
0.221897
 30
0.0
 40
0
 41
0
  0
VERTEX
  8
0
 10
1.04481
 20
0.232096
 30
0.0
 40
0
 41
0
  0
VERTEX
  8
0
 10
1.02501
 20
0.252496
 30
0.0
 40
0
 41
0
  0
VERTEX
  8
0
 10
1.01687
 20
0.277453
 30
0.0
 40
0
 41
0
  0
VERTEX
  8
0
 10
1.01687
 20
0.285753
 30
0.0
 40
0
 41
0
  0
VERTEX
  8
0
 10
1.01687
 20
0.292914
 30
0.0
 40
0
 41
0
  0
VERTEX
  8
0
 10
1.02284
 20
0.31429
 30
0.0
 40
0
 41
0
  0
VERTEX
  8
0
 10
1.04015
 20
0.335232
 30
0.0
 40
0
 41
0
  0
VERTEX
  8
0
 10
1.06765
 20
0.34809
 30
0.0
 40
0
 41
0
  0
VERTEX
  8
0
 10
1.09516
 20
0.352431
 30
0.0
 40
0
 41
0
  0
VERTEX
  8
0
 10
1.10438
 20
0.352431
 30
0.0
 40
0
 41
0
  0
VERTEX
  8
0
 10
1.10742
 20
0.352431
 30
0.0
 40
0
 41
0
  0
VERTEX
  8
0
 10
1.11664
 20
0.351779
 30
0.0
 40
0
 41
0
  0
VERTEX
  8
0
 10
1.13184
 20
0.350369
 30
0.0
 40
0
 41
0
  0
VERTEX
  8
0
 10
1.14475
 20
0.348958
 30
0.0
 40
0
 41
0
  0
VERTEX
  8
0
 10
1.15023
 20
0.348253
 30
0.0
 40
0
 41
0
  0
VERTEX
  8
0
 10
1.15023
 20
0.348253
 30
0.0
 40
0
 41
0
  0
VERTEX
  8
0
 10
1.15023
 20
0.36659
 30
0.0
 40
0
 41
0
  0
VERTEX
  8
0
 10
1.15023
 20
0.371582
 30
0.0
 40
0
 41
0
  0
VERTEX
  8
0
 10
1.1397
 20
0.386447
 30
0.0
 40
0
 41
0
  0
VERTEX
  8
0
 10
1.11632
 20
0.394097
 30
0.0
 40
0
 41
0
  0
VERTEX
  8
0
 10
1.10856
 20
0.394097
 30
0.0
 40
0
 41
0
  0
VERTEX
  8
0
 10
1.10265
 20
0.394097
 30
0.0
 40
0
 41
0
  0
VERTEX
  8
0
 10
1.08507
 20
0.391493
 30
0.0
 40
0
 41
0
  0
VERTEX
  8
0
 10
1.06163
 20
0.385742
 30
0.0
 40
0
 41
0
  0
VERTEX
  8
0
 10
1.04286
 20
0.380046
 30
0.0
 40
0
 41
0
  0
VERTEX
  8
0
 10
1.03586
 20
0.377387
 30
0.0
 40
0
 41
0
  0
VERTEX
  8
0
 10
1.03353
 20
0.377387
 30
0.0
 40
0
 41
0
  0
VERTEX
  8
0
 10
1.0325
 20
0.377387
 30
0.0
 40
0
 41
0
  0
VERTEX
  8
0
 10
1.02941
 20
0.380533
 30
0.0
 40
0
 41
0
  0
VERTEX
  8
0
 10
1.02941
 20
0.381565
 30
0.0
 40
0
 41
0
  0
VERTEX
  8
0
 10
1.02941
 20
0.385851
 30
0.0
 40
0
 41
0
  0
VERTEX
  8
0
 10
1.03147
 20
0.3986
 30
0.0
 40
0
 41
0
  0
VERTEX
  8
0
 10
1.03353
 20
0.414931
 30
0.0
 40
0
 41
0
  0
VERTEX
  8
0
 10
1.03353
 20
0.414931
 30
0.0
 40
0
 41
0
  0
VERTEX
  8
0
 10
1.03364
 20
0.415365
 30
0.0
 40
0
 41
0
  0
VERTEX
  8
0
 10
1.03716
 20
0.418892
 30
0.0
 40
0
 41
0
  0
VERTEX
  8
0
 10
1.03771
 20
0.419054
 30
0.0
 40
0
 41
0
  0
VERTEX
  8
0
 10
1.03809
 20
0.419271
 30
0.0
 40
0
 41
0
  0
VERTEX
  8
0
 10
1.04471
 20
0.422037
 30
0.0
 40
0
 41
0
  0
VERTEX
  8
0
 10
1.06109
 20
0.427735
 30
0.0
 40
0
 41
0
  0
VERTEX
  8
0
 10
1.08344
 20
0.433322
 30
0.0
 40
0
 41
0
  0
VERTEX
  8
0
 10
1.10227
 20
0.435764
 30
0.0
 40
0
 41
0
  0
VERTEX
  8
0
 10
1.10856
 20
0.435764
 30
0.0
 40
0
 41
0
  0
VERTEX
  8
0
 10
1.11789
 20
0.435764
 30
0.0
 40
0
 41
0
  0
VERTEX
  8
0
 10
1.14589
 20
0.431207
 30
0.0
 40
0
 41
0
  0
VERTEX
  8
0
 10
1.1748
 20
0.418078
 30
0.0
 40
0
 41
0
  0
VERTEX
  8
0
 10
1.19352
 20
0.397136
 30
0.0
 40
0
 41
0
  0
VERTEX
  8
0
 10
1.2002
 20
0.376139
 30
0.0
 40
0
 41
0
  0
VERTEX
  8
0
 10
1.2002
 20
0.369086
 30
0.0
 40
0
 41
0
  0
VERTEX
  8
0
 10
1.2002
 20
0.260742
 30
0.0
 40
0
 41
0
  0
VERTEX
  8
0
 10
1.2002
 20
0.254829
 30
0.0
 40
0
 41
0
  0
VERTEX
  8
0
 10
1.20226
 20
0.237087
 30
0.0
 40
0
 41
0
  0
VERTEX
  8
0
 10
1.20437
 20
0.229872
 30
0.0
 40
0
 41
0
  0
VERTEX
  8
0
 10
1.20437
 20
0.227431
 30
0.0
 40
0
 41
0
  0
VERTEX
  8
0
 10
1.20437
 20
0.2264
 30
0.0
 40
0
 41
0
  0
VERTEX
  8
0
 10
1.20123
 20
0.223253
 30
0.0
 40
0
 41
0
  0
VERTEX
  8
0
 10
1.2002
 20
0.223253
 30
0.0
 40
0
 41
0
  0
VERTEX
  8
0
 10
1.15853
 20
0.223253
 30
0.0
 40
0
 41
0
  0
VERTEX
  8
0
 10
1.1575
 20
0.223253
 30
0.0
 40
0
 41
0
  0
VERTEX
  8
0
 10
1.15457
 20
0.226725
 30
0.0
 40
0
 41
0
  0
VERTEX
  8
0
 10
1.15441
 20
0.227431
 30
0.0
 40
0
 41
0
  0
SEQEND
 8
0
  0
POLYLINE
  8
0
 62
     0
 66
     1
 10
0
 20
0
 30
0.0
 70
     1
 40
0
 41
0
  0
VERTEX
  8
0
 10
1.25939
 20
0.227431
 30
0.0
 40
0
 41
0
  0
VERTEX
  8
0
 10
1.25939
 20
0.398221
 30
0.0
 40
0
 41
0
  0
VERTEX
  8
0
 10
1.25939
 20
0.403321
 30
0.0
 40
0
 41
0
  0
VERTEX
  8
0
 10
1.25727
 20
0.418457
 30
0.0
 40
0
 41
0
  0
VERTEX
  8
0
 10
1.25521
 20
0.425185
 30
0.0
 40
0
 41
0
  0
VERTEX
  8
0
 10
1.25521
 20
0.427408
 30
0.0
 40
0
 41
0
  0
VERTEX
  8
0
 10
1.25521
 20
0.428494
 30
0.0
 40
0
 41
0
  0
VERTEX
  8
0
 10
1.2583
 20
0.431586
 30
0.0
 40
0
 41
0
  0
VERTEX
  8
0
 10
1.25939
 20
0.431586
 30
0.0
 40
0
 41
0
  0
VERTEX
  8
0
 10
1.30105
 20
0.431586
 30
0.0
 40
0
 41
0
  0
VERTEX
  8
0
 10
1.30208
 20
0.431586
 30
0.0
 40
0
 41
0
  0
VERTEX
  8
0
 10
1.30512
 20
0.42806
 30
0.0
 40
0
 41
0
  0
VERTEX
  8
0
 10
1.30523
 20
0.427408
 30
0.0
 40
0
 41
0
  0
VERTEX
  8
0
 10
1.30773
 20
0.412001
 30
0.0
 40
0
 41
0
  0
VERTEX
  8
0
 10
1.30773
 20
0.412001
 30
0.0
 40
0
 41
0
  0
VERTEX
  8
0
 10
1.31114
 20
0.415744
 30
0.0
 40
0
 41
0
  0
VERTEX
  8
0
 10
1.32156
 20
0.423882
 30
0.0
 40
0
 41
0
  0
VERTEX
  8
0
 10
1.33898
 20
0.432075
 30
0.0
 40
0
 41
0
  0
VERTEX
  8
0
 10
1.35737
 20
0.435764
 30
0.0
 40
0
 41
0
  0
VERTEX
  8
0
 10
1.36355
 20
0.435764
 30
0.0
 40
0
 41
0
  0
VERTEX
  8
0
 10
1.37381
 20
0.435764
 30
0.0
 40
0
 41
0
  0
VERTEX
  8
0
 10
1.40468
 20
0.430231
 30
0.0
 40
0
 41
0
  0
VERTEX
  8
0
 10
1.43018
 20
0.413357
 30
0.0
 40
0
 41
0
  0
VERTEX
  8
0
 10
1.44319
 20
0.384819
 30
0.0
 40
0
 41
0
  0
VERTEX
  8
0
 10
1.44689
 20
0.354275
 30
0.0
 40
0
 41
0
  0
VERTEX
  8
0
 10
1.44689
 20
0.344075
 30
0.0
 40
0
 41
0
  0
VERTEX
  8
0
 10
1.44689
 20
0.227431
 30
0.0
 40
0
 41
0
  0
VERTEX
  8
0
 10
1.44689
 20
0.2264
 30
0.0
 40
0
 41
0
  0
VERTEX
  8
0
 10
1.44374
 20
0.223253
 30
0.0
 40
0
 41
0
  0
VERTEX
  8
0
 10
1.44271
 20
0.223253
 30
0.0
 40
0
 41
0
  0
VERTEX
  8
0
 10
1.40104
 20
0.223253
 30
0.0
 40
0
 41
0
  0
VERTEX
  8
0
 10
1.39996
 20
0.223253
 30
0.0
 40
0
 41
0
  0
VERTEX
  8
0
 10
1.39686
 20
0.2264
 30
0.0
 40
0
 41
0
  0
VERTEX
  8
0
 10
1.39686
 20
0.227431
 30
0.0
 40
0
 41
0
  0
VERTEX
  8
0
 10
1.39686
 20
0.344075
 30
0.0
 40
0
 41
0
  0
VERTEX
  8
0
 10
1.39686
 20
0.350478
 30
0.0
 40
0
 41
0
  0
VERTEX
  8
0
 10
1.39458
 20
0.369521
 30
0.0
 40
0
 41
0
  0
VERTEX
  8
0
 10
1.38802
 20
0.384711
 30
0.0
 40
0
 41
0
  0
VERTEX
  8
0
 10
1.3775
 20
0.392144
 30
0.0
 40
0
 41
0
  0
VERTEX
  8
0
 10
1.36702
 20
0.394097
 30
0.0
 40
0
 41
0
  0
VERTEX
  8
0
 10
1.36355
 20
0.394097
 30
0.0
 40
0
 41
0
  0
VERTEX
  8
0
 10
1.35748
 20
0.394097
 30
0.0
 40
0
 41
0
  0
VERTEX
  8
0
 10
1.33925
 20
0.391004
 30
0.0
 40
0
 41
0
  0
VERTEX
  8
0
 10
1.32237
 20
0.381619
 30
0.0
 40
0
 41
0
  0
VERTEX
  8
0
 10
1.31255
 20
0.365994
 30
0.0
 40
0
 41
0
  0
VERTEX
  8
0
 10
1.30941
 20
0.349556
 30
0.0
 40
0
 41
0
  0
VERTEX
  8
0
 10
1.30941
 20
0.344075
 30
0.0
 40
0
 41
0
  0
VERTEX
  8
0
 10
1.30941
 20
0.227431
 30
0.0
 40
0
 41
0
  0
VERTEX
  8
0
 10
1.30941
 20
0.2264
 30
0.0
 40
0
 41
0
  0
VERTEX
  8
0
 10
1.30626
 20
0.223253
 30
0.0
 40
0
 41
0
  0
VERTEX
  8
0
 10
1.30523
 20
0.223253
 30
0.0
 40
0
 41
0
  0
VERTEX
  8
0
 10
1.26356
 20
0.223253
 30
0.0
 40
0
 41
0
  0
VERTEX
  8
0
 10
1.26248
 20
0.223253
 30
0.0
 40
0
 41
0
  0
VERTEX
  8
0
 10
1.25939
 20
0.2264
 30
0.0
 40
0
 41
0
  0
VERTEX
  8
0
 10
1.25939
 20
0.227431
 30
0.0
 40
0
 41
0
  0
SEQEND
 8
0
  0
POLYLINE
  8
0
 62
     0
 66
     1
 10
0
 20
0
 30
0.0
 70
     1
 40
0
 41
0
  0
VERTEX
  8
0
 10
1.50478
 20
0.256565
 30
0.0
 40
0
 41
0
  0
VERTEX
  8
0
 10
1.50478
 20
0.423232
 30
0.0
 40
0
 41
0
  0
VERTEX
  8
0
 10
1.50478
 20
0.424317
 30
0.0
 40
0
 41
0
  0
VERTEX
  8
0
 10
1.50786
 20
0.427408
 30
0.0
 40
0
 41
0
  0
VERTEX
  8
0
 10
1.50896
 20
0.427408
 30
0.0
 40
0
 41
0
  0
VERTEX
  8
0
 10
1.55062
 20
0.431586
 30
0.0
 40
0
 41
0
  0
VERTEX
  8
0
 10
1.55165
 20
0.431586
 30
0.0
 40
0
 41
0
  0
VERTEX
  8
0
 10
1.55479
 20
0.428494
 30
0.0
 40
0
 41
0
  0
VERTEX
  8
0
 10
1.55479
 20
0.427408
 30
0.0
 40
0
 41
0
  0
VERTEX
  8
0
 10
1.55479
 20
0.256565
 30
0.0
 40
0
 41
0
  0
VERTEX
  8
0
 10
1.55479
 20
0.251519
 30
0.0
 40
0
 41
0
  0
VERTEX
  8
0
 10
1.55686
 20
0.236382
 30
0.0
 40
0
 41
0
  0
VERTEX
  8
0
 10
1.55897
 20
0.22971
 30
0.0
 40
0
 41
0
  0
VERTEX
  8
0
 10
1.55897
 20
0.227431
 30
0.0
 40
0
 41
0
  0
VERTEX
  8
0
 10
1.55897
 20
0.2264
 30
0.0
 40
0
 41
0
  0
VERTEX
  8
0
 10
1.55583
 20
0.223253
 30
0.0
 40
0
 41
0
  0
VERTEX
  8
0
 10
1.55479
 20
0.223253
 30
0.0
 40
0
 41
0
  0
VERTEX
  8
0
 10
1.51313
 20
0.223253
 30
0.0
 40
0
 41
0
  0
VERTEX
  8
0
 10
1.51204
 20
0.223253
 30
0.0
 40
0
 41
0
  0
VERTEX
  8
0
 10
1.50917
 20
0.226833
 30
0.0
 40
0
 41
0
  0
VERTEX
  8
0
 10
1.50896
 20
0.227431
 30
0.0
 40
0
 41
0
  0
VERTEX
  8
0
 10
1.50896
 20
0.227431
 30
0.0
 40
0
 41
0
  0
VERTEX
  8
0
 10
1.50683
 20
0.235786
 30
0.0
 40
0
 41
0
  0
VERTEX
  8
0
 10
1.50478
 20
0.251411
 30
0.0
 40
0
 41
0
  0
VERTEX
  8
0
 10
1.50478
 20
0.256565
 30
0.0
 40
0
 41
0
  0
SEQEND
 8
0
  0
POLYLINE
  8
0
 62
     0
 66
     1
 10
0
 20
0
 30
0.0
 70
     1
 40
0
 41
0
  0
VERTEX
  8
0
 10
1.50065
 20
0.489908
 30
0.0
 40
0
 41
0
  0
VERTEX
  8
0
 10
1.50065
 20
0.495117
 30
0.0
 40
0
 41
0
  0
VERTEX
  8
0
 10
1.50911
 20
0.510633
 30
0.0
 40
0
 41
0
  0
VERTEX
  8
0
 10
1.52458
 20
0.519097
 30
0.0
 40
0
 41
0
  0
VERTEX
  8
0
 10
1.52979
 20
0.519097
 30
0.0
 40
0
 41
0
  0
VERTEX
  8
0
 10
1.53494
 20
0.519097
 30
0.0
 40
0
 41
0
  0
VERTEX
  8
0
 10
1.55046
 20
0.510633
 30
0.0
 40
0
 41
0
  0
VERTEX
  8
0
 10
1.55897
 20
0.495117
 30
0.0
 40
0
 41
0
  0
VERTEX
  8
0
 10
1.55897
 20
0.489908
 30
0.0
 40
0
 41
0
  0
VERTEX
  8
0
 10
1.55897
 20
0.484754
 30
0.0
 40
0
 41
0
  0
VERTEX
  8
0
 10
1.55046
 20
0.469239
 30
0.0
 40
0
 41
0
  0
VERTEX
  8
0
 10
1.53494
 20
0.460721
 30
0.0
 40
0
 41
0
  0
VERTEX
  8
0
 10
1.52979
 20
0.460721
 30
0.0
 40
0
 41
0
  0
VERTEX
  8
0
 10
1.52458
 20
0.460721
 30
0.0
 40
0
 41
0
  0
VERTEX
  8
0
 10
1.50911
 20
0.469239
 30
0.0
 40
0
 41
0
  0
VERTEX
  8
0
 10
1.50065
 20
0.484754
 30
0.0
 40
0
 41
0
  0
VERTEX
  8
0
 10
1.50065
 20
0.489908
 30
0.0
 40
0
 41
0
  0
SEQEND
 8
0
  0
POLYLINE
  8
0
 62
     0
 66
     1
 10
0
 20
0
 30
0.0
 70
     1
 40
0
 41
0
  0
VERTEX
  8
0
 10
1.60981
 20
0.273221
 30
0.0
 40
0
 41
0
  0
VERTEX
  8
0
 10
1.61193
 20
0.273221
 30
0.0
 40
0
 41
0
  0
VERTEX
  8
0
 10
1.61838
 20
0.271322
 30
0.0
 40
0
 41
0
  0
VERTEX
  8
0
 10
1.63818
 20
0.266982
 30
0.0
 40
0
 41
0
  0
VERTEX
  8
0
 10
1.66456
 20
0.262696
 30
0.0
 40
0
 41
0
  0
VERTEX
  8
0
 10
1.68599
 20
0.260742
 30
0.0
 40
0
 41
0
  0
VERTEX
  8
0
 10
1.69314
 20
0.260742
 30
0.0
 40
0
 41
0
  0
VERTEX
  8
0
 10
1.69797
 20
0.260742
 30
0.0
 40
0
 41
0
  0
VERTEX
  8
0
 10
1.71251
 20
0.265028
 30
0.0
 40
0
 41
0
  0
VERTEX
  8
0
 10
1.71815
 20
0.274306
 30
0.0
 40
0
 41
0
  0
VERTEX
  8
0
 10
1.71815
 20
0.277399
 30
0.0
 40
0
 41
0
  0
VERTEX
  8
0
 10
1.71815
 20
0.281196
 30
0.0
 40
0
 41
0
  0
VERTEX
  8
0
 10
1.70925
 20
0.292589
 30
0.0
 40
0
 41
0
  0
VERTEX
  8
0
 10
1.69
 20
0.30089
 30
0.0
 40
0
 41
0
  0
VERTEX
  8
0
 10
1.68479
 20
0.302408
 30
0.0
 40
0
 41
0
  0
VERTEX
  8
0
 10
1.67757
 20
0.304525
 30
0.0
 40
0
 41
0
  0
VERTEX
  8
0
 10
1.65642
 20
0.312121
 30
0.0
 40
0
 41
0
  0
VERTEX
  8
0
 10
1.63097
 20
0.32601
 30
0.0
 40
0
 41
0
  0
VERTEX
  8
0
 10
1.61263
 20
0.346897
 30
0.0
 40
0
 41
0
  0
VERTEX
  8
0
 10
1.60563
 20
0.369792
 30
0.0
 40
0
 41
0
  0
VERTEX
  8
0
 10
1.60563
 20
0.377387
 30
0.0
 40
0
 41
0
  0
VERTEX
  8
0
 10
1.60563
 20
0.38341
 30
0.0
 40
0
 41
0
  0
VERTEX
  8
0
 10
1.60997
 20
0.401476
 30
0.0
 40
0
 41
0
  0
VERTEX
  8
0
 10
1.62358
 20
0.419868
 30
0.0
 40
0
 41
0
  0
VERTEX
  8
0
 10
1.64692
 20
0.43164
 30
0.0
 40
0
 41
0
  0
VERTEX
  8
0
 10
1.67215
 20
0.435764
 30
0.0
 40
0
 41
0
  0
VERTEX
  8
0
 10
1.68061
 20
0.435764
 30
0.0
 40
0
 41
0
  0
VERTEX
  8
0
 10
1.68713
 20
0.435764
 30
0.0
 40
0
 41
0
  0
VERTEX
  8
0
 10
1.70682
 20
0.434462
 30
0.0
 40
0
 41
0
  0
VERTEX
  8
0
 10
1.72803
 20
0.431586
 30
0.0
 40
0
 41
0
  0
VERTEX
  8
0
 10
1.74214
 20
0.428765
 30
0.0
 40
0
 41
0
  0
VERTEX
  8
0
 10
1.74729
 20
0.427408
 30
0.0
 40
0
 41
0
  0
VERTEX
  8
0
 10
1.74729
 20
0.427408
 30
0.0
 40
0
 41
0
  0
VERTEX
  8
0
 10
1.74778
 20
0.427246
 30
0.0
 40
0
 41
0
  0
VERTEX
  8
0
 10
1.75136
 20
0.423665
 30
0.0
 40
0
 41
0
  0
VERTEX
  8
0
 10
1.75146
 20
0.423232
 30
0.0
 40
0
 41
0
  0
VERTEX
  8
0
 10
1.75146
 20
0.423232
 30
0.0
 40
0
 41
0
  0
VERTEX
  8
0
 10
1.75353
 20
0.407226
 30
0.0
 40
0
 41
0
  0
VERTEX
  8
0
 10
1.75564
 20
0.39426
 30
0.0
 40
0
 41
0
  0
VERTEX
  8
0
 10
1.75564
 20
0.389919
 30
0.0
 40
0
 41
0
  0
VERTEX
  8
0
 10
1.75564
 20
0.388889
 30
0.0
 40
0
 41
0
  0
VERTEX
  8
0
 10
1.7525
 20
0.385742
 30
0.0
 40
0
 41
0
  0
VERTEX
  8
0
 10
1.75146
 20
0.385742
 30
0.0
 40
0
 41
0
  0
VERTEX
  8
0
 10
1.74968
 20
0.385742
 30
0.0
 40
0
 41
0
  0
VERTEX
  8
0
 10
1.74447
 20
0.387099
 30
0.0
 40
0
 41
0
  0
VERTEX
  8
0
 10
1.72851
 20
0.389919
 30
0.0
 40
0
 41
0
  0
VERTEX
  8
0
 10
1.70632
 20
0.392796
 30
0.0
 40
0
 41
0
  0
VERTEX
  8
0
 10
1.68701
 20
0.394097
 30
0.0
 40
0
 41
0
  0
VERTEX
  8
0
 10
1.68061
 20
0.394097
 30
0.0
 40
0
 41
0
  0
VERTEX
  8
0
 10
1.67589
 20
0.394097
 30
0.0
 40
0
 41
0
  0
VERTEX
  8
0
 10
1.66183
 20
0.389811
 30
0.0
 40
0
 41
0
  0
VERTEX
  8
0
 10
1.65565
 20
0.380533
 30
0.0
 40
0
 41
0
  0
VERTEX
  8
0
 10
1.65565
 20
0.377387
 30
0.0
 40
0
 41
0
  0
VERTEX
  8
0
 10
1.65565
 20
0.373643
 30
0.0
 40
0
 41
0
  0
VERTEX
  8
0
 10
1.6645
 20
0.362304
 30
0.0
 40
0
 41
0
  0
VERTEX
  8
0
 10
1.68375
 20
0.354004
 30
0.0
 40
0
 41
0
  0
VERTEX
  8
0
 10
1.68896
 20
0.352431
 30
0.0
 40
0
 41
0
  0
VERTEX
  8
0
 10
1.69607
 20
0.350315
 30
0.0
 40
0
 41
0
  0
VERTEX
  8
0
 10
1.71729
 20
0.342828
 30
0.0
 40
0
 41
0
  0
VERTEX
  8
0
 10
1.74274
 20
0.328993
 30
0.0
 40
0
 41
0
  0
VERTEX
  8
0
 10
1.76107
 20
0.30816
 30
0.0
 40
0
 41
0
  0
VERTEX
  8
0
 10
1.76813
 20
0.285101
 30
0.0
 40
0
 41
0
  0
VERTEX
  8
0
 10
1.76813
 20
0.277399
 30
0.0
 40
0
 41
0
  0
VERTEX
  8
0
 10
1.76813
 20
0.271647
 30
0.0
 40
0
 41
0
  0
VERTEX
  8
0
 10
1.76313
 20
0.254232
 30
0.0
 40
0
 41
0
  0
VERTEX
  8
0
 10
1.74858
 20
0.235786
 30
0.0
 40
0
 41
0
  0
VERTEX
  8
0
 10
1.72504
 20
0.223525
 30
0.0
 40
0
 41
0
  0
VERTEX
  8
0
 10
1.70111
 20
0.219075
 30
0.0
 40
0
 41
0
  0
VERTEX
  8
0
 10
1.69314
 20
0.219075
 30
0.0
 40
0
 41
0
  0
VERTEX
  8
0
 10
1.68517
 20
0.219075
 30
0.0
 40
0
 41
0
  0
VERTEX
  8
0
 10
1.6614
 20
0.221029
 30
0.0
 40
0
 41
0
  0
VERTEX
  8
0
 10
1.63633
 20
0.225315
 30
0.0
 40
0
 41
0
  0
VERTEX
  8
0
 10
1.6199
 20
0.229656
 30
0.0
 40
0
 41
0
  0
VERTEX
  8
0
 10
1.61399
 20
0.231554
 30
0.0
 40
0
 41
0
  0
VERTEX
  8
0
 10
1.61399
 20
0.231554
 30
0.0
 40
0
 41
0
  0
VERTEX
  8
0
 10
1.61344
 20
0.231771
 30
0.0
 40
0
 41
0
  0
VERTEX
  8
0
 10
1.60986
 20
0.235351
 30
0.0
 40
0
 41
0
  0
VERTEX
  8
0
 10
1.60981
 20
0.235732
 30
0.0
 40
0
 41
0
  0
VERTEX
  8
0
 10
1.60981
 20
0.235732
 30
0.0
 40
0
 41
0
  0
VERTEX
  8
0
 10
1.60769
 20
0.25179
 30
0.0
 40
0
 41
0
  0
VERTEX
  8
0
 10
1.60563
 20
0.264811
 30
0.0
 40
0
 41
0
  0
VERTEX
  8
0
 10
1.60563
 20
0.269097
 30
0.0
 40
0
 41
0
  0
VERTEX
  8
0
 10
1.60563
 20
0.270128
 30
0.0
 40
0
 41
0
  0
VERTEX
  8
0
 10
1.60872
 20
0.273221
 30
0.0
 40
0
 41
0
  0
VERTEX
  8
0
 10
1.60981
 20
0.273221
 30
0.0
 40
0
 41
0
  0
SEQEND
 8
0
  0
POLYLINE
  8
0
 62
     0
 66
     1
 10
0
 20
0
 30
0.0
 70
     1
 40
0
 41
0
  0
VERTEX
  8
0
 10
0.0808376
 20
0.0891928
 30
0.0
 40
0
 41
0
  0
VERTEX
  8
0
 10
0.0808376
 20
0.0827908
 30
0.0
 40
0
 41
0
  0
VERTEX
  8
0
 10
0.0701497
 20
0.0634224
 30
0.0
 40
0
 41
0
  0
VERTEX
  8
0
 10
0.0507813
 20
0.0527344
 30
0.0
 40
0
 41
0
  0
VERTEX
  8
0
 10
0.0443793
 20
0.0527344
 30
0.0
 40
0
 41
0
  0
VERTEX
  8
0
 10
0.0379232
 20
0.0527344
 30
0.0
 40
0
 41
0
  0
VERTEX
  8
0
 10
0.0185547
 20
0.0634224
 30
0.0
 40
0
 41
0
  0
VERTEX
  8
0
 10
0.00792101
 20
0.0827908
 30
0.0
 40
0
 41
0
  0
VERTEX
  8
0
 10
0.00792101
 20
0.0891928
 30
0.0
 40
0
 41
0
  0
VERTEX
  8
0
 10
0.00792101
 20
0.0956489
 30
0.0
 40
0
 41
0
  0
VERTEX
  8
0
 10
0.0185547
 20
0.115017
 30
0.0
 40
0
 41
0
  0
VERTEX
  8
0
 10
0.0379232
 20
0.125651
 30
0.0
 40
0
 41
0
  0
VERTEX
  8
0
 10
0.0443793
 20
0.125651
 30
0.0
 40
0
 41
0
  0
VERTEX
  8
0
 10
0.0507813
 20
0.125651
 30
0.0
 40
0
 41
0
  0
VERTEX
  8
0
 10
0.0701497
 20
0.115017
 30
0.0
 40
0
 41
0
  0
VERTEX
  8
0
 10
0.0808376
 20
0.0956489
 30
0.0
 40
0
 41
0
  0
VERTEX
  8
0
 10
0.0808376
 20
0.0891928
 30
0.0
 40
0
 41
0
  0
SEQEND
 8
0
  0
POLYLINE
  8
0
 62
     0
 66
     1
 10
0
 20
0
 30
0.0
 70
     1
 40
0
 41
0
  0
VERTEX
  8
0
 10
0.321832
 20
0.0490451
 30
0.0
 40
0
 41
0
  0
VERTEX
  8
0
 10
0.321832
 20
0.0426432
 30
0.0
 40
0
 41
0
  0
VERTEX
  8
0
 10
0.311143
 20
0.0232747
 30
0.0
 40
0
 41
0
  0
VERTEX
  8
0
 10
0.291775
 20
0.0125868
 30
0.0
 40
0
 41
0
  0
VERTEX
  8
0
 10
0.285374
 20
0.0125868
 30
0.0
 40
0
 41
0
  0
VERTEX
  8
0
 10
0.278917
 20
0.0125868
 30
0.0
 40
0
 41
0
  0
VERTEX
  8
0
 10
0.259549
 20
0.0232747
 30
0.0
 40
0
 41
0
  0
VERTEX
  8
0
 10
0.248915
 20
0.0426432
 30
0.0
 40
0
 41
0
  0
VERTEX
  8
0
 10
0.248915
 20
0.0490451
 30
0.0
 40
0
 41
0
  0
VERTEX
  8
0
 10
0.248915
 20
0.0555012
 30
0.0
 40
0
 41
0
  0
VERTEX
  8
0
 10
0.259549
 20
0.0748699
 30
0.0
 40
0
 41
0
  0
VERTEX
  8
0
 10
0.278917
 20
0.0855035
 30
0.0
 40
0
 41
0
  0
VERTEX
  8
0
 10
0.285374
 20
0.0855035
 30
0.0
 40
0
 41
0
  0
VERTEX
  8
0
 10
0.291775
 20
0.0855035
 30
0.0
 40
0
 41
0
  0
VERTEX
  8
0
 10
0.311143
 20
0.0748699
 30
0.0
 40
0
 41
0
  0
VERTEX
  8
0
 10
0.321832
 20
0.0555012
 30
0.0
 40
0
 41
0
  0
VERTEX
  8
0
 10
0.321832
 20
0.0490451
 30
0.0
 40
0
 41
0
  0
SEQEND
 8
0
  0
POLYLINE
  8
0
 62
     0
 66
     1
 10
0
 20
0
 30
0.0
 70
     1
 40
0
 41
0
  0
VERTEX
  8
0
 10
0.318901
 20
0.555122
 30
0.0
 40
0
 41
0
  0
VERTEX
  8
0
 10
0.318901
 20
0.548719
 30
0.0
 40
0
 41
0
  0
VERTEX
  8
0
 10
0.308214
 20
0.529351
 30
0.0
 40
0
 41
0
  0
VERTEX
  8
0
 10
0.288846
 20
0.518664
 30
0.0
 40
0
 41
0
  0
VERTEX
  8
0
 10
0.282443
 20
0.518664
 30
0.0
 40
0
 41
0
  0
VERTEX
  8
0
 10
0.275987
 20
0.518664
 30
0.0
 40
0
 41
0
  0
VERTEX
  8
0
 10
0.256619
 20
0.529351
 30
0.0
 40
0
 41
0
  0
VERTEX
  8
0
 10
0.245985
 20
0.548719
 30
0.0
 40
0
 41
0
  0
VERTEX
  8
0
 10
0.245985
 20
0.555122
 30
0.0
 40
0
 41
0
  0
VERTEX
  8
0
 10
0.245985
 20
0.561578
 30
0.0
 40
0
 41
0
  0
VERTEX
  8
0
 10
0.256619
 20
0.580946
 30
0.0
 40
0
 41
0
  0
VERTEX
  8
0
 10
0.275987
 20
0.591581
 30
0.0
 40
0
 41
0
  0
VERTEX
  8
0
 10
0.282443
 20
0.591581
 30
0.0
 40
0
 41
0
  0
VERTEX
  8
0
 10
0.288846
 20
0.591581
 30
0.0
 40
0
 41
0
  0
VERTEX
  8
0
 10
0.308214
 20
0.580946
 30
0.0
 40
0
 41
0
  0
VERTEX
  8
0
 10
0.318901
 20
0.561578
 30
0.0
 40
0
 41
0
  0
VERTEX
  8
0
 10
0.318901
 20
0.555122
 30
0.0
 40
0
 41
0
  0
SEQEND
 8
0
  0
POLYLINE
  8
0
 62
     0
 66
     1
 10
0
 20
0
 30
0.0
 70
     1
 40
0
 41
0
  0
VERTEX
  8
0
 10
0.105848
 20
0.386393
 30
0.0
 40
0
 41
0
  0
VERTEX
  8
0
 10
0.105848
 20
0.379992
 30
0.0
 40
0
 41
0
  0
VERTEX
  8
0
 10
0.0951606
 20
0.360622
 30
0.0
 40
0
 41
0
  0
VERTEX
  8
0
 10
0.0757921
 20
0.349935
 30
0.0
 40
0
 41
0
  0
VERTEX
  8
0
 10
0.0693901
 20
0.349935
 30
0.0
 40
0
 41
0
  0
VERTEX
  8
0
 10
0.062934
 20
0.349935
 30
0.0
 40
0
 41
0
  0
VERTEX
  8
0
 10
0.0435656
 20
0.360622
 30
0.0
 40
0
 41
0
  0
VERTEX
  8
0
 10
0.0329318
 20
0.379992
 30
0.0
 40
0
 41
0
  0
VERTEX
  8
0
 10
0.0329318
 20
0.386393
 30
0.0
 40
0
 41
0
  0
VERTEX
  8
0
 10
0.0329318
 20
0.39285
 30
0.0
 40
0
 41
0
  0
VERTEX
  8
0
 10
0.0435656
 20
0.412218
 30
0.0
 40
0
 41
0
  0
VERTEX
  8
0
 10
0.062934
 20
0.422851
 30
0.0
 40
0
 41
0
  0
VERTEX
  8
0
 10
0.0693901
 20
0.422851
 30
0.0
 40
0
 41
0
  0
VERTEX
  8
0
 10
0.0757921
 20
0.422851
 30
0.0
 40
0
 41
0
  0
VERTEX
  8
0
 10
0.0951606
 20
0.412218
 30
0.0
 40
0
 41
0
  0
VERTEX
  8
0
 10
0.105848
 20
0.39285
 30
0.0
 40
0
 41
0
  0
VERTEX
  8
0
 10
0.105848
 20
0.386393
 30
0.0
 40
0
 41
0
  0
SEQEND
 8
0
  0
POLYLINE
  8
0
 62
     0
 66
     1
 10
0
 20
0
 30
0.0
 40
1.44759
 41
1.44759
  0
VERTEX
  8
0
 10
0.277018
 20
0.0610351
 30
0.0
 40
0.0201054
 41
0.0201054
  0
VERTEX
  8
0
 10
0.0703125
 20
0.384874
 30
0.0
 40
0.0201054
 41
0.0201054
  0
SEQEND
 8
0
  0
POLYLINE
  8
0
 62
     0
 66
     1
 10
0
 20
0
 30
0.0
 40
1.5
 41
1.5
  0
VERTEX
  8
0
 10
0.0641818
 20
0.381185
 30
0.0
 40
0.0208333
 41
0.0208333
  0
VERTEX
  8
0
 10
0.277235
 20
0.546929
 30
0.0
 40
0.0208333
 41
0.0208333
  0
SEQEND
 8
0
  0
ENDSEC
  0
EOF
