<?xml version="1.0" encoding="UTF-8"?>
<svg width="170px" height="57px" viewBox="0 0 170 57" version="1.1" xmlns="http://www.w3.org/2000/svg" xmlns:xlink="http://www.w3.org/1999/xlink">
    <!-- Generator: Sketch 48.2 (47327) - http://www.bohemiancoding.com/sketch -->
    <title>Untitled</title>
    <desc>Created with Sketch.</desc>
    <defs></defs>
    <g id="Page-1" stroke="none" stroke-width="1" fill="none" fill-rule="evenodd">
        <g id="standard_octanis">
            <path d="M42.82063,25.90207 C42.82063,29.90207 44.02063,32.30207 48.02063,32.30207 C52.02063,32.30207 53.22063,29.90207 53.22063,25.90207 C53.22063,21.90207 52.02063,19.50207 48.02063,19.50207 C44.02063,19.50207 42.82063,21.90207 42.82063,25.90207 Z M38.02063,25.90207 C38.02063,18.70207 42.02063,15.50207 48.02063,15.50207 C54.02063,15.50207 58.02063,18.70207 58.02063,25.90207 C58.02063,33.10207 54.02063,36.30207 48.02063,36.30207 C42.02063,36.30207 38.02063,33.10207 38.02063,25.90207 Z M77.62063,31.50207 C77.82063,31.50207 77.98063,31.66207 78.02063,31.90207 C78.02063,31.90207 78.42063,34.94207 78.42063,35.10207 C78.42063,35.30207 78.26063,35.46207 78.02063,35.50207 C77.70063,35.62207 74.70063,36.30207 72.02063,36.30207 C63.22063,36.30207 61.62063,31.62207 61.62063,25.90207 C61.62063,20.18207 63.22063,15.50207 72.02063,15.50207 C75.02063,15.50207 77.62063,16.70207 77.62063,16.70207 C77.82063,16.78207 77.98063,16.94207 78.02063,17.10207 C78.02063,17.10207 78.42063,20.14207 78.42063,20.30207 C78.42063,20.54207 78.26063,20.70207 78.02063,20.70207 C77.82063,20.70207 74.82063,19.50207 72.02063,19.50207 C67.02063,19.50207 66.42063,22.26207 66.42063,25.90207 C66.42063,29.54207 67.42063,32.30207 72.02063,32.30207 C75.02063,32.30207 77.42063,31.50207 77.62063,31.50207 Z M89.74063,8.30207 L89.74063,15.90207 L93.74063,15.90207 C93.94063,15.90207 94.10063,16.06207 94.14063,16.30207 C94.14063,16.30207 94.54063,19.38207 94.54063,19.50207 C94.54063,19.74207 94.38063,19.90207 94.14063,19.90207 L89.74063,19.90207 L89.74063,28.30207 C89.74063,30.94207 90.42063,32.30207 91.74063,32.30207 C92.50063,32.30207 93.94063,31.90207 94.14063,31.90207 C94.30063,31.90207 94.50063,32.06207 94.54063,32.22207 C94.54063,32.22207 94.94063,35.22207 94.94063,35.42207 C94.94063,35.62207 94.78063,35.82207 94.54063,35.90207 C94.54063,35.90207 92.94063,36.30207 91.34063,36.30207 C86.38063,36.30207 84.94063,32.74207 84.94063,28.30207 L84.94063,19.90207 L81.34063,19.90207 C81.18063,19.90207 80.98063,19.74207 80.94063,19.50207 C80.94063,19.50207 80.54063,16.46207 80.54063,16.30207 C80.54063,16.06207 80.70063,15.90207 80.94063,15.90207 L84.94063,15.90207 L84.94063,8.70207 C84.94063,8.46207 85.10063,8.30207 85.34063,8.30207 L89.34063,7.90207 C89.58063,7.90207 89.74063,8.06207 89.74063,8.30207 Z M104.82063,32.30207 C107.50063,32.30207 110.42063,31.98207 110.42063,28.30207 L110.42063,27.50207 L106.02063,27.50207 C104.06063,27.50207 102.42063,28.46207 102.42063,29.90207 C102.42063,32.06207 103.90063,32.30207 104.82063,32.30207 Z M110.82063,35.50207 L110.62063,34.30207 C109.82063,35.18207 108.10063,36.30207 104.82063,36.30207 C102.38063,36.30207 97.62063,35.10207 97.62063,29.90207 C97.62063,25.78207 100.78063,23.50207 106.02063,23.50207 C107.18063,23.50207 110.42063,23.90207 110.42063,23.90207 L110.42063,22.14207 C110.42063,20.58207 109.06063,19.50207 106.42063,19.50207 C103.62063,19.50207 99.62063,21.10207 99.22063,21.10207 C98.98063,21.10207 98.82063,20.94207 98.82063,20.70207 C98.82063,20.62207 99.22063,17.50207 99.22063,17.50207 C99.26063,17.34207 99.42063,17.18207 99.62063,17.10207 C99.78063,17.02207 103.18063,15.50207 106.42063,15.50207 C111.66063,15.50207 115.22063,17.90207 115.22063,21.90207 L115.22063,32.30207 C115.22063,34.30207 115.62063,35.30207 115.62063,35.50207 C115.62063,35.74207 115.46063,35.90207 115.22063,35.90207 L111.22063,35.90207 C111.06063,35.90207 110.90063,35.78207 110.82063,35.50207 Z M120.90063,35.50207 L120.90063,19.10207 C120.90063,17.50207 120.50063,16.46207 120.50063,16.30207 C120.50063,16.06207 120.66063,15.90207 120.90063,15.90207 L124.90063,15.90207 C125.06063,15.90207 125.26063,16.06207 125.30063,16.30207 L125.54063,17.78207 C125.54063,17.78207 127.30063,15.50207 130.90063,15.50207 C137.30063,15.50207 138.90063,18.30207 138.90063,24.30207 L138.90063,35.50207 C138.90063,35.74207 138.74063,35.90207 138.50063,35.90207 L134.50063,35.90207 C134.26063,35.90207 134.10063,35.74207 134.10063,35.50207 L134.10063,24.30207 C134.10063,20.30207 132.90063,19.50207 130.90063,19.50207 C127.30063,19.50207 125.70063,21.10207 125.70063,24.30207 L125.70063,35.50207 C125.70063,35.74207 125.54063,35.90207 125.30063,35.90207 L121.30063,35.90207 C121.06063,35.90207 120.90063,35.74207 120.90063,35.50207 Z M144.46063,32.70207 L144.46063,16.70207 C144.46063,16.46207 144.62063,16.30207 144.86063,16.30207 L148.86063,15.90207 C149.10063,15.90207 149.26063,16.06207 149.26063,16.30207 L149.26063,32.70207 C149.26063,34.30207 149.66063,35.34207 149.66063,35.50207 C149.66063,35.74207 149.50063,35.90207 149.26063,35.90207 L145.26063,35.90207 C145.10063,35.90207 144.94063,35.74207 144.86063,35.50207 C144.86063,35.50207 144.46063,34.30207 144.46063,32.70207 Z M144.06063,10.30207 C144.06063,8.74207 145.30063,7.50207 146.86063,7.50207 C148.42063,7.50207 149.66063,8.74207 149.66063,10.30207 C149.66063,11.86207 148.42063,13.10207 146.86063,13.10207 C145.30063,13.10207 144.06063,11.86207 144.06063,10.30207 Z M154.54063,31.10207 C154.74063,31.10207 158.94063,32.30207 162.54063,32.30207 C164.30063,32.30207 164.94063,31.74207 164.94063,30.70207 C164.94063,29.42207 163.74063,28.90207 161.74063,28.30207 C158.10063,27.22207 154.14063,25.74207 154.14063,21.10207 C154.14063,17.70207 156.34063,15.50207 161.34063,15.50207 C164.94063,15.50207 167.74063,16.30207 167.74063,16.30207 C167.94063,16.38207 168.10063,16.54207 168.14063,16.70207 C168.14063,16.70207 168.54063,19.74207 168.54063,19.90207 C168.54063,20.14207 168.38063,20.30207 168.14063,20.30207 C167.94063,20.30207 164.74063,19.50207 161.34063,19.50207 C159.74063,19.50207 158.94063,20.06207 158.94063,21.10207 C158.94063,22.38207 160.14063,22.90207 162.14063,23.50207 C165.78063,24.58207 169.74063,26.02207 169.74063,30.70207 C169.74063,33.90207 167.14063,36.30207 162.54063,36.30207 C158.14063,36.30207 154.94063,35.10207 154.94063,35.10207 C154.74063,35.02207 154.58063,34.86207 154.54063,34.70207 C154.54063,34.70207 154.14063,31.66207 154.14063,31.50207 C154.14063,31.26207 154.30063,31.10207 154.54063,31.10207 Z" id="octanis" fill="#000000"></path>
            <circle id="path8076" fill="#000000" fill-rule="nonzero" cx="4.26137" cy="48.77133" r="3.5"></circle>
            <circle id="path8076-1" fill="#000000" fill-rule="nonzero" cx="27.39771" cy="52.62357" r="3.5"></circle>
            <circle id="path8076-4" fill="#000000" fill-rule="nonzero" cx="27.11365" cy="4.04401" r="3.5"></circle>
            <circle id="path8076-49" fill="#000000" fill-rule="nonzero" cx="6.65909" cy="20.23718" r="3.5"></circle>
            <path d="M26.59304,51.47486 L6.74786,20.38592" id="path8927" stroke="#000000" stroke-width="1.93012023"></path>
            <path d="M6.15909,20.7372 L26.61364,4.82811" id="path8935" stroke="#000000" stroke-width="2"></path>
        </g>
    </g>
</svg>