  0
SECTION
  2
BLOCKS
  0
ENDSEC
  0
SECTION
  2
ENTITIES
  0
LINE
  8
0
 10
20
 20
50
 11
26
 21
50
  0
LINE
  8
0
 10
26
 20
50
 11
26
 21
47
  0
LINE
  8
0
 10
26
 20
47
 11
32
 21
47
  0
LINE
  8
0
 10
32
 20
47
 11
32
 21
50
  0
LINE
  8
0
 10
32
 20
50
 11
38
 21
50
  0
LINE
  8
0
 10
38
 20
50
 11
38
 21
47
  0
LINE
  8
0
 10
38
 20
47
 11
44
 21
47
  0
LINE
  8
0
 10
44
 20
47
 11
44
 21
50
  0
LINE
  8
0
 10
44
 20
50
 11
50
 21
50
  0
LINE
  8
0
 10
50
 20
50
 11
50
 21
47
  0
LINE
  8
0
 10
50
 20
47
 11
56
 21
47
  0
LINE
  8
0
 10
56
 20
47
 11
56
 21
50
  0
LINE
  8
0
 10
56
 20
50
 11
67
 21
50
  0
LINE
  8
0
 10
67
 20
50
 11
67
 21
58
  0
LINE
  8
0
 10
67
 20
58
 11
70
 21
58
  0
LINE
  8
0
 10
70
 20
58
 11
70
 21
64
  0
LINE
  8
0
 10
70
 20
64
 11
67
 21
64
  0
LINE
  8
0
 10
67
 20
64
 11
67
 21
70
  0
LINE
  8
0
 10
67
 20
70
 11
70
 21
70
  0
LINE
  8
0
 10
70
 20
70
 11
70
 21
76
  0
LINE
  8
0
 10
70
 20
76
 11
67
 21
76
  0
LINE
  8
0
 10
67
 20
76
 11
67
 21
84
  0
LINE
  8
0
 10
67
 20
84
 11
56
 21
84
  0
LINE
  8
0
 10
56
 20
84
 11
56
 21
87
  0
LINE
  8
0
 10
56
 20
87
 11
50
 21
87
  0
LINE
  8
0
 10
50
 20
87
 11
50
 21
84
  0
LINE
  8
0
 10
50
 20
84
 11
44
 21
84
  0
LINE
  8
0
 10
44
 20
84
 11
44
 21
87
  0
LINE
  8
0
 10
44
 20
87
 11
38
 21
87
  0
LINE
  8
0
 10
38
 20
87
 11
38
 21
84
  0
LINE
  8
0
 10
38
 20
84
 11
32
 21
84
  0
LINE
  8
0
 10
32
 20
84
 11
32
 21
87
  0
LINE
  8
0
 10
32
 20
87
 11
26
 21
87
  0
LINE
  8
0
 10
26
 20
87
 11
26
 21
84
  0
LINE
  8
0
 10
26
 20
84
 11
20
 21
84
  0
LINE
  8
0
 10
20
 20
84
 11
20
 21
87
  0
LINE
  8
0
 10
20
 20
87
 11
14
 21
87
  0
LINE
  8
0
 10
14
 20
87
 11
14
 21
84
  0
LINE
  8
0
 10
14
 20
84
 11
3
 21
84
  0
LINE
  8
0
 10
3
 20
84
 11
3
 21
76
  0
LINE
  8
0
 10
3
 20
76
 11
0
 21
76
  0
LINE
  8
0
 10
0
 20
76
 11
0
 21
70
  0
LINE
  8
0
 10
0
 20
70
 11
3
 21
70
  0
LINE
  8
0
 10
3
 20
70
 11
3
 21
64
  0
LINE
  8
0
 10
3
 20
64
 11
0
 21
64
  0
LINE
  8
0
 10
0
 20
64
 11
0
 21
58
  0
LINE
  8
0
 10
0
 20
58
 11
3
 21
58
  0
LINE
  8
0
 10
3
 20
58
 11
3
 21
50
  0
LINE
  8
0
 10
3
 20
50
 11
14
 21
50
  0
LINE
  8
0
 10
14
 20
50
 11
14
 21
47
  0
LINE
  8
0
 10
14
 20
47
 11
20
 21
47
  0
LINE
  8
0
 10
20
 20
47
 11
20
 21
50
  0
LINE
  8
0
 10
159
 20
37
 11
165
 21
37
  0
LINE
  8
0
 10
165
 20
37
 11
165
 21
34
  0
LINE
  8
0
 10
165
 20
34
 11
171
 21
34
  0
LINE
  8
0
 10
171
 20
34
 11
171
 21
37
  0
LINE
  8
0
 10
171
 20
37
 11
177
 21
37
  0
LINE
  8
0
 10
177
 20
37
 11
177
 21
34
  0
LINE
  8
0
 10
177
 20
34
 11
188
 21
34
  0
LINE
  8
0
 10
188
 20
34
 11
188
 21
64
  0
LINE
  8
0
 10
188
 20
64
 11
177
 21
64
  0
LINE
  8
0
 10
177
 20
64
 11
177
 21
61
  0
LINE
  8
0
 10
177
 20
61
 11
171
 21
61
  0
LINE
  8
0
 10
171
 20
61
 11
171
 21
64
  0
LINE
  8
0
 10
171
 20
64
 11
165
 21
64
  0
LINE
  8
0
 10
165
 20
64
 11
165
 21
61
  0
LINE
  8
0
 10
165
 20
61
 11
159
 21
61
  0
LINE
  8
0
 10
159
 20
61
 11
159
 21
64
  0
LINE
  8
0
 10
159
 20
64
 11
148
 21
64
  0
LINE
  8
0
 10
148
 20
64
 11
148
 21
52
  0
LINE
  8
0
 10
148
 20
52
 11
151
 21
52
  0
LINE
  8
0
 10
151
 20
52
 11
151
 21
46
  0
LINE
  8
0
 10
151
 20
46
 11
148
 21
46
  0
LINE
  8
0
 10
148
 20
46
 11
148
 21
34
  0
LINE
  8
0
 10
148
 20
34
 11
159
 21
34
  0
LINE
  8
0
 10
159
 20
34
 11
159
 21
37
  0
LINE
  8
0
 10
185
 20
46
 11
185
 21
52
  0
LINE
  8
0
 10
185
 20
52
 11
188
 21
52
  0
LINE
  8
0
 10
188
 20
52
 11
188
 21
46
  0
LINE
  8
0
 10
188
 20
46
 11
185
 21
46
  0
LINE
  8
0
 10
88
 20
37
 11
94
 21
37
  0
LINE
  8
0
 10
94
 20
37
 11
94
 21
34
  0
LINE
  8
0
 10
94
 20
34
 11
100
 21
34
  0
LINE
  8
0
 10
100
 20
34
 11
100
 21
37
  0
LINE
  8
0
 10
100
 20
37
 11
106
 21
37
  0
LINE
  8
0
 10
106
 20
37
 11
106
 21
34
  0
LINE
  8
0
 10
106
 20
34
 11
112
 21
34
  0
LINE
  8
0
 10
112
 20
34
 11
112
 21
37
  0
LINE
  8
0
 10
112
 20
37
 11
118
 21
37
  0
LINE
  8
0
 10
118
 20
37
 11
118
 21
34
  0
LINE
  8
0
 10
118
 20
34
 11
124
 21
34
  0
LINE
  8
0
 10
124
 20
34
 11
124
 21
37
  0
LINE
  8
0
 10
124
 20
37
 11
130
 21
37
  0
LINE
  8
0
 10
130
 20
37
 11
130
 21
34
  0
LINE
  8
0
 10
130
 20
34
 11
141
 21
34
  0
LINE
  8
0
 10
141
 20
34
 11
141
 21
46
  0
LINE
  8
0
 10
141
 20
46
 11
144
 21
46
  0
LINE
  8
0
 10
144
 20
46
 11
144
 21
52
  0
LINE
  8
0
 10
144
 20
52
 11
141
 21
52
  0
LINE
  8
0
 10
141
 20
52
 11
141
 21
64
  0
LINE
  8
0
 10
141
 20
64
 11
130
 21
64
  0
LINE
  8
0
 10
130
 20
64
 11
130
 21
61
  0
LINE
  8
0
 10
130
 20
61
 11
124
 21
61
  0
LINE
  8
0
 10
124
 20
61
 11
124
 21
64
  0
LINE
  8
0
 10
124
 20
64
 11
118
 21
64
  0
LINE
  8
0
 10
118
 20
64
 11
118
 21
61
  0
LINE
  8
0
 10
118
 20
61
 11
112
 21
61
  0
LINE
  8
0
 10
112
 20
61
 11
112
 21
64
  0
LINE
  8
0
 10
112
 20
64
 11
106
 21
64
  0
LINE
  8
0
 10
106
 20
64
 11
106
 21
61
  0
LINE
  8
0
 10
106
 20
61
 11
100
 21
61
  0
LINE
  8
0
 10
100
 20
61
 11
100
 21
64
  0
LINE
  8
0
 10
100
 20
64
 11
94
 21
64
  0
LINE
  8
0
 10
94
 20
64
 11
94
 21
61
  0
LINE
  8
0
 10
94
 20
61
 11
88
 21
61
  0
LINE
  8
0
 10
88
 20
61
 11
88
 21
64
  0
LINE
  8
0
 10
88
 20
64
 11
77
 21
64
  0
LINE
  8
0
 10
77
 20
64
 11
77
 21
52
  0
LINE
  8
0
 10
77
 20
52
 11
74
 21
52
  0
LINE
  8
0
 10
74
 20
52
 11
74
 21
46
  0
LINE
  8
0
 10
74
 20
46
 11
77
 21
46
  0
LINE
  8
0
 10
77
 20
46
 11
77
 21
34
  0
LINE
  8
0
 10
77
 20
34
 11
88
 21
34
  0
LINE
  8
0
 10
88
 20
34
 11
88
 21
37
  0
LINE
  8
0
 10
73
 20
43
 11
-3
 21
43
  0
LINE
  8
0
 10
-3
 20
43
 11
-3
 21
-3
  0
LINE
  8
0
 10
-3
 20
-3
 11
73
 21
-3
  0
LINE
  8
0
 10
73
 20
-3
 11
73
 21
43
  0
LINE
  8
0
 10
32
 20
37
 11
32
 21
40
  0
LINE
  8
0
 10
32
 20
40
 11
38
 21
40
  0
LINE
  8
0
 10
38
 20
40
 11
38
 21
37
  0
LINE
  8
0
 10
38
 20
37
 11
32
 21
37
  0
LINE
  8
0
 10
44
 20
37
 11
44
 21
40
  0
LINE
  8
0
 10
44
 20
40
 11
50
 21
40
  0
LINE
  8
0
 10
50
 20
40
 11
50
 21
37
  0
LINE
  8
0
 10
50
 20
37
 11
44
 21
37
  0
LINE
  8
0
 10
20
 20
37
 11
20
 21
40
  0
LINE
  8
0
 10
20
 20
40
 11
26
 21
40
  0
LINE
  8
0
 10
26
 20
40
 11
26
 21
37
  0
LINE
  8
0
 10
26
 20
37
 11
20
 21
37
  0
LINE
  8
0
 10
0
 20
29
 11
0
 21
40
  0
LINE
  8
0
 10
0
 20
40
 11
14
 21
40
  0
LINE
  8
0
 10
14
 20
40
 11
14
 21
37
  0
LINE
  8
0
 10
14
 20
37
 11
3
 21
37
  0
LINE
  8
0
 10
3
 20
37
 11
3
 21
29
  0
LINE
  8
0
 10
3
 20
29
 11
0
 21
29
  0
LINE
  8
0
 10
67
 20
29
 11
67
 21
37
  0
LINE
  8
0
 10
67
 20
37
 11
56
 21
37
  0
LINE
  8
0
 10
56
 20
37
 11
56
 21
40
  0
LINE
  8
0
 10
56
 20
40
 11
70
 21
40
  0
LINE
  8
0
 10
70
 20
40
 11
70
 21
29
  0
LINE
  8
0
 10
70
 20
29
 11
67
 21
29
  0
LINE
  8
0
 10
67
 20
17
 11
67
 21
23
  0
LINE
  8
0
 10
67
 20
23
 11
70
 21
23
  0
LINE
  8
0
 10
70
 20
23
 11
70
 21
17
  0
LINE
  8
0
 10
70
 20
17
 11
67
 21
17
  0
LINE
  8
0
 10
0
 20
17
 11
0
 21
23
  0
LINE
  8
0
 10
0
 20
23
 11
3
 21
23
  0
LINE
  8
0
 10
3
 20
23
 11
3
 21
17
  0
LINE
  8
0
 10
3
 20
17
 11
0
 21
17
  0
LINE
  8
0
 10
56
 20
0
 11
56
 21
3
  0
LINE
  8
0
 10
56
 20
3
 11
67
 21
3
  0
LINE
  8
0
 10
67
 20
3
 11
67
 21
11
  0
LINE
  8
0
 10
67
 20
11
 11
70
 21
11
  0
LINE
  8
0
 10
70
 20
11
 11
70
 21
0
  0
LINE
  8
0
 10
70
 20
0
 11
56
 21
0
  0
LINE
  8
0
 10
0
 20
0
 11
0
 21
11
  0
LINE
  8
0
 10
0
 20
11
 11
3
 21
11
  0
LINE
  8
0
 10
3
 20
11
 11
3
 21
3
  0
LINE
  8
0
 10
3
 20
3
 11
14
 21
3
  0
LINE
  8
0
 10
14
 20
3
 11
14
 21
0
  0
LINE
  8
0
 10
14
 20
0
 11
0
 21
0
  0
LINE
  8
0
 10
20
 20
0
 11
20
 21
3
  0
LINE
  8
0
 10
20
 20
3
 11
26
 21
3
  0
LINE
  8
0
 10
26
 20
3
 11
26
 21
0
  0
LINE
  8
0
 10
26
 20
0
 11
20
 21
0
  0
LINE
  8
0
 10
32
 20
0
 11
32
 21
3
  0
LINE
  8
0
 10
32
 20
3
 11
38
 21
3
  0
LINE
  8
0
 10
38
 20
3
 11
38
 21
0
  0
LINE
  8
0
 10
38
 20
0
 11
32
 21
0
  0
LINE
  8
0
 10
44
 20
0
 11
44
 21
3
  0
LINE
  8
0
 10
44
 20
3
 11
50
 21
3
  0
LINE
  8
0
 10
50
 20
3
 11
50
 21
0
  0
LINE
  8
0
 10
50
 20
0
 11
44
 21
0
  0
LINE
  8
0
 10
159
 20
3
 11
165
 21
3
  0
LINE
  8
0
 10
165
 20
3
 11
165
 21
0
  0
LINE
  8
0
 10
165
 20
0
 11
171
 21
0
  0
LINE
  8
0
 10
171
 20
0
 11
171
 21
3
  0
LINE
  8
0
 10
171
 20
3
 11
177
 21
3
  0
LINE
  8
0
 10
177
 20
3
 11
177
 21
0
  0
LINE
  8
0
 10
177
 20
0
 11
188
 21
0
  0
LINE
  8
0
 10
188
 20
0
 11
188
 21
30
  0
LINE
  8
0
 10
188
 20
30
 11
177
 21
30
  0
LINE
  8
0
 10
177
 20
30
 11
177
 21
27
  0
LINE
  8
0
 10
177
 20
27
 11
171
 21
27
  0
LINE
  8
0
 10
171
 20
27
 11
171
 21
30
  0
LINE
  8
0
 10
171
 20
30
 11
165
 21
30
  0
LINE
  8
0
 10
165
 20
30
 11
165
 21
27
  0
LINE
  8
0
 10
165
 20
27
 11
159
 21
27
  0
LINE
  8
0
 10
159
 20
27
 11
159
 21
30
  0
LINE
  8
0
 10
159
 20
30
 11
148
 21
30
  0
LINE
  8
0
 10
148
 20
30
 11
148
 21
18
  0
LINE
  8
0
 10
148
 20
18
 11
151
 21
18
  0
LINE
  8
0
 10
151
 20
18
 11
151
 21
12
  0
LINE
  8
0
 10
151
 20
12
 11
148
 21
12
  0
LINE
  8
0
 10
148
 20
12
 11
148
 21
0
  0
LINE
  8
0
 10
148
 20
0
 11
159
 21
0
  0
LINE
  8
0
 10
159
 20
0
 11
159
 21
3
  0
LINE
  8
0
 10
185
 20
12
 11
185
 21
18
  0
LINE
  8
0
 10
185
 20
18
 11
188
 21
18
  0
LINE
  8
0
 10
188
 20
18
 11
188
 21
12
  0
LINE
  8
0
 10
188
 20
12
 11
185
 21
12
  0
LINE
  8
0
 10
88
 20
3
 11
94
 21
3
  0
LINE
  8
0
 10
94
 20
3
 11
94
 21
0
  0
LINE
  8
0
 10
94
 20
0
 11
100
 21
0
  0
LINE
  8
0
 10
100
 20
0
 11
100
 21
3
  0
LINE
  8
0
 10
100
 20
3
 11
106
 21
3
  0
LINE
  8
0
 10
106
 20
3
 11
106
 21
0
  0
LINE
  8
0
 10
106
 20
0
 11
112
 21
0
  0
LINE
  8
0
 10
112
 20
0
 11
112
 21
3
  0
LINE
  8
0
 10
112
 20
3
 11
118
 21
3
  0
LINE
  8
0
 10
118
 20
3
 11
118
 21
0
  0
LINE
  8
0
 10
118
 20
0
 11
124
 21
0
  0
LINE
  8
0
 10
124
 20
0
 11
124
 21
3
  0
LINE
  8
0
 10
124
 20
3
 11
130
 21
3
  0
LINE
  8
0
 10
130
 20
3
 11
130
 21
0
  0
LINE
  8
0
 10
130
 20
0
 11
141
 21
0
  0
LINE
  8
0
 10
141
 20
0
 11
141
 21
12
  0
LINE
  8
0
 10
141
 20
12
 11
144
 21
12
  0
LINE
  8
0
 10
144
 20
12
 11
144
 21
18
  0
LINE
  8
0
 10
144
 20
18
 11
141
 21
18
  0
LINE
  8
0
 10
141
 20
18
 11
141
 21
30
  0
LINE
  8
0
 10
141
 20
30
 11
130
 21
30
  0
LINE
  8
0
 10
130
 20
30
 11
130
 21
27
  0
LINE
  8
0
 10
130
 20
27
 11
124
 21
27
  0
LINE
  8
0
 10
124
 20
27
 11
124
 21
30
  0
LINE
  8
0
 10
124
 20
30
 11
118
 21
30
  0
LINE
  8
0
 10
118
 20
30
 11
118
 21
27
  0
LINE
  8
0
 10
118
 20
27
 11
112
 21
27
  0
LINE
  8
0
 10
112
 20
27
 11
112
 21
30
  0
LINE
  8
0
 10
112
 20
30
 11
106
 21
30
  0
LINE
  8
0
 10
106
 20
30
 11
106
 21
27
  0
LINE
  8
0
 10
106
 20
27
 11
100
 21
27
  0
LINE
  8
0
 10
100
 20
27
 11
100
 21
30
  0
LINE
  8
0
 10
100
 20
30
 11
94
 21
30
  0
LINE
  8
0
 10
94
 20
30
 11
94
 21
27
  0
LINE
  8
0
 10
94
 20
27
 11
88
 21
27
  0
LINE
  8
0
 10
88
 20
27
 11
88
 21
30
  0
LINE
  8
0
 10
88
 20
30
 11
77
 21
30
  0
LINE
  8
0
 10
77
 20
30
 11
77
 21
18
  0
LINE
  8
0
 10
77
 20
18
 11
74
 21
18
  0
LINE
  8
0
 10
74
 20
18
 11
74
 21
12
  0
LINE
  8
0
 10
74
 20
12
 11
77
 21
12
  0
LINE
  8
0
 10
77
 20
12
 11
77
 21
0
  0
LINE
  8
0
 10
77
 20
0
 11
88
 21
0
  0
LINE
  8
0
 10
88
 20
0
 11
88
 21
3
  0
ENDSEC
  0
SECTION
  2
OBJECTS
  0
DICTIONARY
  0
ENDSEC
  0
EOF
